<?xml version="1.0" standalone="no"?>
<!DOCTYPE svg PUBLIC "-//W3C//DTD SVG 20010904//EN"
 "http://www.w3.org/TR/2001/REC-SVG-20010904/DTD/svg10.dtd">
<svg version="1.0" xmlns="http://www.w3.org/2000/svg"
 width="1920.000000pt" height="452.000000pt" viewBox="0 0 1920.000000 452.000000"
 preserveAspectRatio="xMidYMid meet">

<g transform="translate(0.000000,452.000000) scale(0.100000,-0.100000)"
fill="#000000" stroke="none">
<path d="M1826 4086 c-56 -29 -59 -55 -8 -89 38 -24 94 -80 163 -161 96 -112
134 -153 268 -295 175 -184 230 -237 296 -287 28 -21 55 -42 60 -46 13 -10
105 -84 216 -175 25 -21 81 -66 125 -100 43 -34 93 -75 110 -90 95 -87 244
-211 354 -293 69 -52 159 -121 200 -155 165 -135 277 -223 318 -250 23 -15 42
-32 42 -36 0 -5 4 -9 10 -9 5 0 45 -28 88 -62 44 -35 112 -88 152 -118 39 -30
101 -77 136 -105 149 -117 416 -307 482 -344 51 -28 338 -224 367 -250 42 -39
102 -71 131 -71 13 0 41 10 62 23 20 13 45 26 54 30 9 3 24 17 33 31 20 31 8
55 -50 94 -22 15 -61 43 -86 62 -26 19 -59 43 -75 52 -55 34 -169 112 -424
291 -30 21 -79 54 -107 73 -29 19 -53 38 -53 43 0 4 -12 13 -26 20 -21 9 -101
68 -124 91 -3 3 -27 21 -55 40 -27 19 -57 41 -66 50 -35 32 -104 86 -233 185
-88 67 -113 86 -161 119 -27 19 -63 48 -80 66 -27 29 -86 73 -246 185 -68 48
-246 192 -251 203 -2 5 -30 28 -63 52 -33 24 -79 60 -102 80 -23 19 -60 51
-84 70 -23 19 -49 42 -58 50 -9 9 -77 63 -151 120 -74 57 -139 109 -145 115
-5 6 -37 31 -70 55 -33 24 -124 107 -202 183 -79 77 -157 151 -174 166 -17 14
-36 32 -43 40 -16 19 -131 141 -223 236 -97 100 -132 121 -207 127 -46 4 -67
0 -100 -16z"/>
<path d="M14955 3649 c-28 -26 -75 -64 -105 -84 -30 -20 -68 -50 -84 -66 -15
-16 -32 -29 -36 -29 -7 0 -73 -48 -100 -74 -8 -7 -37 -31 -65 -51 -50 -38 -90
-74 -260 -237 -49 -48 -110 -104 -135 -125 -77 -65 -252 -247 -373 -388 -42
-49 -105 -122 -139 -162 -35 -39 -89 -102 -120 -140 -31 -37 -102 -115 -157
-173 -56 -58 -101 -112 -101 -120 0 -8 -42 -51 -94 -95 -104 -88 -144 -147
-114 -169 9 -6 18 -23 20 -36 5 -38 91 -90 148 -90 25 0 50 4 56 8 17 11 164
184 184 215 10 16 52 59 93 96 74 66 90 84 190 210 27 34 53 61 57 61 5 0 11
9 15 20 7 21 114 130 128 130 11 0 51 46 79 90 13 19 36 46 53 60 100 83 354
337 355 354 0 5 20 29 45 53 25 24 45 48 45 53 0 12 204 229 256 271 23 19 73
58 110 86 38 29 78 61 89 72 37 34 196 161 215 171 11 6 25 20 31 32 9 18 7
24 -17 44 -16 13 -33 23 -39 24 -5 0 -23 7 -40 16 -16 9 -54 17 -84 18 -52 1
-57 -1 -106 -45z"/>
<path d="M12686 2250 c-20 -21 -42 -110 -50 -210 -3 -36 -8 -75 -12 -87 -3
-13 -3 -31 1 -40 4 -10 9 -61 11 -113 2 -52 8 -117 13 -145 6 -33 6 -54 -1
-62 -13 -16 -11 -255 3 -264 14 -8 21 -89 8 -89 -13 0 -41 -68 -33 -81 9 -16
110 -59 136 -59 13 0 33 -7 44 -15 30 -23 119 -16 189 15 11 5 38 11 60 14 80
11 140 27 177 46 21 11 44 20 50 20 14 0 176 57 200 70 10 6 23 10 29 10 5 0
36 12 67 27 31 14 75 30 97 34 83 16 100 22 118 38 11 9 24 16 30 16 18 2 90
35 107 50 15 13 162 65 184 65 6 0 19 9 29 20 12 14 29 20 61 20 24 0 48 6 54
13 6 7 41 19 77 27 36 8 71 20 77 27 6 7 17 13 24 13 13 0 85 29 126 51 11 5
19 5 23 -2 5 -6 11 -7 19 0 6 5 42 17 78 26 81 21 109 38 91 56 -7 7 -13 21
-13 30 0 24 -108 59 -183 59 -44 0 -65 -5 -84 -20 -14 -11 -32 -20 -39 -20
-11 0 -64 -20 -169 -65 -32 -14 -156 -58 -525 -185 -286 -99 -398 -140 -485
-177 -147 -64 -275 -103 -335 -103 -18 0 -20 8 -21 78 0 89 -22 289 -41 377
-8 38 -12 144 -13 289 l0 229 -30 19 c-41 24 -123 24 -149 -2z"/>
<path d="M6490 2029 c-86 -7 -138 -28 -158 -61 -14 -23 -14 -30 -2 -52 10 -20
12 -61 8 -183 -4 -87 -2 -279 2 -428 4 -148 8 -295 9 -325 0 -30 1 -63 2 -72
1 -26 0 -86 -1 -100 -1 -20 18 -177 31 -251 19 -105 35 -102 -251 -41 -354 75
-589 131 -805 189 -269 73 -558 149 -662 173 -109 26 -303 26 -329 0 -17 -16
-16 -19 2 -53 10 -19 24 -35 31 -35 7 0 16 -6 20 -14 14 -24 77 -56 110 -56
39 0 271 -45 333 -65 25 -8 144 -39 265 -70 205 -52 323 -84 630 -170 66 -18
165 -43 220 -55 55 -13 143 -33 195 -46 52 -12 160 -37 240 -54 80 -16 161
-35 181 -40 44 -12 124 12 140 41 5 10 16 19 23 19 14 0 66 62 66 79 0 5 -6
14 -13 18 -7 4 -30 42 -50 83 -57 114 -67 206 -60 575 4 165 8 399 10 520 6
300 -16 445 -68 445 -7 0 -22 8 -33 18 -17 14 -32 16 -86 11z"/>
</g>
</svg>
