<?xml version="1.0" standalone="no"?>
<!DOCTYPE svg PUBLIC "-//W3C//DTD SVG 20010904//EN"
 "http://www.w3.org/TR/2001/REC-SVG-20010904/DTD/svg10.dtd">
<svg version="1.0" xmlns="http://www.w3.org/2000/svg"
 width="1920.000000pt" height="1080.000000pt" viewBox="0 0 1920.000000 1080.000000"
 preserveAspectRatio="xMidYMid meet">

<g transform="translate(0.000000,1080.000000) scale(0.100000,-0.100000)"
fill="#000000" stroke="none">
<path d="M10210 10661 c0 -5 -17 -18 -37 -28 -34 -16 -45 -34 -114 -173 -71
-145 -87 -183 -119 -270 -7 -19 -23 -64 -37 -100 -45 -119 -115 -421 -133
-580 -16 -130 -25 -194 -48 -340 -22 -136 -35 -238 -58 -455 -23 -225 -42
-367 -53 -405 -6 -19 -11 -51 -11 -70 0 -19 -7 -66 -16 -105 -8 -38 -26 -117
-39 -175 -13 -58 -26 -118 -30 -135 -3 -16 -13 -61 -21 -100 -8 -38 -19 -96
-24 -128 -6 -33 -12 -62 -14 -66 -8 -12 -46 -207 -46 -233 0 -12 -7 -36 -15
-52 -29 -55 -18 -112 28 -142 69 -44 92 -46 155 -13 72 38 112 83 112 126 0
18 6 52 13 75 13 41 33 127 57 253 7 33 16 78 21 100 5 22 13 65 17 95 4 30
12 61 16 69 5 8 15 44 22 80 17 87 32 155 50 217 8 28 14 72 14 98 0 25 4 54
9 64 16 28 41 240 41 343 0 53 6 132 14 175 8 44 21 144 30 224 9 80 21 181
26 225 5 44 12 120 16 169 3 48 15 134 26 190 10 55 23 128 29 161 5 33 12 67
15 75 4 8 13 43 20 78 34 156 45 194 84 302 51 140 79 235 79 276 1 39 -26
131 -47 161 -18 23 -32 30 -32 14z"/>
<path d="M7447 9503 c-4 -3 -7 -15 -7 -26 0 -10 -7 -34 -15 -52 -18 -36 -16
-203 3 -510 6 -88 11 -185 12 -215 1 -56 -13 -428 -29 -740 -5 -96 -6 -189 -4
-207 3 -17 0 -55 -6 -85 -7 -29 -16 -161 -21 -293 -12 -301 -29 -536 -42 -552
-10 -13 34 -91 61 -108 29 -17 104 -15 156 6 76 29 87 64 91 287 2 97 8 294
14 437 5 143 15 508 21 811 12 500 11 566 -4 720 -17 168 -47 292 -84 335 -7
8 -13 24 -13 35 0 10 -7 28 -15 38 -8 11 -15 30 -15 41 0 43 -79 103 -103 78z"/>
<path d="M11587 9051 c-19 -21 -38 -54 -42 -72 -13 -67 -36 -165 -44 -194 -5
-16 -17 -57 -26 -90 -34 -115 -75 -230 -85 -233 -6 -2 -10 -13 -10 -24 0 -11
-6 -34 -14 -51 -8 -18 -26 -66 -41 -107 -15 -41 -36 -94 -46 -117 -11 -23 -19
-44 -19 -47 0 -3 -19 -47 -43 -98 -24 -51 -49 -109 -57 -128 -7 -19 -30 -72
-51 -116 -22 -45 -39 -88 -39 -96 0 -9 -7 -21 -15 -28 -8 -7 -15 -18 -15 -25
0 -8 -15 -33 -33 -57 -46 -61 -60 -101 -60 -169 1 -67 11 -84 61 -105 43 -18
80 -18 112 0 14 8 44 24 67 36 55 28 92 76 133 175 18 44 44 103 58 130 13 28
42 100 63 160 48 137 58 164 97 246 17 36 40 94 52 130 12 35 29 82 40 104 10
23 21 63 25 90 4 28 14 65 21 84 8 18 14 51 14 72 0 21 6 68 14 106 30 153 40
268 26 320 -15 53 -48 103 -85 127 -22 15 -25 14 -58 -23z"/>
<path d="M13968 8351 c-80 -31 -343 -238 -508 -399 -41 -41 -113 -108 -160
-150 -79 -73 -148 -137 -349 -328 -177 -169 -242 -223 -294 -248 -62 -29 -72
-39 -80 -83 -12 -60 7 -132 45 -170 32 -32 40 -35 99 -35 41 -1 75 4 94 15 31
16 110 89 155 142 14 17 48 50 75 75 44 40 100 98 226 236 20 21 47 48 60 60
13 12 103 105 199 208 96 102 178 186 182 186 5 0 8 6 8 13 0 12 22 36 179
192 44 44 81 85 81 90 0 6 18 34 40 63 33 43 40 61 40 96 0 61 -15 67 -92 37z"/>
<path d="M5288 7228 c-16 -31 -14 -115 5 -174 9 -27 32 -103 53 -169 60 -195
74 -239 83 -260 5 -11 24 -67 42 -125 18 -58 49 -157 70 -220 21 -63 41 -138
45 -167 6 -47 10 -53 54 -82 127 -83 260 -27 260 110 0 26 -15 67 -45 126 -25
48 -53 112 -61 140 -8 29 -19 55 -24 58 -4 2 -11 22 -15 42 -4 21 -24 75 -46
121 -21 46 -39 89 -39 97 0 8 -22 62 -50 120 -27 58 -50 112 -50 119 0 6 -15
27 -34 45 -19 18 -37 45 -41 58 -8 35 -73 111 -110 130 -16 9 -36 24 -43 34
-18 25 -39 24 -54 -3z"/>
<path d="M10530 6621 c-8 -5 -107 -12 -220 -16 -113 -3 -227 -10 -255 -15 -27
-6 -147 -19 -265 -30 -118 -11 -244 -25 -280 -30 -36 -5 -128 -14 -205 -20
-77 -6 -185 -15 -240 -21 -55 -5 -158 -14 -230 -19 -71 -5 -188 -19 -260 -30
-71 -12 -170 -27 -220 -35 -49 -8 -121 -21 -160 -30 -38 -9 -95 -20 -125 -24
-30 -3 -60 -9 -65 -13 -6 -3 -69 -18 -140 -32 -72 -15 -143 -31 -160 -36 -26
-8 -78 -22 -240 -61 -22 -5 -76 -21 -120 -34 -44 -14 -105 -32 -135 -41 -30
-9 -66 -20 -80 -24 -14 -5 -59 -18 -100 -30 -41 -13 -79 -26 -85 -31 -5 -5
-21 -9 -36 -9 -15 0 -71 -16 -126 -36 -54 -19 -121 -39 -148 -44 -28 -4 -80
-21 -115 -38 -92 -42 -189 -82 -203 -82 -24 0 -470 -222 -533 -265 -40 -27
-134 -78 -279 -152 -29 -14 -81 -41 -112 -57 -16 -8 -73 -36 -128 -61 -55 -26
-113 -53 -130 -62 -16 -8 -61 -31 -100 -50 -38 -19 -95 -47 -126 -64 -31 -16
-63 -29 -72 -29 -25 0 -120 -46 -161 -79 -21 -17 -42 -31 -47 -31 -11 0 -88
-166 -99 -214 -4 -21 -13 -43 -19 -49 -6 -6 -11 -24 -11 -39 0 -15 -7 -46 -16
-68 -10 -24 -14 -53 -11 -70 4 -16 -3 -69 -14 -117 -53 -227 -59 -304 -65
-828 -3 -291 -1 -418 7 -437 12 -29 14 -296 4 -513 -7 -149 -8 -247 -3 -442 3
-138 6 -154 25 -175 11 -13 24 -32 27 -44 8 -27 86 -61 156 -69 30 -3 71 -12
90 -20 35 -14 206 -31 403 -40 59 -3 165 -14 235 -25 70 -10 181 -24 247 -30
271 -24 322 -29 355 -34 130 -22 335 -47 447 -55 168 -11 2193 16 2863 38 267
9 547 28 562 37 6 4 58 13 116 20 59 8 134 18 167 23 33 5 98 14 145 20 47 6
114 17 150 25 36 8 92 20 125 26 33 6 80 16 105 22 25 6 74 16 110 23 36 7 79
18 95 23 17 6 66 18 110 28 44 9 94 20 110 24 17 5 50 13 75 19 25 5 79 18
120 29 41 11 107 27 145 36 66 15 129 33 270 75 33 10 93 33 134 50 41 17 90
31 110 31 20 0 46 7 58 15 12 8 50 21 85 28 34 8 87 28 116 45 29 18 58 32 65
32 7 0 21 7 31 15 11 8 27 15 36 15 18 0 138 45 222 84 31 14 68 26 82 26 15
0 34 4 44 9 36 18 93 41 103 41 6 0 25 11 43 25 18 14 40 25 49 25 9 0 56 21
104 47 92 50 132 70 196 97 20 9 53 30 72 48 53 47 214 138 247 138 10 0 37
14 61 31 36 25 51 30 75 24 17 -3 36 -13 43 -21 15 -19 44 -18 75 3 14 9 40
23 57 32 29 14 33 21 37 71 6 66 31 106 71 115 31 7 126 67 147 93 17 22 15
57 -4 95 -18 36 -73 97 -87 97 -5 0 -20 9 -34 20 -21 16 -35 18 -83 13 -57 -6
-58 -5 -74 26 -9 17 -14 36 -11 41 3 5 -2 42 -11 82 -24 109 -48 319 -64 543
-5 83 -17 179 -25 215 -22 99 -36 270 -33 415 2 124 -6 206 -38 395 -8 47 -14
112 -14 145 0 33 -7 94 -16 135 -8 41 -20 109 -24 151 -5 41 -14 88 -20 103
-5 15 -10 38 -10 50 0 13 -11 34 -25 48 -13 13 -29 35 -35 49 -6 13 -24 42
-40 64 -16 22 -29 50 -30 62 0 15 -15 32 -43 52 -24 16 -56 48 -72 71 -16 23
-41 48 -55 55 -15 8 -32 21 -40 29 -18 23 -97 56 -133 56 -20 0 -41 -10 -58
-26 l-27 -25 -48 25 c-96 50 -220 106 -233 106 -12 0 -132 36 -256 77 -27 9
-68 20 -90 24 -22 4 -58 12 -80 17 -22 6 -67 15 -100 22 -33 6 -80 15 -105 20
-25 6 -79 13 -120 16 -41 3 -84 10 -95 14 -11 5 -288 13 -615 19 -327 5 -602
12 -610 15 -8 3 -22 2 -30 -3z m650 -312 c162 0 365 -4 450 -10 85 -5 184 -11
220 -13 66 -4 173 -21 189 -30 5 -3 54 -12 109 -21 112 -16 199 -37 233 -56
13 -6 44 -18 69 -24 109 -31 260 -90 260 -102 0 -8 -12 -18 -27 -24 -14 -5
-50 -33 -78 -62 -47 -47 -188 -146 -269 -188 -17 -9 -56 -33 -86 -53 -66 -44
-93 -46 -109 -8 -11 25 -80 82 -100 82 -4 0 -20 9 -35 21 -17 13 -51 24 -92
29 -36 5 -73 15 -82 23 -41 35 -136 79 -171 79 -238 -5 -242 -4 -279 21 -73
48 -152 87 -178 87 -37 0 -132 -29 -168 -51 -56 -34 -104 -26 -187 33 -41 28
-78 57 -84 63 -16 19 -101 38 -144 32 -21 -2 -53 -11 -72 -20 -19 -8 -56 -22
-83 -30 -44 -14 -53 -14 -78 -1 -15 8 -35 25 -44 39 -8 13 -29 27 -46 31 -17
3 -45 15 -62 25 -21 13 -50 19 -92 19 -53 0 -68 -5 -110 -33 -27 -18 -63 -39
-81 -46 -17 -7 -39 -21 -49 -32 -9 -10 -21 -19 -27 -19 -5 0 -23 -6 -40 -13
-47 -20 -101 -37 -119 -37 -8 0 -31 -12 -51 -27 -20 -16 -55 -39 -78 -53 -23
-14 -55 -36 -71 -49 -25 -20 -32 -22 -52 -12 -12 7 -30 25 -39 40 -9 16 -31
34 -49 42 -29 11 -75 51 -189 163 -35 34 -37 56 -6 57 12 0 49 5 82 10 33 4
117 13 187 18 69 5 153 14 185 20 75 13 238 31 378 42 61 5 130 11 155 13 119
12 378 23 494 20 71 -1 139 2 150 7 12 4 32 6 46 3 14 -4 158 -6 320 -5z
m-2700 -225 c0 -4 -14 -34 -31 -68 -35 -68 -58 -98 -175 -221 -91 -96 -109
-105 -224 -105 -80 0 -132 -20 -145 -57 -7 -22 -156 -98 -186 -96 -12 1 -31
11 -43 22 -38 36 -128 71 -181 71 -96 0 -200 -46 -290 -127 -33 -29 -67 -60
-75 -67 -8 -7 -37 -38 -63 -69 -27 -32 -59 -60 -72 -63 -13 -3 -45 -33 -70
-65 -26 -33 -50 -58 -54 -57 -46 25 -108 48 -129 49 -15 0 -35 4 -45 8 -28 11
-158 -5 -197 -25 -19 -9 -72 -44 -117 -76 -79 -57 -114 -97 -238 -278 -11 -16
-25 -29 -31 -30 -5 0 -25 -16 -44 -35 -31 -32 -33 -38 -21 -56 8 -14 9 -25 3
-31 -19 -19 -632 8 -697 30 -16 6 -55 13 -85 17 -37 4 -66 14 -85 30 -29 23
-29 25 -15 51 10 17 49 44 109 76 52 27 104 56 115 64 11 8 29 14 39 14 11 0
40 11 66 24 25 13 66 32 91 41 25 9 52 21 60 26 8 4 32 17 54 29 21 12 63 38
94 58 75 50 79 53 225 123 71 34 140 71 155 83 61 49 130 86 161 86 9 0 41 16
71 36 29 19 76 39 104 45 27 5 60 16 73 24 12 8 29 15 37 15 9 0 30 6 48 14
112 48 163 66 187 66 15 0 31 4 36 9 6 5 62 25 125 45 63 20 169 55 235 77 66
22 140 44 165 48 25 5 69 18 98 29 29 12 62 22 72 22 11 0 48 9 82 20 202 66
243 77 403 105 168 29 262 49 310 64 35 11 95 14 95 5z m4651 -241 c6 -15 13
-30 17 -33 4 -3 18 -30 31 -60 32 -75 58 -228 64 -386 4 -72 13 -160 22 -195
8 -35 20 -147 25 -249 13 -237 26 -398 39 -480 6 -36 11 -100 11 -144 0 -43 4
-95 9 -115 14 -52 42 -332 50 -501 4 -80 13 -155 19 -167 16 -29 15 -105 0
-125 -7 -8 -35 -26 -63 -38 -116 -52 -160 -75 -184 -96 -14 -11 -63 -40 -109
-62 -45 -23 -105 -58 -133 -77 -28 -19 -56 -35 -62 -35 -15 0 -96 -39 -129
-62 -15 -10 -51 -27 -80 -37 -112 -39 -154 -58 -198 -86 -39 -25 -212 -84
-248 -85 -7 0 -31 -12 -53 -26 -23 -14 -59 -32 -80 -39 -36 -13 -146 -65 -210
-100 -14 -8 -59 -17 -100 -21 -58 -5 -86 -13 -129 -38 -51 -30 -117 -53 -345
-122 -49 -14 -108 -32 -130 -39 -22 -7 -74 -20 -115 -30 -41 -9 -97 -23 -125
-30 -27 -7 -71 -16 -96 -20 -26 -3 -71 -15 -100 -25 -30 -11 -76 -20 -104 -20
-27 -1 -70 -5 -95 -10 -25 -6 -80 -17 -123 -25 -43 -8 -83 -17 -89 -21 -18
-11 -116 -35 -178 -44 -30 -4 -80 -13 -110 -19 -88 -19 -525 -64 -645 -67 -60
-1 -195 -7 -300 -13 -351 -21 -608 -29 -950 -30 -187 -1 -497 -6 -690 -11
-781 -22 -1096 -19 -1300 10 -38 6 -97 12 -130 15 -33 3 -85 10 -115 15 -48 9
-243 29 -465 46 -38 3 -83 10 -98 16 -16 6 -63 12 -105 13 -144 4 -403 35
-440 53 -31 15 -39 25 -50 67 -8 31 -10 68 -6 95 22 143 20 597 -5 944 -8 105
-5 572 4 716 2 30 10 96 19 145 9 50 23 141 31 204 16 119 37 181 62 181 17 0
68 -26 108 -55 43 -31 202 -85 255 -85 14 -1 36 -7 50 -15 14 -8 44 -14 68
-15 24 0 52 -5 64 -11 11 -6 108 -15 216 -20 109 -5 228 -11 267 -14 38 -3 84
-1 102 4 19 5 104 5 205 0 105 -5 215 -5 278 1 58 5 235 12 394 15 159 4 303
11 320 16 17 5 58 6 91 2 33 -4 65 -6 70 -4 6 1 91 5 190 7 99 2 239 9 311 14
167 13 379 13 516 1 68 -7 118 -7 135 -1 15 6 105 14 198 20 94 5 208 15 255
20 47 6 123 16 170 21 108 14 371 59 382 65 5 3 41 9 81 14 73 8 166 23 247
41 65 13 181 29 290 39 91 8 181 28 196 43 4 4 22 7 40 7 18 0 45 5 61 11 15
6 48 15 73 20 154 35 245 52 315 61 44 5 115 21 158 34 43 13 88 24 101 24 12
0 31 7 42 15 10 8 30 15 45 15 14 0 29 4 35 9 10 11 70 27 149 41 27 5 51 14
53 20 2 5 11 10 21 10 9 0 50 11 91 25 201 68 286 95 300 95 8 0 24 7 34 15
11 8 33 15 49 15 17 0 45 11 63 25 19 14 52 32 75 40 23 9 97 47 164 85 67 39
126 70 130 70 5 0 16 6 24 14 9 7 39 26 66 41 28 15 59 35 70 45 11 9 55 35
99 56 43 22 95 54 116 72 21 17 43 32 48 32 5 0 15 7 22 15 7 8 19 15 27 15 8
0 25 13 38 28 13 15 41 37 62 47 21 11 61 44 89 73 28 28 56 52 62 52 6 0 20
14 32 30 27 38 57 39 71 3z"/>
<path d="M10495 4273 c-76 -15 -194 -48 -229 -63 -22 -10 -81 -58 -131 -105
-49 -48 -99 -91 -110 -96 -36 -17 -60 -34 -85 -56 -13 -13 -29 -23 -36 -23 -7
0 -28 -9 -47 -20 -66 -39 -215 -97 -278 -109 -35 -6 -104 -14 -154 -16 -122
-6 -116 -5 -155 -18 -19 -6 -45 -10 -58 -8 -13 1 -45 -2 -70 -8 -82 -20 -225
-28 -337 -20 -91 6 -115 5 -143 -8 -29 -14 -39 -14 -74 -2 -34 11 -47 11 -87
-2 -38 -13 -66 -14 -156 -7 -60 5 -137 11 -170 13 -72 4 -164 28 -208 55 -18
11 -41 20 -52 20 -11 0 -40 9 -64 20 -42 20 -48 20 -155 6 -61 -9 -131 -23
-156 -32 -51 -20 -184 -141 -206 -189 -8 -16 -20 -38 -26 -47 -9 -13 -9 -42 0
-130 11 -99 11 -119 -3 -158 -9 -24 -24 -54 -35 -65 -34 -36 -74 -137 -73
-185 1 -78 29 -160 66 -199 19 -20 40 -46 46 -58 21 -41 81 -63 169 -63 92 0
140 16 192 64 19 18 71 52 115 76 44 24 94 54 111 67 17 12 38 23 46 23 8 0
41 17 74 38 82 52 107 62 178 68 33 3 83 15 111 26 80 33 407 69 456 50 18 -7
46 -6 95 5 119 25 165 32 304 43 74 6 178 15 230 21 52 5 118 11 145 13 61 5
155 23 191 36 32 12 407 12 473 0 79 -15 158 -37 192 -54 18 -9 40 -16 50 -16
26 0 96 -29 150 -62 25 -15 53 -28 61 -28 8 0 44 -15 79 -32 59 -30 71 -32
149 -30 47 1 106 9 131 17 49 17 107 67 128 112 8 16 18 37 24 48 10 18 28
110 29 145 1 30 -23 126 -42 175 -26 64 -143 171 -221 201 -51 19 -54 22 -53
55 1 19 8 53 15 76 11 35 10 57 -4 141 -9 56 -25 118 -37 139 -11 21 -20 43
-20 50 0 7 -4 13 -9 13 -5 0 -22 10 -38 23 -55 45 -216 85 -288 70z"/>
</g>
</svg>
