<?xml version="1.0" encoding="utf-8"?>
<!DOCTYPE svg PUBLIC "-//W3C//DTD SVG 1.0//EN" "http://www.w3.org/TR/2001/REC-SVG-20010904/DTD/svg10.dtd">
<svg version="1.0" xmlns="http://www.w3.org/2000/svg" width="612px" height="612px" viewBox="0 0 612 612" preserveAspectRatio="xMidYMid meet">
 <g fill="#000000">
  <path d="M363 483.60 c-1 -0.80 -1.20 -1.65 -1.60 -6.40 -0.70 -7.70 -0.15 -33.45 0.80 -41.70 3.05 -25.45 10.10 -51.45 19.45 -71.50 4.70 -10.10 6.50 -13.85 8.55 -17.40 1.20 -2.10 2.65 -4.70 3.25 -5.75 1.15 -2.05 1.35 -3.35 0.50 -3.35 -0.75 0 -5.90 -4.95 -7 -6.70 -0.80 -1.30 -0.80 -1.60 -0.20 -2.80 1.50 -2.90 3.55 -2.65 7.10 0.85 4 3.90 6.70 5.50 10.95 6.45 3.10 0.65 4.25 0.70 7 0.20 5.80 -1 10.50 -4 13.80 -8.75 1.80 -2.70 3.25 -3.05 6.20 -1.60 6.25 3.10 11.40 4 17.65 3.10 3.30 -0.45 5.20 -2.10 5.75 -4.90 0.65 -3.50 -1.20 -4.70 -16.20 -10.05 -11.50 -4.10 -37.25 -12.45 -46.50 -15 -1.25 -0.35 -5.55 -1.55 -9.60 -2.70 -8.15 -2.25 -9.15 -2.65 -9.90 -4.15 -0.80 -1.40 -0.15 -3 1.95 -4.70 1 -0.80 4.10 -3.50 6.85 -6 2.80 -2.45 6.75 -5.85 8.75 -7.50 2 -1.65 5.65 -4.80 8.20 -7 2.50 -2.20 8.55 -7.50 13.50 -11.75 4.90 -4.25 12.20 -10.65 16.20 -14.15 4 -3.55 9.75 -8.60 12.80 -11.25 3 -2.70 6.85 -6.10 8.50 -7.60 1.65 -1.55 5.25 -4.80 8 -7.25 7.80 -6.95 15.55 -14.65 18.80 -18.60 3 -3.65 5.65 -8.55 6.25 -11.50 l0.35 -1.65 -2.95 0 c-9.80 0 -19.65 -2.55 -23.05 -5.85 -1.85 -1.80 -3.65 -6.45 -4 -10.30 -0.35 -3.35 -0.55 -3.40 -5.20 -1.80 -9.15 3.05 -15.45 7.65 -22.35 16.35 -1.25 1.60 -2 2.10 -3.15 2.10 -1.90 0 -3.45 -1.60 -3.45 -3.50 0 -4.05 -3.35 -6.45 -8.85 -6.50 -4.10 0 -6.55 1 -13.90 5.55 -7.55 4.75 -11.10 6.30 -17.15 7.55 -3.90 0.80 -5.90 0.95 -10.35 0.70 -10.75 -0.55 -19.05 -3.60 -36.95 -13.45 -13.50 -7.40 -19.50 -10.20 -26 -12.05 -9.65 -2.80 -17.75 -2.85 -29.35 -0.10 -12.95 3 -19.15 3.05 -28.30 0.10 -3.10 -1 -6.90 -2.40 -8.50 -3.10 -7.75 -3.45 -16.35 -6.70 -20.40 -7.70 -3.70 -0.95 -5.40 -1.10 -10 -0.90 -6.30 0.30 -9.20 1.20 -18.75 5.75 -17.55 8.45 -21.40 9.75 -28.75 9.80 -7.80 0.05 -12.55 -1.95 -24.25 -10.15 -11 -7.75 -18.65 -11.05 -23.45 -10.20 -4.35 0.80 -9.60 5.25 -12.65 10.75 -2.75 4.95 -23.20 49 -24.70 53.15 -1 2.70 -0.90 5.15 0.20 5.70 1.60 0.85 16.80 -2.85 30.65 -7.45 15.40 -5.10 38.30 -15.30 39.20 -17.50 0.30 -0.65 1.10 -1.50 1.85 -1.90 1.90 -1.10 3.40 -0.20 5.95 3.55 4.30 6.30 8.35 9.65 12.80 10.60 2.40 0.55 7.10 -0.85 13.65 -4.05 14.55 -7.05 29.30 -9.70 44.70 -8.15 7.20 0.75 8.80 1.45 8.80 4.05 0 1.85 -0.70 2.60 -3.25 3.45 -8 2.60 -20.30 12.45 -26.45 21.25 -2.65 3.75 -5.75 9.55 -7.95 14.65 -1.90 4.40 -2.75 4.75 -7.80 2.65 -11.25 -4.65 -24.30 -3.70 -33.60 2.40 -4.30 2.85 -7.95 6.55 -11.95 12.25 -12.25 17.35 -17.30 21.10 -36.70 27.30 -21.20 6.80 -33.90 12.20 -49.80 21.25 -8.30 4.70 -20.90 13.05 -25.90 17.20 -5 4.10 -4.80 8.15 0.50 11.70 7.30 4.80 26 14.45 36.90 19.05 3.15 1.35 6.45 2.70 7.25 3.10 11.85 5.25 44.30 15.75 45.45 14.70 0.20 -0.25 1.60 -4.30 3.05 -9.10 1.45 -4.75 3.80 -12.45 5.25 -17.15 1.40 -4.65 3.35 -11.10 4.30 -14.25 5.40 -17.80 6.75 -21.55 7.85 -21.95 1 -0.40 10.85 -0.95 19.20 -1.15 l3.65 -0.05 3.25 -6.25 c8.15 -15.55 18.60 -26.90 33.15 -35.95 2.45 -1.50 3.70 -2 4.60 -1.80 1.70 0.40 3 1.60 3 2.85 0 0.55 -1.85 4.15 -4.10 8.05 -7.80 13.25 -17.05 31.65 -22.40 44.50 -3.40 8.20 -10 25.95 -10 26.95 0 0.45 0.85 0.40 3.60 -0.30 5.55 -1.40 11.35 -1.70 13.25 -0.70 1.80 0.90 2.35 2.15 1.70 3.85 -0.25 0.65 -3 3.90 -6.15 7.20 -11.35 12.05 -19.10 20.95 -29.95 34.50 -7.90 9.85 -11.15 14.25 -10.80 14.55 0.15 0.20 2.40 -0.40 5 -1.25 5.65 -1.85 7.05 -1.95 8.05 -0.45 1.35 1.90 0.95 3.15 -2.85 8.75 -12.75 18.80 -20.45 38.35 -23.85 60.40 -1.05 7.10 -1.70 8.25 -4.50 8.25 -2.50 0 -3.15 -1.20 -2.75 -4.95 2 -18.85 9.65 -41.60 19.75 -58.65 1.65 -2.70 2.80 -4.90 2.60 -4.90 -0.20 0 -2.70 0.80 -5.60 1.75 -6.05 2 -6.55 2.05 -7.90 0.90 -2.55 -2.20 -1.95 -3.35 9.50 -18.30 10.85 -14.15 19.60 -24.65 30.85 -37.05 3.45 -3.80 6.35 -7.10 6.45 -7.30 0.30 -0.75 -3.55 0.55 -7.90 2.65 -4.55 2.25 -5.75 2.35 -7.10 0.75 -1.25 -1.45 -1.15 -2.15 1.40 -10.05 5.80 -17.85 11.70 -32.05 21.35 -51.35 3.90 -7.85 7.20 -14.45 7.30 -14.75 0.40 -1.15 -8.25 7.80 -11.15 11.50 -4.25 5.45 -6.80 9.60 -10 16.30 -1.50 3.15 -3.15 5.95 -3.65 6.25 -0.60 0.35 -5.15 0.75 -11.20 1 -5.60 0.20 -10.50 0.40 -10.90 0.40 -0.70 0.05 -5 13.45 -16.10 50.05 -3.20 10.65 -4.20 13.15 -5.55 13.95 -1.75 1.05 -24.85 -5.60 -41.65 -12.05 -2.45 -0.95 -5.75 -2.20 -7.25 -2.75 -13.25 -5.10 -38.70 -17.70 -46.50 -23.05 -11.35 -7.85 -12.05 -16.30 -2 -24.40 2.95 -2.40 16.35 -11.30 23 -15.35 13.25 -8 35.30 -17.90 47.70 -21.40 16 -4.60 19.35 -5.95 24.55 -9.85 3.80 -2.85 7.35 -6.60 10.50 -11.10 3.60 -5.10 7.65 -10.15 10.25 -12.75 5.45 -5.50 13.35 -10 21.45 -12.30 4.30 -1.25 5.15 -1.30 11.50 -1.05 4.95 0.20 7.70 0.55 10.05 1.30 1.80 0.55 3.60 1.05 4.05 1.05 0.55 0 1.50 -1.35 2.70 -3.85 4.25 -9.05 12.95 -19.70 20.65 -25.40 2.20 -1.65 3.95 -3.05 3.85 -3.15 -0.50 -0.50 -9.80 0 -13.25 0.70 -5.60 1.10 -9.45 2.45 -17.80 6.25 -13.50 6.05 -18.55 6.65 -26 3.15 -2.60 -1.25 -8.15 -6.10 -9.85 -8.65 l-0.80 -1.20 -7.65 3.75 c-14.70 7.25 -31.20 13.50 -45.65 17.35 -1.90 0.55 -5.90 1.65 -8.85 2.50 -6.80 1.90 -10.50 2.35 -13.40 1.55 -2.75 -0.75 -3.85 -1.65 -5.05 -4.25 -2 -4.30 -0.95 -8.80 4.30 -19.25 1.75 -3.45 4.40 -8.95 5.90 -12.25 1.55 -3.30 5.15 -11.15 8.05 -17.50 2.95 -6.30 6.50 -13.60 7.95 -16.20 3 -5.40 7.10 -9.90 10.80 -11.75 4.50 -2.30 12.10 -2.50 18.30 -0.45 4 1.30 6.60 2.75 13.50 7.70 11.75 8.40 17.80 10.85 25.40 10.30 5 -0.35 8.95 -1.70 18.85 -6.50 15.85 -7.65 23.15 -9.50 33.10 -8.40 4.65 0.55 10.50 2.25 16.10 4.80 13.05 5.85 16.20 7.05 20.70 8 6.85 1.40 12.50 0.95 24.60 -1.85 6 -1.45 7.60 -1.60 14.25 -1.60 13.90 0 20.35 2.30 46.25 16.65 14.20 7.80 23.20 10.75 33.25 10.70 8 0 14.40 -2.10 22.45 -7.25 8.25 -5.30 14.60 -7.15 20.40 -5.95 3.85 0.80 6.15 1.95 8.35 4.25 l1.70 1.75 3.35 -3.15 c6.55 -6.15 14.75 -10.60 22.55 -12.20 l3.80 -0.80 0.60 -4.40 c1.05 -7.95 3.85 -13.80 8.75 -18.25 5.15 -4.75 10.65 -6.45 19.05 -6 11.55 0.65 22.25 6.30 25.75 13.60 1.75 3.70 2 10.75 0.55 15.65 -2.50 8.35 -8.30 16.80 -15.80 23 -1.10 0.90 -1.75 1.80 -1.60 2.20 0.15 0.35 3.45 4.70 7.30 9.65 6.75 8.60 7.50 10 6.75 12 -0.55 1.40 -2.35 1.70 -12.35 2.30 -5.25 0.30 -9.65 0.60 -9.75 0.70 -0.45 0.45 0.70 2.60 3.40 6.25 3.65 4.85 3.95 5.95 2.40 7.60 -1 1.10 -1.90 1.40 -7.40 2.10 -15.85 2.05 -19.25 2.50 -19.45 2.65 -0.30 0.20 0.95 2.55 2.30 4.40 1.85 2.55 3.65 6.90 3.65 8.85 0 2.60 -0.85 4.15 -3.05 5.70 -3.10 2.15 -5.55 2.70 -14.85 3.25 -4.85 0.30 -8.95 0.60 -9.05 0.70 -0.10 0.10 1 1.50 2.40 3.10 8.55 9.75 9.20 12.80 2.95 14.15 -6.15 1.30 -16.65 2.55 -23.75 2.85 -4.55 0.20 -7.65 0.50 -7.65 0.80 0 0.30 0.55 1.70 1.25 3.15 1.40 2.95 2.75 7.75 2.75 9.70 0 0.75 -0.50 1.80 -1.20 2.45 -1.05 1 -1.85 1.15 -8.35 1.40 -6 0.20 -8.25 0.10 -13.30 -0.80 -3.30 -0.55 -6.30 -1.05 -6.55 -1.05 -0.70 0 -5.10 3.70 -5.10 4.30 0 0.30 5 1.95 11.10 3.70 9.15 2.60 11.30 3.05 12.35 2.65 0.70 -0.30 3.55 -1.50 6.30 -2.65 7.75 -3.20 20.10 -7.50 21.65 -7.50 0.75 0 1.75 0.35 2.30 0.75 0.85 0.65 0.90 1.40 0.85 8 -0.05 4 0.05 7.45 0.15 7.70 0.15 0.25 1.60 -0.20 3.15 -0.95 8.90 -4.30 17.75 -8 19.05 -8 2.20 0 3.10 1.15 3.10 3.90 0 2.75 -1.15 10.70 -2.30 16.15 l-0.80 3.85 1.30 2.75 c3 6.40 0.70 11.35 -7 15.15 -2.80 1.40 -3.30 1.45 -9.45 1.45 -6 0 -6.85 -0.15 -11 -1.60 l-4.50 -1.60 -1.50 1.65 c-2.65 2.85 -6.95 5.75 -10.55 7.10 -3.75 1.45 -9.35 1.85 -14.70 1.05 -2.60 -0.40 -2.80 -0.35 -3.30 0.75 -0.30 0.65 -1.75 3.30 -3.20 5.90 -6.45 11.45 -12.70 25.70 -17.60 40 -4.20 12.20 -8.70 32.75 -10.35 47.25 -1.20 10.15 -1.65 26.20 -1.10 36.65 0.55 9.40 0.50 10.30 -0.25 11.15 -1.10 1.20 -3.25 1.20 -4.70 0.05z m92.15 -173.20 c0.60 -2.55 1.45 -8.95 1.25 -9.15 -0.15 -0.15 -3.35 1.15 -7.10 2.85 -3.80 1.70 -6.70 3.20 -6.45 3.25 0.20 0.10 2.75 1.05 5.65 2.10 2.90 1.10 5.50 2 5.80 2 0.35 0.05 0.70 -0.45 0.85 -1.05z m-23.35 -12.10 c0.15 -2.65 0.10 -5.05 -0.05 -5.30 -0.25 -0.45 -3.70 0.70 -11.90 3.85 -1.85 0.70 -3.25 1.40 -3.15 1.55 0.30 0.30 14.50 5 14.70 4.85 0.05 -0.05 0.25 -2.30 0.40 -4.95z m-21.15 -19.65 c0.35 -0.55 -2.35 -6.15 -3.80 -7.85 l-1.20 -1.50 -2.45 2 c-1.35 1.05 -3 2.50 -3.75 3.20 -0.70 0.70 -1.75 1.65 -2.35 2.10 -2.35 1.85 -1.30 2.15 8 2.30 2.95 0.05 5.45 -0.05 5.55 -0.25z m13.65 -17.15 c10.55 -0.85 16.20 -1.70 16.20 -2.50 0 -0.70 -9.80 -10.50 -10.50 -10.50 -0.45 0 -6.30 4.75 -8 6.50 -0.15 0.15 -1.75 1.60 -3.60 3.20 -1.90 1.60 -3.40 3.10 -3.40 3.35 0 0.55 1.40 0.55 9.30 -0.05z m25.45 -20.75 c6.20 -0.30 9.45 -0.90 10.05 -1.80 0.65 -1.10 -0.45 -4 -2.70 -7.10 -1.30 -1.80 -2.60 -3.70 -2.90 -4.20 -0.50 -0.80 -0.85 -0.60 -3.75 2.15 -1.75 1.70 -4.10 3.80 -5.20 4.75 -3.15 2.60 -6.75 6.10 -6.75 6.60 0 0.25 1.20 0.30 2.65 0.15 1.40 -0.15 5.30 -0.40 8.60 -0.55z m22.55 -23.75 c3.80 -0.55 6.95 -1.05 7 -1.15 0.10 -0.10 -3.95 -7.15 -4.45 -7.65 -0.15 -0.20 -1.40 0.70 -2.70 1.90 -5.40 5.10 -7.40 6.90 -7.75 6.90 -0.75 0 -0.40 1 0.30 1 0.40 0 3.85 -0.45 7.60 -1z m22.05 -18.20 c0.15 -0.10 -0.75 -1.50 -1.95 -3.05 -1.15 -1.55 -2.50 -3.40 -2.90 -4.05 -0.40 -0.65 -0.90 -1.20 -1.05 -1.20 -0.15 0 -0.80 0.95 -1.45 2.15 -0.60 1.15 -1.95 3.20 -2.90 4.55 l-1.70 2.45 5.85 -0.30 c3.25 -0.20 6 -0.40 6.10 -0.55z"/>
  <path d="M516.80 333.75 c-11.15 -3.35 -12.10 -3.85 -11.60 -6.45 0.40 -2.05 1.20 -2.80 2.90 -2.80 1.85 0 20.20 5.35 21.80 6.30 2.20 1.40 0.80 6.30 -1.75 6.15 -0.50 0 -5.60 -1.45 -11.35 -3.20z"/>
  <path d="M541.30 250.45 c-1.50 -2.20 -0.55 -4.70 2.15 -5.45 1 -0.25 8.75 -0.95 17.25 -1.55 l15.50 -1.10 0.90 1.15 c1.15 1.40 1.15 3.10 0 4.50 -0.90 1.15 0 1 -18.60 2.50 -16.20 1.25 -16.25 1.25 -17.20 -0.05z"/>
  <path d="M302.25 245.50 c-1.15 -1.25 -1.10 -3.35 0.25 -11.25 0.60 -3.50 0.95 -6.45 0.85 -6.60 -0.15 -0.10 -0.65 0 -1.20 0.30 -0.50 0.30 -4.35 1.55 -8.55 2.85 -7.25 2.15 -7.70 2.25 -8.85 1.50 -1.55 -1 -2.10 -3 -1.25 -4.60 0.70 -1.25 0.90 -1.30 18.65 -6.70 6.60 -2 6.90 -2.10 8.15 -1.30 0.70 0.50 1.40 1.20 1.55 1.55 0.15 0.40 -0.30 3.60 -1 7.10 -0.70 3.55 -1.40 7.65 -1.60 9.15 -0.55 4.90 -1.60 7.75 -3 8.40 -1.85 0.85 -2.95 0.75 -4 -0.40z"/>
  <path d="M322.55 206.55 c-0.60 -0.60 -1.05 -1.45 -1.05 -1.95 0 -3 5.10 -13.80 9.05 -19.05 3 -4.05 4.55 -4.60 6.40 -2.25 1.45 1.85 1.35 2.70 -0.80 5.75 -2.65 3.85 -5.15 8.40 -4.75 8.65 0.20 0.10 3.70 -1.15 7.80 -2.75 4.10 -1.65 7.85 -2.95 8.30 -2.95 2.05 0 3.30 3.75 1.90 5.65 -0.70 0.90 -21.70 9.35 -24.25 9.70 -1.10 0.20 -1.85 -0.05 -2.60 -0.80z"/>
  <path d="M543.20 169.10 c-1.25 -1 -1.85 -2.60 -1.40 -3.75 0.35 -1 5.60 -4.45 30.45 -20.15 16.35 -10.30 15.70 -9.95 17.40 -9.25 1.60 0.60 2.35 2.25 1.85 4.05 -0.40 1.55 0.40 1 -27.75 18.80 -20.20 12.70 -18.60 11.90 -20.55 10.30z"/>
 </g>
 <g fill="#ffffff">
  <path d="M455.90 302.50 c-0.15 -0.80 -0.05 -1.50 0.20 -1.50 0.20 0 0.40 0.70 0.40 1.50 0 0.85 -0.10 1.50 -0.20 1.50 -0.10 0 -0.30 -0.65 -0.40 -1.50z"/>
  <path d="M431.60 295.15 c-0.10 -1.85 -0.20 -2.05 -1.20 -1.85 -1.05 0.20 -1.05 0.20 -0.15 -0.25 1.40 -0.60 1.85 0 1.60 2.25 l-0.20 1.95 -0.05 -2.10z"/>
  <path d="M400.15 278.65 c0.45 -0.10 1.25 -0.10 1.75 0 0.45 0.15 0.05 0.25 -0.90 0.25 -0.95 0 -1.35 -0.10 -0.85 -0.25z"/>
  <path d="M396 278.15 c0 -0.55 0.60 -1.30 1.75 -2.15 1 -0.70 1 -0.70 0.10 0.35 -0.55 0.60 -0.80 1.35 -0.60 1.60 0.15 0.30 -0.05 0.55 -0.45 0.55 -0.45 0 -0.80 -0.15 -0.80 -0.35z"/>
  <path d="M399.55 274.70 c0.40 -0.60 1.90 -2.05 3.40 -3.20 2.40 -1.90 2.75 -2.05 3.45 -1.35 0.70 0.75 0.65 0.75 -0.35 0.50 -0.85 -0.20 -1.65 0.20 -3.20 1.70 -1.15 1.05 -2.55 2.30 -3.10 2.70 -0.90 0.65 -0.90 0.65 -0.20 -0.35z"/>
  <path d="M415 261.55 c0 -0.25 1.50 -1.75 3.40 -3.35 1.85 -1.60 3.45 -3.05 3.60 -3.20 1.50 -1.50 7.55 -6.50 7.90 -6.50 0.25 0 1.90 1.35 3.65 3.05 l3.20 3.05 -3.25 -2.80 c-1.80 -1.55 -3.45 -2.80 -3.65 -2.80 -0.20 0 -3.55 2.75 -7.35 6.15 l-6.95 6.10 2.60 0.30 2.60 0.30 -2.85 0.05 c-1.60 0.05 -2.90 -0.10 -2.90 -0.35z"/>
  <path d="M425.15 261.15 c0.45 -0.10 1.25 -0.10 1.75 0 0.45 0.15 0.05 0.25 -0.90 0.25 -0.95 0 -1.35 -0.10 -0.85 -0.25z"/>
  <path d="M438.65 259.65 c1.15 -0.30 1.10 -0.65 -0.70 -2.80 -0.85 -1 -1.20 -1.70 -0.75 -1.55 0.40 0.15 1.35 1.10 2.10 2.05 1.05 1.40 1.20 1.85 0.65 2.20 -0.40 0.25 -1.05 0.40 -1.45 0.40 -0.55 -0.05 -0.50 -0.15 0.15 -0.30z"/>
  <path d="M438.50 241.10 c0 -0.20 1.20 -1.50 2.65 -2.85 l2.60 -2.50 -2.45 2.60 c-2.35 2.45 -2.40 2.55 -1.25 2.80 1.10 0.20 1.10 0.20 -0.15 0.30 -0.80 0 -1.40 -0.15 -1.40 -0.35z"/>
  <path d="M447.15 240.65 c0.75 -0.10 1.85 -0.10 2.50 0 0.60 0.10 0 0.20 -1.40 0.20 -1.35 0 -1.90 -0.10 -1.10 -0.20z"/>
  <path d="M454.15 240.15 c0.45 -0.10 1.25 -0.10 1.75 0 0.45 0.15 0.05 0.25 -0.90 0.25 -0.95 0 -1.35 -0.10 -0.85 -0.25z"/>
  <path d="M457.95 233.90 c-0.85 -0.70 -3.20 -4.65 -2.55 -4.20 0.45 0.25 3.75 4.80 3.50 4.80 -0.15 0 -0.55 -0.30 -0.95 -0.60z"/>
  <path d="M449.50 230.85 c0 -0.10 0.75 -0.80 1.65 -1.65 l1.60 -1.45 -1.45 1.65 c-1.40 1.50 -1.80 1.85 -1.80 1.45z"/>
  <path d="M453.05 228.15 c-0.05 -1.20 0.65 -1.55 1.25 -0.55 0.20 0.30 0.15 0.40 -0.20 0.20 -0.30 -0.15 -0.65 0.10 -0.75 0.55 -0.20 0.70 -0.25 0.65 -0.30 -0.20z"/>
  <path d="M464 217.60 c0 -0.25 0.70 -0.35 1.50 -0.20 0.85 0.10 1.50 0.30 1.50 0.40 0 0.10 -0.65 0.20 -1.50 0.20 -0.80 0 -1.50 -0.20 -1.50 -0.40z"/>
  <path d="M468.75 213.25 c0.55 -0.40 2.05 -1.80 3.40 -3.10 1.70 -1.65 2.55 -2.15 2.90 -1.75 0.25 0.35 0.30 0.50 0.15 0.35 -0.20 -0.10 -1.60 0.85 -3.15 2.20 -1.55 1.30 -3.15 2.55 -3.55 2.75 -0.40 0.20 -0.30 0 0.25 -0.45z"/>
  <path d="M482.50 199.30 c0 -0.10 0.35 -0.45 0.75 -0.80 0.60 -0.50 0.75 -0.50 0.75 0.20 0 0.45 -0.35 0.80 -0.75 0.80 -0.40 0 -0.75 -0.10 -0.75 -0.20z"/>
  <path d="M487.40 199.15 c0.60 -0.10 1.60 -0.10 2.25 0 0.60 0.10 0.10 0.20 -1.15 0.20 -1.25 0 -1.75 -0.10 -1.10 -0.20z"/>
  <path d="M487.55 191.65 c0.80 -1.35 1.25 -1.45 1.65 -0.35 0.20 0.55 0.10 0.75 -0.40 0.55 -0.35 -0.15 -0.95 0 -1.30 0.30 -0.40 0.40 -0.40 0.25 0.05 -0.50z"/>
 </g>
</svg>