<svg version="1.1" id="Layer_1" xmlns="http://www.w3.org/2000/svg" xmlns:xlink="http://www.w3.org/1999/xlink" x="0px" y="0px"
	 width="100%" viewBox="0 0 1024 560" enable-background="new 0 0 1024 560" xml:space="preserve">
<path fill="#000000" opacity="1.000000" stroke="none" 
	d="
M1.000000,429.449982 
	C7.398003,419.148254 13.000804,417.136139 24.126423,421.846588 
	C38.862633,428.085724 53.739914,433.946533 68.896935,439.027679 
	C72.364037,440.189972 76.068024,441.168671 79.735466,441.996704 
	C88.271347,443.923920 96.570198,447.201630 103.978958,451.953857 
	C110.626068,456.217529 118.039726,458.511719 125.189514,461.451263 
	C129.399750,463.182281 133.763733,464.682739 138.476166,465.243744 
	C141.626434,465.618805 143.213730,464.690948 144.554337,462.345978 
	C148.033234,456.260834 147.111252,450.334839 143.129440,445.026672 
	C138.373886,438.687042 132.897614,432.884857 128.195007,426.509460 
	C122.129791,418.286835 113.598854,412.545227 107.089539,404.843475 
	C91.527847,386.431000 84.470009,365.856354 91.303993,341.715149 
	C94.314758,331.079529 97.834419,320.837463 105.614006,312.578735 
	C106.991058,311.116882 107.283173,309.006073 107.682030,307.037598 
	C110.325600,293.990997 114.319008,281.262878 119.094215,268.936066 
	C126.023285,251.049225 136.319565,235.422928 154.678497,226.932816 
	C157.571091,225.595123 160.084839,223.773468 162.075836,221.225494 
	C164.218933,218.482849 166.354065,216.033325 170.272552,215.268906 
	C172.335495,214.866486 174.157608,212.484283 174.665741,209.746109 
	C176.049011,202.292099 180.467850,197.493912 186.435852,196.687286 
	C193.176590,195.776215 198.528595,199.291367 202.500000,205.931137 
	C208.326401,215.672302 211.912262,226.446960 217.093262,236.406982 
	C224.884872,251.385651 233.567810,265.955994 248.977692,274.906006 
	C260.564911,281.635834 268.089874,292.771545 277.293610,302.083130 
	C281.506500,306.345367 285.806427,310.518982 289.547638,316.455902 
	C291.359833,311.373108 291.424103,307.172638 291.933289,303.027771 
	C294.110260,285.306335 297.530029,267.654816 298.394958,249.875534 
	C299.516968,226.812561 299.460022,203.612030 298.322174,180.549088 
	C297.628937,166.497787 298.746857,152.384460 296.780701,138.370544 
	C296.350891,135.306839 295.185455,132.572433 294.108887,129.935089 
	C285.956879,109.964821 286.229553,89.478546 289.959167,68.797859 
	C291.687531,59.213936 300.124207,53.469009 309.658661,54.920422 
	C311.308929,55.171635 312.369446,55.124729 313.656219,53.983475 
	C324.156433,44.670589 333.429382,46.911819 340.516266,59.552280 
	C346.247528,69.774742 351.462311,80.285133 356.127106,91.069618 
	C363.071533,107.124344 372.494293,121.651169 382.870941,135.756989 
	C389.376587,144.600677 396.890106,153.075195 400.268127,164.016144 
	C401.913361,169.344772 406.583435,172.919998 409.157471,177.785980 
	C411.775269,182.734756 414.665894,187.539215 417.547882,192.601624 
	C422.599030,190.048599 422.562866,184.423660 425.389954,180.677231 
	C428.439667,176.635742 431.003662,172.161682 434.232056,168.177643 
	C438.842499,162.488113 442.179962,156.132507 445.423004,149.534027 
	C447.778351,144.741684 450.059814,139.680771 453.130646,135.177979 
	C459.001892,126.568863 462.254395,116.853439 465.246124,107.010445 
	C470.978088,88.151917 476.295715,69.182083 479.925201,49.792892 
	C481.045441,43.808250 481.183838,37.659851 482.628815,31.701567 
	C483.760284,27.036032 484.670441,22.315914 487.354126,18.198568 
	C491.045990,12.534420 496.990967,10.338295 503.693268,12.184903 
	C510.798004,14.142382 514.307983,17.947243 514.247986,25.349987 
	C514.171814,34.758003 513.358276,44.110081 511.880310,53.491158 
	C510.212433,64.077599 511.253662,74.953384 511.649292,85.698349 
	C511.815125,90.201431 512.353088,94.690804 512.779663,99.890747 
	C518.038208,95.231499 520.054382,89.262627 523.564697,84.348839 
	C529.772827,75.658379 534.555176,66.357628 536.936096,55.842896 
	C538.305542,49.794815 537.155823,43.606674 538.538635,37.571537 
	C539.906921,31.599764 541.074463,25.569098 542.015320,19.515341 
	C543.396790,10.626386 550.166260,6.252395 556.777588,1.247467 
	C559.700012,1.000000 562.400024,1.000000 565.550049,0.999998 
	C567.367126,1.948501 568.810120,2.805197 570.087646,3.862060 
	C574.615601,7.608013 577.414307,11.968058 577.447632,18.329550 
	C577.514099,30.994505 575.768127,43.441635 574.415161,55.968914 
	C573.668701,62.880653 574.328247,69.947037 574.395447,76.943298 
	C574.554932,93.552147 574.512878,110.158775 574.881470,126.771744 
	C575.140991,138.468704 572.832642,150.200836 572.302368,161.945786 
	C572.011963,168.376373 570.431519,174.653854 570.306030,181.777100 
	C572.136169,180.758759 573.799377,180.302490 574.766296,179.222702 
	C584.394348,168.471161 595.664612,159.408997 604.921448,148.144394 
	C611.964417,139.573822 620.385986,131.846893 628.677612,124.193672 
	C635.217529,118.157295 641.191650,111.421791 648.153625,105.844536 
	C659.261536,96.945946 668.949829,86.445206 680.657959,78.166504 
	C686.065247,74.343079 691.162781,69.618469 695.457642,64.270226 
	C697.723206,61.448952 700.376831,58.997757 703.539185,56.953781 
	C708.285156,53.886330 711.906189,49.418350 715.890686,45.413082 
	C721.632996,39.640884 727.867432,38.836147 734.749817,42.650146 
	C740.579773,45.880917 742.860535,52.872421 742.137573,60.175797 
	C741.531738,66.296432 737.541138,69.898544 733.760986,73.093033 
	C723.173157,82.040474 714.177795,92.704704 703.112000,101.082977 
	C689.280823,111.555016 676.434204,123.203560 663.552734,134.764389 
	C652.210327,144.943970 641.221619,155.614868 630.956116,166.870804 
	C619.749329,179.158859 607.980896,190.797592 595.657959,201.918015 
	C588.997375,207.928635 582.689880,214.425125 575.515320,219.748505 
	C565.922119,226.866486 565.522522,236.805771 564.995544,247.152008 
	C564.476318,257.346802 563.498596,267.520569 562.603516,277.693115 
	C561.935364,285.286743 560.873474,292.849518 560.345703,300.450958 
	C558.936829,320.739838 554.107117,340.317688 548.143616,359.638580 
	C542.907837,376.601990 528.096741,380.999878 513.404175,377.125824 
	C512.926575,376.999939 512.489014,376.573669 512.025940,376.562103 
	C498.857452,376.233185 495.682098,365.592957 493.007996,356.260529 
	C488.113220,339.177856 489.260071,321.537903 492.989319,304.347351 
	C495.109619,294.573547 498.286957,284.955658 501.192871,275.327026 
	C504.500488,264.367401 509.136353,253.982437 513.190186,243.383987 
	C515.855774,236.415024 521.284119,230.550674 526.594727,225.093552 
	C529.477783,222.130997 531.785583,218.642990 535.158508,216.104355 
	C537.068481,214.666824 537.599121,212.402252 537.761292,209.905899 
	C538.972534,191.259979 540.047791,172.597260 541.763062,153.994888 
	C542.859497,142.103622 543.723999,130.235382 543.598083,118.301201 
	C543.579590,116.552956 544.162781,114.649231 542.885193,113.049248 
	C540.814880,112.970673 540.531250,114.689957 539.825012,115.906319 
	C536.324585,121.935143 532.587952,127.803329 528.433167,133.410370 
	C523.386536,140.221054 508.877716,143.062881 501.867401,138.296295 
	C498.331696,135.892242 493.955383,134.626968 491.307587,130.069626 
	C489.496613,133.241730 487.757782,135.786850 486.511475,138.553802 
	C479.679779,153.720551 471.142609,167.988434 462.754852,182.278732 
	C458.986725,188.698517 453.417786,194.188004 449.897278,200.882111 
	C443.895142,212.294968 435.605560,222.245026 429.473541,233.560867 
	C427.741913,236.756332 429.234589,239.837219 429.849792,242.689850 
	C432.525696,255.097031 435.364716,267.462219 437.453827,279.992981 
	C438.865845,288.462616 440.557831,296.886322 442.176361,305.320648 
	C445.127167,320.697235 446.923126,336.030701 442.958801,351.582855 
	C439.023224,367.022186 427.548492,373.898132 411.885162,371.387451 
	C401.068634,369.653625 396.376709,362.085236 394.128052,353.735809 
	C388.980072,334.621033 383.090515,315.463531 383.252472,295.352112 
	C383.350769,283.149841 384.512909,271.109192 388.156830,259.216064 
	C390.960754,250.064590 392.666107,240.584167 396.147919,231.564102 
	C397.472931,228.131470 395.200653,224.417191 394.388062,220.946381 
	C391.574097,208.926880 387.303467,197.474319 378.713165,188.159958 
	C376.219208,185.455750 376.472809,181.549973 374.576965,178.625748 
	C368.386444,169.077225 362.095642,159.593689 355.637878,149.772552 
	C353.223969,151.636200 352.796722,153.952225 352.111237,156.058365 
	C350.523193,160.937576 347.137878,164.665512 343.974915,168.447754 
	C340.937042,172.080490 336.383362,171.150360 332.275024,171.211212 
	C326.347595,171.299011 326.198395,171.796387 326.789185,177.537354 
	C327.705200,186.438599 327.539551,195.395416 327.424347,204.348541 
	C327.240631,218.630447 327.481628,232.917587 327.328552,247.200211 
	C327.196991,259.474640 324.873871,271.538239 323.369476,283.679047 
	C321.976562,294.920258 320.267853,306.111450 319.307800,317.420807 
	C318.426880,327.798187 317.269135,338.207367 314.668549,348.359772 
	C313.776489,351.842133 316.110748,354.373566 317.414429,357.093323 
	C321.553955,365.729401 326.271912,374.094177 330.257629,382.796783 
	C338.080383,399.877380 345.610199,417.093170 353.149597,434.301880 
	C355.256653,439.111267 354.804474,444.422729 355.034546,449.480347 
	C355.720428,464.554901 356.032684,479.640778 352.460632,494.518677 
	C349.907104,505.154236 344.245819,513.121887 334.030823,517.491455 
	C332.215912,518.267822 330.275940,519.212219 328.375519,519.254028 
	C315.143463,519.545776 302.642639,516.769287 291.780609,508.892120 
	C288.444366,506.472687 286.616180,502.480194 285.166321,498.576538 
	C279.335693,482.877991 276.905426,466.511627 277.164368,449.900940 
	C277.391449,435.332336 278.912415,420.786591 279.740021,406.223846 
	C280.575623,391.521088 281.828705,376.875854 284.630737,362.392792 
	C285.320709,358.826508 283.532990,355.873871 281.582642,353.154022 
	C274.143250,342.779602 265.340973,333.522003 257.285370,323.655396 
	C251.220413,316.227020 244.229111,309.682129 238.064606,302.375458 
	C236.262299,300.239227 233.638535,299.451172 231.433105,298.024841 
	C222.896942,292.504120 215.826523,285.324524 208.445602,277.967834 
	C204.977661,285.606903 199.286957,290.947906 194.192032,296.796234 
	C190.569946,300.953918 178.411392,300.751953 172.713318,297.585876 
	C161.556549,291.386780 153.852112,282.396118 149.950043,269.793152 
	C145.016388,274.382233 144.062195,280.723907 141.649338,286.181213 
	C139.460907,291.130951 138.810059,296.737518 137.075623,301.918671 
	C135.830444,305.638306 137.057648,307.037323 140.610367,307.823730 
	C150.998199,310.123199 160.696747,314.036072 167.552933,322.593903 
	C176.708694,334.022064 183.724747,346.782135 184.857346,361.553284 
	C185.463547,369.459534 181.574799,376.862885 177.229767,383.691711 
	C171.853485,392.141327 164.537781,397.340302 154.396896,397.051392 
	C149.187164,396.902954 144.008804,395.310120 138.842865,394.241364 
	C137.743073,394.013885 136.772415,393.158936 135.512222,393.640350 
	C134.661499,394.591431 135.563461,395.179688 136.092834,395.645020 
	C150.782837,408.557678 162.024933,424.134918 171.348541,441.194916 
	C172.335510,443.000824 172.184402,445.022705 172.361008,447.019165 
	C173.593292,460.949432 170.490875,473.657013 161.550400,484.652924 
	C165.023209,488.915863 168.436096,492.518585 170.278381,497.274200 
	C173.491577,505.568573 173.127777,513.706909 169.882385,521.848389 
	C166.732147,529.751221 162.953506,537.221497 156.406906,542.993713 
	C149.334045,549.229919 141.128677,549.866943 132.875458,546.898254 
	C122.327759,543.104309 112.116371,537.806641 105.703522,528.377014 
	C97.244789,515.939209 94.381287,501.939392 99.923172,487.331879 
	C101.768631,482.467590 100.498657,480.565735 95.867935,479.147827 
	C80.702728,474.504425 65.928986,468.658356 50.481503,464.843140 
	C38.628624,461.915680 28.249577,455.456329 17.614475,449.747162 
	C11.829173,446.641479 5.833257,443.681854 1.278750,438.188782 
	C1.000000,435.299988 1.000000,432.599976 1.000000,429.449982 
M732.602051,69.093361 
	C734.019836,67.686760 735.472168,66.313004 736.848999,64.867386 
	C740.965942,60.544785 740.422607,52.425858 735.768921,48.308891 
	C729.822693,43.048466 722.705078,43.355930 718.005371,48.060406 
	C707.602112,58.474140 696.754028,68.442528 686.148865,78.656425 
	C684.434448,80.307587 682.004761,80.393555 680.255432,82.191025 
	C675.304138,87.278557 670.419189,92.593781 664.742188,96.780830 
	C648.945374,108.431717 635.414185,122.500275 621.636353,136.282059 
	C611.832520,146.088745 602.803467,156.666718 593.332458,166.810730 
	C588.938171,171.517303 583.549011,175.113480 579.169067,179.976959 
	C576.070679,183.417343 572.482056,187.126221 567.880371,189.173843 
	C565.937500,186.851410 566.576294,184.382996 566.713440,182.194183 
	C567.294006,172.929077 567.669678,163.613052 568.991089,154.441101 
	C571.130371,139.592102 570.750366,124.711128 570.719727,109.812798 
	C570.686584,93.717049 569.971130,77.579002 570.906433,61.538311 
	C571.705078,47.842720 573.392517,34.185295 573.622925,20.435097 
	C573.639709,19.435623 573.772705,18.407763 573.593689,17.440880 
	C572.991028,14.186065 572.493164,10.922955 569.633179,8.589031 
	C562.194336,2.518416 549.579285,6.711040 546.756104,16.441084 
	C543.852417,26.448433 542.202759,36.725788 541.405273,47.099487 
	C540.543274,58.312508 537.170410,68.723434 531.828430,78.490898 
	C528.571350,84.446274 524.679199,90.050804 521.265686,95.925293 
	C518.692932,100.352936 515.528442,104.252304 511.729675,108.479919 
	C508.695831,99.044182 508.344025,89.792076 507.769989,80.694595 
	C506.804810,65.398170 508.029938,50.175648 511.411560,35.157108 
	C512.051697,32.314278 512.373779,29.234030 512.012817,26.367821 
	C511.360016,21.183710 504.775177,15.545190 499.900116,15.399101 
	C494.540314,15.238487 489.293610,19.656340 487.540558,25.831667 
	C484.997040,34.791546 484.532776,44.111305 482.839081,53.192951 
	C480.784149,64.211655 478.593201,75.241547 474.714905,85.908005 
	C469.625031,99.906685 467.553772,114.935600 460.530701,128.306274 
	C452.559601,143.481796 445.955872,159.372147 435.263977,173.091522 
	C429.675446,180.262512 425.333832,188.408936 420.485718,196.150284 
	C419.498383,197.726807 418.729156,199.407669 416.243866,198.824341 
	C411.913574,188.022980 404.128510,179.052567 399.242584,168.686081 
	C393.091156,155.634613 383.642761,144.911270 376.668488,132.536194 
	C375.530334,130.516617 374.479462,128.275558 372.822845,126.751427 
	C366.782471,121.194183 363.115448,114.159241 359.732666,106.900398 
	C356.889526,100.799591 353.771545,94.806175 351.300079,88.557617 
	C347.463287,78.857239 341.629181,70.218620 337.050842,60.909119 
	C332.791473,52.248291 324.424194,48.286587 316.732025,56.794727 
	C315.327881,58.347824 313.934052,59.591442 311.161011,58.966850 
	C301.577148,56.808231 296.363922,60.117676 293.854645,69.845535 
	C290.319366,83.550743 290.793701,97.396065 292.825531,111.286835 
	C294.012390,119.400879 297.503082,126.858353 299.284058,134.740448 
	C303.147369,151.838257 300.706451,169.397339 302.164459,186.726318 
	C303.247437,199.598068 302.326447,212.635544 302.363678,225.598999 
	C302.402863,239.225311 302.288452,252.807404 300.619080,266.397064 
	C299.264618,277.423218 297.046509,288.312225 296.102753,299.417267 
	C295.429596,307.338318 295.066589,315.436157 292.778595,323.426300 
	C291.795868,322.965973 291.047455,322.836548 290.643768,322.393188 
	C284.401611,315.537750 278.461243,308.429382 271.869965,301.864685 
	C264.293549,294.318787 258.169769,285.443054 248.861389,279.496704 
	C239.389984,273.446259 230.454208,266.374634 224.412338,256.654968 
	C219.701157,249.075974 215.678986,241.051071 211.633575,233.080704 
	C207.438538,224.815506 203.764938,216.284180 199.518280,208.047134 
	C196.594849,202.376724 191.119446,199.505554 186.679993,200.574005 
	C181.770706,201.755508 179.070145,205.447403 178.412979,212.307693 
	C178.198593,214.545746 177.711273,215.976379 175.181931,216.546707 
	C173.486908,216.928909 172.007019,218.267487 170.432327,219.180588 
	C164.096359,222.854645 160.168930,229.471741 153.175323,232.542068 
	C143.850021,236.636047 137.154648,244.049606 131.540268,252.377289 
	C122.103958,266.373932 118.495720,282.669220 113.578865,298.443573 
	C111.760971,304.275787 112.346764,311.425079 108.291496,315.838470 
	C102.321968,322.335144 99.066635,329.662842 96.261322,337.744324 
	C88.602722,359.807068 92.821785,379.544617 106.363312,398.015625 
	C111.810577,405.445862 118.853363,411.254303 125.223915,417.706635 
	C130.983627,423.540314 135.132034,430.605438 140.690964,436.368256 
	C147.044937,442.955322 150.373398,449.818878 149.427597,458.964050 
	C148.826324,464.777893 144.559708,469.797241 140.194504,468.809143 
	C125.467453,465.475494 111.248535,460.723724 98.110580,453.146912 
	C89.262497,448.044128 79.541939,445.129639 69.840149,442.561859 
	C58.011223,439.431122 46.664772,435.195557 35.460068,430.434814 
	C29.070362,427.719910 23.000134,423.990540 15.892810,423.457794 
	C11.146570,423.102020 6.668925,426.433990 5.600103,430.498352 
	C4.531327,434.562561 6.681229,439.736786 10.830377,441.830933 
	C23.493074,448.221985 35.099487,456.727966 49.116016,460.443848 
	C54.656017,461.912537 60.239105,463.567841 65.611954,465.304779 
	C77.032738,468.996887 88.596596,472.415375 99.833023,476.756622 
	C103.766220,478.276184 104.625694,479.968231 103.813026,484.132294 
	C101.689613,495.012695 98.314880,505.921234 103.301193,517.068726 
	C105.464226,521.904358 107.446198,527.550476 111.403748,530.258179 
	C117.221992,534.238892 122.849838,538.787781 129.318954,541.793640 
	C135.123169,544.490601 141.457336,546.186401 147.584290,543.791077 
	C155.297104,540.775757 160.156219,534.476929 163.913330,527.175781 
	C171.593292,512.251465 171.894440,499.356232 158.212784,487.489746 
	C156.735550,486.208466 155.731659,484.514465 157.864380,482.930786 
	C161.501877,480.229706 163.157059,476.163330 164.948868,472.338348 
	C170.646667,460.175201 172.205322,448.205139 164.245743,435.962463 
	C159.732986,429.021362 154.774979,422.523590 149.808167,415.947968 
	C145.400604,410.112701 141.011200,404.263367 135.364960,399.733246 
	C126.614410,392.712433 120.895714,383.535706 115.428589,374.092651 
	C113.371429,370.539459 111.728531,366.768372 113.329178,362.308289 
	C115.602150,364.212128 115.390106,364.337860 116.430725,366.092743 
	C120.949371,373.712708 124.632874,382.002075 132.453400,387.101349 
	C139.053818,391.405029 146.590820,392.279602 154.178436,392.976593 
	C160.960480,393.599579 166.229462,390.875061 170.866058,386.095978 
	C173.347549,383.538239 175.073624,380.469177 176.769257,377.550720 
	C180.000626,371.989105 181.942490,365.917084 180.789917,359.126099 
	C179.294418,350.314758 175.608551,342.416901 171.808075,334.470612 
	C168.734741,328.044617 163.647354,323.384460 158.252655,319.365967 
	C151.426163,314.280945 143.332626,311.487701 134.786896,310.410706 
	C132.628494,310.138641 131.286804,309.463379 131.949783,306.911743 
	C135.912796,291.659149 139.620468,276.314850 148.760895,263.043854 
	C149.417160,262.091034 149.816223,260.913544 151.461182,261.146118 
	C151.670395,261.470551 152.093948,261.838318 152.149246,262.254974 
	C154.124176,277.131531 162.362061,287.561646 175.148499,294.792999 
	C179.538483,297.275757 188.260025,297.238495 191.218079,294.291443 
	C196.616226,288.913361 202.080215,283.520599 204.584045,275.993164 
	C205.155365,274.275635 205.574677,272.177795 207.767365,271.961029 
	C209.851425,271.754944 210.812561,273.455963 211.874710,275.056061 
	C215.195999,280.059570 218.737198,285.250610 223.931076,288.166443 
	C234.933029,294.342926 243.698746,303.122375 252.157654,312.018799 
	C262.333008,322.720520 271.589874,334.341827 280.680023,346.004852 
	C284.003326,350.268768 288.036621,355.076538 287.188385,361.085724 
	C286.072693,368.989594 285.912140,376.951385 285.052063,384.822266 
	C283.413361,399.819122 282.615875,414.871307 281.588501,429.888794 
	C280.813141,441.222626 279.740814,452.685699 281.370636,464.094604 
	C283.095642,476.170074 284.079498,488.436493 289.665680,499.581360 
	C291.693054,503.626190 294.452332,507.657288 298.532623,509.430542 
	C305.186951,512.322510 312.275604,514.366943 319.480499,515.504578 
	C329.688171,517.116394 339.593567,512.223755 344.635620,503.300690 
	C348.686981,496.130798 350.905975,488.286438 351.836334,480.157471 
	C353.233246,467.951721 354.072144,455.691315 351.397827,443.540405 
	C347.985962,428.038452 339.991272,414.354065 333.789337,399.962067 
	C328.882355,388.575012 323.819794,377.263916 317.711365,366.443024 
	C313.056458,358.197083 309.971405,349.660980 312.543182,339.855621 
	C313.753540,335.241058 313.952148,330.363373 314.642242,325.609680 
	C316.546631,312.491730 317.213318,299.245026 319.297058,286.120972 
	C321.475861,272.398041 323.927887,258.655670 323.741241,244.612518 
	C323.552277,230.393112 324.278687,216.158569 323.964783,201.944778 
	C323.742859,191.895691 324.478119,181.783646 322.763214,171.779205 
	C322.509094,170.296631 322.819031,168.762939 324.213135,168.009705 
	C330.122040,168.536148 336.282776,170.538834 340.952637,165.743530 
	C344.716736,161.878281 348.185364,157.648285 349.985931,152.197006 
	C350.932678,149.330688 351.112427,145.545532 354.771942,143.816757 
	C360.441864,148.877655 363.627258,155.548019 367.938843,161.362991 
	C372.865753,168.007797 376.390259,175.459625 380.114838,182.764038 
	C382.938629,188.301941 387.070190,192.888535 390.188751,198.193359 
	C395.159210,206.648468 396.573334,216.230728 399.068756,225.445206 
	C399.951569,228.705048 400.275055,232.670029 398.687225,235.772903 
	C394.449524,244.054260 394.073517,253.406967 390.836975,261.943665 
	C389.667633,265.027863 388.729309,268.329498 388.445007,271.597992 
	C386.746460,291.122009 385.647827,310.588898 392.176666,329.658264 
	C395.269012,338.690308 394.614044,348.779633 399.606293,357.350006 
	C401.176971,360.046478 402.008514,363.429413 405.120361,364.806427 
	C420.747040,371.721252 434.687317,367.610626 439.581909,349.463043 
	C441.057404,343.992462 441.456299,338.325348 441.595795,332.697235 
	C441.993591,316.651642 438.067322,301.085815 435.134857,285.531464 
	C432.198303,269.955078 429.511383,254.267792 425.451904,238.906097 
	C424.804810,236.457428 425.042755,234.522202 426.087677,232.267059 
	C429.743774,224.376587 435.129486,217.601135 440.116882,210.621017 
	C444.282013,204.791748 446.509979,198.001221 451.042358,192.267471 
	C457.997101,183.469299 464.695770,174.316116 469.458160,163.981491 
	C471.895111,158.693268 474.107117,153.177246 477.387726,148.432785 
	C481.672974,142.235413 484.260498,135.310959 487.419434,128.629349 
	C488.167816,127.046387 487.806000,124.715851 489.977081,124.226784 
	C492.501373,123.658165 493.030396,126.221138 494.353638,127.583252 
	C503.878906,137.388077 511.375183,139.971039 521.582642,133.492218 
	C527.698547,129.610336 532.174500,123.277122 535.141357,116.552734 
	C537.111938,112.086319 540.134155,108.372093 542.263306,104.085602 
	C542.939209,102.724838 544.111938,102.146431 545.566772,102.425362 
	C547.286682,102.755127 547.354858,104.198204 547.353088,105.556511 
	C547.341431,114.720772 547.915894,123.936745 547.142273,133.037521 
	C545.882568,147.855743 544.976990,162.704803 543.606812,177.519272 
	C542.542603,189.026245 540.742065,200.572067 541.397217,212.220856 
	C541.477600,213.649200 540.852173,214.797089 539.948975,215.828583 
	C533.979492,222.645981 528.054749,229.480606 522.343445,236.535675 
	C515.159119,245.410370 511.974792,255.762299 508.027802,265.803802 
	C502.519653,279.816925 499.082428,294.554810 495.979980,309.307648 
	C492.389618,326.380371 491.329163,343.596222 498.358246,359.933289 
	C503.228394,371.252502 506.460083,376.147675 518.717224,374.655823 
	C520.358398,374.456085 522.046448,374.649078 523.712830,374.647980 
	C533.592773,374.641602 538.896484,370.927704 542.674683,361.736511 
	C548.299072,348.053986 551.766541,333.777863 554.619202,319.325592 
	C556.546692,309.560181 557.956848,299.704620 558.664429,289.784729 
	C559.867371,272.922241 560.486572,256.012970 561.978210,239.178925 
	C562.501709,233.271225 562.672424,226.815018 567.579834,222.100357 
	C573.062988,216.832535 579.078674,212.189697 584.355652,206.632843 
	C589.661438,201.045700 596.244507,196.696960 601.924561,191.434921 
	C617.538818,176.969833 631.286316,160.674118 646.479797,145.749115 
	C657.229431,135.189438 668.333496,125.075348 679.862244,115.533951 
	C697.749207,100.730263 715.142822,85.423080 732.602051,69.093361 
z"/>
<path fill="#000000" opacity="1.000000" stroke="none" 
	d="
M1025.000000,546.539368 
	C1017.401245,551.822876 1010.776978,547.390747 1003.838440,544.939758 
	C991.759460,540.673157 979.961731,535.721375 967.273987,533.049194 
	C956.648621,530.811462 946.358582,526.880798 936.030884,523.373230 
	C930.866333,521.619141 925.403442,521.096497 920.098572,518.911499 
	C926.152161,532.318848 928.210815,546.689880 932.879089,560.655518 
	C932.250000,561.000000 931.500000,561.000000 930.375000,561.000000 
	C926.072083,553.556885 925.882019,545.012695 922.996643,537.255005 
	C920.575256,530.744629 918.127380,524.256897 914.840088,518.116394 
	C914.092896,516.720703 912.707947,515.258545 914.321594,513.614685 
	C915.692871,512.217712 917.134155,513.265808 918.488159,513.754578 
	C935.160461,519.772888 952.253052,524.452393 969.179626,529.657593 
	C984.166504,534.266296 999.399719,538.123169 1013.592102,545.050720 
	C1016.388000,546.415466 1019.388733,546.056580 1020.926147,542.976868 
	C1022.751770,539.319763 1021.500061,536.108398 1018.273193,533.814514 
	C1010.691284,528.424683 1001.935730,525.338135 993.606323,521.408203 
	C976.483215,513.329224 957.865662,509.523468 940.314514,502.636047 
	C929.839050,498.525360 919.021362,495.261230 908.075439,492.568176 
	C902.988708,491.316681 899.007141,489.371765 896.790710,484.026093 
	C895.447815,480.787018 892.557068,478.130981 890.128296,475.422363 
	C888.625488,473.746521 886.374695,474.077393 884.492004,474.708313 
	C882.151062,475.492828 881.461609,477.534729 881.369629,479.890717 
	C881.128723,486.058807 881.129761,485.904663 874.764954,484.467010 
	C860.552429,481.256744 846.409668,477.744629 832.006165,475.369781 
	C827.033020,474.549774 822.109009,474.598114 817.158569,474.257172 
	C812.988831,473.969971 810.441772,477.547577 806.658203,478.203278 
	C805.661377,478.376007 805.188477,481.455536 805.811890,481.641266 
	C809.099304,482.620483 809.361084,486.620514 812.652161,487.645325 
	C831.267700,493.442078 850.308594,497.486664 869.285583,501.820831 
	C877.347595,503.662079 885.395508,505.665436 893.280945,508.134552 
	C896.923645,509.275177 899.260193,513.038269 899.933533,516.408630 
	C901.068787,522.091309 904.328979,526.415955 907.264465,530.950500 
	C912.992493,539.798523 918.309998,548.972595 925.807922,556.554077 
	C926.893188,557.651428 926.439575,559.049744 926.113525,560.679565 
	C925.250000,561.000000 924.500000,561.000000 923.375000,561.000000 
	C922.987915,557.753418 921.354431,555.722839 918.870117,553.574158 
	C914.744934,550.006104 912.112244,545.063721 909.014038,540.560181 
	C903.750122,532.908813 899.440063,524.760193 895.515503,516.382935 
	C893.718140,512.546265 891.445618,510.326050 886.563599,510.020660 
	C880.863037,509.664062 875.272766,507.533997 869.636169,506.166992 
	C857.621521,503.253204 845.577881,500.452423 833.605713,497.373383 
	C826.877502,495.643005 820.298218,493.340668 813.594543,491.505188 
	C809.367615,490.347839 806.608582,487.087952 803.500732,484.531036 
	C799.722717,481.422821 801.683594,475.970123 806.353027,473.673401 
	C815.427063,469.210175 824.691406,470.551453 834.076416,471.934692 
	C846.699097,473.795105 859.031250,477.001404 871.490723,479.620636 
	C873.593445,480.062683 875.277039,481.833710 877.562927,481.391174 
	C877.805481,481.101715 878.198730,480.846771 878.183960,480.618164 
	C877.927795,476.656036 878.151672,472.828400 882.405457,470.956238 
	C885.595459,469.552277 892.396667,471.827881 895.069824,474.971161 
	C895.819824,475.853119 896.620239,476.802551 897.008850,477.863403 
	C899.399414,484.390686 903.690613,487.548218 910.787415,489.345520 
	C931.005188,494.465759 950.329468,502.566254 970.147644,508.973236 
	C982.157288,512.855835 993.504089,518.062500 1005.222778,522.471802 
	C1012.408630,525.175598 1018.172729,530.323486 1024.712769,534.804749 
	C1025.000000,538.692932 1025.000000,542.385803 1025.000000,546.539368 
z"/>
<path fill="#000000" opacity="1.000000" stroke="none" 
	d="
M887.452515,323.470734 
	C897.852844,326.551849 902.541199,336.839294 896.021179,343.406555 
	C892.200134,347.255219 887.087585,350.406586 881.571106,352.498871 
	C871.239014,356.417633 863.671875,362.717529 860.904297,374.513000 
	C859.312317,381.298248 859.179138,387.717712 860.588196,394.110199 
	C861.756714,399.411682 866.615784,402.065979 871.536377,403.615875 
	C878.041199,405.664703 884.719482,406.732391 891.633667,406.671417 
	C903.848755,406.563629 916.102966,406.869415 928.167175,408.825714 
	C935.142944,409.956879 942.035828,412.006256 948.744995,414.291351 
	C963.546875,419.332825 978.874329,421.181915 994.296265,422.750092 
	C998.622681,423.190033 1002.552734,425.061066 1003.767639,429.591278 
	C1004.972778,434.084930 1005.148071,438.538757 1001.467712,442.573792 
	C995.108826,449.545532 987.135864,447.590271 979.579834,446.828552 
	C967.129211,445.573395 954.751770,443.648926 942.227539,443.009888 
	C938.178833,442.803314 934.161438,441.372803 929.702881,443.215027 
	C932.165771,450.496399 935.010010,457.527405 936.856079,464.811432 
	C938.262268,470.359589 939.342163,475.973328 941.016968,481.482910 
	C941.727905,483.821686 943.268738,487.776978 938.640686,488.776306 
	C935.024658,489.557037 932.008240,489.062286 930.236755,484.925659 
	C924.119080,470.640869 914.830811,457.959534 909.069458,443.478485 
	C908.403503,441.804688 907.438721,441.417297 905.389221,441.209442 
	C886.688538,439.312958 868.129028,442.662964 849.472534,442.487213 
	C841.956848,442.416382 834.380798,444.263458 826.905151,445.635132 
	C818.853577,447.112396 811.288269,446.371582 804.134949,442.245361 
	C798.835266,439.188293 799.804321,427.665649 805.750427,424.080536 
	C810.639526,421.132812 815.810974,419.783661 821.702698,419.577850 
	C829.082214,419.320038 836.280762,416.739899 844.294434,416.468445 
	C829.535461,391.128571 831.629272,367.190521 848.663330,344.032623 
	C841.642761,341.661346 833.743896,341.080841 827.015076,336.839447 
	C822.247681,333.834351 818.480835,330.424408 816.542786,324.783875 
	C813.711731,316.544830 820.270142,308.737030 826.043762,304.055359 
	C836.743225,295.379608 849.952271,290.806732 861.377502,282.515106 
	C855.296997,272.948090 848.955444,263.523590 840.085693,255.861984 
	C837.581177,260.577881 837.406738,265.589874 836.757324,270.117432 
	C833.961853,289.607971 816.389954,296.487793 801.783752,295.188110 
	C795.802795,294.655853 789.362061,294.147705 785.282715,288.914978 
	C779.095337,280.978271 780.145569,270.008575 788.050354,262.508759 
	C796.200256,254.776367 804.406494,246.930161 813.536621,240.475586 
	C818.235718,237.153503 823.418945,234.892288 826.332397,229.545044 
	C826.796570,228.693054 828.365906,227.817429 829.289795,227.942932 
	C835.404480,228.773605 839.656738,224.937073 844.240662,222.130493 
	C853.985046,216.164444 864.877930,212.249313 874.177246,205.557648 
	C882.938965,199.252838 892.487854,194.269363 901.601868,188.562164 
	C905.380920,186.195709 909.443115,184.200760 914.162048,184.642685 
	C918.593933,185.057739 921.882446,187.538834 923.018494,191.595764 
	C924.233215,195.933670 923.413818,200.285965 919.143921,203.077286 
	C903.176331,213.515625 887.255188,224.027176 871.179871,234.297241 
	C866.065491,237.564667 860.525574,240.166061 855.034363,243.151672 
	C855.553589,247.534805 859.104187,250.022079 861.584595,252.854782 
	C867.134644,259.193176 872.478394,265.664795 877.415771,272.477844 
	C878.273865,273.661865 879.569153,273.976685 880.664490,274.689362 
	C889.088989,280.170624 888.830444,291.915771 881.356079,298.454346 
	C871.771118,306.839233 858.836914,308.954468 849.256897,317.035339 
	C848.520508,317.656525 847.685547,318.160919 845.783325,319.507599 
	C860.022705,323.698730 873.544373,323.591553 887.452515,323.470734 
M816.807129,243.349823 
	C808.921753,249.713608 800.744385,255.758133 793.281982,262.584320 
	C789.872375,265.703278 786.541321,269.385895 785.027466,274.203613 
	C783.786133,278.153717 785.412781,285.718140 788.318237,287.424835 
	C798.128906,293.187927 808.338257,293.226929 818.330872,288.459839 
	C824.546692,285.494507 830.292236,282.031403 832.203735,273.964203 
	C833.730408,267.521210 835.430481,261.221649 835.652100,254.584717 
	C835.706360,252.960358 835.353516,251.126266 837.182007,250.137207 
	C839.334717,248.972717 840.698303,250.701080 841.959473,251.827347 
	C843.673279,253.357788 844.949707,255.366272 846.582458,257.001312 
	C853.413696,263.842285 857.924988,272.508087 864.477966,279.581604 
	C867.223938,282.545685 866.674683,285.066956 862.683533,286.895721 
	C854.688477,290.559052 847.490906,295.683258 839.687317,299.760712 
	C832.781494,303.369141 825.956299,307.503204 821.710449,314.687592 
	C818.248779,320.544922 819.010498,325.595093 824.413818,329.916290 
	C831.920044,335.919128 840.722961,338.570007 849.951965,340.321777 
	C851.618652,340.638153 854.086365,339.970398 854.751831,342.192047 
	C855.484619,344.638489 853.294495,346.049011 851.868591,347.595306 
	C847.113953,352.751465 843.124329,358.132172 841.261597,365.251251 
	C836.433777,383.702179 836.091309,401.041901 850.768921,415.689667 
	C851.622253,416.541290 852.475342,417.350037 851.980835,418.694794 
	C851.457947,420.116608 850.282715,419.806610 849.094360,419.920288 
	C840.554321,420.737061 831.860535,419.539429 823.453735,422.330292 
	C817.850586,424.190399 811.659363,424.322876 806.964355,428.661652 
	C804.763550,430.695557 803.774902,433.105042 804.592346,435.821564 
	C805.416077,438.558929 807.081848,440.986603 810.238281,441.557037 
	C819.327759,443.199585 828.599365,442.621429 837.473511,441.225372 
	C857.329651,438.101715 877.319641,437.668396 897.282898,436.625183 
	C904.245850,436.261322 911.348206,437.220062 914.174194,445.272552 
	C918.785095,458.410980 927.404663,469.574310 932.300415,482.557587 
	C932.473633,483.017029 932.794495,483.425171 933.072327,483.839966 
	C934.029602,485.269012 935.161194,486.802185 937.044739,485.662506 
	C938.507202,484.777588 938.274170,483.215027 937.698730,481.634277 
	C936.622864,478.678528 935.540161,475.688171 934.890930,472.621063 
	C932.687134,462.209869 929.496216,452.167084 924.483826,442.744568 
	C923.122986,440.186310 924.169189,438.808319 926.808411,438.848694 
	C929.780457,438.894196 932.740540,439.476227 935.715576,439.613586 
	C947.812866,440.172211 959.792725,442.607361 971.987000,441.778961 
	C974.069580,441.637482 976.292053,442.204742 978.317993,442.855347 
	C982.740479,444.275574 987.238953,443.711426 991.689026,443.567688 
	C996.930420,443.398438 1000.665100,439.506317 1000.642334,434.799957 
	C1000.618286,429.824677 997.144287,426.629395 991.507996,426.364746 
	C990.015320,426.294678 988.474426,426.353516 987.043701,425.998535 
	C973.761536,422.703461 960.057800,421.416779 946.918091,417.419403 
	C928.198181,411.724396 908.985901,409.835175 889.485413,410.356567 
	C882.102295,410.554016 875.000366,408.910492 868.182373,406.328003 
	C862.694702,404.249390 858.027954,400.451813 856.979248,394.539642 
	C854.807983,382.298401 856.506836,370.461273 863.399658,359.798187 
	C865.209229,356.998840 867.934448,355.016144 870.979431,353.539001 
	C877.989319,350.138428 884.979675,346.808777 891.594727,342.533997 
	C895.447876,340.044037 894.712097,337.000732 894.965149,334.106476 
	C895.240601,330.956451 892.681702,329.301941 889.744385,328.327850 
	C884.681458,326.648865 879.498169,327.604523 874.373718,327.378235 
	C863.605347,326.902832 852.947815,325.825989 842.573486,322.646027 
	C840.783203,322.097290 839.661011,321.440857 839.269653,319.534271 
	C839.004700,318.243378 839.656860,317.633728 840.542480,317.152039 
	C847.076965,313.597778 853.390930,309.486481 860.244446,306.711975 
	C867.441772,303.798340 873.693359,299.599487 879.546570,294.827271 
	C884.871338,290.485840 884.793518,285.098572 880.454590,280.060516 
	C872.289124,270.579376 864.193359,261.038208 856.084839,251.508102 
	C848.781860,242.924789 848.793274,242.907593 858.374023,237.636032 
	C858.665344,237.475784 858.954102,237.305588 859.223206,237.111206 
	C866.932068,231.543060 875.239319,226.866394 883.300659,221.891464 
	C893.645203,215.507462 903.422974,208.252319 914.003052,202.250351 
	C915.690735,201.292923 917.487671,200.013657 918.445251,198.411636 
	C919.697449,196.316757 920.573364,193.629211 918.640076,191.383942 
	C916.426819,188.813431 913.413940,187.375610 910.146606,188.824173 
	C905.300354,190.972702 900.450989,193.149887 895.966614,196.084976 
	C888.779480,200.789078 881.165344,204.882675 874.235413,209.926376 
	C866.960754,215.220993 858.476868,218.139633 850.888672,222.872040 
	C844.838318,226.645309 838.922363,232.118988 830.703857,231.536285 
	C829.762512,231.469543 828.208923,232.374496 827.835938,233.223053 
	C825.731201,238.012054 821.234558,240.103943 816.807129,243.349823 
z"/>
<path fill="#000000" opacity="1.000000" stroke="none" 
	d="
M757.133911,223.873749 
	C758.759644,226.352753 760.208008,228.519043 762.074402,231.310608 
	C764.838379,220.352570 768.521484,210.506836 771.034241,200.244080 
	C773.703674,189.341614 777.126282,178.635498 783.126770,168.784058 
	C786.826965,162.709290 789.759277,156.224106 794.741455,150.969543 
	C803.065063,142.190872 811.845947,134.350067 825.107849,135.151581 
	C828.754944,135.371979 831.842834,137.270721 834.358032,139.664658 
	C843.476318,148.343430 846.802490,159.382751 846.275940,171.636093 
	C846.059143,176.680527 840.665161,182.585617 836.487488,183.378937 
	C829.639099,184.679382 824.693970,180.395905 824.791565,172.698669 
	C824.843933,168.571136 823.761658,164.830551 822.499084,161.062378 
	C821.709473,158.705902 820.386047,158.098511 817.927246,159.448456 
	C814.231750,161.477325 812.332397,165.098633 809.899902,168.117126 
	C798.943359,181.713211 793.733154,197.907578 789.327820,214.515839 
	C787.296204,222.175018 786.950867,230.283630 783.423523,237.530457 
	C780.165894,244.223267 777.091370,251.089447 771.757996,256.466461 
	C766.453186,261.814728 758.139832,260.829529 752.144287,256.437256 
	C747.080872,252.727905 743.154053,247.664642 740.675537,241.579590 
	C739.402344,238.453873 737.127747,235.729324 735.257996,232.854477 
	C728.357239,222.244324 727.354553,210.692612 729.725403,198.588333 
	C730.358398,195.356644 733.122070,194.530899 735.613403,193.963837 
	C737.884705,193.446884 740.274658,194.901474 740.817322,197.005798 
	C742.665649,204.172745 748.792358,208.633606 751.721375,215.096405 
	C753.079529,218.093277 755.188110,220.750076 757.133911,223.873749 
M800.806580,149.311676 
	C799.828552,150.648346 798.957275,152.080948 797.855774,153.306686 
	C787.774963,164.525040 781.601746,177.852203 777.148132,192.042709 
	C773.376526,204.060318 769.997620,216.200760 766.300903,228.242630 
	C765.357666,231.315292 763.868286,234.220306 761.982910,238.760117 
	C760.668518,236.743591 759.961853,235.831024 759.434753,234.824387 
	C753.288452,223.085907 744.735474,212.798019 738.965271,200.837875 
	C738.355652,199.574295 737.732117,198.430466 736.165405,198.363953 
	C734.634216,198.298950 733.234253,199.217545 733.169617,200.504395 
	C732.901611,205.842575 730.033325,210.861969 732.062256,216.533920 
	C735.485352,226.103455 740.385498,234.840912 745.743896,243.386108 
	C748.493774,247.771561 751.986755,251.463470 756.251038,254.344254 
	C760.746216,257.381073 766.025146,256.747284 769.651123,252.696777 
	C771.630432,250.485657 773.246338,247.940170 774.948792,245.491745 
	C783.141724,233.709137 785.793701,219.839966 788.346924,206.277451 
	C791.580017,189.103149 799.965454,174.896378 810.173645,161.362885 
	C811.461304,159.655777 812.969727,158.095276 814.503540,156.597672 
	C818.044067,153.140854 823.277954,154.240799 825.395386,158.666000 
	C827.591797,163.256073 828.662903,168.031250 828.382019,173.099213 
	C828.196350,176.449097 830.466675,178.204620 832.777222,179.856552 
	C834.073914,180.783554 835.624573,180.946243 836.904114,179.695908 
	C840.012817,176.658051 842.877625,173.699677 842.752197,168.675369 
	C842.616333,163.240479 842.007874,157.827576 839.513245,153.195755 
	C832.447388,140.076630 827.981934,136.667023 813.789001,140.807098 
	C809.245605,142.132401 805.473450,146.101562 800.806580,149.311676 
z"/>
<path fill="#000000" opacity="1.000000" stroke="none" 
	d="
M301.753662,455.032959 
	C302.415527,440.411682 302.832520,426.212708 304.499359,412.076843 
	C305.072327,407.217834 304.590424,402.234436 304.590424,397.744446 
	C306.575378,396.820801 307.521942,397.116119 307.986389,398.157745 
	C313.829498,411.261902 319.620880,424.389069 325.447327,437.500671 
	C332.762543,453.962585 330.833008,470.759430 327.189423,487.582031 
	C325.822266,493.894196 323.960938,494.818146 317.637970,493.274139 
	C312.286713,491.967407 307.864807,490.029572 306.517670,483.727692 
	C305.138489,477.275909 303.030823,470.981506 302.652496,464.327881 
	C302.483887,461.362823 303.071503,458.322327 301.753662,455.032959 
M326.644989,463.452850 
	C326.343872,458.664520 327.388214,453.801056 325.936554,449.080261 
	C322.476257,437.827271 316.697266,427.537903 312.332642,416.656189 
	C311.404663,414.342560 311.027283,411.344574 306.975677,409.195160 
	C309.248566,412.772827 307.439880,415.025177 307.384369,417.450470 
	C307.044586,432.294098 304.610962,447.035339 306.128143,462.006134 
	C306.645996,467.115814 307.882874,472.052246 308.351501,477.139618 
	C309.426056,488.803802 310.388489,488.866608 322.230072,489.572693 
	C325.306580,481.508423 326.638458,473.091095 326.644989,463.452850 
z"/>
<path fill="#000000" opacity="1.000000" stroke="none" 
	d="
M529.855957,323.609589 
	C527.584473,332.184265 525.478333,340.368713 523.286438,348.530151 
	C522.873535,350.067474 522.607117,351.933411 520.379395,352.042450 
	C517.932922,352.162201 517.407227,350.294922 516.881775,348.529358 
	C514.281433,339.793060 514.752808,330.803711 516.056519,322.079773 
	C518.957886,302.664886 526.035522,284.350159 532.360229,265.873474 
	C533.086304,263.752380 533.385986,260.829773 536.970032,259.917236 
	C536.494507,281.387238 534.586975,302.436493 529.855957,323.609589 
M518.359924,333.746429 
	C518.807739,338.014526 519.255554,342.282623 519.775269,347.236115 
	C527.531250,323.830872 530.391541,300.353271 532.936707,276.820038 
	C525.907104,294.993164 520.306152,313.513977 518.359924,333.746429 
z"/>
<path fill="#000000" opacity="1.000000" stroke="none" 
	d="
M155.898376,372.400330 
	C149.318359,374.781281 143.494080,372.530457 140.319672,367.988373 
	C133.130997,357.702423 127.038109,346.603455 127.726349,333.276489 
	C127.760223,332.620392 127.874146,331.959351 128.037811,331.322998 
	C128.114365,331.025360 128.398666,330.781128 128.832977,330.167999 
	C139.084518,331.265106 148.460526,333.608917 153.636917,344.414703 
	C156.034363,349.419434 159.235565,353.950256 160.540314,359.541534 
	C161.789001,364.892578 160.059067,368.817902 155.898376,372.400330 
M132.520966,345.877563 
	C133.155380,347.206024 133.653519,348.622864 134.447800,349.847626 
	C137.866287,355.118896 138.701065,361.791321 143.455933,366.334961 
	C146.441742,369.188049 150.408524,370.656128 153.774124,368.905090 
	C156.946564,367.254547 158.224579,363.540894 157.097153,359.347290 
	C155.637680,353.918549 151.559021,349.976013 149.529449,345.016510 
	C146.196121,336.871124 139.612640,335.265656 132.170212,334.586945 
	C130.249222,338.394745 132.010254,341.722534 132.520966,345.877563 
z"/>
<path fill="#000000" opacity="1.000000" stroke="none" 
	d="
M326.728455,99.229980 
	C325.264954,95.690468 323.865051,92.544647 322.465118,89.398819 
	C323.821075,104.917671 324.196960,120.516190 328.361145,135.604721 
	C329.618958,128.780380 330.220734,122.086151 328.831818,115.435051 
	C330.485443,114.228172 332.028473,115.088326 332.049988,116.306679 
	C332.207916,125.252625 332.725647,134.245758 330.481873,143.893066 
	C325.215790,139.544983 322.473511,134.295990 321.789551,128.436401 
	C320.372559,116.296783 319.726746,104.069107 318.585358,91.894371 
	C318.138763,87.131157 316.963928,82.420631 318.070129,77.578201 
	C324.525665,80.047501 332.691833,102.537064 330.389038,112.883636 
	C327.891174,108.234863 328.656464,103.518303 326.728455,99.229980 
z"/>
<path fill="#000000" opacity="1.000000" stroke="none" 
	d="
M122.966019,488.435913 
	C128.583511,486.543152 132.047318,490.507751 135.879150,492.719269 
	C139.635269,494.887054 142.789993,498.099548 146.198990,500.865479 
	C150.262909,504.162903 151.313828,510.754120 148.841919,517.393677 
	C148.266281,518.939819 147.665222,520.476562 147.080200,522.019287 
	C145.315674,526.672424 142.483566,528.183777 137.765350,526.444397 
	C126.698479,522.364563 119.309875,514.704773 118.170036,502.776520 
	C117.715469,498.019531 118.152092,492.399536 122.966019,488.435913 
M145.596115,517.003113 
	C146.494904,513.421265 149.445358,509.528259 146.214493,506.217865 
	C140.156082,500.010254 133.596741,494.267059 125.266251,491.450287 
	C115.354591,501.687714 126.461334,521.208496 141.252106,523.787048 
	C142.593781,521.804932 143.979675,519.757507 145.596115,517.003113 
z"/>
<path fill="#000000" opacity="1.000000" stroke="none" 
	d="
M190.317978,256.593384 
	C189.013397,262.414703 187.013504,267.470734 184.147247,272.222015 
	C182.201981,275.446594 180.268280,274.825256 178.264999,272.553955 
	C171.686829,265.095734 170.532715,250.773529 176.222748,242.655685 
	C178.054794,240.041946 180.942505,238.094589 183.565979,236.135193 
	C185.296417,234.842819 186.481537,235.891907 187.416229,237.704468 
	C190.432480,243.553574 190.515244,249.816147 190.317978,256.593384 
M177.202744,248.738647 
	C174.593704,258.496277 176.240723,265.912933 181.627396,268.929504 
	C185.949081,259.791382 189.655151,250.577576 184.008621,240.458496 
	C180.256943,242.007370 178.505753,244.722198 177.202744,248.738647 
z"/>
<path fill="#000000" opacity="1.000000" stroke="none" 
	d="
M416.379089,317.295166 
	C417.389832,322.903473 417.903564,328.123291 417.788605,334.498779 
	C412.821747,327.336090 406.562103,295.073608 410.169617,289.665375 
	C412.391571,292.443359 415.987274,308.224579 416.379089,317.295166 
z"/>
<path fill="#000000" opacity="1.000000" stroke="none" 
	d="
M818.485718,272.685760 
	C814.921326,274.274017 810.453247,277.518707 808.370667,274.308624 
	C806.059937,270.746857 811.240601,268.301819 813.824341,266.148254 
	C815.921082,264.400574 817.430054,261.715332 820.430420,261.089966 
	C821.573303,260.851746 822.759033,260.403564 823.690735,261.400391 
	C824.596497,262.369568 824.406433,263.615326 823.863953,264.659668 
	C822.430725,267.418823 821.690125,270.648071 818.485718,272.685760 
z"/>
</svg>