<?xml version="1.0" standalone="no"?>
<!DOCTYPE svg PUBLIC "-//W3C//DTD SVG 20010904//EN"
 "http://www.w3.org/TR/2001/REC-SVG-20010904/DTD/svg10.dtd">
<svg version="1.0" xmlns="http://www.w3.org/2000/svg"
 width="3024.000000pt" height="4032.000000pt" viewBox="0 0 3024.000000 4032.000000"
 preserveAspectRatio="xMidYMid meet">

<g transform="translate(0.000000,4032.000000) scale(0.100000,-0.100000)"
fill="#000000" stroke="none">
<path d="M18090 36125 c0 -18 -5 -25 -20 -25 -11 0 -20 -7 -20 -15 0 -12 -13
-15 -60 -15 -33 0 -60 -4 -60 -10 0 -5 -18 -10 -40 -10 -29 0 -40 -4 -40 -15
0 -8 -9 -15 -20 -15 -11 0 -20 -4 -20 -10 0 -5 -9 -10 -20 -10 -11 0 -20 -7
-20 -15 0 -11 -11 -15 -40 -15 -22 0 -40 -4 -40 -10 0 -5 -9 -10 -20 -10 -15
0 -20 -7 -20 -25 0 -18 -5 -25 -20 -25 -11 0 -20 -7 -20 -15 0 -8 -9 -15 -20
-15 -15 0 -20 -7 -20 -25 0 -18 -5 -25 -20 -25 -11 0 -20 -4 -20 -10 0 -5 -9
-10 -20 -10 -15 0 -20 -7 -20 -25 0 -18 -5 -25 -20 -25 -15 0 -20 -7 -20 -25
0 -18 -5 -25 -20 -25 -11 0 -20 -4 -20 -10 0 -5 -9 -10 -20 -10 -15 0 -20 -7
-20 -25 0 -18 -5 -25 -20 -25 -11 0 -20 -7 -20 -15 0 -8 -9 -15 -20 -15 -19 0
-20 -7 -20 -100 0 -93 -1 -100 -20 -100 -17 0 -20 -7 -20 -50 0 -43 -3 -50
-20 -50 -15 0 -20 -7 -20 -25 0 -18 -5 -25 -20 -25 -17 0 -20 -7 -20 -50 0
-43 -3 -50 -20 -50 -20 0 -20 -7 -20 -270 0 -263 0 -270 20 -270 18 0 20 -7
20 -65 0 -58 2 -65 20 -65 11 0 20 -4 20 -10 0 -5 9 -10 20 -10 15 0 20 -7 20
-25 0 -18 5 -25 20 -25 19 0 20 -7 20 -250 0 -243 1 -250 20 -250 11 0 20 -7
20 -15 0 -8 9 -15 20 -15 20 0 20 -7 20 -310 0 -303 0 -310 20 -310 15 0 20
-7 20 -25 0 -18 5 -25 20 -25 20 0 20 -7 20 -310 0 -303 0 -310 -20 -310 -16
0 -20 -7 -20 -35 0 -28 -4 -35 -20 -35 -19 0 -20 -7 -20 -140 0 -133 1 -140
20 -140 18 0 20 -7 20 -85 0 -78 2 -85 20 -85 20 0 20 -7 20 -795 0 -788 0
-795 -20 -795 -15 0 -20 -7 -20 -25 0 -18 -5 -25 -20 -25 -20 0 -20 -7 -20
-325 0 -318 0 -325 -20 -325 -16 0 -20 -7 -20 -35 0 -28 -4 -35 -20 -35 -17 0
-20 -7 -20 -50 0 -43 3 -50 20 -50 11 0 20 -7 20 -15 0 -8 9 -15 20 -15 18 0
20 -7 20 -60 0 -53 2 -60 20 -60 11 0 20 -7 20 -15 0 -8 9 -15 20 -15 20 0 20
-7 20 -495 l0 -495 -40 0 -40 0 0 -40 c0 -33 -3 -40 -20 -40 -11 0 -20 -4 -20
-10 0 -5 -9 -10 -20 -10 -20 0 -20 -7 -20 -335 0 -328 0 -335 -20 -335 -19 0
-20 -7 -20 -140 0 -133 1 -140 20 -140 19 0 20 -7 20 -125 0 -118 -1 -125 -20
-125 -19 0 -20 -7 -20 -135 0 -128 1 -135 20 -135 19 0 20 -7 20 -135 0 -128
-1 -135 -20 -135 -19 0 -20 -7 -20 -100 0 -93 -1 -100 -20 -100 -19 0 -20 -7
-20 -175 0 -168 1 -175 20 -175 18 0 20 -7 20 -85 0 -78 2 -85 20 -85 20 0 20
-7 20 -935 0 -928 0 -935 20 -935 11 0 20 -4 20 -10 0 -5 9 -10 20 -10 19 0
20 -7 20 -115 0 -108 -1 -115 -20 -115 -11 0 -20 -4 -20 -10 0 -5 -9 -10 -20
-10 -19 0 -20 -7 -20 -200 0 -193 1 -200 20 -200 15 0 20 -7 20 -25 0 -18 5
-25 20 -25 20 0 20 -7 20 -300 0 -293 0 -300 -20 -300 -17 0 -20 -7 -20 -50 0
-43 -3 -50 -20 -50 -18 0 -20 -7 -20 -75 0 -68 2 -75 20 -75 15 0 20 -7 20
-25 0 -18 5 -25 20 -25 19 0 20 -7 20 -100 0 -93 1 -100 20 -100 17 0 20 -7
20 -45 0 -38 3 -45 20 -45 20 0 20 -7 20 -390 l0 -390 -40 0 -40 0 0 -185 c0
-178 -1 -185 -20 -185 -18 0 -20 -7 -20 -75 0 -68 2 -75 20 -75 19 0 20 -7 20
-150 0 -143 1 -150 20 -150 16 0 20 -7 20 -35 0 -28 4 -35 20 -35 20 0 20 -7
20 -350 0 -343 0 -350 -20 -350 -16 0 -20 -7 -20 -35 0 -28 -4 -35 -20 -35
-20 0 -20 -7 -20 -870 0 -863 0 -870 -20 -870 -11 0 -20 -7 -20 -15 0 -8 -9
-15 -20 -15 -20 0 -20 -7 -20 -585 0 -578 0 -585 -20 -585 -19 0 -20 -7 -20
-150 0 -143 1 -150 20 -150 19 0 20 -7 20 -110 0 -103 -1 -110 -20 -110 -17 0
-20 -7 -20 -50 0 -43 -3 -50 -20 -50 -18 0 -20 -7 -20 -60 0 -53 -2 -60 -20
-60 -17 0 -20 -7 -20 -50 0 -43 3 -50 20 -50 18 0 20 -7 20 -75 0 -68 2 -75
20 -75 19 0 20 -7 20 -90 0 -83 1 -90 20 -90 20 0 20 -7 20 -270 0 -263 0
-270 20 -270 11 0 20 -7 20 -15 0 -8 9 -15 20 -15 19 0 20 -7 20 -125 0 -118
1 -125 20 -125 17 0 20 -7 20 -50 0 -43 3 -50 20 -50 20 0 20 -7 20 -485 0
-478 0 -485 20 -485 18 0 20 -7 20 -85 0 -78 2 -85 20 -85 18 0 20 -7 20 -60
0 -53 2 -60 20 -60 17 0 20 -7 20 -50 0 -43 3 -50 20 -50 18 0 20 -7 20 -75 0
-68 2 -75 20 -75 15 0 20 -7 20 -25 0 -18 5 -25 20 -25 18 0 20 -7 20 -65 0
-58 2 -65 20 -65 11 0 20 -4 20 -10 0 -5 9 -10 20 -10 18 0 20 -7 20 -65 0
-58 2 -65 20 -65 11 0 20 -4 20 -10 0 -5 9 -10 20 -10 15 0 20 -7 20 -25 0
-18 5 -25 20 -25 18 0 20 -7 20 -75 0 -68 2 -75 20 -75 15 0 20 -7 20 -25 0
-18 5 -25 20 -25 18 0 20 -7 20 -75 0 -68 2 -75 20 -75 11 0 20 -4 20 -10 0
-5 9 -10 20 -10 15 0 20 -7 20 -25 0 -18 5 -25 20 -25 11 0 20 -7 20 -15 0
-11 11 -15 40 -15 22 0 40 -4 40 -10 0 -5 9 -10 20 -10 15 0 20 -7 20 -25 0
-18 5 -25 20 -25 11 0 20 -7 20 -15 0 -8 9 -15 20 -15 15 0 20 -7 20 -25 0
-18 5 -25 20 -25 11 0 20 -4 20 -10 0 -5 9 -10 20 -10 11 0 20 -7 20 -15 0 -8
9 -15 20 -15 11 0 20 -4 20 -10 0 -6 33 -10 80 -10 79 0 80 0 80 -25 0 -18 5
-25 20 -25 11 0 20 -7 20 -15 0 -13 29 -15 200 -15 l200 0 0 -25 c0 -18 5 -25
20 -25 11 0 20 -4 20 -10 0 -6 47 -10 120 -10 73 0 120 4 120 10 0 6 9 10 20
10 11 0 20 7 20 15 0 8 9 15 20 15 11 0 20 5 20 10 0 6 33 10 80 10 79 0 80 0
80 25 0 18 5 25 20 25 11 0 20 7 20 15 0 12 13 15 60 15 57 0 60 1 60 25 0 18
5 25 20 25 11 0 20 5 20 10 0 6 9 10 20 10 15 0 20 7 20 25 0 18 5 25 20 25
11 0 20 7 20 15 0 8 9 15 20 15 15 0 20 7 20 25 0 18 5 25 20 25 15 0 20 7 20
25 0 18 5 25 20 25 18 0 20 7 20 60 0 53 2 60 20 60 11 0 20 7 20 15 0 8 9 15
20 15 18 0 20 7 20 60 0 53 2 60 20 60 19 0 20 7 20 135 0 128 1 135 20 135
15 0 20 7 20 25 0 18 5 25 20 25 19 0 20 7 20 240 0 233 -1 240 -20 240 -16 0
-20 7 -20 35 0 28 -4 35 -20 35 -19 0 -20 7 -20 235 0 228 -1 235 -20 235 -20
0 -20 7 -20 310 0 303 0 310 20 310 19 0 20 7 20 225 0 218 -1 225 -20 225
-19 0 -20 7 -20 235 0 228 1 235 20 235 19 0 20 7 20 100 0 93 -1 100 -20 100
-20 0 -20 7 -20 810 0 803 0 810 20 810 19 0 20 7 20 235 0 228 1 235 20 235
17 0 20 7 20 50 0 43 3 50 20 50 20 0 20 7 20 1035 0 1028 0 1035 20 1035 16
0 20 7 20 35 0 28 4 35 20 35 19 0 20 7 20 135 0 128 -1 135 -20 135 -15 0
-20 7 -20 25 0 18 -5 25 -20 25 -20 0 -20 7 -20 460 0 453 0 460 -20 460 -15
0 -20 7 -20 25 0 18 -5 25 -20 25 -19 0 -20 7 -20 200 0 193 1 200 20 200 17
0 20 7 20 40 0 33 3 40 20 40 18 0 20 7 20 60 0 53 -2 60 -20 60 -20 0 -20 7
-20 275 0 268 0 275 -20 275 -19 0 -20 7 -20 175 0 168 -1 175 -20 175 -19 0
-20 7 -20 160 0 153 -1 160 -20 160 -19 0 -20 7 -20 100 0 93 -1 100 -20 100
-20 0 -20 7 -20 360 0 353 0 360 -20 360 -18 0 -20 7 -20 75 0 68 -2 75 -20
75 -19 0 -20 7 -20 160 0 153 1 160 20 160 17 0 20 7 20 40 0 33 3 40 20 40
20 0 20 7 20 485 0 478 0 485 -20 485 -19 0 -20 7 -20 225 0 218 -1 225 -20
225 -19 0 -20 7 -20 95 0 88 -1 95 -20 95 -19 0 -20 7 -20 140 0 133 1 140 20
140 19 0 20 7 20 110 0 103 1 110 20 110 18 0 20 7 20 65 0 58 -2 65 -20 65
-18 0 -20 7 -20 85 0 78 -2 85 -20 85 -18 0 -20 7 -20 85 0 78 2 85 20 85 18
0 20 7 20 65 0 58 2 65 20 65 16 0 20 7 20 35 0 28 4 35 20 35 19 0 20 7 20
240 0 233 -1 240 -20 240 -19 0 -20 7 -20 170 0 163 1 170 20 170 20 0 20 7
20 635 0 628 0 635 20 635 11 0 20 7 20 15 0 8 9 15 20 15 18 0 20 7 20 60 0
53 2 60 20 60 17 0 20 7 20 40 0 33 -3 40 -20 40 -15 0 -20 7 -20 25 0 18 -5
25 -20 25 -11 0 -20 5 -20 10 0 6 -9 10 -20 10 -20 0 -20 7 -20 310 0 303 0
310 -20 310 -19 0 -20 7 -20 100 0 93 1 100 20 100 17 0 20 7 20 40 0 33 -3
40 -20 40 -19 0 -20 7 -20 160 0 153 -1 160 -20 160 -11 0 -20 5 -20 10 0 6
-9 10 -20 10 -18 0 -20 7 -20 65 0 58 -2 65 -20 65 -15 0 -20 7 -20 25 0 18 5
25 20 25 17 0 20 7 20 50 0 43 -3 50 -20 50 -19 0 -20 7 -20 125 0 118 -1 125
-20 125 -18 0 -20 7 -20 60 0 53 2 60 20 60 19 0 20 7 20 100 0 93 1 100 20
100 19 0 20 7 20 100 0 93 -1 100 -20 100 -18 0 -20 7 -20 60 0 53 -2 60 -20
60 -19 0 -20 7 -20 190 0 183 1 190 20 190 19 0 20 7 20 110 0 103 1 110 20
110 19 0 20 7 20 235 0 228 -1 235 -20 235 -19 0 -20 7 -20 200 0 193 -1 200
-20 200 -11 0 -20 7 -20 15 0 8 9 15 20 15 19 0 20 7 20 145 0 138 1 145 20
145 19 0 20 7 20 90 0 83 1 90 20 90 19 0 20 7 20 235 0 228 -1 235 -20 235
-18 0 -20 7 -20 75 0 68 -2 75 -20 75 -17 0 -20 7 -20 50 0 43 -3 50 -20 50
-11 0 -20 5 -20 10 0 6 -9 10 -20 10 -17 0 -20 7 -20 40 0 33 -3 40 -20 40
-11 0 -20 5 -20 10 0 6 -9 10 -20 10 -18 0 -20 7 -20 65 0 58 -2 65 -20 65
-11 0 -20 5 -20 10 0 6 -9 10 -20 10 -15 0 -20 7 -20 25 0 18 -5 25 -20 25
-17 0 -20 7 -20 50 0 43 -3 50 -20 50 -15 0 -20 7 -20 25 0 18 -5 25 -20 25
-15 0 -20 7 -20 25 0 18 -5 25 -20 25 -11 0 -20 7 -20 15 0 8 -9 15 -20 15
-15 0 -20 7 -20 25 0 18 -5 25 -20 25 -11 0 -20 5 -20 10 0 6 -33 10 -80 10
-64 0 -80 3 -80 15 0 8 -9 15 -20 15 -15 0 -20 7 -20 25 0 18 -5 25 -20 25
-11 0 -20 5 -20 10 0 6 -9 10 -20 10 -17 0 -20 7 -20 40 0 33 -3 40 -20 40
-11 0 -20 5 -20 10 0 6 -9 10 -20 10 -11 0 -20 7 -20 15 0 8 -9 15 -20 15 -13
0 -20 7 -20 20 0 13 -7 20 -20 20 -11 0 -20 7 -20 15 0 11 -11 15 -40 15 -22
0 -40 5 -40 10 0 6 -9 10 -20 10 -11 0 -20 7 -20 15 0 8 -9 15 -20 15 -15 0
-20 7 -20 25 0 18 -5 25 -20 25 -11 0 -20 5 -20 10 0 6 -9 10 -20 10 -15 0
-20 7 -20 25 0 18 -5 25 -20 25 -11 0 -20 7 -20 15 0 8 -9 15 -20 15 -11 0
-20 5 -20 10 0 6 -9 10 -20 10 -11 0 -20 7 -20 15 0 11 -11 15 -40 15 -22 0
-40 5 -40 10 0 6 -9 10 -20 10 -11 0 -20 7 -20 15 0 11 -11 15 -40 15 -22 0
-40 5 -40 10 0 6 -27 10 -60 10 -47 0 -60 3 -60 15 0 8 -9 15 -20 15 -15 0
-20 7 -20 25 0 18 -5 25 -20 25 -15 0 -20 -7 -20 -25z"/>
<path d="M7770 33885 c0 -18 -5 -25 -20 -25 -17 0 -20 -7 -20 -40 0 -33 -3
-40 -20 -40 -19 0 -20 -7 -20 -95 0 -88 -1 -95 -20 -95 -11 0 -20 -7 -20 -15
0 -11 -11 -15 -40 -15 -36 0 -40 -2 -40 -25 0 -22 -4 -25 -40 -25 -36 0 -40
-2 -40 -25 0 -18 -5 -25 -20 -25 -15 0 -20 -7 -20 -25 0 -18 -5 -25 -20 -25
-11 0 -20 -4 -20 -10 0 -5 -9 -10 -20 -10 -15 0 -20 -7 -20 -25 0 -18 -5 -25
-20 -25 -17 0 -20 -7 -20 -40 0 -33 -3 -40 -20 -40 -11 0 -20 -4 -20 -10 0 -5
-9 -10 -20 -10 -20 0 -20 -7 -20 -410 0 -403 0 -410 -20 -410 -19 0 -20 -7
-20 -100 0 -93 -1 -100 -20 -100 -15 0 -20 -7 -20 -25 0 -18 5 -25 20 -25 19
0 20 -7 20 -90 0 -83 1 -90 20 -90 20 0 20 -7 20 -270 0 -263 0 -270 -20 -270
-18 0 -20 -7 -20 -65 0 -58 -2 -65 -20 -65 -19 0 -20 -7 -20 -150 0 -143 -1
-150 -20 -150 -20 0 -20 -7 -20 -445 0 -438 0 -445 -20 -445 -20 0 -20 -7 -20
-350 0 -343 0 -350 20 -350 19 0 20 -7 20 -200 0 -193 1 -200 20 -200 20 0 20
-7 20 -1540 0 -1533 0 -1540 -20 -1540 -17 0 -20 -7 -20 -50 0 -43 -3 -50 -20
-50 -18 0 -20 -7 -20 -75 0 -68 2 -75 20 -75 19 0 20 -7 20 -150 0 -143 -1
-150 -20 -150 -19 0 -20 -7 -20 -135 0 -128 -1 -135 -20 -135 -18 0 -20 -7
-20 -85 0 -78 -2 -85 -20 -85 -19 0 -20 -7 -20 -125 0 -118 1 -125 20 -125 19
0 20 -7 20 -190 0 -183 -1 -190 -20 -190 -18 0 -20 -7 -20 -60 0 -53 -2 -60
-20 -60 -19 0 -20 -7 -20 -260 0 -253 -1 -260 -20 -260 -20 0 -20 -7 -20 -285
0 -278 0 -285 -20 -285 -15 0 -20 -7 -20 -25 0 -18 -5 -25 -20 -25 -17 0 -20
-7 -20 -50 0 -43 -3 -50 -20 -50 -11 0 -20 -7 -20 -15 0 -8 -9 -15 -20 -15
-20 0 -20 -7 -20 -335 0 -328 0 -335 -20 -335 -18 0 -20 -7 -20 -85 0 -78 -2
-85 -20 -85 -11 0 -20 -7 -20 -15 0 -8 -9 -15 -20 -15 -20 0 -20 -7 -20 -360
0 -353 0 -360 -20 -360 -19 0 -20 -7 -20 -125 0 -118 -1 -125 -20 -125 -19 0
-20 -7 -20 -100 0 -93 -1 -100 -20 -100 -17 0 -20 -7 -20 -50 0 -43 -3 -50
-20 -50 -16 0 -20 -7 -20 -35 0 -28 -4 -35 -20 -35 -19 0 -20 -7 -20 -115 0
-108 -1 -115 -20 -115 -20 0 -20 -7 -20 -310 0 -303 0 -310 -20 -310 -19 0
-20 -7 -20 -100 0 -93 -1 -100 -20 -100 -19 0 -20 -7 -20 -175 0 -168 -1 -175
-20 -175 -20 0 -20 -7 -20 -285 0 -278 0 -285 -20 -285 -20 0 -20 -7 -20 -270
0 -263 0 -270 -20 -270 -20 0 -20 -7 -20 -1385 0 -1378 0 -1385 20 -1385 18 0
20 -7 20 -70 0 -63 2 -70 20 -70 11 0 20 -7 20 -15 0 -8 9 -15 20 -15 17 0 20
-7 20 -50 0 -43 3 -50 20 -50 11 0 20 -4 20 -10 0 -5 9 -10 20 -10 18 0 20 -7
20 -65 0 -58 2 -65 20 -65 16 0 20 -7 20 -35 0 -28 4 -35 20 -35 11 0 20 -7
20 -15 0 -8 9 -15 20 -15 15 0 20 -7 20 -25 0 -18 5 -25 20 -25 18 0 20 -7 20
-60 0 -53 2 -60 20 -60 11 0 20 -7 20 -15 0 -8 9 -15 20 -15 18 0 20 -7 20
-60 l0 -60 40 0 c36 0 40 -2 40 -25 0 -18 5 -25 20 -25 11 0 20 -7 20 -15 0
-11 11 -15 40 -15 22 0 40 -4 40 -10 0 -5 18 -10 40 -10 29 0 40 -4 40 -15 0
-8 9 -15 20 -15 15 0 20 -7 20 -25 0 -18 5 -25 20 -25 11 0 20 -4 20 -10 0 -5
9 -10 20 -10 15 0 20 -7 20 -25 0 -18 5 -25 20 -25 11 0 20 -4 20 -10 0 -5 9
-10 20 -10 11 0 20 -7 20 -15 0 -11 11 -15 40 -15 22 0 40 -4 40 -10 0 -5 9
-10 20 -10 15 0 20 -7 20 -25 0 -18 5 -25 20 -25 11 0 20 -7 20 -15 0 -8 9
-15 20 -15 15 0 20 -7 20 -25 0 -18 5 -25 20 -25 15 0 20 -7 20 -25 0 -18 5
-25 20 -25 11 0 20 -4 20 -10 0 -5 18 -10 40 -10 29 0 40 -4 40 -15 0 -11 11
-15 40 -15 36 0 40 -2 40 -25 0 -25 1 -25 80 -25 64 0 80 3 80 15 0 12 16 15
80 15 64 0 80 -3 80 -15 0 -11 11 -15 40 -15 22 0 40 -4 40 -10 0 -5 9 -10 20
-10 11 0 20 -7 20 -15 0 -8 9 -15 20 -15 11 0 20 -4 20 -10 0 -6 27 -10 60
-10 33 0 60 4 60 10 0 6 9 10 20 10 11 0 20 7 20 15 0 8 9 15 20 15 11 0 20 5
20 10 0 6 18 10 40 10 29 0 40 4 40 15 0 8 9 15 20 15 15 0 20 7 20 25 0 23 4
25 40 25 39 0 40 1 40 35 0 28 4 35 20 35 15 0 20 7 20 25 0 18 5 25 20 25 11
0 20 7 20 15 0 8 9 15 20 15 15 0 20 7 20 25 0 18 5 25 20 25 15 0 20 7 20 25
0 18 5 25 20 25 11 0 20 5 20 10 0 6 9 10 20 10 15 0 20 7 20 25 0 18 5 25 20
25 20 0 20 7 20 535 0 528 0 535 -20 535 -18 0 -20 7 -20 75 0 68 2 75 20 75
18 0 20 7 20 85 0 78 -2 85 -20 85 -20 0 -20 7 -20 475 0 468 0 475 20 475 19
0 20 7 20 250 0 243 1 250 20 250 20 0 20 7 20 510 0 503 0 510 20 510 20 0
20 7 20 555 0 548 0 555 20 555 11 0 20 7 20 15 0 8 9 15 20 15 19 0 20 7 20
100 0 93 1 100 20 100 15 0 20 7 20 25 0 18 5 25 20 25 19 0 20 7 20 235 0
228 1 235 20 235 19 0 20 7 20 135 0 128 1 135 20 135 19 0 20 7 20 150 0 143
1 150 20 150 19 0 20 7 20 90 0 83 1 90 20 90 16 0 20 7 20 35 0 28 4 35 20
35 18 0 20 7 20 65 0 58 2 65 20 65 20 0 20 7 20 320 0 313 0 320 20 320 19 0
20 7 20 90 0 83 1 90 20 90 19 0 20 7 20 185 0 178 1 185 20 185 20 0 20 7 20
325 0 318 0 325 20 325 18 0 20 7 20 75 0 68 2 75 20 75 19 0 20 7 20 235 0
228 -1 235 -20 235 -15 0 -20 7 -20 25 0 18 5 25 20 25 20 0 20 7 20 420 0
413 0 420 20 420 18 0 20 7 20 75 0 68 -2 75 -20 75 -20 0 -20 7 -20 300 0
293 0 300 20 300 11 0 20 5 20 10 0 6 9 10 20 10 20 0 20 7 20 725 0 718 0
725 20 725 19 0 20 7 20 110 0 103 1 110 20 110 19 0 20 7 20 250 0 243 -1
250 -20 250 -20 0 -20 7 -20 485 0 478 0 485 -20 485 -20 0 -20 7 -20 460 0
453 0 460 20 460 16 0 20 7 20 35 0 28 -4 35 -20 35 -20 0 -20 7 -20 275 0
268 0 275 20 275 18 0 20 7 20 85 0 78 2 85 20 85 19 0 20 7 20 100 0 93 1
100 20 100 17 0 20 7 20 40 0 33 -3 40 -20 40 -18 0 -20 7 -20 85 0 78 -2 85
-20 85 -20 0 -20 7 -20 350 0 343 0 350 20 350 17 0 20 7 20 50 0 43 3 50 20
50 11 0 20 5 20 10 0 6 9 10 20 10 15 0 20 7 20 25 0 18 5 25 20 25 15 0 20 7
20 25 0 18 5 25 20 25 15 0 20 7 20 25 0 18 5 25 20 25 11 0 20 7 20 15 0 8 9
15 20 15 16 0 20 7 20 35 0 28 -4 35 -20 35 -11 0 -20 7 -20 15 0 8 -9 15 -20
15 -19 0 -20 7 -20 210 0 203 1 210 20 210 15 0 20 7 20 25 0 18 5 25 20 25
19 0 20 7 20 110 0 103 -1 110 -20 110 -19 0 -20 7 -20 90 0 83 1 90 20 90 15
0 20 7 20 25 0 18 -5 25 -20 25 -19 0 -20 7 -20 100 0 93 -1 100 -20 100 -19
0 -20 7 -20 110 0 103 -1 110 -20 110 -18 0 -20 7 -20 60 0 53 -2 60 -20 60
-11 0 -20 7 -20 15 0 8 -9 15 -20 15 -15 0 -20 7 -20 25 0 18 -5 25 -20 25
-15 0 -20 7 -20 25 0 18 -5 25 -20 25 -11 0 -20 5 -20 10 0 6 -9 10 -20 10
-15 0 -20 7 -20 25 0 18 -5 25 -20 25 -11 0 -20 7 -20 15 0 8 -9 15 -20 15
-15 0 -20 7 -20 25 0 24 -3 25 -60 25 -57 0 -60 1 -60 25 0 18 -5 25 -20 25
-11 0 -20 5 -20 10 0 6 -18 10 -40 10 -29 0 -40 4 -40 15 0 8 -9 15 -20 15
-11 0 -20 5 -20 10 0 6 -9 10 -20 10 -11 0 -20 7 -20 15 0 11 -11 15 -40 15
-22 0 -40 5 -40 10 0 6 -9 10 -20 10 -11 0 -20 7 -20 15 0 8 -9 15 -20 15 -11
0 -20 5 -20 10 0 6 -33 10 -80 10 -64 0 -80 3 -80 15 0 11 -11 15 -40 15 -22
0 -40 5 -40 10 0 6 -18 10 -40 10 -29 0 -40 4 -40 15 0 8 -9 15 -20 15 -11 0
-20 5 -20 10 0 6 -9 10 -20 10 -11 0 -20 7 -20 15 0 8 -9 15 -20 15 -11 0 -20
5 -20 10 0 6 -9 10 -20 10 -11 0 -20 7 -20 15 0 11 -11 15 -40 15 -22 0 -40 5
-40 10 0 6 -18 10 -40 10 -22 0 -40 5 -40 10 0 6 -27 10 -60 10 -47 0 -60 3
-60 15 0 12 -13 15 -60 15 -57 0 -60 1 -60 25 0 23 -4 25 -40 25 -22 0 -40 5
-40 10 0 6 -18 10 -40 10 -29 0 -40 4 -40 15 0 12 -13 15 -60 15 -57 0 -60 -1
-60 -25z"/>
<path d="M6810 9300 c0 -6 -47 -10 -120 -10 l-120 0 0 -25 c0 -18 -5 -25 -20
-25 -11 0 -20 -7 -20 -15 0 -8 -9 -15 -20 -15 -11 0 -20 -4 -20 -10 0 -5 -9
-10 -20 -10 -17 0 -20 -7 -20 -40 0 -33 -3 -40 -20 -40 -18 0 -20 -7 -20 -85
0 -78 -2 -85 -20 -85 -11 0 -20 -7 -20 -15 0 -8 -9 -15 -20 -15 -18 0 -20 -7
-20 -75 0 -68 -2 -75 -20 -75 -15 0 -20 -7 -20 -25 0 -18 -5 -25 -20 -25 -18
0 -20 -7 -20 -70 0 -63 -2 -70 -20 -70 -15 0 -20 -7 -20 -25 0 -18 -5 -25 -20
-25 -11 0 -20 -7 -20 -15 0 -8 -9 -15 -20 -15 -15 0 -20 -7 -20 -25 0 -18 -5
-25 -20 -25 -11 0 -20 -4 -20 -10 0 -5 -9 -10 -20 -10 -15 0 -20 -7 -20 -25 0
-18 -5 -25 -20 -25 -15 0 -20 -7 -20 -25 0 -18 -5 -25 -20 -25 -11 0 -20 -7
-20 -15 0 -8 -9 -15 -20 -15 -16 0 -20 -7 -20 -35 0 -28 -4 -35 -20 -35 -18 0
-20 -7 -20 -65 0 -58 -2 -65 -20 -65 -16 0 -20 -7 -20 -35 0 -28 -4 -35 -20
-35 -18 0 -20 -7 -20 -65 0 -58 -2 -65 -20 -65 -11 0 -20 -4 -20 -10 0 -5 -9
-10 -20 -10 -18 0 -20 -7 -20 -65 0 -58 -2 -65 -20 -65 -11 0 -20 -4 -20 -10
0 -5 -9 -10 -20 -10 -18 0 -20 -7 -20 -75 0 -68 -2 -75 -20 -75 -19 0 -20 -7
-20 -225 l0 -225 -40 0 c-36 0 -40 -2 -40 -25 0 -22 4 -25 40 -25 l40 0 0 -50
c0 -43 3 -50 20 -50 19 0 20 -7 20 -170 0 -163 1 -170 20 -170 11 0 20 -7 20
-15 0 -8 9 -15 20 -15 19 0 20 -7 20 -110 0 -103 1 -110 20 -110 11 0 20 -7
20 -15 0 -8 9 -15 20 -15 18 0 20 -7 20 -60 0 -53 2 -60 20 -60 15 0 20 -7 20
-25 0 -18 5 -25 20 -25 11 0 20 -7 20 -15 0 -8 9 -15 20 -15 16 0 20 -7 20
-35 0 -28 4 -35 20 -35 17 0 20 -7 20 -40 0 -33 3 -40 20 -40 15 0 20 -7 20
-25 0 -18 5 -25 20 -25 15 0 20 -7 20 -25 0 -18 5 -25 20 -25 11 0 20 -4 20
-10 0 -5 9 -10 20 -10 15 0 20 -7 20 -25 0 -18 5 -25 20 -25 11 0 20 -7 20
-15 0 -8 9 -15 20 -15 15 0 20 -7 20 -25 0 -18 5 -25 20 -25 13 0 20 -7 20
-20 0 -17 7 -20 40 -20 29 0 40 -4 40 -15 0 -11 11 -15 40 -15 36 0 40 -2 40
-25 0 -18 5 -25 20 -25 11 0 20 -4 20 -10 0 -5 9 -10 20 -10 11 0 20 -7 20
-15 0 -8 9 -15 20 -15 11 0 20 -4 20 -10 0 -6 93 -10 260 -10 224 0 260 -2
260 -15 0 -12 13 -15 60 -15 57 0 60 -1 60 -25 0 -22 4 -25 40 -25 22 0 40 -4
40 -10 0 -6 40 -10 100 -10 82 0 100 -3 100 -15 0 -8 9 -15 20 -15 11 0 20 -4
20 -10 0 -6 47 -10 120 -10 73 0 120 4 120 10 0 6 9 10 20 10 11 0 20 7 20 15
0 8 9 15 20 15 11 0 20 5 20 10 0 6 27 10 60 10 47 0 60 3 60 15 0 8 9 15 20
15 11 0 20 5 20 10 0 6 27 10 60 10 47 0 60 3 60 15 0 11 11 15 40 15 22 0 40
5 40 10 0 6 9 10 20 10 11 0 20 7 20 15 0 11 11 15 40 15 22 0 40 5 40 10 0 6
27 10 60 10 47 0 60 3 60 15 0 8 9 15 20 15 11 0 20 5 20 10 0 6 9 10 20 10
11 0 20 7 20 15 0 11 11 15 40 15 33 0 40 3 40 20 0 13 7 20 20 20 11 0 20 7
20 15 0 8 9 15 20 15 15 0 20 7 20 25 0 18 5 25 20 25 11 0 20 5 20 10 0 6 9
10 20 10 15 0 20 7 20 25 0 18 5 25 20 25 11 0 20 7 20 15 0 8 9 15 20 15 15
0 20 7 20 25 0 18 5 25 20 25 11 0 20 5 20 10 0 6 9 10 20 10 15 0 20 7 20 25
0 18 5 25 20 25 11 0 20 7 20 15 0 8 9 15 20 15 16 0 20 7 20 35 0 28 4 35 20
35 18 0 20 7 20 65 0 58 2 65 20 65 16 0 20 7 20 35 0 28 4 35 20 35 15 0 20
7 20 25 0 18 5 25 20 25 11 0 20 7 20 15 0 8 9 15 20 15 15 0 20 7 20 25 0 18
5 25 20 25 15 0 20 7 20 25 0 18 5 25 20 25 11 0 20 5 20 10 0 6 9 10 20 10
17 0 20 7 20 40 0 33 3 40 20 40 15 0 20 7 20 25 0 18 5 25 20 25 17 0 20 7
20 45 0 38 3 45 20 45 20 0 20 7 20 290 0 283 0 290 20 290 11 0 20 5 20 10 0
6 9 10 20 10 20 0 20 7 20 310 0 303 0 310 -20 310 -15 0 -20 7 -20 25 0 18
-5 25 -20 25 -19 0 -20 7 -20 100 0 93 -1 100 -20 100 -15 0 -20 7 -20 25 0
18 -5 25 -20 25 -11 0 -20 7 -20 15 0 12 -13 15 -60 15 -57 0 -60 1 -60 25 0
18 -5 25 -20 25 -11 0 -20 5 -20 10 0 6 -18 10 -40 10 -29 0 -40 4 -40 15 0 8
-9 15 -20 15 -11 0 -20 5 -20 10 0 6 -9 10 -20 10 -11 0 -20 7 -20 15 0 12
-13 15 -60 15 -33 0 -60 4 -60 10 0 6 -18 10 -40 10 -29 0 -40 4 -40 15 0 8
-9 15 -20 15 -11 0 -20 5 -20 10 0 6 -18 10 -40 10 -36 0 -40 3 -40 25 0 18
-5 25 -20 25 -15 0 -20 7 -20 25 0 18 -5 25 -20 25 -17 0 -20 7 -20 50 0 43
-3 50 -20 50 -18 0 -20 7 -20 60 0 53 -2 60 -20 60 -11 0 -20 7 -20 15 0 8 -9
15 -20 15 -19 0 -20 7 -20 175 0 168 -1 175 -20 175 -15 0 -20 7 -20 25 0 18
-5 25 -20 25 -11 0 -20 5 -20 10 0 6 -33 10 -80 10 -79 0 -80 0 -80 -25 0 -18
-5 -25 -20 -25 -11 0 -20 -4 -20 -10 0 -5 -9 -10 -20 -10 -11 0 -20 -7 -20
-15 0 -12 -18 -15 -100 -15 -82 0 -100 3 -100 15 0 13 -22 15 -140 15 -87 0
-140 4 -140 10 0 6 -9 10 -20 10 -11 0 -20 7 -20 15 0 13 -20 15 -120 15 -73
0 -120 4 -120 10 0 6 -107 10 -300 10 -193 0 -300 -4 -300 -10z"/>
<path d="M18290 7225 c0 -22 -4 -25 -40 -25 -29 0 -40 -4 -40 -15 0 -11 -11
-15 -40 -15 -22 0 -40 -4 -40 -10 0 -5 -9 -10 -20 -10 -11 0 -20 -7 -20 -15 0
-8 -9 -15 -20 -15 -11 0 -20 -4 -20 -10 0 -5 -18 -10 -40 -10 -36 0 -40 -2
-40 -25 0 -22 -4 -25 -40 -25 -29 0 -40 -4 -40 -15 0 -8 -9 -15 -20 -15 -11 0
-20 -4 -20 -10 0 -5 -9 -10 -20 -10 -11 0 -20 -7 -20 -15 0 -8 -9 -15 -20 -15
-15 0 -20 -7 -20 -25 0 -18 -5 -25 -20 -25 -11 0 -20 -4 -20 -10 0 -5 -9 -10
-20 -10 -15 0 -20 -7 -20 -25 0 -18 -5 -25 -20 -25 -15 0 -20 -7 -20 -25 0
-18 -5 -25 -20 -25 -11 0 -20 -7 -20 -15 0 -8 -9 -15 -20 -15 -15 0 -20 -7
-20 -25 0 -18 -5 -25 -20 -25 -11 0 -20 -4 -20 -10 0 -5 -9 -10 -20 -10 -15 0
-20 -7 -20 -25 0 -18 -5 -25 -20 -25 -16 0 -20 -7 -20 -35 0 -28 -4 -35 -20
-35 -11 0 -20 -7 -20 -15 0 -8 -9 -15 -20 -15 -18 0 -20 -7 -20 -85 0 -78 -2
-85 -20 -85 -11 0 -20 -7 -20 -15 0 -8 -9 -15 -20 -15 -18 0 -20 -7 -20 -60 0
-53 -2 -60 -20 -60 -19 0 -20 -7 -20 -115 0 -108 -1 -115 -20 -115 -18 0 -20
-7 -20 -85 0 -78 -2 -85 -20 -85 -18 0 -20 -7 -20 -60 0 -53 -2 -60 -20 -60
-19 0 -20 -7 -20 -100 0 -93 -1 -100 -20 -100 -19 0 -20 -7 -20 -150 0 -143
-1 -150 -20 -150 -19 0 -20 -7 -20 -225 0 -218 1 -225 20 -225 18 0 20 -7 20
-60 0 -53 2 -60 20 -60 18 0 20 -7 20 -75 0 -68 2 -75 20 -75 17 0 20 -7 20
-40 0 -33 3 -40 20 -40 16 0 20 -7 20 -35 0 -28 4 -35 20 -35 18 0 20 -7 20
-75 0 -68 2 -75 20 -75 18 0 20 -7 20 -75 l0 -75 40 0 40 0 0 -40 c0 -33 3
-40 20 -40 11 0 20 -4 20 -10 0 -5 9 -10 20 -10 15 0 20 -7 20 -25 0 -24 3
-25 60 -25 57 0 60 -1 60 -25 0 -18 5 -25 20 -25 11 0 20 -7 20 -15 0 -8 9
-15 20 -15 11 0 20 -4 20 -10 0 -5 18 -10 40 -10 22 0 40 -4 40 -10 0 -5 9
-10 20 -10 15 0 20 -7 20 -25 0 -18 5 -25 20 -25 11 0 20 -7 20 -15 0 -8 9
-15 20 -15 15 0 20 -7 20 -25 0 -18 5 -25 20 -25 15 0 20 -7 20 -25 0 -22 4
-25 40 -25 22 0 40 -4 40 -10 0 -5 18 -10 40 -10 36 0 40 -2 40 -25 l0 -25
160 0 c136 0 160 -2 160 -15 0 -12 13 -15 60 -15 33 0 60 -4 60 -10 0 -5 9
-10 20 -10 15 0 20 -7 20 -25 l0 -25 280 0 280 0 0 35 c0 34 1 35 40 35 29 0
40 4 40 15 0 12 13 15 60 15 47 0 60 -3 60 -15 0 -8 9 -15 20 -15 11 0 20 7
20 15 0 11 11 15 40 15 36 0 40 3 40 25 0 23 4 25 40 25 22 0 40 5 40 10 0 6
9 10 20 10 15 0 20 7 20 25 0 18 5 25 20 25 11 0 20 7 20 15 0 8 9 15 20 15
15 0 20 7 20 25 0 23 4 25 40 25 22 0 40 5 40 10 0 6 40 10 100 10 82 0 100 3
100 15 0 8 9 15 20 15 11 0 20 5 20 10 0 6 9 10 20 10 11 0 20 5 20 10 0 6 9
10 20 10 15 0 20 7 20 25 0 18 5 25 20 25 15 0 20 7 20 25 0 18 5 25 20 25 11
0 20 7 20 15 0 8 9 15 20 15 15 0 20 7 20 25 0 18 5 25 20 25 11 0 20 5 20 10
0 6 9 10 20 10 15 0 20 7 20 25 0 18 5 25 20 25 17 0 20 7 20 40 0 33 3 40 20
40 17 0 20 7 20 50 0 43 3 50 20 50 15 0 20 7 20 25 0 18 5 25 20 25 16 0 20
7 20 35 0 28 4 35 20 35 15 0 20 7 20 25 0 18 5 25 20 25 15 0 20 7 20 25 0
18 5 25 20 25 11 0 20 7 20 15 0 8 9 15 20 15 16 0 20 7 20 35 0 34 1 35 40
35 l40 0 0 65 c0 58 2 65 20 65 15 0 20 7 20 25 0 18 5 25 20 25 13 0 20 7 20
20 0 13 7 20 20 20 19 0 20 7 20 90 0 83 1 90 20 90 18 0 20 7 20 60 0 53 2
60 20 60 18 0 20 7 20 75 0 68 2 75 20 75 17 0 20 7 20 50 0 43 3 50 20 50 19
0 20 7 20 175 0 168 1 175 20 175 18 0 20 7 20 85 l0 85 40 0 40 0 0 175 0
175 -40 0 -40 0 0 65 c0 58 -2 65 -20 65 -11 0 -20 5 -20 10 0 6 -9 10 -20 10
-17 0 -20 7 -20 50 0 43 -3 50 -20 50 -17 0 -20 7 -20 40 0 33 -3 40 -20 40
-11 0 -20 5 -20 10 0 6 -9 10 -20 10 -17 0 -20 7 -20 50 0 43 -3 50 -20 50
-15 0 -20 7 -20 25 0 18 -5 25 -20 25 -11 0 -20 5 -20 10 0 6 -9 10 -20 10
-11 0 -20 7 -20 15 0 11 -11 15 -40 15 -36 0 -40 3 -40 25 0 18 -5 25 -20 25
-11 0 -20 5 -20 10 0 6 -9 10 -20 10 -15 0 -20 7 -20 25 0 18 -5 25 -20 25
-15 0 -20 7 -20 25 0 18 -5 25 -20 25 -11 0 -20 7 -20 15 0 8 -9 15 -20 15
-15 0 -20 7 -20 25 0 18 -5 25 -20 25 -11 0 -20 5 -20 10 0 6 -9 10 -20 10
-11 0 -20 7 -20 15 0 12 -16 15 -80 15 -47 0 -80 4 -80 10 0 6 -9 10 -20 10
-11 0 -20 7 -20 15 0 12 -13 15 -60 15 -33 0 -60 4 -60 10 0 6 -53 10 -140 10
-118 0 -140 2 -140 15 0 8 -9 15 -20 15 -11 0 -20 5 -20 10 0 6 -27 10 -60 10
-47 0 -60 3 -60 15 0 13 -49 15 -380 15 -247 0 -380 4 -380 10 0 6 -9 10 -20
10 -11 0 -20 7 -20 15 0 13 -29 15 -200 15 l-200 0 0 -25z"/>
</g>
</svg>
