<svg version="1.1" id="Layer_1" xmlns="http://www.w3.org/2000/svg" xmlns:xlink="http://www.w3.org/1999/xlink" x="0px" y="0px"
	 width="100%" viewBox="0 0 592 800" enable-background="new 0 0 592 800" xml:space="preserve">
<path fill="#000000" opacity="1.000000" stroke="none" 
	d="
M409.550079,668.316650 
	C405.479340,674.775330 398.991150,675.788574 392.764221,676.042175 
	C384.850830,676.364502 376.725342,676.794128 369.202820,673.137756 
	C368.332275,672.714600 366.985840,672.111511 366.386292,672.470581 
	C360.858398,675.781067 354.610779,673.662720 349.006744,674.908020 
	C339.833008,676.946716 330.533203,676.798889 321.343536,678.049133 
	C318.219849,678.474121 316.173889,679.168091 314.543671,681.932678 
	C310.812622,688.259705 304.229065,688.705505 297.933807,689.003296 
	C295.308380,689.127625 292.325653,687.465210 291.728058,684.697449 
	C290.575745,679.360596 286.123413,679.838135 282.813812,679.675903 
	C279.510834,679.514038 275.692596,679.886902 274.189087,684.611816 
	C272.879730,688.726501 269.122406,690.086609 264.831573,689.439880 
	C257.617798,688.352783 252.178711,684.636108 248.494034,677.789429 
	C244.992569,681.171814 240.899231,679.714111 237.052750,680.126099 
	C224.453583,681.475647 211.876495,681.521790 199.280975,680.246216 
	C198.124344,680.129089 196.657547,680.542480 195.841995,679.977417 
	C186.751312,673.678833 177.156097,679.370728 167.839417,678.845459 
	C162.450989,678.541687 156.925369,679.033447 151.548828,678.316528 
	C144.541763,677.382202 139.765457,668.010193 142.584015,661.332031 
	C144.764206,656.166565 147.938126,651.747864 152.726562,648.738098 
	C150.515427,637.384766 152.142563,626.191528 153.112381,615.000244 
	C153.900894,605.901001 154.950378,596.823914 155.695038,587.721497 
	C157.739822,562.726746 159.114349,537.689697 163.917572,512.964661 
	C167.497818,494.535065 169.852127,475.870667 173.047928,457.361847 
	C175.447968,443.461670 177.595398,429.517212 180.009354,415.619202 
	C181.957169,404.404907 183.153824,392.981781 183.255707,381.462646 
	C183.321793,373.992889 183.544739,366.605438 182.989166,359.102020 
	C181.906845,344.484955 178.241226,330.638641 173.005890,317.073792 
	C171.528641,313.246216 170.461609,309.260345 169.010925,304.737518 
	C166.303818,307.841980 163.725769,310.343414 160.501694,312.067261 
	C157.500092,313.672180 154.922775,313.620941 152.378403,311.055878 
	C139.230865,297.801422 136.781113,278.691437 143.726074,262.990723 
	C146.749329,256.155945 154.184158,252.904846 161.019806,252.669159 
	C175.057861,252.185104 188.193604,250.442215 200.380753,242.480392 
	C206.522659,238.467880 214.121201,236.621582 221.164459,234.082504 
	C224.120514,233.016861 225.102524,231.154663 225.746704,228.284027 
	C228.512466,215.959091 230.627899,203.436707 235.782547,191.770081 
	C237.392136,188.127075 238.874786,184.403030 241.903687,181.572906 
	C246.593124,177.191208 250.186981,177.205460 255.791855,180.665421 
	C263.314392,185.309158 266.905670,192.737076 270.954071,200.022186 
	C278.512817,213.624191 283.040924,228.402390 288.117310,242.972794 
	C296.091858,265.861603 305.670624,288.105591 314.864838,310.512054 
	C319.524658,321.868103 322.595215,333.809296 324.313232,346.033997 
	C325.014618,351.024567 328.924377,354.329041 331.324768,358.360870 
	C337.645020,368.976593 342.252838,380.394531 347.934174,391.288208 
	C355.586700,405.961609 360.148987,421.833282 366.174988,437.129822 
	C369.876526,446.525940 372.367310,456.398956 375.403107,466.057434 
	C382.336395,488.115753 388.332703,510.441681 394.286987,532.775085 
	C399.429321,552.062927 404.205994,571.432922 405.251648,591.508545 
	C405.739777,600.880371 406.645569,601.406494 414.702454,597.023010 
	C424.007538,591.960205 429.435822,582.833435 436.560608,575.489929 
	C442.517212,569.350403 442.758606,561.713562 443.668274,553.567444 
	C444.657806,544.706238 442.738159,536.613831 441.288025,527.809509 
	C450.392181,528.478210 451.472839,521.802612 453.849823,515.883301 
	C456.068146,510.359100 455.111664,505.214722 453.895233,499.830383 
	C453.322876,497.296906 452.695190,494.406219 455.598907,492.611908 
	C458.677643,490.709442 461.883240,490.221588 464.880035,492.706940 
	C468.202118,495.462097 471.372131,498.399872 474.641083,501.220245 
	C475.872192,502.282410 476.972534,503.575684 479.002930,502.864777 
	C485.179596,500.702118 488.402405,503.248596 492.323334,508.563995 
	C499.726532,518.599976 499.823334,530.286194 500.623108,541.218262 
	C501.532410,553.647888 498.944855,566.434937 491.835266,577.356262 
	C499.570831,584.744995 500.109619,589.829407 494.291870,598.770447 
	C493.375519,600.178772 493.334015,601.437561 493.904114,602.984924 
	C496.813599,610.881531 493.918793,619.733093 487.126740,624.129944 
	C477.107422,630.616028 467.468445,637.834412 455.434326,640.393311 
	C453.735260,640.754639 452.851044,642.056641 452.580383,643.548523 
	C451.233521,650.972351 445.107666,651.867493 439.451599,652.852539 
	C431.398590,654.254944 423.217804,653.653625 415.097717,653.175842 
	C410.933777,652.930908 407.877075,650.138123 404.360321,647.398804 
	C406.105530,654.614014 413.800690,659.812378 409.550079,668.316650 
M196.586334,664.892639 
	C197.773987,667.451660 195.772186,669.705078 195.824158,672.859863 
	C212.288895,677.231750 228.788101,673.717773 244.977692,673.511902 
	C245.896759,671.170532 245.060776,669.803589 244.592499,668.425903 
	C242.230347,661.476501 240.607361,654.348938 239.561752,647.101074 
	C236.902008,628.664612 234.488358,610.203430 232.930389,591.626465 
	C231.721588,577.212830 231.187134,562.735413 229.095993,548.396423 
	C228.801498,546.377136 228.925079,544.110596 231.571960,543.705261 
	C233.966171,543.338745 234.439667,545.312195 235.049103,547.134705 
	C236.351379,551.029358 235.615692,555.042725 235.990250,558.976257 
	C238.007431,580.160156 240.026321,601.346558 242.388275,622.493774 
	C243.788025,635.026062 244.764450,647.685974 248.429474,659.831543 
	C250.573822,666.937744 252.290848,674.461731 258.191528,679.703979 
	C260.630798,681.870972 263.911591,684.207336 267.063934,682.876587 
	C270.337341,681.494690 270.725830,677.552979 270.703979,674.143799 
	C270.614594,660.199829 271.327942,646.307007 270.098785,632.302307 
	C267.742981,605.461426 266.630066,578.510498 265.091675,551.600098 
	C264.939026,548.930054 264.159149,544.821350 267.564575,544.469360 
	C271.092682,544.104858 271.196075,548.282654 271.366516,550.964050 
	C272.526489,569.211609 273.954742,587.435913 274.751709,605.716064 
	C275.715546,627.822510 277.697266,649.883545 277.207428,672.045654 
	C277.194550,672.628601 277.623535,673.221375 277.838074,673.787354 
	C281.800903,673.787354 285.548584,673.787354 289.449951,673.787354 
	C289.554779,672.702087 289.766022,671.880981 289.691620,671.086609 
	C287.544708,648.167175 289.635254,625.206360 289.242096,602.260986 
	C288.940308,584.650879 288.349091,567.064819 287.681885,549.473267 
	C287.595428,547.193420 288.178253,545.197815 289.640472,543.455933 
	C290.439331,542.504272 291.368622,541.820618 292.662354,542.415588 
	C293.708374,542.896729 293.863831,543.855957 293.878387,544.921326 
	C294.087463,560.220764 295.795624,575.523682 295.655609,590.746765 
	C295.511841,606.378113 295.809021,622.039062 295.227081,637.676392 
	C294.737152,650.841003 295.490875,663.973755 296.829010,677.054077 
	C297.450623,683.130310 302.386505,684.786865 307.309357,680.854309 
	C308.570740,679.846741 309.804474,678.442627 310.342896,676.963074 
	C311.700653,673.232117 313.343048,669.590576 313.842590,665.551514 
	C317.597198,635.191223 319.583710,604.677551 321.915924,574.192810 
	C322.715027,563.747620 323.697235,553.316406 324.603638,542.879456 
	C324.718903,541.552368 324.712769,540.015198 326.459045,539.788574 
	C328.206696,539.561829 329.332184,540.677429 329.814117,542.209473 
	C330.619263,544.768799 330.821045,547.411499 330.552216,550.107727 
	C329.760254,558.049744 329.013306,565.996338 328.287415,573.944641 
	C327.184265,586.024475 326.921570,598.215332 325.659363,610.215759 
	C323.693970,628.902161 322.656128,647.688477 320.036255,666.294983 
	C319.347321,671.188049 320.888947,671.833923 325.265411,671.792114 
	C336.269165,671.687012 346.965149,668.506042 357.998383,668.912720 
	C361.825073,669.053833 363.151550,667.350708 362.351959,663.230042 
	C360.711792,654.777527 370.674164,640.842651 379.128998,640.212585 
	C384.119904,639.840698 389.374298,639.138489 394.357452,641.026062 
	C395.983063,641.641785 398.254059,642.196716 398.305664,639.855164 
	C398.410126,635.112122 400.651215,630.914429 400.882812,626.174194 
	C401.504242,613.455566 399.411743,600.937866 398.602936,588.335388 
	C397.890045,577.227722 396.742737,566.105408 393.795654,555.294434 
	C386.361420,528.022766 379.454956,500.620667 371.372223,473.508331 
	C362.223572,442.820496 351.282654,412.904419 337.713928,383.942657 
	C333.360260,374.649994 329.228516,365.168823 322.315948,356.185364 
	C307.337799,370.852112 287.870422,375.477570 267.022736,380.377197 
	C273.970001,385.703827 278.003967,390.389954 273.679321,397.507568 
	C271.518860,401.063293 263.175476,404.469635 259.002167,403.057007 
	C249.567337,399.863403 248.605698,392.642578 251.205627,384.380707 
	C230.423737,385.412872 210.387482,390.411285 190.326950,385.404510 
	C177.134491,472.025574 161.098267,557.810791 157.801559,645.465820 
	C160.922119,643.891357 164.405945,645.536743 167.915436,644.679688 
	C179.863434,641.761963 194.348022,651.776428 196.586334,664.892639 
M148.228790,269.842377 
	C145.282059,281.141968 146.224701,291.665253 153.148788,301.616364 
	C157.746628,308.224213 158.164505,308.429840 163.502777,302.250061 
	C170.771851,293.835052 175.166595,284.146027 177.548248,273.410889 
	C178.003006,271.361115 178.038345,269.018646 180.754974,268.246826 
	C183.281357,270.396149 182.282318,273.126160 182.016464,275.679047 
	C181.242477,283.111450 177.737885,289.615997 174.853149,296.321991 
	C174.199249,297.842072 173.351151,299.107758 173.943253,300.998413 
	C175.133423,304.798798 175.548309,308.880981 177.030838,312.544250 
	C184.401047,330.755951 189.130615,349.499542 189.345993,369.245697 
	C189.372925,371.715820 190.428604,373.167389 192.979156,373.844849 
	C204.021896,376.777740 215.320602,377.386749 226.549011,376.428528 
	C245.453430,374.815216 263.869629,369.942841 282.584930,367.002014 
	C295.557281,364.963623 305.581360,356.967224 316.418182,350.614319 
	C318.903778,349.157135 319.125275,346.487732 318.492554,343.918365 
	C315.508972,331.802277 312.466248,319.719788 307.787445,308.086304 
	C299.134003,286.570282 288.912292,265.687225 282.288574,243.343048 
	C279.366119,233.484619 275.760895,223.755127 271.564484,214.370056 
	C267.923737,206.227661 265.061066,197.426315 258.740082,190.813400 
	C251.720993,183.470200 247.366501,180.240799 241.854614,192.691452 
	C241.787201,192.843704 241.706360,192.990082 241.640762,193.143066 
	C236.434067,205.285751 234.081512,218.210999 231.337524,231.020615 
	C230.496567,234.946457 228.493668,237.383469 224.677124,238.940109 
	C214.398529,243.132431 203.553986,245.989532 194.062546,252.100494 
	C191.491089,253.756104 189.240494,256.063324 185.768280,256.421539 
	C178.007278,257.222229 170.252380,258.243378 162.537857,259.310547 
	C156.697083,260.118530 150.116653,261.509918 148.228790,269.842377 
M446.490540,636.156738 
	C459.792847,633.828674 472.044159,629.051819 482.596344,620.441589 
	C486.722809,617.074524 491.106903,612.353271 488.991577,607.459534 
	C486.719208,602.202332 487.757751,598.794434 490.258301,594.700928 
	C491.012238,593.466553 491.389282,591.912964 491.603973,590.456238 
	C492.106842,587.043579 492.154602,584.166870 487.093140,584.410217 
	C483.288574,584.593140 482.168030,582.127747 483.840088,578.689941 
	C484.565735,577.197937 485.423187,575.758179 486.338226,574.372314 
	C490.825653,567.575745 493.115692,560.232483 494.048737,552.025635 
	C495.009857,543.571838 493.562134,535.627808 492.730377,527.390747 
	C492.059021,520.741821 490.223267,515.395752 486.558136,510.163788 
	C484.378693,507.052612 482.485199,506.389526 480.043060,509.649078 
	C477.600586,512.908997 475.545013,512.327271 473.545563,509.138306 
	C470.939087,504.981171 467.070923,502.040039 463.378632,498.942169 
	C462.500641,498.205505 461.683716,497.119720 460.364594,497.883026 
	C459.102722,498.613159 459.329498,499.834412 459.672760,500.991760 
	C462.437012,510.311920 461.138428,518.931702 455.307739,526.808228 
	C454.953278,527.287048 454.700409,528.116821 454.853943,528.653442 
	C456.406860,534.081299 453.652130,535.559021 448.283356,535.019897 
	C451.568542,544.701721 449.200500,554.059814 448.527100,563.419189 
	C448.211975,567.798401 446.200745,571.583008 443.721771,575.274170 
	C439.501617,581.557739 433.470520,586.216492 429.035156,592.195312 
	C424.523254,598.277344 418.615143,602.141113 411.715942,604.143677 
	C406.862000,605.552673 405.683655,607.956299 406.500214,612.398499 
	C407.904541,620.038635 407.641693,627.567505 405.339844,635.082825 
	C403.673859,640.522034 405.059479,642.777222 410.515564,644.729004 
	C418.300537,647.513977 426.266937,648.134827 434.492950,647.094727 
	C444.578186,645.819397 444.600891,645.999023 446.490540,636.156738 
M164.884155,672.800232 
	C169.169891,672.920166 173.382111,672.048889 177.745270,672.370667 
	C181.052902,672.614563 184.542831,671.231018 187.857697,670.253174 
	C190.311157,669.529480 190.726471,667.677429 190.326614,665.106995 
	C189.128067,657.402283 182.839539,654.747192 177.331863,651.143921 
	C173.927673,648.916809 171.828842,651.266968 169.298141,652.683350 
	C168.693939,653.021484 167.620789,652.872131 166.898407,652.594910 
	C158.788528,649.483765 154.290924,654.020813 150.107101,660.032349 
	C147.961258,663.115601 148.208054,665.882507 149.576599,668.871155 
	C150.930679,671.828064 153.652374,672.582092 156.598129,672.690735 
	C159.078461,672.782227 161.564194,672.728210 164.884155,672.800232 
M400.711487,653.845886 
	C392.942902,642.970947 382.852539,645.444031 374.123871,649.843384 
	C370.176514,651.832886 367.678131,659.690002 369.129913,663.585327 
	C370.993866,668.586304 375.433960,669.517822 380.050354,669.846069 
	C383.528748,670.093384 387.020233,670.172058 390.507294,670.279480 
	C395.369873,670.429382 400.464447,670.194946 403.725159,666.284180 
	C407.020203,662.332275 402.986053,658.902954 401.509064,655.384644 
	C401.380676,655.078796 401.203156,654.793579 400.711487,653.845886 
M258.782501,396.918518 
	C263.842224,398.262848 269.443756,396.412903 270.221741,392.908447 
	C271.149628,388.728668 267.177979,388.220490 264.879791,386.876678 
	C262.181702,385.299011 259.172638,385.092163 257.044312,388.352325 
	C255.025909,391.444031 254.867828,394.198944 258.782501,396.918518 
z"/>
<path fill="#000000" opacity="1.000000" stroke="none" 
	d="
M158.232956,116.825653 
	C154.314590,113.972694 151.079880,114.972519 148.091965,117.764397 
	C144.908463,120.739067 142.363876,124.231918 139.989014,127.859886 
	C137.811966,131.185699 135.309494,131.570114 132.058914,129.116684 
	C124.816231,123.650139 124.243729,121.026917 129.835342,113.804054 
	C135.649780,106.293373 142.358124,99.806229 151.696701,96.703705 
	C156.861420,94.987846 161.803207,95.614738 165.838852,99.023666 
	C175.408752,107.107399 180.179474,118.417633 173.458984,130.840637 
	C172.354355,132.882568 171.297943,134.951736 170.266296,137.031662 
	C169.124237,139.334259 169.182159,141.467163 171.137772,143.401993 
	C173.611740,145.849655 173.103516,148.366638 171.319885,151.021271 
	C169.018341,154.446732 165.571594,156.465714 161.821167,156.757553 
	C158.391632,157.024429 157.209732,153.300003 156.030930,150.662766 
	C154.006058,146.132690 149.907181,141.937881 152.898972,136.300186 
	C153.594559,134.989456 154.178406,133.449173 155.256958,132.540863 
	C160.421524,128.191498 160.469040,122.901321 158.232956,116.825653 
M164.935516,145.050720 
	C161.265930,139.172012 164.239975,133.885254 167.262115,129.335907 
	C173.395554,120.103020 169.788605,110.274643 163.333557,104.730690 
	C160.688889,102.459305 157.653320,101.480766 154.524139,102.560989 
	C146.139664,105.455391 139.266678,110.582726 134.299347,117.987503 
	C132.828537,120.180016 132.458298,122.654060 135.875900,124.187668 
	C139.795166,120.047981 142.566544,115.036522 146.970871,111.404930 
	C150.481140,108.510544 154.121719,108.132362 158.148865,109.711174 
	C166.327759,112.917641 168.261780,125.751831 161.798889,133.770523 
	C156.404480,140.463516 156.379578,140.478455 160.661469,147.619766 
	C161.382385,148.822128 162.041260,150.703293 163.944550,149.962921 
	C165.924423,149.192780 166.773483,147.651627 164.935516,145.050720 
z"/>
<path fill="#000000" opacity="1.000000" stroke="none" 
	d="
M166.845413,166.234879 
	C168.227066,161.826660 171.635483,159.488190 174.593048,156.943954 
	C177.381531,154.545181 180.547073,156.430908 182.813309,158.124313 
	C185.941040,160.461441 187.312119,164.189301 185.708969,167.909073 
	C184.115204,171.607086 182.504974,175.969971 177.377213,176.112091 
	C172.559540,176.245605 168.011261,171.968292 166.845413,166.234879 
M177.288010,169.831207 
	C181.926666,166.865463 181.991714,164.467712 177.500336,162.004364 
	C172.218155,167.924377 172.218155,167.924377 177.288010,169.831207 
z"/>
<path fill="#000000" opacity="1.000000" stroke="none" 
	d="
M239.830353,465.308899 
	C243.184509,469.380707 244.049225,474.681427 248.314056,477.771667 
	C249.732040,478.799042 249.469681,480.445129 248.056686,481.618347 
	C246.248596,483.119629 245.243378,482.022064 244.015961,480.575623 
	C240.945969,476.957916 238.752838,472.720398 236.244003,468.913239 
	C233.855286,469.627808 233.673630,471.644470 232.418594,472.675140 
	C231.297684,473.595612 230.356567,475.137604 228.636124,474.530151 
	C227.092911,473.985260 226.258453,472.497101 226.323318,470.968109 
	C226.714523,461.745239 225.475479,452.360992 228.876389,443.419006 
	C229.170944,442.644531 229.440414,441.832855 229.891998,441.151428 
	C230.901978,439.627350 231.975983,437.788818 234.203720,438.876953 
	C236.259720,439.881195 235.463333,441.784363 234.861893,443.262115 
	C232.363419,449.401123 231.748276,455.741699 232.472198,462.820496 
	C235.802963,460.769928 238.297958,461.384674 239.830353,465.308899 
z"/>
<path fill="#000000" opacity="1.000000" stroke="none" 
	d="
M244.683685,234.597687 
	C241.805069,234.478317 241.121399,232.793640 240.844391,230.616486 
	C239.860794,222.885605 241.514618,215.436539 243.573929,208.128143 
	C245.060730,202.851517 247.819199,202.123215 251.955963,205.493286 
	C257.948822,210.375443 261.201782,217.006134 263.024139,224.337906 
	C263.770569,227.340866 262.495422,229.745529 259.121460,229.963379 
	C254.006683,230.293610 249.716034,232.934982 244.683685,234.597687 
M245.460632,223.492188 
	C245.451080,224.756821 244.824905,226.159378 246.335190,227.193008 
	C249.729843,226.162582 253.153503,225.123352 256.631775,224.067535 
	C256.464111,217.917831 253.203842,214.088348 248.788010,210.155960 
	C246.403366,214.521317 246.323242,218.704697 245.460632,223.492188 
z"/>
<path fill="#000000" opacity="1.000000" stroke="none" 
	d="
M230.596954,296.156647 
	C231.392090,289.683289 229.997711,284.749603 224.138016,281.475372 
	C220.277481,279.318207 220.435318,276.885315 224.328049,275.045166 
	C226.680252,273.933258 229.371262,273.213562 231.964035,273.012024 
	C235.741272,272.718414 237.326691,276.035522 235.604218,280.030731 
	C233.546051,284.804535 235.809586,290.065704 240.564468,291.461060 
	C242.730392,292.096619 246.226562,292.200165 245.704208,294.950714 
	C245.058685,298.349823 241.566483,297.222992 238.985794,296.894775 
	C238.343613,296.813110 237.698471,296.754669 236.871857,296.665924 
	C235.965515,298.306335 235.224014,299.984070 234.178970,301.444519 
	C233.151535,302.880341 231.969406,304.817688 229.781525,303.508179 
	C227.753296,302.294128 228.216751,300.471863 229.317169,298.738403 
	C229.761429,298.038574 230.111359,297.278839 230.596954,296.156647 
z"/>
<path fill="#000000" opacity="1.000000" stroke="none" 
	d="
M206.183395,285.318115 
	C203.821350,287.685028 201.557617,287.825073 199.403030,285.765045 
	C198.177658,284.593506 197.298645,283.133392 198.412033,281.347168 
	C199.593246,279.452118 201.345078,278.521149 203.477661,279.158630 
	C206.355682,280.018921 207.247269,282.128113 206.183395,285.318115 
z"/>
<path fill="#000000" opacity="1.000000" stroke="none" 
	d="
M248.825317,259.157776 
	C251.613281,259.868530 252.339783,261.595642 251.766510,263.797089 
	C251.300186,265.587830 249.819275,265.820251 248.162582,265.495056 
	C246.349808,265.139191 244.942841,264.241608 244.855545,262.322235 
	C244.749786,259.996918 246.346756,259.199463 248.825317,259.157776 
z"/>
</svg>