<svg version="1.1" id="Layer_1" xmlns="http://www.w3.org/2000/svg" xmlns:xlink="http://www.w3.org/1999/xlink" x="0px" y="0px"
	 width="100%" viewBox="0 0 720 992" enable-background="new 0 0 720 992" xml:space="preserve">
<path fill="#000000" opacity="1.000000" stroke="none" 
	d="
M609.750732,545.778442 
	C612.379944,530.679199 611.810730,515.788757 610.213989,501.271820 
	C609.199829,492.052124 607.317993,482.486084 603.695923,473.448181 
	C599.448242,462.849121 597.218933,451.515045 595.071289,440.293518 
	C594.102783,435.232880 591.341370,431.108673 589.587524,426.495605 
	C585.119324,414.742645 580.882141,402.854492 573.706238,392.273224 
	C570.227966,387.144348 570.194580,380.212708 565.484924,375.453491 
	C564.128662,374.082947 562.805298,372.556946 561.453491,371.116394 
	C560.225891,369.808167 559.493896,368.380493 560.294189,366.602814 
	C561.135742,364.733643 562.733826,363.815491 564.696655,363.867584 
	C568.031677,363.956085 571.232910,365.184326 572.813843,368.038239 
	C575.874146,373.562775 579.888916,378.705719 580.900696,385.200287 
	C581.380493,388.280396 583.150635,390.430786 585.035706,392.867950 
	C590.203735,399.549530 594.840149,406.530914 596.599731,415.224701 
	C597.552368,419.931274 600.409729,424.278015 602.568237,428.708923 
	C605.982483,435.717377 608.446655,442.807770 609.977051,450.651947 
	C611.652832,459.240845 612.909851,468.371460 617.574097,476.230896 
	C618.882019,478.434814 618.344604,480.814270 618.446289,483.069244 
	C618.807678,491.082611 623.725891,498.441864 621.585815,506.874725 
	C621.130615,508.668304 623.079590,510.944000 623.129089,513.016479 
	C623.308960,520.548157 623.597778,528.121765 623.026672,535.617188 
	C621.972351,549.453552 619.386597,563.105225 616.924866,576.752197 
	C614.482971,590.288879 609.600525,602.872437 602.374084,614.641479 
	C597.600159,622.416443 593.701294,630.736328 587.715637,637.735413 
	C582.678955,643.624817 577.712891,649.583069 572.466125,655.281189 
	C569.453735,658.552673 567.109558,662.292053 563.699951,665.362122 
	C558.110901,670.394531 551.708862,674.222534 545.593750,678.320435 
	C540.279968,681.881348 535.512695,686.522583 529.238220,688.691284 
	C528.101501,689.084229 527.280884,690.442444 526.359863,691.398804 
	C524.357056,693.478455 522.089355,695.371643 519.221680,695.723694 
	C512.222229,696.583130 506.539948,700.430786 500.283844,703.073242 
	C492.239807,706.470825 485.926666,713.031738 477.654633,715.301575 
	C468.616364,717.781738 460.344574,722.015808 451.570312,725.056580 
	C439.768188,729.146545 427.640472,732.087830 415.465057,733.779419 
	C401.831451,735.673645 388.224457,738.056824 374.051239,736.942444 
	C360.073547,735.843384 345.964478,734.332764 331.992310,734.562561 
	C324.116638,734.692078 316.719421,733.637207 309.185059,732.415649 
	C299.998291,730.926331 290.805573,730.234131 281.486664,730.075684 
	C276.389313,729.989075 271.877533,726.524719 267.126404,724.542908 
	C255.928802,719.872070 244.428116,715.839172 233.894821,709.705078 
	C225.950531,705.078735 217.344528,701.738220 210.390686,695.204407 
	C203.676682,688.895935 194.566971,685.742554 187.387787,679.820068 
	C175.456970,669.977600 166.313889,658.193787 158.688248,644.608459 
	C151.696594,632.152649 145.492874,619.353455 139.401535,606.515808 
	C135.837769,599.005188 132.457870,591.162720 132.641724,582.226379 
	C132.762604,576.350342 131.343735,570.367920 130.058151,564.556213 
	C128.378769,556.964172 129.309418,549.316772 128.932465,541.706787 
	C127.751938,517.873901 130.483704,494.315674 134.085022,470.796509 
	C135.857681,459.219788 139.478714,448.336273 143.200958,437.296478 
	C145.600708,430.179047 147.949036,422.992615 150.377625,415.846497 
	C152.134399,410.677246 154.449463,406.084198 158.584976,402.425446 
	C159.508972,401.607910 159.951248,400.184967 160.466537,398.977295 
	C162.356995,394.546570 164.450958,393.842621 168.573914,396.112366 
	C171.563614,397.758270 172.128433,399.619537 170.061905,402.528290 
	C163.363403,411.956787 158.723068,422.228790 155.914215,433.573181 
	C154.384811,439.750092 152.695969,446.044891 149.875000,451.976990 
	C146.719742,458.612122 146.765793,466.188385 145.379913,473.336639 
	C143.618622,482.421112 142.295425,491.614166 141.303818,500.816498 
	C140.568558,507.639618 139.595062,514.478394 139.998779,521.405518 
	C140.490051,529.834778 141.002518,538.272827 141.106949,546.712097 
	C141.243088,557.713318 143.461472,568.505188 144.186264,579.388855 
	C145.294754,596.034180 155.017487,609.013000 160.811737,623.657532 
	C164.556641,633.122498 170.363876,641.457703 175.468170,650.062317 
	C181.355011,659.986267 189.753845,668.461304 199.792633,674.588989 
	C208.672134,680.009094 217.408447,685.504578 225.095596,692.571045 
	C231.912247,698.837219 240.561218,701.495300 249.053604,704.454346 
	C253.442505,705.983643 257.928101,707.379395 262.075104,709.431396 
	C273.385864,715.027954 285.468384,717.539490 297.704437,720.178589 
	C304.534027,721.651550 311.621277,722.255188 318.393951,724.669983 
	C322.456543,726.118469 327.543762,724.443237 332.141022,724.699707 
	C339.315277,725.100037 346.606689,724.593323 353.595825,726.884888 
	C354.228607,727.092346 355.005005,727.587036 355.495361,727.393372 
	C361.475739,725.029968 367.542175,729.075989 373.536835,727.091003 
	C374.748444,726.689941 376.304108,726.559753 377.484314,726.953979 
	C386.697174,730.031067 395.500183,727.121521 404.393341,725.351562 
	C405.859467,725.059753 407.366150,724.698730 408.838928,724.756592 
	C420.037445,725.196472 430.562836,721.287292 441.330322,719.289551 
	C448.129730,718.027832 454.828644,714.806152 461.365784,712.035767 
	C465.510254,710.279541 469.914215,709.389893 473.961548,707.418335 
	C476.970398,705.952698 479.776886,704.482666 482.155670,701.942383 
	C485.850281,697.996826 491.517792,697.428406 496.092651,694.801208 
	C501.244263,691.842712 506.446960,688.806396 511.804291,686.256287 
	C517.255615,683.661377 522.246643,680.094421 526.716553,676.597473 
	C537.728027,667.982971 550.418884,661.801331 560.488525,651.764160 
	C570.614136,641.671326 579.482971,630.615723 587.253723,618.841431 
	C597.981750,602.586182 604.025513,584.286987 606.724609,564.937988 
	C607.597473,558.680664 608.711060,552.457031 609.750732,545.778442 
z"/>
<path fill="#000000" opacity="1.000000" stroke="none" 
	d="
M475.939209,258.939819 
	C477.939758,257.157654 479.756195,255.694992 481.481506,254.131775 
	C492.847168,243.833923 510.890564,244.091873 522.391357,254.233948 
	C536.488098,266.665283 545.065796,281.758362 548.535950,300.396454 
	C550.425964,310.547577 550.478577,320.788940 552.242798,330.874817 
	C553.120056,335.889679 553.195862,341.040558 554.890198,345.917938 
	C556.893005,351.683197 556.037231,357.796783 556.871765,363.722961 
	C557.386597,367.379364 553.764893,369.549866 550.788818,369.872864 
	C547.144287,370.268341 545.572632,366.883270 544.871765,363.694763 
	C543.622070,358.009125 544.461792,352.021637 542.691833,346.415253 
	C538.078308,331.801331 540.263367,316.336060 536.951111,301.566711 
	C534.071838,288.728302 528.611206,277.126038 520.038818,267.126343 
	C514.197998,260.313141 506.399139,257.230072 497.586853,257.315582 
	C492.805084,257.362000 489.423035,261.006073 486.462494,264.258118 
	C476.466797,275.238037 469.487396,288.334198 461.360718,300.639008 
	C457.363312,306.691559 454.887238,313.262482 451.988495,319.740540 
	C450.663879,322.700836 448.421967,325.446014 445.008362,325.305145 
	C442.218445,325.190002 440.553436,322.600464 439.863892,319.838989 
	C439.632996,318.914368 439.483276,317.748016 439.842865,316.933319 
	C442.191101,311.612762 443.932190,305.806519 447.293335,301.195190 
	C454.737427,290.982178 459.602753,279.161255 467.725586,269.419952 
	C470.491058,266.103455 473.056274,262.619995 475.939209,258.939819 
z"/>
<path fill="#000000" opacity="1.000000" stroke="none" 
	d="
M281.339355,325.801636 
	C285.075348,330.638611 281.720306,333.736908 278.901337,336.329529 
	C276.306580,338.715912 274.229279,336.258942 272.959991,334.076080 
	C267.543152,324.760040 261.159973,316.036377 255.770218,306.747833 
	C251.402863,299.221283 244.862976,294.499054 238.318253,289.483032 
	C236.752396,288.282928 235.267807,286.924744 233.959000,285.450043 
	C227.532516,278.209137 218.249084,277.697418 209.882965,276.456787 
	C201.330414,275.188477 191.410431,282.890900 189.355255,295.290344 
	C187.638123,305.650330 187.891647,316.181976 186.179306,326.409058 
	C183.580261,341.932312 184.914383,357.313995 185.482025,372.770477 
	C185.554382,374.740570 186.007355,376.702759 186.359406,378.655060 
	C186.882126,381.553772 185.508118,383.650940 183.143311,384.769653 
	C180.719040,385.916473 178.621292,384.700562 177.113617,382.599792 
	C175.837326,380.821411 175.038895,378.893799 174.745514,376.660645 
	C173.473938,366.982056 173.323120,357.284485 173.428604,347.529968 
	C173.577835,333.729340 174.315521,319.926483 175.980270,306.296600 
	C177.114685,297.008789 177.130417,287.056396 183.361908,278.860413 
	C190.194077,269.874420 199.145889,264.410858 210.248032,264.313904 
	C215.983002,264.263824 221.728577,267.252838 227.497772,268.760040 
	C232.799042,270.144989 237.081116,272.900330 240.840149,276.955261 
	C244.068466,280.437683 248.059998,283.127777 252.108566,285.758362 
	C263.233093,292.986572 268.357147,305.091003 275.400757,315.606750 
	C277.515106,318.763306 279.235046,322.184052 281.339355,325.801636 
z"/>
<path fill="#000000" opacity="1.000000" stroke="none" 
	d="
M394.890686,580.396545 
	C380.551819,580.518982 369.030670,575.078369 359.527618,564.718689 
	C356.164215,567.130005 353.350586,569.942993 350.338196,572.338989 
	C343.554932,577.734253 335.093719,576.555115 327.797668,579.647522 
	C323.690155,581.388428 314.398712,575.487488 312.441956,571.177612 
	C311.498962,569.100586 311.731720,567.267151 313.205170,565.631287 
	C315.016144,563.620728 317.341095,563.519836 319.634552,564.485291 
	C324.075836,566.354980 328.419006,566.368103 333.235901,565.639587 
	C345.125793,563.841370 351.659821,556.332336 353.955688,545.649719 
	C355.303986,539.376099 354.061768,532.312256 348.239838,527.517151 
	C346.312988,525.930176 344.248627,524.502014 342.974365,522.256409 
	C341.296692,519.299866 341.389709,516.726318 343.950500,514.146606 
	C351.569946,506.470795 360.598328,505.068817 370.048004,510.632812 
	C377.808624,515.202332 375.913757,523.070435 369.090576,528.738892 
	C366.059998,531.256470 365.759491,532.424316 366.775269,536.185608 
	C367.903290,540.362671 370.176849,544.477539 369.555298,549.181946 
	C369.174072,552.067627 371.788361,554.201355 373.320953,555.945251 
	C376.812408,559.918152 380.835724,564.461487 385.558655,566.049683 
	C391.367279,568.002747 398.086517,567.078369 403.764099,563.412231 
	C405.861603,562.057800 407.935120,560.652039 410.116913,559.445801 
	C413.094482,557.799561 415.256256,559.614868 417.125275,561.576050 
	C418.848083,563.383789 418.724792,565.566284 417.272705,567.505493 
	C411.757507,574.870544 404.681488,579.628479 394.890686,580.396545 
z"/>
<path fill="#000000" opacity="1.000000" stroke="none" 
	d="
M450.854736,454.318298 
	C446.184113,452.494354 442.212616,450.132385 437.733734,448.678101 
	C433.241608,447.219574 431.760559,442.638794 431.105591,438.310028 
	C430.330536,433.187531 430.967010,428.014130 431.830170,422.930176 
	C432.253693,420.435944 433.780731,418.403198 435.612274,416.640900 
	C441.846985,410.641815 448.416199,405.775909 457.918304,406.614746 
	C461.751923,406.953186 465.585419,405.766663 469.689972,406.457520 
	C484.815674,409.003235 493.279755,417.522491 494.868591,432.741272 
	C495.936768,442.972443 490.894928,450.858032 478.875885,454.671753 
	C469.930542,457.510162 460.390808,459.109192 450.854736,454.318298 
M450.501740,439.872284 
	C456.730347,443.357849 463.228363,444.606171 470.469818,443.805206 
	C478.669434,442.898315 484.761963,437.842804 483.743439,431.018280 
	C483.024689,426.202820 479.949280,422.067993 475.609955,420.473785 
	C466.533539,417.139191 457.378906,415.792053 448.348724,421.909485 
	C443.694763,425.062195 442.060272,428.911133 442.109009,433.955872 
	C442.157959,439.022949 447.142944,437.835449 450.501740,439.872284 
z"/>
<path fill="#000000" opacity="1.000000" stroke="none" 
	d="
M379.207886,298.339111 
	C365.498230,296.888885 352.309601,297.791138 339.157745,299.452118 
	C328.708313,300.771790 318.242798,302.046844 307.865295,303.816101 
	C303.012970,304.643402 298.349945,306.585449 293.606140,308.038666 
	C292.971497,308.233063 292.380157,308.690704 291.745453,308.742828 
	C288.155426,309.037872 283.725311,310.241119 282.233582,305.777069 
	C280.608124,300.912659 285.022461,299.682098 288.464508,298.471680 
	C307.604095,291.741211 327.715668,290.493866 347.639526,288.672974 
	C360.717651,287.477753 373.943878,287.764771 387.105804,287.670105 
	C397.003662,287.598907 406.985199,287.284393 416.773010,288.423218 
	C422.293365,289.065521 427.738800,289.614136 433.279602,289.624390 
	C436.672607,289.630646 440.442627,289.720032 440.790161,294.234924 
	C441.035736,297.424866 435.324493,301.446136 431.639801,301.094543 
	C425.203857,300.480316 418.789703,299.475342 412.341675,299.186829 
	C401.460968,298.699890 390.577972,297.914551 379.207886,298.339111 
z"/>
<path fill="#000000" opacity="1.000000" stroke="none" 
	d="
M523.792236,307.573242 
	C525.504822,317.218689 527.709412,326.413727 528.401062,335.721191 
	C528.830994,341.506104 529.255981,347.704529 527.007751,353.399017 
	C525.972229,356.021790 524.428345,358.908844 520.835938,357.962402 
	C517.435913,357.066650 515.466980,354.651001 515.914307,350.885925 
	C517.728149,335.618500 514.480713,320.918121 510.923706,306.258514 
	C510.455750,304.329895 509.740509,302.437805 508.935486,300.619232 
	C507.127197,296.534393 503.927948,295.920624 500.299988,298.276764 
	C493.227448,302.869904 490.419434,310.593262 486.110748,317.165619 
	C482.105316,323.275330 478.781891,329.833557 475.188232,336.211212 
	C473.401489,339.382141 470.992157,340.889130 467.355469,339.336426 
	C463.427734,337.659454 463.808563,334.584442 464.847870,331.356018 
	C465.203400,330.251648 465.568146,329.086273 466.218994,328.150726 
	C473.234619,318.066589 477.906555,306.507721 485.004730,296.609222 
	C493.097656,285.323608 501.449219,281.205811 511.930786,288.164337 
	C518.361328,292.433441 521.732483,299.595245 523.792236,307.573242 
z"/>
<path fill="#000000" opacity="1.000000" stroke="none" 
	d="
M237.352951,441.698486 
	C235.167191,438.550690 232.542099,436.097595 231.649475,432.583466 
	C229.434723,423.864410 234.580215,417.841461 239.887329,412.442535 
	C244.174469,408.081207 249.969269,405.322998 255.719513,403.193298 
	C265.396362,399.609283 274.723969,404.109314 280.941620,413.147980 
	C286.367920,421.036316 288.630432,429.091858 286.653107,438.389435 
	C285.585022,443.411713 280.507507,447.441620 275.315399,447.658875 
	C271.712311,447.809601 268.060944,447.916138 264.688751,449.557312 
	C263.967743,449.908203 263.060059,450.184326 262.292542,450.083344 
	C253.556458,448.933685 245.135925,446.778961 237.352951,441.698486 
M268.771698,415.772705 
	C261.370209,411.279724 249.087692,415.725311 246.620361,423.989349 
	C245.579468,427.475769 246.055649,430.815002 249.281326,433.406189 
	C253.943542,437.151367 268.305695,438.198059 273.492157,434.963837 
	C276.666473,432.984436 277.482941,428.793030 275.294434,425.389618 
	C273.325226,422.327240 271.286285,419.309601 268.771698,415.772705 
z"/>
<path fill="#000000" opacity="1.000000" stroke="none" 
	d="
M243.341400,337.701141 
	C238.018097,329.454498 233.146729,321.314453 225.061859,315.859070 
	C222.846390,314.364166 220.546738,312.572479 217.834885,314.122284 
	C215.068878,315.703033 214.102692,318.303101 213.991776,321.667114 
	C213.534973,335.524078 212.730652,349.369507 212.074738,363.220154 
	C212.004593,364.701477 211.919373,366.207825 212.101791,367.670074 
	C212.504349,370.897034 211.869003,373.617554 208.138550,373.794769 
	C204.737183,373.956299 202.437164,372.009888 202.073608,368.471924 
	C201.615967,364.018188 200.712158,359.476440 201.156235,355.089600 
	C202.378983,343.010254 201.066269,330.864899 202.568375,318.806030 
	C203.634766,310.244934 209.210556,302.146118 218.780029,301.519379 
	C221.385208,301.348724 223.311035,302.057770 225.307343,303.076447 
	C239.763504,310.453247 247.723495,323.829742 256.082642,336.779419 
	C257.631287,339.178467 254.840820,345.982697 252.008987,346.900238 
	C247.881149,348.237640 246.411346,345.397522 245.364044,342.096710 
	C244.915390,340.682709 244.169403,339.363037 243.341400,337.701141 
z"/>
<path fill="#000000" opacity="1.000000" stroke="none" 
	d="
M280.165375,480.940125 
	C280.822693,490.165924 274.963684,498.262543 266.543793,500.201447 
	C264.650665,500.637360 262.948639,500.229462 261.289551,499.257324 
	C252.813004,494.290497 251.998779,478.540710 259.936554,472.714539 
	C266.039673,468.234955 277.708405,472.762848 280.165375,480.940125 
z"/>
<path fill="#000000" opacity="1.000000" stroke="none" 
	d="
M452.373352,478.629150 
	C453.179871,479.508392 453.726349,480.136810 454.258301,480.777191 
	C460.998810,488.891479 456.792816,500.350830 446.328369,502.358429 
	C445.683960,502.482086 444.997986,502.563751 444.353363,502.484833 
	C436.307190,501.499786 430.472870,487.980133 435.593994,481.721497 
	C437.530823,479.354553 438.606049,475.941559 441.872894,474.919983 
	C446.008728,473.626678 449.330688,475.344849 452.373352,478.629150 
z"/>
</svg>