<?xml version="1.0" encoding="UTF-8" standalone="no" ?>
<!DOCTYPE svg PUBLIC "-//W3C//DTD SVG 1.1//EN" "http://www.w3.org/Graphics/SVG/1.1/DTD/svg11.dtd">
<svg xmlns="http://www.w3.org/2000/svg" xmlns:xlink="http://www.w3.org/1999/xlink" version="1.1" width="1080" height="1080" viewBox="0 0 1080 1080" xml:space="preserve">
<desc>Created with Fabric.js 5.2.4</desc>
<defs>
</defs>
<rect x="0" y="0" width="100%" height="100%" fill="transparent"></rect>
<g transform="matrix(1 0 0 1 540 540)" id="ab392bdc-118b-433f-aaa5-15367aef2ae4"  >
</g>
<g transform="matrix(1 0 0 1 540 540)" id="dd9e151c-db3e-486d-b655-911ef54ad300"  >
<rect style="stroke: none; stroke-width: 1; stroke-dasharray: none; stroke-linecap: butt; stroke-dashoffset: 0; stroke-linejoin: miter; stroke-miterlimit: 4; fill: rgb(255,255,255); fill-rule: nonzero; opacity: 1; visibility: hidden;" vector-effect="non-scaling-stroke"  x="-540" y="-540" rx="0" ry="0" width="1080" height="1080" />
</g>
<g transform="matrix(0 0 0 0 0 0)"  >
<g style=""   >
</g>
</g>
<g transform="matrix(0 0 0 0 0 0)"  >
<g style=""   >
</g>
</g>
<g transform="matrix(30.52 0 0 31.76 540 540)"  >
<g style=""   >
		<g transform="matrix(1 0 0 1 0 -0.23)"  >
<path style="stroke: none; stroke-width: 1; stroke-dasharray: none; stroke-linecap: butt; stroke-dashoffset: 0; stroke-linejoin: miter; stroke-miterlimit: 4; fill: rgb(250,205,240); fill-rule: nonzero; opacity: 1;" vector-effect="non-scaling-stroke"  transform=" translate(-17, -14.27)" d="M 28.112 11.2685 C 28.2042 11.1703 28.3032 11.0653 28.3953 10.9705 C 28.5387 10.923 28.665 10.8418 28.7913 10.8384 C 29.7334 10.8282 30.672 10.8316 31.597 10.8316 C 32.0749 11.3058 32.505 11.7969 33.0033 12.2101 C 33.5085 12.6301 33.5802 13.294 34 13.7546 C 33.7167 14.283 33.6894 14.9943 33.1398 15.3262 C 32.604 15.6514 31.9964 15.8546 31.6824 16.4338 L 29.4296 16.4338 C 29.3101 16.3288 29.1531 16.1899 28.9722 16.0341 L 19.8382 16.0341 C 19.705 16.1527 19.548 16.2949 19.374 16.4473 L 13.7386 16.4473 C 13.5816 16.593 13.4246 16.7386 13.2641 16.8877 L 11.1035 16.8877 C 10.9465 17.0299 10.7929 17.1688 10.6427 17.3077 C 10.5335 17.1993 10.4311 17.0977 10.2604 16.9283 C 10.1341 17.0231 9.99759 17.1248 9.78938 17.2806 L 3.36553 17.2806 C 3.18803 17.416 3.02419 17.5447 2.81598 17.7073 C 2.69652 17.6125 2.54974 17.4939 2.36543 17.3449 L 1.03423 17.3449 C 0.744102 16.9994 0.423251 16.6167 0 16.112 L 0 13.6598 C 0.0853328 13.5616 0.218452 13.4024 0.385704 13.2059 L 0.385704 12.3896 C 0.583676 12.183 0.778235 11.9764 1.01034 11.7359 L 3.66248 11.7359 C 3.73758 11.7969 3.90142 11.9256 4.17448 12.1424 L 5.43741 12.1424 C 5.6149 12.3185 5.7173 12.4201 5.84018 12.5421 L 9.7689 12.5421 C 9.88836 12.4371 10.0488 12.2982 10.2263 12.139 L 15.8514 12.139 C 16.0118 11.9934 16.1689 11.8511 16.3361 11.6987 L 21.1011 11.6987 C 21.2615 11.5497 21.4185 11.4074 21.5755 11.2618 L 28.112 11.2618 L 28.112 11.2685 Z" stroke-linecap="round" />
</g>
		<g transform="matrix(1 0 0 1 -1.82 11.54)"  >
<path style="stroke: none; stroke-width: 1; stroke-dasharray: none; stroke-linecap: butt; stroke-dashoffset: 0; stroke-linejoin: miter; stroke-miterlimit: 4; fill: rgb(250,205,240); fill-rule: nonzero; opacity: 1;" vector-effect="non-scaling-stroke"  transform=" translate(-15.18, -26.04)" d="M 28.9822 26.0369 L 28.8257 26.7516 C 28.9324 26.9344 29.0365 27.1133 29.1309 27.2726 C 28.9532 27.414 28.6396 27.5534 28.6484 27.6732 C 28.7022 28.4166 28.0067 28.7046 27.7373 29.249 C 27.4561 29.815 26.6751 29.4879 26.2339 29.8594 C 26.1871 29.8977 26.106 29.9008 26.0428 29.9181 C 25.6894 29.8407 25.3359 29.7633 24.9158 29.6713 C 24.7762 29.7344 24.5927 29.8225 24.3276 29.9482 L 22.6804 29.5875 C 22.3255 29.2775 21.9219 28.9187 21.4172 28.4788 L 18.9832 27.9458 C 18.8311 28.0339 18.644 28.1385 18.448 28.2516 L 16.7708 27.8844 C 16.5822 27.9957 16.3977 28.1043 16.2058 28.2149 L 14.9587 27.9418 C 14.7675 28.049 14.5926 28.146 14.4176 28.2429 C 14.3263 28.1015 14.248 27.9804 14.1279 27.7946 C 13.9761 27.8654 13.8203 27.9387 13.5869 28.0471 L 12.4766 27.804 C 11.882 27.9824 11.362 28.139 10.7297 28.3299 L 9.59265 28.0809 C 9.40406 28.1922 9.21953 28.3009 9.03094 28.4122 L 7.97729 28.1814 C 7.1046 28.2573 6.31648 28.8406 5.38475 28.5638 C 5.25688 28.5254 5.06091 28.7183 4.89957 28.8008 C 4.79256 28.6352 4.71427 28.5141 4.61249 28.3566 C 4.44709 28.4417 4.2743 28.5287 4.06904 28.6363 L 2.81533 28.3618 C 2.58569 28.1659 2.52171 27.708 2.02941 27.7701 C 1.77277 27.3464 1.51092 26.9146 1.22108 26.4351 L 1.85283 23.5499 C 2.4479 23.3057 2.4697 22.4402 3.1922 22.3002 C 3.65899 22.3227 4.16699 22.6038 4.5885 22.131 L 5.87554 22.4128 C 5.98472 22.5684 6.10361 22.7436 6.22845 22.9235 L 7.50216 23.2024 C 7.62058 23.1243 7.74235 23.0469 7.95007 22.9121 L 9.66057 23.2867 C 9.87163 23.1526 9.9934 23.0752 10.2045 22.9411 L 11.9083 23.3142 C 12.1193 23.1801 12.2411 23.1028 12.4156 22.9919 L 14.0428 23.3482 C 14.2499 23.2479 14.4375 23.1572 14.6602 23.0499 C 15.2431 23.1325 15.8701 23.2213 16.4963 23.3133 C 16.9035 22.7784 17.4488 23.352 17.8945 23.1514 C 18.026 23.0935 18.1407 23.0007 18.2624 22.9234 C 18.3306 22.9313 18.4035 22.9334 18.4702 22.948 C 19.2504 23.1189 20.0273 23.289 20.8475 23.4686 C 21.4784 23.045 22.1343 22.6027 22.8308 22.1346 L 24.1879 22.4317 C 24.399 22.2976 24.5207 22.2203 24.675 22.1223 L 26.899 22.6093 C 27.0039 22.8958 27.1524 23.3028 27.2375 23.5364 L 27.9678 23.6963 C 28.2855 24.4315 28.6121 25.1896 28.9774 26.0428 L 28.9822 26.0369 Z" stroke-linecap="round" />
</g>
		<g transform="matrix(1 0 0 1 -2.84 -10.36)"  >
<path style="stroke: none; stroke-width: 1; stroke-dasharray: none; stroke-linecap: butt; stroke-dashoffset: 0; stroke-linejoin: miter; stroke-miterlimit: 4; fill: rgb(250,205,240); fill-rule: nonzero; opacity: 1;" vector-effect="non-scaling-stroke"  transform=" translate(-14.16, -4.14)" d="M 21.519 6.32413 L 18.0074 6.8197 L 17.5874 6.50612 L 15.8941 6.74508 L 15.3382 6.37201 L 8.46364 7.34215 C 8.28058 7.21748 8.10476 7.0952 7.83403 6.91107 C 7.6038 7.08723 7.34552 7.28444 7.08433 7.48549 C 6.9803 7.40782 6.86471 7.32151 6.69517 7.19493 L 2.88949 7.73199 C 2.6871 7.61688 2.50688 7.51233 2.26305 7.37229 L 1.3674 7.49869 C 1.07388 7.17752 0.735144 6.80459 0.155818 6.16801 L -0.229917 3.43464 C 0.00382476 3.2101 0.364374 2.85821 0.864776 2.3737 C 1.42293 2.46938 1.85747 1.54264 2.73718 1.59637 C 2.87691 1.68269 3.05469 1.79442 3.27006 1.92822 L 4.93969 1.6926 C 5.12613 1.8168 5.30148 1.93572 5.49562 2.06567 L 9.352 1.52146 C 9.53506 1.64613 9.71088 1.7684 9.89394 1.89308 L 14.6291 1.22485 C 14.7524 1.31691 14.868 1.40322 14.9836 1.48953 C 15.1177 1.51165 15.2522 1.56108 15.3845 1.54583 C 16.0281 1.46527 16.6698 1.37129 17.2511 1.28925 C 17.4273 1.09677 17.5594 0.958403 17.6848 0.820987 C 17.839 0.936061 17.9546 1.02237 18.1549 1.17196 L 20.7472 0.806134 C 20.9515 0.958608 21.067 1.04491 21.2058 1.14848 L 25.4103 0.555139 C 26.3885 1.28251 27.3094 1.97008 28.2611 2.68067 L 28.5451 4.69296 C 28.2224 5.14213 27.9283 5.54964 27.7897 5.74023 C 27.3396 6.01925 27.1119 6.16427 27.2482 6.08003 C 26.8747 6.41324 26.8305 6.4913 26.7731 6.49941 C 25.6283 6.66781 24.482 6.82614 23.3464 6.9864 C 22.9058 6.28236 22.0305 7.06606 21.5292 6.3227 L 21.519 6.32413 Z" stroke-linecap="round" />
</g>
</g>
</g>
<g transform="matrix(NaN NaN NaN NaN 0 0)"  >
<g style=""   >
</g>
</g>
<g transform="matrix(NaN NaN NaN NaN 0 0)"  >
<g style=""   >
</g>
</g>
</svg>