<?xml version="1.0" standalone="no"?>
<!DOCTYPE svg PUBLIC "-//W3C//DTD SVG 20010904//EN"
 "http://www.w3.org/TR/2001/REC-SVG-20010904/DTD/svg10.dtd">
<svg version="1.0" xmlns="http://www.w3.org/2000/svg"
 width="302.000000pt" height="194.000000pt" viewBox="0 0 302.000000 194.000000"
 preserveAspectRatio="xMidYMid meet">

<g transform="translate(0.000000,194.000000) scale(0.100000,-0.100000)"
fill="#000000" stroke="none">
<path d="M363 1403 c-15 -21 -51 -63 -79 -94 l-52 -55 -6 35 c-3 20 -6 52 -6
72 0 38 -30 76 -50 64 -11 -7 -8 -80 10 -220 5 -38 12 -92 15 -118 7 -61 21
-89 43 -85 19 4 21 28 8 122 -9 67 0 68 40 5 34 -54 84 -98 112 -99 33 0 27
24 -16 73 -21 23 -49 59 -61 80 -20 33 -21 40 -9 55 8 9 32 38 55 64 40 48 58
94 47 123 -9 23 -21 18 -51 -22z"/>
<path d="M2234 1395 c-4 -8 -1 -43 4 -77 6 -35 14 -108 18 -163 8 -123 16
-147 47 -143 17 2 21 9 20 28 -22 253 -35 346 -50 358 -22 16 -32 15 -39 -3z"/>
<path d="M2139 1358 c-8 -15 -10 -54 -5 -127 8 -120 22 -189 43 -211 13 -13
16 -13 27 2 11 15 11 31 0 90 -7 40 -13 112 -13 160 -1 76 -4 89 -21 98 -16 8
-21 6 -31 -12z"/>
<path d="M1389 1341 c-26 -16 -50 -34 -53 -40 -8 -12 30 -89 54 -109 8 -7 36
-23 61 -37 45 -23 65 -48 53 -66 -9 -16 -38 -10 -78 17 -46 32 -68 21 -45 -22
34 -64 129 -85 175 -39 l25 26 29 -31 c35 -37 93 -42 110 -10 8 15 8 21 -2 24
-69 18 -73 21 -76 55 -4 41 19 69 61 73 17 2 32 8 34 15 7 19 -34 53 -63 53
-34 0 -94 -62 -94 -97 l0 -25 -37 33 c-21 19 -57 43 -80 53 -41 18 -61 45 -48
66 3 5 24 15 46 21 35 11 40 16 37 38 -4 39 -51 40 -109 2z"/>
<path d="M947 1332 c-15 -15 -34 -49 -42 -74 -11 -31 -21 -45 -33 -44 -20 1
-20 4 -2 -188 11 -109 18 -144 32 -158 9 -9 24 -15 33 -12 12 5 15 27 15 114
0 107 0 107 23 103 41 -8 94 21 102 55 9 43 -13 194 -32 215 -24 26 -65 21
-96 -11z m68 -103 c6 -50 4 -63 -11 -80 -9 -10 -25 -19 -36 -19 -15 0 -18 8
-18 43 0 46 34 132 49 123 5 -3 12 -33 16 -67z"/>
<path d="M525 1322 c-35 -12 -52 -26 -79 -66 -37 -55 -35 -110 4 -164 32 -44
57 -55 111 -50 26 2 34 8 34 23 0 15 -9 21 -38 26 -42 7 -82 38 -59 46 24 9
73 55 87 84 21 40 19 86 -4 99 -22 11 -26 11 -56 2z m28 -58 c11 -11 -25 -54
-44 -54 -23 0 -24 17 -2 42 16 18 35 23 46 12z"/>
<path d="M709 1317 c-48 -38 -85 -149 -68 -209 12 -48 51 -78 100 -78 41 0 69
20 69 51 0 22 -3 22 -46 10 -32 -9 -64 1 -64 21 0 6 20 32 45 59 24 26 47 60
51 75 14 57 -44 105 -87 71z m41 -63 c0 -14 -7 -27 -15 -31 -23 -8 -26 0 -13
35 13 35 28 33 28 -4z"/>
<path d="M1855 1266 c-17 -7 -36 -25 -43 -40 -6 -14 -17 -26 -23 -26 -12 0
-10 -19 11 -100 15 -59 36 -90 60 -90 23 0 26 23 9 67 -24 63 -7 136 33 146
22 6 24 43 2 51 -9 3 -16 6 -17 6 -1 -1 -16 -7 -32 -14z"/>
<path d="M2539 1260 c-8 -5 -24 -27 -34 -49 -10 -22 -22 -38 -27 -35 -5 3 -15
1 -23 -6 -10 -8 -11 -19 -3 -47 5 -19 7 -45 4 -56 -7 -27 10 -47 39 -47 18 0
24 7 30 38 10 60 28 112 37 112 4 0 8 -22 8 -49 0 -102 20 -136 64 -108 13 9
29 11 42 6 13 -4 31 -2 47 6 25 13 25 13 51 -64 35 -102 34 -135 -1 -150 -69
-27 -150 -15 -180 28 -19 28 -33 27 -33 -3 0 -32 36 -75 76 -92 63 -26 176
-12 215 27 32 32 25 85 -29 226 -11 29 -23 72 -27 95 -10 57 -22 78 -44 78
-10 0 -24 7 -31 15 -18 22 -35 18 -62 -14 l-25 -28 -12 46 c-19 70 -45 93 -82
71z m191 -127 c-1 -16 -28 -43 -44 -43 -21 0 -21 26 2 39 20 12 42 14 42 4z"/>
<path d="M1994 1216 c-30 -13 -64 -66 -64 -100 0 -35 30 -85 59 -100 33 -17
69 -10 103 21 42 38 -2 194 -54 193 -7 -1 -27 -7 -44 -14z m51 -101 c0 -36 -3
-40 -25 -40 -29 0 -38 31 -20 65 19 35 45 21 45 -25z"/>
<path d="M2336 1191 c-6 -8 11 -129 20 -143 3 -4 14 -8 25 -8 17 0 19 7 19 61
0 33 -5 69 -10 80 -11 19 -44 26 -54 10z"/>
<path d="M2325 900 c-6 -9 3 -74 26 -192 14 -68 50 -112 73 -87 13 12 12 27
-5 104 -10 50 -19 103 -19 118 0 41 -17 67 -45 67 -13 0 -27 -4 -30 -10z"/>
<path d="M664 853 c-14 -14 -16 -30 -10 -98 3 -44 6 -121 6 -171 0 -72 3 -93
15 -98 28 -10 43 5 50 50 3 24 12 47 18 51 7 5 18 22 26 38 13 29 13 30 22 7
5 -12 10 -46 12 -74 3 -58 21 -72 52 -42 14 15 16 29 10 93 -11 125 -57 173
-110 115 l-25 -27 0 75 c0 93 -24 123 -66 81z"/>
<path d="M1440 767 c-9 -6 -29 -29 -44 -49 l-28 -38 -20 25 c-13 17 -29 25
-49 25 -26 0 -33 -6 -49 -42 -11 -24 -20 -38 -20 -32 0 19 -50 23 -59 5 -11
-20 5 -149 20 -167 14 -17 53 -18 67 -1 5 6 17 41 25 76 9 35 18 65 20 67 2 3
11 -17 19 -43 29 -90 73 -84 99 13 15 58 37 104 50 104 10 0 19 -40 19 -85 0
-73 11 -114 32 -121 38 -12 44 8 36 112 -9 115 -29 158 -73 161 -17 2 -37 -3
-45 -10z"/>
<path d="M2009 678 c-18 -24 -34 -44 -35 -46 -1 -2 -12 6 -23 17 -12 12 -25
21 -30 21 -9 0 -41 -27 -41 -35 0 -14 60 -133 73 -143 27 -23 56 -5 63 37 7
42 43 112 60 118 6 2 26 -19 44 -47 37 -57 72 -85 95 -76 31 11 13 52 -68 159
-24 31 -34 37 -67 37 -33 0 -43 -6 -71 -42z"/>
<path d="M1057 693 c-4 -3 -4 -23 -1 -45 6 -35 3 -41 -31 -73 -20 -19 -41 -32
-46 -29 -6 3 -9 31 -7 62 l3 57 -30 0 c-33 0 -42 -19 -44 -97 -1 -40 3 -50 26
-68 35 -27 81 -22 130 16 66 50 94 132 57 168 -16 16 -46 21 -57 9z"/>
<path d="M1653 665 c-22 -16 -43 -70 -43 -113 0 -28 42 -72 69 -72 11 0 31 12
44 26 l24 25 41 -21 c57 -30 112 -12 112 35 0 21 -3 22 -45 18 -42 -5 -45 -4
-62 27 -27 48 -72 90 -97 90 -12 0 -31 -7 -43 -15z m57 -64 c0 -17 -12 -41
-21 -41 -5 0 -9 11 -9 25 0 16 6 25 15 25 8 0 15 -4 15 -9z"/>
<path d="M2412 551 c-25 -16 -9 -46 26 -49 34 -3 39 6 22 39 -11 20 -27 24
-48 10z"/>
</g>
</svg>
