<?xml version="1.0" standalone="no"?>
<!DOCTYPE svg PUBLIC "-//W3C//DTD SVG 20010904//EN"
 "http://www.w3.org/TR/2001/REC-SVG-20010904/DTD/svg10.dtd">
<svg version="1.0" xmlns="http://www.w3.org/2000/svg"
 width="3024.000000pt" height="4032.000000pt" viewBox="0 0 3024.000000 4032.000000"
 preserveAspectRatio="xMidYMid meet">

<g transform="translate(0.000000,4032.000000) scale(0.100000,-0.100000)"
fill="#000000" stroke="none">
<path d="M28760 22875 c0 -16 6 -25 15 -25 8 0 15 9 15 19 0 10 -7 21 -15 25
-11 4 -15 -1 -15 -19z"/>
<path d="M7126 22507 c-11 -7 -29 -20 -40 -31 -12 -10 -36 -29 -53 -43 -18
-14 -33 -32 -33 -39 0 -8 -3 -14 -7 -14 -5 0 -19 -17 -33 -38 -14 -20 -33 -44
-42 -53 -10 -9 -18 -23 -18 -30 0 -8 -9 -21 -20 -29 -11 -8 -20 -20 -20 -28 0
-7 -10 -23 -22 -36 -13 -13 -30 -34 -38 -47 -8 -12 -25 -33 -37 -46 -13 -13
-23 -28 -23 -33 0 -14 -28 -48 -87 -107 -29 -28 -53 -56 -53 -61 0 -5 -27 -34
-60 -63 -33 -30 -60 -60 -60 -68 0 -7 -10 -22 -22 -32 -11 -11 -18 -19 -14
-19 4 0 -6 -14 -24 -31 -17 -17 -43 -48 -58 -67 -31 -42 -123 -132 -134 -132
-5 0 -8 -6 -8 -12 0 -7 -16 -30 -34 -51 -19 -21 -36 -42 -38 -48 -2 -5 -13
-11 -25 -12 -12 0 -20 -4 -17 -8 8 -13 -79 -89 -101 -89 -23 -1 -55 -22 -55
-38 0 -6 -6 -17 -13 -24 -29 -30 -48 -88 -43 -133 3 -25 2 -45 -3 -45 -5 0
-11 -9 -14 -20 -3 -14 -10 -18 -21 -14 -9 4 -15 12 -13 18 6 17 -22 68 -34 60
-7 -4 -7 2 1 15 13 26 11 153 -3 162 -5 4 -10 46 -12 95 -4 130 -15 314 -21
349 -3 17 -8 71 -11 120 -3 50 -10 93 -15 96 -5 3 -4 17 3 32 9 19 9 43 2 87
-5 33 -6 63 -1 66 15 9 8 40 -12 59 -11 10 -20 24 -20 32 0 8 -4 11 -10 8 -5
-3 -11 4 -11 17 -2 44 -19 89 -29 83 -13 -8 -51 47 -45 63 3 9 0 12 -9 9 -7
-3 -23 7 -35 24 -12 16 -33 32 -46 35 -14 3 -25 12 -25 19 0 7 -7 16 -16 19
-24 9 -94 7 -94 -3 0 -5 -15 -14 -32 -21 -103 -39 -128 -61 -128 -113 0 -24 3
-28 10 -17 6 10 10 -24 10 -100 1 -63 2 -126 4 -140 4 -45 27 -111 35 -105 11
6 21 -78 20 -173 0 -40 4 -78 8 -85 11 -18 13 -34 19 -127 6 -112 11 -171 22
-255 5 -38 10 -128 10 -199 0 -77 5 -132 11 -135 5 -4 11 -23 13 -44 1 -20 5
-37 8 -37 3 0 7 -14 8 -31 1 -18 5 -36 9 -42 3 -6 8 -44 10 -86 6 -132 9 -166
17 -179 4 -7 7 -44 7 -82 0 -38 4 -72 10 -75 5 -4 9 -21 8 -38 -1 -18 4 -63
11 -102 7 -38 12 -81 11 -94 0 -14 5 -28 11 -33 10 -6 10 -8 1 -8 -7 0 -13 -7
-13 -15 0 -8 4 -15 8 -15 5 0 9 -12 9 -27 1 -16 2 -63 4 -105 1 -43 6 -78 11
-78 4 0 8 -7 8 -15 0 -8 4 -15 8 -15 10 0 9 -57 -1 -66 -10 -11 -8 -121 2
-142 24 -46 41 -92 40 -113 -1 -45 13 -134 22 -143 5 -6 9 -20 9 -33 0 -13 5
-23 10 -23 6 0 10 -9 10 -20 0 -11 4 -20 10 -20 5 0 9 -8 8 -17 -4 -47 2 -62
22 -58 15 3 20 -2 20 -17 0 -22 46 -68 69 -68 8 0 11 -7 8 -20 -3 -11 -1 -20
5 -20 5 0 16 -6 23 -14 18 -17 63 -9 67 12 2 11 15 17 35 18 18 1 30 -2 27 -7
-3 -5 6 -9 19 -9 14 0 28 7 31 16 5 13 9 14 20 5 14 -12 24 1 32 38 1 7 12 20
23 28 17 11 21 25 21 64 0 52 -19 129 -32 129 -13 0 -9 45 5 59 9 11 9 15 0
18 -8 3 -10 15 -6 34 4 22 2 29 -11 29 -17 0 -18 7 -16 104 1 37 -3 62 -11 67
-7 4 -14 16 -15 26 -1 10 -7 52 -12 93 -6 41 -8 78 -6 82 3 5 -4 65 -15 136
-11 70 -25 168 -32 217 -6 50 -15 100 -20 113 -12 30 -11 173 1 192 5 8 10 11
11 5 1 -5 2 -14 4 -20 1 -5 3 -16 3 -22 1 -7 13 -13 26 -13 26 0 50 -22 38
-35 -4 -5 0 -6 9 -3 22 8 32 -1 54 -47 10 -22 32 -55 49 -73 35 -36 76 -105
76 -126 0 -7 13 -19 28 -25 20 -8 28 -20 30 -39 1 -15 7 -28 12 -30 6 -2 10
-11 10 -20 0 -9 10 -27 23 -38 12 -12 23 -34 25 -49 2 -27 23 -55 41 -55 5 0
13 -10 17 -22 9 -31 46 -73 63 -73 8 0 15 -8 17 -18 1 -10 9 -26 18 -35 8 -10
15 -20 15 -24 1 -5 2 -10 2 -13 1 -3 3 -9 4 -15 1 -5 4 -12 5 -15 3 -7 7 -23
9 -36 0 -7 13 -9 31 -7 25 4 32 0 45 -29 9 -18 23 -33 31 -33 9 0 18 -9 21
-20 3 -11 11 -20 18 -20 6 0 20 -9 30 -20 10 -11 24 -20 31 -20 13 0 74 -54
74 -65 0 -12 29 -35 44 -35 15 0 20 -21 19 -67 -1 -14 7 -16 50 -13 15 1 27
-2 27 -7 0 -5 17 -15 37 -22 20 -8 48 -25 62 -38 18 -17 35 -23 54 -20 15 2
27 0 27 -5 0 -4 20 -8 45 -8 25 0 45 5 45 10 0 6 11 10 25 10 14 0 25 5 25 10
0 6 5 10 11 10 5 0 7 -4 4 -10 -12 -19 4 -10 30 17 14 15 25 24 25 19 0 -5 7
-3 15 4 17 15 22 165 5 175 -5 3 -10 15 -10 26 0 10 -4 19 -10 19 -14 0 -80
66 -80 80 0 7 -10 26 -22 43 -12 17 -23 37 -24 44 -3 19 -30 43 -48 43 -9 0
-16 6 -16 14 0 17 -50 28 -66 15 -15 -12 -25 11 -17 40 3 12 1 21 -4 21 -11 0
-93 74 -93 84 0 5 -11 17 -25 28 -14 11 -25 28 -25 39 0 14 -14 26 -45 39 -37
16 -47 26 -52 51 -3 18 -15 35 -28 41 -13 6 -29 21 -36 34 -7 13 -16 24 -21
24 -4 0 -8 7 -8 15 0 8 -5 15 -12 15 -6 0 -9 3 -6 6 8 8 -20 75 -42 99 -10 11
-21 30 -25 43 -3 12 -10 22 -15 22 -4 0 -11 11 -14 25 -4 14 -11 25 -17 25 -6
0 -8 4 -5 9 3 5 -1 11 -9 15 -8 3 -15 15 -15 27 0 12 -3 19 -7 16 -8 -9 -43
22 -43 38 0 7 -9 22 -20 35 -11 13 -21 27 -21 32 -1 4 -3 13 -4 18 -1 6 -3 19
-4 30 -1 12 -8 20 -19 20 -27 0 -59 40 -67 81 -6 33 -3 41 29 75 20 21 36 44
36 50 0 7 14 22 30 34 17 12 38 40 47 61 9 24 27 46 44 55 16 8 29 20 29 27 0
7 16 26 35 42 19 17 35 36 35 43 0 6 5 12 10 12 6 0 10 6 10 13 0 7 13 24 30
37 16 14 29 29 30 33 0 13 27 37 40 37 6 0 8 5 5 10 -3 6 1 10 10 10 9 0 13 5
10 10 -3 6 -2 10 3 10 14 0 52 36 52 49 0 6 5 11 10 11 6 0 10 4 10 9 0 5 17
27 38 48 60 65 86 105 75 117 -3 3 -1 6 5 6 17 0 82 60 82 76 0 8 4 14 8 14 5
0 15 18 22 40 7 22 19 40 27 40 7 0 18 10 23 23 5 12 24 38 42 57 38 41 73
112 65 133 -3 8 -2 18 3 23 4 5 10 25 13 45 2 19 9 44 14 55 26 49 34 260 11
275 -5 3 -9 9 -8 13 2 13 -38 92 -58 112 -12 12 -18 24 -15 28 5 5 -41 27 -55
25 -4 0 -16 -6 -26 -12z"/>
<path d="M21713 22267 c-18 -5 -33 -16 -33 -23 0 -7 -9 -15 -19 -19 -11 -3
-26 -19 -33 -35 -7 -17 -16 -30 -20 -30 -5 0 -8 -16 -8 -35 0 -19 -5 -46 -12
-60 -10 -21 -9 -28 2 -35 8 -5 13 -24 12 -47 -1 -21 3 -51 9 -66 9 -21 9 -31
0 -40 -13 -13 -15 -57 -1 -57 5 0 8 -22 6 -50 -2 -38 2 -54 16 -67 12 -10 16
-23 12 -36 -4 -13 -2 -17 5 -13 8 5 11 -11 11 -51 0 -32 7 -80 15 -107 8 -26
12 -53 8 -59 -12 -20 -13 -100 0 -126 8 -16 13 -74 15 -154 1 -71 7 -137 13
-148 5 -11 7 -23 4 -28 -3 -5 0 -22 5 -37 6 -15 13 -84 16 -153 3 -69 6 -144
8 -166 15 -157 16 -194 6 -200 -5 -3 -10 -11 -10 -16 0 -6 5 -7 10 -4 6 4 11
-8 12 -27 1 -18 3 -44 3 -58 1 -14 5 -45 8 -70 4 -25 8 -94 8 -155 1 -60 6
-113 11 -116 5 -3 5 -16 -1 -31 -7 -18 -6 -39 1 -65 6 -21 13 -69 14 -108 2
-38 5 -107 7 -152 2 -45 1 -87 -3 -93 -4 -7 3 -23 16 -37 20 -21 24 -37 24
-85 0 -54 4 -64 38 -106 20 -26 40 -48 45 -50 4 -2 7 -13 7 -23 0 -11 5 -17
10 -14 6 3 10 -1 10 -9 0 -9 5 -16 10 -16 6 0 10 -6 10 -14 0 -8 9 -18 20 -21
11 -3 20 -10 20 -15 0 -10 67 -25 98 -22 15 2 21 -1 17 -7 -11 -19 36 -12 67
10 16 12 32 18 35 15 3 -3 12 -1 20 5 7 6 13 8 13 5 0 -10 40 32 73 77 23 30
28 45 24 80 -2 23 -11 56 -20 73 -9 17 -18 50 -21 74 -3 24 -11 47 -18 52 -10
8 -10 11 0 15 14 6 16 43 2 43 -5 0 -10 16 -10 36 0 19 -7 43 -16 51 -8 9 -13
25 -10 36 2 11 -2 30 -10 42 -8 12 -12 29 -8 38 3 9 1 31 -5 50 -6 18 -13 60
-15 92 -2 33 -7 72 -10 86 -5 16 -3 30 3 33 17 11 14 66 -3 66 -12 0 -13 7 -5
32 12 43 11 54 -3 70 -7 7 -14 27 -14 43 -6 121 -8 145 -17 145 -6 0 -7 25 -3
62 3 37 1 66 -5 74 -7 9 -7 24 0 48 6 22 6 38 0 42 -5 3 -7 9 -5 13 3 4 0 39
-5 77 -6 38 -16 125 -24 194 -11 107 -11 128 1 147 16 25 19 53 6 53 -12 0
-34 74 -23 78 5 2 2 17 -7 35 -12 23 -17 65 -18 147 -2 63 -3 151 -4 195 -1
44 -7 113 -12 153 -9 57 -8 78 2 98 12 21 11 31 -8 77 -12 29 -22 71 -22 95 0
23 -4 42 -10 42 -5 0 -10 16 -10 35 0 19 -4 35 -10 35 -5 0 -10 8 -10 18 0 27
-66 96 -86 88 -10 -4 -24 5 -41 24 -13 17 -31 30 -39 30 -8 0 -14 4 -14 9 0
21 -81 33 -127 18z"/>
<path d="M15672 22038 c-7 -7 -12 -17 -12 -22 0 -6 -12 -17 -27 -24 -23 -10
-29 -10 -36 3 -6 11 -18 14 -40 11 -18 -3 -48 -8 -68 -10 -44 -7 -72 -16 -81
-30 -4 -5 -29 -10 -57 -9 -34 0 -51 -4 -55 -13 -3 -8 -14 -14 -25 -14 -11 0
-22 -4 -26 -9 -3 -5 -21 -7 -40 -4 -30 5 -38 1 -56 -21 -22 -28 -107 -76 -134
-76 -8 0 -15 -4 -15 -8 0 -5 -22 -19 -48 -31 -27 -13 -57 -35 -68 -49 -36 -48
-106 -112 -124 -112 -6 0 -10 -4 -10 -10 0 -5 -9 -10 -20 -10 -12 0 -30 -9
-42 -20 -12 -11 -27 -20 -33 -20 -6 0 -17 -16 -24 -36 -15 -40 -40 -74 -56
-74 -5 0 -15 -10 -21 -23 -6 -12 -19 -36 -28 -54 -16 -30 -15 -36 7 -121 14
-50 34 -104 46 -120 11 -17 21 -40 21 -52 0 -21 33 -60 52 -60 4 0 8 -11 8
-23 0 -13 9 -32 20 -42 11 -10 20 -23 20 -29 0 -7 8 -19 18 -28 27 -25 52 -60
70 -98 9 -19 19 -37 23 -40 5 -4 16 -49 21 -87 1 -7 10 -13 20 -13 21 0 51
-24 41 -34 -3 -3 6 -10 20 -15 24 -9 86 -65 104 -93 10 -16 48 -38 66 -38 7 0
23 -11 35 -25 12 -14 28 -25 36 -25 8 0 19 -6 23 -13 15 -23 123 -90 150 -93
14 -2 29 -8 33 -13 3 -6 23 -12 43 -13 20 -2 37 -5 37 -8 0 -3 21 -18 48 -35
26 -16 51 -35 55 -42 4 -7 17 -13 28 -13 11 0 22 -7 25 -15 4 -8 10 -13 14
-10 14 9 62 -15 82 -40 13 -17 29 -25 49 -25 22 0 32 -6 39 -25 5 -14 20 -30
34 -36 14 -7 26 -23 29 -38 3 -15 22 -45 41 -67 38 -42 42 -54 26 -82 -5 -9
-14 -36 -20 -59 -6 -24 -15 -43 -21 -43 -5 0 -19 -8 -30 -19 -24 -23 -122 -43
-192 -40 -29 1 -60 -2 -70 -6 -11 -5 -29 1 -52 19 -25 19 -41 25 -60 20 -17
-4 -25 -2 -25 7 0 7 -3 10 -6 6 -3 -3 -15 3 -27 14 -11 10 -33 19 -48 19 -15
0 -29 6 -32 14 -3 8 -18 20 -33 28 -15 7 -28 21 -30 31 -3 24 -33 46 -60 47
-14 0 -26 10 -33 28 -16 38 -77 95 -103 96 -18 1 -24 8 -26 31 -5 43 -17 50
-43 26 -25 -23 -55 -28 -61 -9 -5 14 -51 4 -72 -17 -8 -8 -26 -15 -40 -15 -18
0 -26 -6 -27 -17 -2 -43 3 -100 10 -123 5 -14 13 -43 19 -65 6 -22 17 -61 24
-87 8 -33 18 -48 29 -48 9 0 24 -17 34 -40 10 -22 22 -40 26 -40 4 0 11 -9 14
-20 3 -11 13 -20 21 -20 9 0 33 -19 55 -42 21 -24 46 -50 54 -59 8 -9 15 -19
15 -23 0 -13 28 -36 45 -36 9 0 13 -5 10 -11 -10 -15 30 -49 58 -49 13 0 32
-9 42 -20 10 -11 24 -20 32 -20 7 0 13 -4 13 -10 0 -5 9 -10 19 -10 11 0 23
-4 26 -10 3 -5 20 -10 36 -10 31 0 69 -15 80 -32 3 -5 30 -11 60 -13 93 -7
143 -15 153 -25 6 -6 20 -10 32 -10 13 0 26 -4 29 -10 8 -14 58 -13 72 1 11
11 41 15 150 22 29 1 60 10 70 18 19 17 83 42 83 32 0 -3 9 5 20 18 10 13 19
20 20 16 0 -5 10 -1 22 7 12 9 30 16 39 16 18 0 29 19 29 52 0 20 22 48 38 48
15 0 53 46 45 55 -5 4 -3 5 4 1 8 -4 20 9 34 36 12 24 25 45 29 48 5 3 10 16
11 30 2 14 19 41 37 60 23 25 31 41 27 58 -3 12 -1 22 5 22 5 0 10 -3 11 -7 0
-5 2 -17 5 -28 2 -11 7 -43 12 -70 9 -61 18 -75 42 -75 15 0 29 -16 34 -40 5
-19 32 -70 38 -70 5 0 8 -9 8 -21 0 -11 4 -18 9 -15 11 7 91 -72 91 -90 0 -7
8 -15 18 -18 10 -4 35 -22 56 -41 21 -19 45 -35 53 -35 8 0 11 -5 8 -10 -4 -6
5 -10 23 -8 19 1 42 -7 63 -23 19 -14 51 -34 72 -44 35 -17 39 -17 56 -1 17
15 20 16 28 2 6 -11 17 -13 43 -8 19 4 74 7 122 7 47 0 85 2 83 5 -2 3 4 6 13
7 67 6 120 16 140 26 30 14 74 80 90 135 7 23 17 42 22 42 6 0 10 24 10 53 -1
55 3 49 -79 117 -14 12 -31 18 -40 14 -24 -9 -112 -11 -117 -2 -3 4 -15 8 -28
8 -12 0 -26 4 -32 10 -6 6 -21 6 -42 -2 -28 -11 -33 -10 -46 7 -14 19 -17 19
-43 4 -34 -19 -53 -6 -53 36 0 14 -1 25 -2 25 -2 0 -24 -6 -49 -14 -51 -16
-58 -13 -78 27 -8 15 -18 27 -23 27 -4 0 -8 6 -8 13 0 7 -8 22 -18 33 -34 38
-51 96 -52 189 -1 50 -2 97 -3 105 -1 28 56 235 70 248 7 7 13 18 13 23 0 5 7
9 15 9 8 0 15 7 15 15 0 19 115 141 162 171 50 32 113 45 163 34 75 -17 143
-22 150 -11 4 8 11 6 22 -4 18 -19 51 -12 75 16 9 10 21 19 27 19 6 0 11 4 11
10 0 5 12 20 26 33 22 20 27 36 32 92 4 58 2 70 -13 81 -10 8 -18 28 -20 51
-1 32 -5 38 -23 37 -12 0 -22 3 -22 7 0 5 -20 22 -45 39 -27 19 -45 39 -45 50
0 11 -4 20 -10 20 -5 0 -10 9 -10 20 0 11 -6 20 -12 21 -7 0 -26 3 -43 5 -16
2 -42 5 -57 5 -16 0 -28 4 -28 10 0 17 -104 57 -168 62 -48 5 -72 2 -100 -11
-20 -9 -39 -20 -42 -23 -5 -6 -45 -28 -95 -52 -16 -8 -55 -39 -86 -68 -30 -30
-72 -62 -92 -73 -19 -10 -41 -31 -47 -47 -7 -16 -16 -29 -20 -29 -20 0 -81
-74 -120 -148 -24 -46 -52 -91 -62 -102 -10 -11 -18 -24 -18 -31 0 -6 -6 -25
-13 -42 -27 -62 -39 -111 -72 -287 -9 -47 -16 -91 -17 -97 -2 -21 -18 -15 -18
7 0 11 -7 20 -15 20 -8 0 -15 6 -15 13 0 7 -9 23 -20 35 -11 12 -20 26 -20 32
0 6 -11 15 -24 20 -18 6 -27 20 -31 44 -5 25 -13 36 -31 40 -12 3 -35 22 -50
41 -14 19 -33 35 -41 35 -7 0 -31 18 -53 41 -21 22 -42 39 -46 37 -5 -2 -13
11 -19 27 -13 39 -27 53 -65 66 -16 6 -30 15 -30 20 0 5 -10 9 -21 9 -24 0
-94 36 -121 63 -10 9 -25 17 -35 17 -16 0 -73 56 -73 72 0 4 -7 8 -15 8 -8 0
-15 -5 -15 -11 0 -6 -12 -9 -27 -7 -19 2 -32 12 -41 31 -11 23 -19 27 -58 27
-29 0 -44 4 -44 13 0 7 -22 21 -50 32 -27 11 -50 25 -50 32 0 7 -3 12 -7 11
-5 -1 -18 3 -30 10 -12 6 -29 9 -37 6 -18 -7 -108 84 -112 113 -2 9 -10 20
-18 25 -9 5 -16 16 -16 23 0 8 -4 15 -9 15 -5 0 -12 12 -15 26 -4 15 -14 33
-22 42 -10 9 -13 23 -9 36 3 12 7 28 8 36 3 20 38 73 55 84 8 4 28 23 46 42
17 18 47 39 66 45 19 7 47 21 62 31 15 10 45 20 67 21 22 0 38 4 36 7 -2 4 5
13 16 20 10 8 19 20 19 27 0 16 19 20 120 28 47 4 93 11 102 16 10 5 31 11 48
13 17 2 32 5 34 7 13 14 44 83 41 89 -3 4 4 15 15 25 11 10 23 33 26 52 5 28
3 37 -13 48 -13 9 -22 31 -26 57 -10 71 -53 137 -104 160 -37 16 -42 22 -33
38 12 22 13 80 2 80 -4 0 -13 -5 -20 -12z"/>
<path d="M20948 22017 c-7 -7 -27 -23 -45 -35 -17 -12 -35 -33 -38 -45 -4 -12
-15 -42 -26 -66 -11 -23 -24 -66 -29 -95 -10 -56 -6 -760 5 -866 4 -36 6 -93
5 -127 -1 -35 2 -63 7 -63 4 0 9 -54 10 -120 0 -66 4 -128 8 -138 9 -20 15
-85 19 -192 1 -41 11 -115 21 -165 10 -49 17 -103 17 -119 -1 -17 5 -50 14
-75 28 -82 33 -131 18 -173 -10 -30 -11 -38 0 -38 7 0 22 -9 33 -20 17 -15 21
-28 18 -60 -3 -23 0 -40 6 -40 6 0 8 -4 4 -9 -3 -5 1 -29 9 -53 10 -27 12 -46
6 -52 -16 -16 -12 -59 10 -104 11 -22 20 -50 20 -62 0 -11 9 -28 20 -37 11
-10 20 -23 20 -29 0 -6 14 -17 30 -24 17 -7 30 -19 30 -26 0 -8 16 -16 40 -20
22 -4 40 -11 40 -16 0 -5 32 -8 72 -6 81 3 80 3 128 126 14 34 28 62 32 62 5
0 8 6 8 14 0 8 5 16 11 18 7 2 7 12 0 31 -6 16 -11 43 -11 62 0 19 -4 36 -8
39 -4 2 -9 40 -10 83 -4 110 -12 164 -28 170 -8 3 -14 18 -14 33 0 16 -5 32
-10 35 -6 4 -8 21 -4 41 4 23 1 42 -10 59 -9 13 -16 42 -16 65 0 22 -4 40 -9
40 -11 0 -20 80 -26 239 -3 70 -10 120 -17 129 -8 9 -13 52 -14 116 -1 56 -3
101 -4 101 -2 0 -8 53 -13 120 -3 28 -8 58 -12 68 -4 9 -5 23 -2 30 3 7 1 37
-4 65 -6 31 -6 59 -1 69 6 12 5 28 -3 47 -8 20 -9 41 -3 68 5 24 5 46 -2 58
-12 22 -13 63 -2 74 4 4 8 38 9 74 5 165 17 267 34 287 11 14 8 126 -4 149 -5
11 -18 29 -28 40 -11 11 -19 32 -19 47 0 38 -9 59 -26 59 -13 0 -18 12 -15 33
1 4 -10 13 -24 19 -14 6 -25 19 -25 30 0 13 -8 18 -29 18 -29 0 -111 46 -111
62 0 13 -47 9 -62 -5z"/>
<path d="M18800 22006 c0 -2 7 -7 16 -10 8 -3 12 -2 9 4 -6 10 -25 14 -25 6z"/>
<path d="M11812 21913 c-18 -3 -36 -11 -39 -19 -3 -8 -14 -14 -24 -14 -25 0
-109 -40 -109 -51 0 -5 -8 -9 -17 -9 -21 0 -83 -41 -83 -56 0 -6 -9 -19 -21
-30 -12 -10 -27 -31 -35 -46 -8 -16 -21 -28 -29 -28 -8 0 -15 -7 -15 -15 0 -8
-4 -15 -8 -15 -19 0 -54 -41 -63 -74 -6 -21 -18 -37 -30 -41 -11 -4 -30 -27
-42 -51 -11 -24 -25 -44 -29 -44 -4 0 -8 -9 -8 -19 0 -11 -4 -23 -10 -26 -5
-3 -10 -17 -10 -30 0 -13 -4 -25 -8 -27 -15 -6 -52 -66 -52 -84 0 -21 -22 -87
-32 -94 -3 -3 -14 -41 -23 -85 -9 -43 -22 -93 -30 -110 -11 -25 -38 -125 -40
-147 0 -3 -3 -10 -7 -14 -5 -4 -8 -17 -8 -29 0 -19 -4 -21 -32 -17 -18 3 -36
9 -39 14 -4 6 -28 14 -54 19 -40 8 -50 6 -64 -9 -9 -10 -32 -19 -51 -20 -20
-2 -45 -14 -59 -27 -22 -22 -24 -31 -23 -112 0 -52 7 -105 16 -131 8 -23 13
-49 10 -57 -4 -8 1 -30 9 -48 9 -18 19 -53 23 -78 4 -24 11 -47 16 -50 5 -3 5
-47 0 -105 -5 -54 -5 -106 -1 -114 31 -64 36 -84 28 -113 -6 -20 -4 -38 5 -56
13 -25 22 -90 31 -214 2 -32 8 -64 13 -70 16 -21 30 -119 32 -222 1 -55 3
-117 5 -138 2 -21 -2 -61 -9 -87 -11 -42 -11 -50 1 -55 11 -4 13 -15 8 -44 -4
-25 -2 -48 6 -63 13 -22 17 -76 24 -347 1 -68 8 -133 14 -145 10 -19 36 -183
48 -298 3 -27 8 -48 13 -48 4 0 13 -13 20 -29 6 -16 20 -31 31 -34 10 -3 19
-14 19 -24 0 -11 18 -32 40 -49 22 -16 40 -33 40 -37 0 -5 4 -6 9 -2 5 3 12 1
16 -5 3 -5 16 -10 28 -10 12 0 35 -11 50 -25 25 -24 30 -25 67 -14 22 7 48 20
59 31 11 10 25 18 30 18 6 0 22 11 37 25 15 14 33 25 40 25 7 0 19 13 27 29
14 29 14 48 1 151 -4 25 -6 76 -5 113 2 40 -2 74 -9 82 -8 10 -10 37 -6 82 4
37 6 93 6 123 -2 202 -8 318 -14 329 -7 11 -19 409 -16 543 0 25 -3 49 -8 52
-5 3 -10 42 -10 86 l0 79 34 7 c36 7 64 -7 64 -32 0 -16 -7 -15 97 -19 45 -2
95 -6 111 -10 17 -3 33 -2 36 3 3 6 30 10 58 10 29 1 54 6 56 11 2 6 17 11 32
11 16 0 32 5 35 10 3 6 22 10 41 10 19 0 34 5 34 10 0 6 10 10 23 10 12 0 33
9 47 20 14 11 29 20 33 20 5 0 47 19 94 42 64 32 92 51 111 80 13 21 29 38 34
38 16 0 38 27 38 47 0 17 40 123 50 133 3 3 7 21 9 40 1 19 7 41 13 47 6 7 7
33 4 60 -12 94 -13 104 -5 151 4 26 3 51 -2 57 -5 5 -9 55 -9 111 0 58 -4 106
-10 109 -5 3 -10 43 -10 88 0 48 -8 110 -19 150 -10 37 -15 70 -10 73 8 5 3
179 -6 193 -2 4 -9 36 -14 70 -6 35 -18 75 -28 90 -10 14 -18 40 -18 56 -1 17
-6 40 -13 52 -7 12 -12 37 -12 56 0 19 -7 48 -15 63 -8 16 -15 47 -15 70 0 29
-7 49 -25 70 -14 16 -25 34 -25 40 0 6 -7 17 -15 24 -9 7 -13 15 -11 18 10 9
-23 32 -47 32 -14 0 -46 17 -73 40 -68 56 -110 74 -184 77 -35 2 -69 8 -74 13
-6 6 -15 9 -20 8 -6 0 -26 -3 -44 -5z m91 -507 c9 -7 17 -18 17 -25 0 -6 7
-14 15 -17 8 -4 13 -10 10 -14 -3 -5 -2 -11 3 -14 5 -3 9 -35 10 -71 1 -36 7
-85 13 -108 16 -59 57 -428 64 -568 3 -75 -14 -231 -27 -244 -4 -4 -4 -13 -2
-20 6 -14 -24 -60 -63 -101 -13 -13 -23 -27 -23 -31 0 -5 -21 -20 -47 -33 -27
-14 -56 -33 -65 -43 -12 -13 -29 -18 -60 -17 -24 1 -47 1 -53 0 -5 -1 -17 -2
-27 -1 -9 1 -19 -3 -23 -9 -8 -12 -48 -13 -61 -1 -5 5 -25 11 -44 13 -28 2
-36 8 -38 27 -2 13 -12 32 -21 42 -14 15 -18 40 -20 112 -2 91 20 274 36 299
4 7 8 33 9 58 2 54 29 153 44 158 5 2 10 22 10 45 0 46 16 99 41 137 8 14 21
45 28 69 7 24 24 55 37 70 14 14 23 34 20 44 -2 9 1 17 8 17 16 0 32 29 46 81
9 32 28 58 72 101 34 32 63 58 67 58 3 0 14 -7 24 -14z"/>
<path d="M8350 21651 c-8 -6 -32 -11 -52 -11 -20 0 -39 -4 -43 -9 -3 -6 -26
-13 -51 -17 -24 -3 -61 -17 -81 -31 -40 -27 -81 -36 -100 -21 -8 7 -23 -1 -48
-26 -20 -20 -44 -36 -55 -36 -10 0 -22 -5 -25 -10 -4 -6 -25 -20 -48 -32 -46
-23 -127 -102 -127 -123 0 -8 -9 -17 -20 -20 -11 -3 -20 -9 -20 -13 0 -11 -46
-62 -52 -57 -2 2 -10 -11 -17 -30 -8 -23 -19 -35 -30 -35 -12 0 -23 -12 -31
-32 -25 -69 -30 -78 -40 -78 -5 0 -10 -7 -10 -15 0 -8 -4 -15 -10 -15 -5 0
-10 -6 -10 -13 0 -7 -18 -50 -40 -96 -22 -45 -40 -89 -40 -97 0 -7 -9 -28 -20
-46 -11 -18 -20 -44 -20 -58 0 -14 -7 -38 -15 -54 -8 -16 -15 -40 -14 -55 0
-14 -4 -57 -10 -96 -14 -91 -15 -157 -1 -225 5 -30 12 -64 13 -76 2 -11 8 -27
13 -35 5 -8 7 -23 5 -34 -4 -23 31 -135 41 -135 5 0 8 -8 8 -19 0 -10 7 -24
16 -31 19 -17 44 -75 44 -106 0 -15 6 -24 15 -24 20 0 85 -67 85 -87 0 -9 5
-33 12 -55 8 -27 16 -38 28 -36 18 3 50 -18 50 -33 0 -17 34 -49 52 -49 10 0
24 -13 33 -30 9 -16 22 -30 29 -30 7 0 19 -7 26 -15 7 -9 34 -25 59 -37 24
-11 57 -29 72 -40 15 -12 35 -18 43 -15 8 3 21 0 28 -7 24 -24 60 -38 82 -32
16 4 30 -2 46 -19 14 -15 30 -23 41 -20 9 3 35 2 56 -3 29 -7 47 -5 67 5 15 8
35 13 44 12 33 -5 122 13 122 24 0 8 3 8 8 -1 25 -39 186 4 213 56 8 15 22 36
31 46 14 15 16 32 13 89 -3 38 -1 75 5 82 11 13 -14 55 -33 55 -6 0 -28 18
-49 41 -32 35 -41 40 -70 35 -21 -3 -46 2 -67 13 -34 18 -36 18 -86 -4 -45
-20 -52 -21 -61 -8 -8 14 -13 14 -45 0 -23 -9 -42 -12 -50 -6 -8 5 -22 9 -31
9 -10 0 -27 9 -37 19 -15 15 -33 20 -72 19 -29 -1 -54 3 -56 8 -2 5 -12 24
-24 43 -15 24 -23 31 -29 22 -6 -10 -12 -10 -29 0 -11 8 -21 17 -21 21 0 5 -9
8 -20 8 -12 0 -17 5 -14 14 5 12 -25 67 -57 104 -27 33 -1 137 33 129 10 -3
32 -2 49 3 16 5 27 5 24 0 -9 -15 23 -19 35 -4 7 8 17 14 22 14 5 0 24 11 41
24 18 13 42 27 55 31 12 3 22 10 22 14 0 4 17 13 38 20 36 14 51 26 82 70 8
12 25 21 38 21 12 0 26 8 29 17 4 10 19 30 35 45 15 15 28 36 28 46 0 10 18
38 40 61 22 23 40 48 40 56 0 8 6 15 13 15 8 0 21 8 30 18 21 21 68 92 62 92
-3 0 7 13 23 29 15 16 33 46 41 68 8 21 22 50 32 65 11 14 19 37 19 50 0 33
39 151 53 160 6 4 13 29 14 55 1 26 4 77 6 113 4 60 -7 110 -23 110 -5 0 -8 6
-7 13 0 6 -1 31 -1 55 -2 35 -5 42 -22 42 -20 0 -35 32 -28 60 2 8 -19 20 -61
32 -35 11 -68 24 -75 29 -21 19 -81 52 -96 55 -8 1 -33 5 -55 8 -22 4 -47 2
-55 -3z m-109 -501 c15 -17 19 -17 35 -5 30 23 72 18 101 -11 22 -22 25 -32
20 -70 -2 -25 -14 -55 -25 -67 -11 -12 -27 -36 -35 -53 -9 -17 -29 -39 -44
-49 -15 -10 -31 -24 -35 -30 -4 -7 -28 -40 -54 -74 -40 -53 -50 -61 -79 -61
-19 0 -45 4 -58 9 -20 8 -26 6 -37 -14 -30 -57 -116 -53 -140 6 -37 89 42 278
141 336 15 9 34 28 43 43 20 36 93 72 126 65 14 -3 32 -14 41 -25z"/>
<path d="M9810 21648 c-25 -5 -54 -10 -65 -9 -11 0 -30 -9 -42 -21 -12 -11
-36 -21 -52 -22 -20 -1 -34 -8 -42 -23 -7 -13 -18 -23 -26 -23 -7 0 -13 -5
-13 -10 0 -6 -12 -16 -27 -23 -27 -11 -86 -69 -84 -81 0 -3 -12 -19 -29 -34
-16 -15 -37 -50 -47 -78 -10 -27 -23 -49 -29 -49 -24 0 -63 -44 -69 -78 -4
-21 -11 -37 -17 -37 -5 0 -7 -4 -4 -9 3 -4 -1 -17 -9 -27 -8 -10 -15 -29 -15
-42 0 -20 -16 -58 -30 -72 -8 -8 -31 -71 -49 -136 -10 -34 -27 -75 -39 -92
-13 -17 -22 -45 -22 -67 0 -20 -7 -50 -16 -67 -9 -17 -18 -46 -19 -64 -2 -18
-11 -44 -21 -59 -19 -29 -22 -72 -25 -340 -1 -135 2 -172 20 -239 11 -44 21
-98 21 -122 0 -32 4 -44 18 -48 20 -7 62 -77 62 -104 0 -10 14 -25 30 -34 17
-9 30 -24 30 -33 0 -9 14 -29 30 -45 20 -19 30 -39 30 -59 0 -17 6 -31 16 -35
9 -3 12 -11 8 -18 -5 -8 -1 -7 10 2 17 13 21 11 46 -17 15 -17 44 -36 64 -43
19 -6 35 -17 33 -23 -1 -7 8 -12 20 -11 13 0 25 -7 28 -17 4 -12 16 -17 43
-17 20 0 38 -5 40 -11 2 -7 9 -7 21 1 15 9 24 5 51 -21 31 -29 60 -41 60 -23
0 11 80 15 93 4 36 -28 113 -20 237 23 25 8 63 20 85 25 22 5 53 21 68 36 15
14 34 23 42 20 7 -2 19 2 25 9 7 8 15 13 19 11 4 -3 13 10 21 27 7 18 25 43
40 57 27 26 40 50 47 85 2 11 12 38 23 61 25 50 25 65 2 95 -11 13 -27 45 -37
72 -15 40 -22 47 -45 47 -15 0 -33 7 -40 15 -7 8 -25 15 -41 15 -16 0 -29 4
-29 10 0 5 -7 7 -15 4 -8 -4 -15 -10 -15 -15 0 -14 -44 -56 -80 -74 -19 -10
-56 -19 -82 -19 -30 0 -48 -4 -48 -12 0 -14 -32 -24 -82 -24 -21 0 -38 -3 -38
-7 0 -5 -29 -9 -64 -10 -62 -1 -65 0 -76 28 -14 32 -20 35 -39 17 -8 -8 -11
-8 -8 -2 7 12 -15 36 -29 33 -20 -3 -35 2 -30 10 3 5 -6 21 -19 35 -14 15 -25
32 -25 37 0 6 -7 18 -16 27 -25 24 -14 138 17 189 32 51 64 83 86 83 10 0 27
14 38 30 17 26 101 102 123 112 9 4 72 99 72 109 0 3 14 12 30 19 17 7 30 17
30 23 0 15 182 197 192 191 4 -3 8 -1 8 5 0 5 6 16 13 23 7 7 23 34 36 60 12
27 26 50 31 53 5 3 11 18 15 34 3 15 14 37 23 47 18 20 29 42 55 109 24 60 27
76 32 149 4 59 1 74 -23 124 -16 32 -32 70 -36 85 -3 15 -11 27 -16 27 -6 0
-10 6 -10 13 0 18 -37 94 -50 102 -6 4 -8 11 -5 16 4 5 0 9 -8 9 -8 0 -20 14
-26 30 -9 26 -15 30 -46 30 -22 0 -34 4 -30 10 3 6 -4 10 -15 10 -13 0 -24 8
-27 20 -3 12 -13 19 -27 19 -37 -1 -107 8 -113 15 -8 8 -49 6 -103 -6z m95
-369 l45 -42 -6 -111 c-8 -149 -25 -208 -80 -273 -47 -54 -85 -73 -152 -73
-44 0 -71 15 -83 47 -16 42 63 254 110 297 17 16 21 31 21 83 0 55 4 68 25 88
35 36 68 32 120 -16z"/>
<path d="M18835 21228 c-22 -5 -60 -11 -85 -12 -57 -4 -110 -16 -110 -26 0 -5
-12 -11 -28 -15 -15 -3 -32 -16 -38 -28 -5 -12 -16 -20 -24 -18 -8 2 -22 5
-30 8 -10 2 -25 -15 -45 -54 -18 -34 -39 -59 -50 -62 -21 -4 -30 -12 -61 -56
-25 -36 -87 -162 -90 -182 -2 -8 -10 -23 -18 -32 -9 -10 -16 -26 -16 -35 0
-10 -10 -31 -21 -48 -17 -23 -28 -29 -53 -28 -57 3 -66 1 -66 -20 0 -11 -7
-20 -16 -20 -8 0 -12 -4 -9 -10 9 -14 -8 -13 -23 2 -14 14 -13 14 -17 -27 -1
-16 -5 -42 -10 -58 -4 -16 -3 -32 3 -40 5 -6 11 -41 13 -77 2 -42 10 -74 21
-92 10 -14 18 -40 18 -58 0 -36 27 -93 40 -85 12 8 33 -69 35 -130 2 -43 12
-82 42 -155 7 -17 7 -20 21 -110 5 -36 8 -68 5 -72 -2 -5 3 -8 11 -8 22 0 45
-59 35 -87 -11 -29 15 -149 31 -145 21 5 38 -18 45 -61 9 -52 51 -133 87 -169
16 -14 28 -30 28 -35 0 -13 45 -33 73 -33 13 0 29 -6 36 -12 8 -9 44 -13 107
-13 93 0 95 0 101 25 3 14 15 31 25 38 10 7 18 18 18 24 0 7 10 22 22 35 22
24 29 78 12 104 -4 7 -9 24 -10 37 -2 14 -11 34 -22 46 -10 11 -25 36 -32 54
-7 18 -15 30 -18 27 -9 -9 -32 48 -27 66 4 10 0 29 -6 41 -7 13 -14 32 -16 42
-2 11 -8 24 -13 31 -5 6 -9 20 -9 30 -1 32 -7 57 -25 97 -10 23 -16 64 -16
106 0 38 -5 73 -12 80 -7 7 -13 59 -15 134 -2 68 -6 141 -9 163 -5 35 -1 44
25 73 27 29 30 39 30 91 -1 71 7 89 79 169 12 14 22 31 22 39 0 15 23 43 36
43 4 0 17 10 29 23 32 32 58 52 73 53 28 2 33 4 28 12 -3 5 16 9 41 11 26 1
54 6 63 11 10 5 20 7 23 4 2 -3 14 7 25 23 20 28 27 62 38 188 6 67 5 71 -21
98 -16 15 -33 26 -39 24 -6 -2 -22 9 -36 24 -19 21 -37 30 -75 34 -27 3 -59 7
-70 9 -11 2 -38 -1 -60 -6z"/>
<path d="M24200 21180 c0 -5 -3 -9 -7 -9 -29 5 -53 -3 -53 -17 0 -12 -7 -15
-26 -11 -14 2 -31 -1 -37 -7 -7 -6 -18 -11 -24 -12 -38 -3 -43 -5 -40 -16 1
-8 -7 -12 -20 -11 -13 2 -23 -1 -23 -6 0 -4 -12 -22 -27 -39 -40 -44 -53 -61
-53 -67 0 -3 0 -9 0 -13 0 -5 -11 -15 -25 -22 -13 -7 -22 -16 -20 -21 3 -4 -1
-14 -9 -22 -8 -8 -13 -17 -10 -20 8 -7 -44 -117 -55 -117 -9 0 -22 -31 -26
-64 -1 -10 -7 -21 -12 -25 -5 -3 -17 -23 -26 -43 -10 -20 -22 -40 -27 -43 -6
-4 -8 -10 -5 -15 7 -12 -12 -49 -36 -70 -15 -13 -26 -59 -28 -117 -1 -23 -16
-14 -35 21 -19 35 -46 55 -46 34 0 -9 -3 -9 -12 0 -18 18 -106 15 -125 -4 -9
-8 -22 -13 -30 -10 -15 6 -63 -35 -63 -54 0 -6 -9 -28 -20 -50 -24 -47 -26
-88 -4 -97 11 -4 14 -13 9 -30 -8 -32 2 -63 21 -63 11 0 14 -13 12 -62 -1 -41
5 -78 16 -108 15 -38 37 -149 36 -185 -5 -140 -12 -231 -20 -239 -5 -5 -10
-36 -10 -67 0 -32 -4 -60 -9 -63 -20 -13 1 -56 28 -56 12 0 26 -19 44 -59 23
-51 31 -60 59 -66 18 -4 38 -12 45 -17 17 -14 115 -29 203 -33 72 -2 106 7 94
26 -3 5 0 9 5 9 6 0 11 7 11 16 0 9 11 26 23 38 13 12 25 28 26 36 5 33 12
118 14 163 1 26 5 47 9 47 5 0 8 6 8 13 0 7 7 22 15 33 14 18 14 17 9 -13 -4
-21 -2 -33 5 -33 13 0 26 45 16 59 -3 6 -1 11 4 11 6 0 11 5 11 11 0 7 -9 9
-21 6 -20 -5 -21 -3 -14 31 4 20 7 45 6 55 0 9 4 15 9 12 10 -6 24 31 15 44
-3 5 -1 12 3 15 5 3 7 29 4 57 -3 31 -1 54 6 58 6 4 14 25 16 48 7 55 22 89
42 101 14 8 17 22 15 76 -2 58 0 65 14 59 14 -5 16 -2 10 15 -5 18 -2 22 14
22 16 0 21 7 22 28 1 15 3 38 5 52 2 14 5 39 7 55 4 38 26 75 33 58 3 -7 20
-13 39 -13 30 0 33 -3 40 -37 20 -109 22 -128 12 -144 -8 -13 -6 -21 6 -34 9
-9 17 -25 17 -35 0 -10 6 -21 13 -23 8 -4 9 -8 2 -14 -26 -20 -46 -143 -24
-143 8 0 10 -40 8 -130 -3 -87 0 -133 7 -138 12 -8 12 -59 0 -110 -5 -22 -2
-46 10 -77 10 -28 14 -58 11 -80 -3 -19 -1 -37 4 -40 5 -4 9 -26 9 -50 0 -25
5 -45 13 -48 9 -4 8 -8 -3 -16 -12 -9 -12 -13 -2 -19 7 -5 17 -22 21 -38 5
-16 13 -28 20 -26 6 1 11 -7 11 -18 0 -11 6 -20 13 -20 7 0 21 -9 30 -21 18
-20 19 -20 38 -3 12 11 19 13 19 5 0 -7 5 -9 10 -6 6 3 10 2 10 -4 0 -8 36
-25 50 -23 3 0 11 -4 18 -10 7 -6 15 -8 18 -5 4 3 13 0 21 -8 21 -21 32 -19
45 10 6 14 23 27 39 30 16 4 36 13 44 22 13 13 16 13 21 -1 3 -9 12 -16 20
-16 16 0 19 26 4 35 -6 3 -1 15 10 28 23 24 35 60 27 81 -3 8 4 21 18 30 38
25 47 20 29 -15 -12 -25 -14 -37 -5 -55 6 -13 15 -24 20 -24 8 0 19 18 18 30
0 3 5 15 12 28 14 27 51 30 51 4 0 -24 19 -42 37 -35 8 3 18 1 22 -4 9 -14
151 -32 151 -19 0 6 5 5 12 -2 7 -7 19 -12 27 -12 8 0 23 -7 33 -17 17 -15 18
-15 18 0 0 10 5 17 10 17 6 0 10 -4 10 -10 0 -17 48 -11 59 8 6 9 11 11 11 5
0 -18 20 -16 20 1 0 7 9 16 21 19 17 5 18 3 7 -11 -11 -13 -10 -15 10 -10 12
4 22 2 22 -4 0 -25 79 28 80 55 0 15 -29 6 -32 -10 -3 -13 -6 -9 -10 10 -4 23
-3 27 13 22 13 -4 19 -1 19 9 0 10 6 13 16 9 11 -4 22 1 31 13 8 10 18 20 23
20 6 1 15 2 21 3 10 1 35 59 31 73 -1 4 4 5 12 2 15 -6 36 -41 40 -69 1 -10 8
-21 14 -23 7 -2 12 -13 12 -23 0 -11 5 -17 10 -14 8 5 11 -4 10 -40 0 -3 7
-21 15 -41 8 -20 13 -40 10 -44 -3 -4 2 -13 10 -20 11 -9 12 -17 4 -31 -9 -17
-6 -23 12 -21 7 1 32 -75 33 -105 1 -12 10 -31 20 -41 17 -20 21 -35 33 -114
3 -21 9 -38 15 -38 5 0 7 -8 4 -18 -4 -11 2 -28 12 -40 12 -14 17 -31 14 -47
-2 -15 0 -25 7 -25 6 0 11 -8 11 -19 0 -10 9 -30 20 -44 12 -15 21 -42 22 -69
1 -31 9 -53 30 -78 18 -22 28 -46 28 -67 0 -18 4 -33 9 -33 5 0 12 -12 15 -27
11 -42 26 -123 33 -168 3 -22 9 -43 14 -46 5 -3 10 -33 11 -67 1 -33 5 -59 9
-57 11 8 21 -77 9 -89 -13 -13 -13 -56 0 -56 14 0 31 -37 24 -54 -4 -9 -14
-15 -22 -14 -9 2 -17 -4 -17 -12 -3 -49 -39 -86 -79 -81 -11 2 -16 -2 -11 -8
3 -6 -1 -18 -9 -26 -13 -14 -16 -13 -27 7 -11 21 -12 21 -23 -13 -10 -29 -15
-34 -39 -31 -15 1 -27 -2 -27 -7 0 -5 -10 -13 -22 -17 -13 -4 -26 -12 -30 -18
-5 -8 -13 -7 -29 2 -18 12 -23 12 -30 0 -5 -7 -9 -16 -9 -19 0 -4 -12 -10 -27
-14 -15 -3 -30 -10 -33 -14 -8 -12 -70 -22 -70 -11 0 14 -33 13 -47 -1 -12
-12 -40 -18 -98 -22 -16 -2 -34 -5 -40 -9 -5 -3 -37 -2 -70 4 -41 6 -74 5
-107 -2 -50 -12 -119 -9 -181 10 -22 6 -45 9 -53 6 -7 -3 -21 3 -30 12 -18 17
-26 18 -133 21 -50 1 -61 4 -66 21 -5 14 -15 20 -37 20 -17 0 -37 8 -46 20
-10 10 -24 20 -32 22 -8 2 -21 11 -28 21 -7 9 -19 17 -27 17 -32 0 -98 46
-114 80 -9 19 -18 37 -21 40 -3 3 -10 14 -17 25 -6 11 -16 19 -21 18 -6 -1
-16 4 -22 12 -7 8 -9 15 -6 15 4 0 2 9 -4 20 -6 11 -16 17 -25 14 -10 -4 -18
3 -25 21 -5 14 -13 24 -17 22 -8 -5 -27 11 -32 28 -10 31 -32 47 -65 47 -20 0
-39 4 -42 10 -3 5 -13 0 -21 -11 -8 -12 -20 -21 -28 -21 -10 0 -12 -7 -5 -28
4 -17 4 -36 -2 -46 -5 -10 -7 -28 -4 -42 4 -14 2 -24 -5 -24 -6 0 -1 -16 11
-35 13 -20 17 -35 10 -35 -7 0 -9 -8 -5 -20 4 -12 8 -49 10 -84 4 -71 20 -106
48 -106 14 0 17 -5 12 -20 -6 -19 21 -91 33 -87 11 3 72 -63 72 -78 0 -8 5
-17 10 -20 6 -4 8 -10 5 -15 -3 -5 5 -12 17 -16 26 -8 42 -22 51 -46 3 -10 16
-18 28 -18 13 0 38 -17 60 -40 21 -22 43 -40 49 -40 6 0 13 -6 16 -14 3 -8 12
-12 19 -10 7 3 16 0 20 -5 3 -6 10 -9 15 -6 5 3 15 -4 24 -16 9 -14 21 -19 31
-15 10 3 25 -4 39 -19 16 -17 29 -23 41 -18 13 4 16 3 11 -5 -4 -8 0 -12 11
-12 10 0 24 -9 31 -21 9 -14 22 -20 40 -18 15 1 35 -2 45 -6 9 -4 27 -5 39 -2
12 4 28 1 36 -5 18 -16 100 -25 265 -29 20 -1 40 -5 43 -10 7 -12 44 -11 44 1
0 5 7 7 15 4 8 -4 15 -1 15 6 0 13 8 12 123 -6 22 -4 50 -1 68 6 17 7 70 14
117 15 48 2 97 6 108 10 13 4 25 2 28 -4 11 -17 23 -13 46 12 12 12 33 22 48
22 16 0 26 6 25 13 -2 7 7 12 20 12 21 -1 21 -1 3 -15 -10 -7 -15 -18 -12 -24
4 -6 14 -3 27 10 11 11 17 24 14 28 -2 5 2 11 10 15 8 3 14 0 12 -7 -1 -7 7
-12 18 -12 11 0 19 5 18 11 -1 6 19 11 45 13 26 1 49 7 53 12 3 6 10 11 15 12
5 1 8 5 6 10 -1 4 6 2 16 -4 28 -17 70 -4 74 24 2 14 9 21 20 19 9 -1 19 2 23
8 3 5 15 10 25 10 10 0 21 8 24 18 8 22 76 57 76 39 0 -8 15 -13 40 -13 39 -1
55 16 30 31 -16 10 -12 45 5 45 8 0 15 5 15 10 0 6 7 10 16 10 9 0 24 10 35
23 22 27 26 72 5 64 -10 -4 -13 -1 -10 8 3 8 10 13 16 12 5 -1 13 5 18 13 25
47 30 71 26 128 -3 50 -1 62 11 62 8 0 17 9 20 20 3 11 12 20 19 20 8 0 14 7
14 15 0 15 -25 21 -33 8 -2 -5 -2 -2 0 5 2 8 6 25 9 38 5 18 2 24 -10 24 -14
0 -21 -18 -17 -42 0 -5 -4 -8 -9 -8 -11 0 -3 48 11 66 5 6 12 32 15 58 4 29
12 46 20 46 8 0 14 9 14 21 0 17 -4 20 -24 15 -14 -3 -28 -2 -31 4 -3 5 -1 10
4 10 6 0 11 7 11 15 0 8 -5 15 -10 15 -6 0 -8 10 -5 23 6 27 -3 43 -30 50 -18
4 -18 5 3 6 17 1 22 7 22 26 0 26 -24 35 -33 13 -3 -7 -6 -3 -6 9 -1 12 4 23
11 25 8 3 6 16 -9 46 -11 23 -23 39 -27 35 -3 -3 -6 5 -6 20 0 14 -8 30 -17
36 -16 8 -16 14 -6 42 8 20 9 37 4 43 -5 6 -11 29 -13 51 -2 30 -9 42 -25 50
-24 10 -32 49 -13 60 8 5 8 11 0 20 -8 9 -6 14 6 19 14 5 13 10 -10 31 -16 14
-23 30 -20 39 4 10 1 16 -9 16 -9 0 -17 -8 -19 -17 -2 -10 -8 3 -14 30 -9 38
-9 47 2 47 8 0 14 6 14 14 0 16 -34 31 -49 21 -5 -3 -12 -1 -16 5 -3 5 0 10 8
10 14 0 27 28 27 62 0 13 -8 15 -42 11 -24 -2 -38 -1 -32 4 17 12 28 53 14 53
-6 0 -10 12 -8 28 2 21 8 27 26 25 14 -2 22 3 22 12 0 19 -19 19 -44 0 -26
-20 -37 -19 -29 3 3 9 2 14 -2 10 -17 -16 -79 103 -73 138 2 11 -2 18 -9 16
-7 -1 -13 5 -13 14 0 9 -5 12 -11 8 -14 -8 -3 47 10 56 5 3 11 21 15 40 4 27
2 40 -11 52 -35 32 -39 44 -35 82 4 33 2 38 -12 33 -8 -3 -15 -3 -15 1 4 26
-2 32 -22 22 -19 -11 -20 -9 -14 23 5 27 3 36 -10 41 -9 3 -13 10 -10 16 3 5
1 10 -5 10 -6 0 -8 10 -4 26 5 21 4 25 -7 20 -8 -4 -4 1 9 10 23 17 30 44 11
44 -8 0 -10 14 -6 39 3 25 -1 50 -10 68 -9 18 -11 29 -4 31 17 6 13 39 -5 46
-27 10 -42 7 -47 -11 -3 -11 -5 -7 -6 10 0 15 4 27 9 27 6 0 10 25 10 55 0 30
-4 55 -10 55 -5 0 -10 16 -10 35 0 19 -4 35 -8 35 -12 0 -8 100 5 108 6 4 13
17 17 30 6 19 4 22 -19 22 -15 0 -24 4 -20 10 3 6 1 10 -4 10 -6 0 -11 8 -11
18 0 26 -47 122 -60 122 -7 0 -9 8 -5 19 4 14 0 21 -15 26 -11 3 -20 12 -20
20 0 15 -43 45 -65 45 -8 0 -15 7 -15 16 0 11 -6 14 -22 9 -13 -3 -18 -3 -12
2 8 6 5 14 -7 27 -16 17 -19 17 -19 3 0 -17 -38 -16 -50 2 -3 6 -28 9 -55 7
-28 -3 -58 -5 -68 -5 -10 -1 -15 -5 -12 -11 4 -6 -6 -10 -23 -10 -24 0 -28 4
-27 23 1 12 -3 25 -9 29 -7 5 -4 8 7 8 9 0 17 -7 17 -15 0 -8 7 -15 15 -15 8
0 15 7 15 16 0 8 -4 13 -9 9 -6 -3 -15 4 -21 15 -6 11 -15 18 -19 15 -5 -3
-11 2 -15 10 -6 16 -46 21 -46 5 0 -5 -6 -7 -14 -4 -8 3 -13 13 -11 23 2 9 -3
32 -11 50 -12 28 -17 32 -41 27 -31 -7 -46 1 -56 27 -6 15 -40 22 -104 20 -7
-1 -11 2 -9 6 3 4 1 13 -4 20 -11 18 -30 5 -30 -21 0 -27 -31 -63 -55 -64 -11
0 -19 -5 -18 -12 2 -7 -3 -12 -11 -12 -8 0 -18 -9 -21 -20 -3 -11 -13 -20 -21
-20 -8 0 -14 -4 -14 -8 0 -7 -41 -51 -87 -93 -10 -9 -26 -31 -37 -50 -10 -19
-21 -29 -23 -21 -3 6 -9 12 -14 12 -13 0 -11 -28 2 -32 10 -3 -23 -50 -35 -49
-19 2 -26 0 -26 -9 0 -5 7 -7 15 -4 19 8 19 3 0 -32 -8 -16 -15 -36 -15 -45 0
-8 -7 -24 -15 -35 -14 -18 -14 -18 -10 3 3 16 -2 24 -18 29 -27 8 -37 22 -37
52 0 12 -5 22 -11 22 -6 0 -4 7 5 15 8 9 19 14 23 13 4 -2 10 1 13 6 3 5 -3
10 -14 12 -26 4 -44 23 -30 32 6 4 15 26 21 50 10 38 9 42 -7 42 -11 0 -21 4
-24 9 -4 5 3 7 14 4 14 -4 20 0 20 12 0 14 -7 16 -30 13 -28 -4 -30 -2 -31 26
-1 56 -9 99 -21 114 -10 11 -8 13 12 10 18 -2 26 2 28 16 3 16 0 18 -23 12
-25 -6 -27 -5 -21 19 10 40 -3 78 -26 72 -15 -4 -17 -3 -8 8 13 15 4 39 -10
30 -8 -5 -27 99 -22 119 7 24 -10 45 -36 43 -15 -1 -27 3 -28 11 -1 6 -2 17
-3 22 0 6 -10 10 -21 10 -13 0 -20 7 -20 19 0 11 -5 23 -10 26 -6 4 -9 14 -8
23 2 9 -2 16 -9 15 -6 -2 -15 7 -18 18 -4 11 -18 24 -31 29 -13 5 -23 15 -22
21 2 6 -3 14 -11 17 -10 3 -12 0 -8 -11 4 -11 2 -14 -9 -10 -9 3 -12 12 -9 24
4 11 2 19 -4 19 -6 0 -11 -7 -11 -15 0 -12 -8 -10 -37 10 -39 26 -73 33 -73
15z m5 -726 c21 -27 19 -43 -5 -37 -11 3 -20 12 -20 19 0 8 -4 14 -8 14 -5 0
-9 6 -9 14 0 19 24 14 42 -10z m1270 -299 c14 -13 25 -32 25 -42 0 -27 -31
-106 -51 -128 -39 -45 -99 -130 -99 -141 0 -7 -21 -35 -46 -63 -44 -48 -48
-51 -96 -51 -108 0 -153 52 -146 171 3 49 9 73 23 89 22 24 177 130 191 130 5
0 36 14 69 30 73 36 99 37 130 5z m-742 -7 c7 -7 13 -21 15 -31 3 -17 2 -17
-22 -2 -14 10 -23 22 -19 31 6 17 11 18 26 2z m1257 -82 c0 -2 -8 -10 -17 -17
-16 -13 -17 -12 -4 4 13 16 21 21 21 13z m-550 -856 c0 -5 -5 -10 -11 -10 -5
0 -7 5 -4 10 3 6 8 10 11 10 2 0 4 -4 4 -10z m727 -42 c-3 -7 -5 -2 -5 12 0
14 2 19 5 13 2 -7 2 -19 0 -25z m253 -659 c0 -5 -4 -9 -10 -9 -5 0 -10 7 -10
16 0 8 5 12 10 9 6 -3 10 -10 10 -16z m27 -25 c-3 -3 -12 -4 -19 -1 -8 3 -5 6
6 6 11 1 17 -2 13 -5z m140 -856 c-3 -8 -6 -5 -6 6 -1 11 2 17 5 13 3 -3 4
-12 1 -19z m-80 -340 c-3 -8 -6 -5 -6 6 -1 11 2 17 5 13 3 -3 4 -12 1 -19z
m-317 -203 c0 -8 -2 -15 -4 -15 -2 0 -6 7 -10 15 -3 8 -1 15 4 15 6 0 10 -7
10 -15z"/>
<path d="M20021 20886 c-14 -8 -31 -12 -37 -9 -13 5 -28 -5 -68 -45 -17 -18
-37 -24 -92 -28 -68 -5 -96 -14 -144 -44 -14 -9 -38 -17 -55 -18 -21 -2 -47
-21 -89 -63 -32 -32 -62 -59 -66 -59 -4 0 -10 -13 -13 -29 -3 -16 -13 -36 -22
-44 -8 -9 -15 -20 -15 -26 0 -5 -10 -21 -22 -34 -36 -39 -67 -77 -62 -77 3 0
-9 -20 -26 -45 -17 -25 -29 -49 -25 -54 3 -5 0 -22 -6 -38 -6 -15 -13 -44 -16
-63 -2 -19 -13 -53 -23 -75 -33 -72 -41 -248 -12 -277 6 -6 12 -27 12 -45 0
-18 5 -33 10 -33 6 0 10 -6 8 -12 -3 -19 22 -88 33 -88 5 0 9 -15 8 -32 -1
-62 15 -112 39 -123 17 -7 22 -18 22 -45 0 -26 7 -40 26 -55 14 -11 30 -30 35
-42 5 -13 15 -23 24 -23 8 0 15 -6 15 -13 0 -7 9 -23 20 -35 11 -12 20 -26 20
-32 0 -5 5 -10 10 -10 6 0 10 -7 10 -15 0 -14 11 -19 36 -16 7 1 22 -10 35
-24 29 -31 95 -68 127 -72 13 -1 30 -7 38 -14 8 -7 27 -13 42 -14 32 -3 73
-12 104 -24 27 -10 181 11 200 27 7 5 32 8 54 5 41 -5 54 1 100 46 8 7 26 11
40 8 21 -4 35 5 70 39 24 24 50 44 59 44 8 0 15 7 15 16 0 8 4 13 8 10 7 -4
60 54 55 61 -6 7 41 52 49 47 4 -3 8 0 8 6 0 6 9 20 20 32 11 12 20 30 20 40
0 10 5 18 10 18 6 0 10 14 10 31 0 16 4 28 9 24 10 -6 27 102 18 112 -4 3 -2
14 4 25 11 21 -6 153 -22 174 -5 6 -6 13 -4 16 12 12 17 99 6 112 -12 14 -37
118 -47 191 -3 22 -9 44 -15 50 -5 5 -9 21 -9 36 0 15 -4 30 -9 33 -4 3 -11
24 -15 46 -3 22 -12 43 -20 46 -8 3 -16 22 -20 44 -3 21 -13 40 -21 44 -8 3
-15 16 -15 28 0 13 -9 34 -20 48 -11 14 -20 31 -20 38 0 6 -4 12 -10 12 -5 0
-10 11 -10 24 0 25 -44 76 -66 76 -8 0 -14 10 -14 23 0 27 -17 47 -40 47 -8 0
-20 10 -25 23 -6 14 -21 23 -39 25 -16 2 -43 17 -60 33 -17 16 -41 29 -53 29
-12 0 -25 5 -28 10 -8 13 -25 12 -54 -4z m-61 -586 c0 -5 30 -8 71 -7 75 3 89
-5 89 -52 0 -11 9 -37 20 -56 11 -20 20 -42 19 -48 -6 -48 3 -99 20 -113 15
-13 17 -23 10 -47 -8 -30 -5 -100 6 -117 3 -5 1 -11 -5 -15 -5 -3 -10 -24 -10
-46 0 -29 -7 -46 -23 -62 -54 -51 -121 -107 -129 -107 -4 0 -8 -7 -8 -15 0 -8
-9 -15 -20 -15 -11 0 -20 -5 -20 -11 0 -11 -64 -6 -117 10 -17 5 -34 7 -37 3
-3 -3 -6 0 -6 6 0 7 -7 12 -16 12 -18 0 -37 17 -47 43 -3 9 -13 17 -21 17 -17
0 -35 56 -37 110 0 19 -8 53 -18 75 -18 41 -14 68 20 129 6 10 18 41 26 69 8
27 23 59 34 70 10 11 19 26 19 32 0 7 9 20 20 30 11 10 20 24 20 32 0 7 4 13
9 13 4 0 28 16 52 34 43 34 79 46 79 26z"/>
<path d="M22570 20658 c-14 -5 -41 -11 -60 -13 -19 -2 -36 -8 -38 -14 -2 -6
-8 -11 -14 -11 -17 0 -58 -50 -58 -71 0 -10 -3 -19 -8 -19 -11 0 -12 -109 -1
-115 5 -4 9 -26 9 -51 0 -24 5 -44 11 -44 18 0 42 -72 47 -140 2 -36 9 -71 15
-78 13 -16 10 -101 -4 -119 -8 -9 -8 -20 0 -40 6 -16 10 -61 9 -101 -1 -45 3
-77 10 -84 7 -7 12 -25 12 -40 0 -16 6 -41 14 -56 7 -15 17 -52 21 -82 4 -30
13 -62 20 -70 16 -19 24 -45 27 -92 2 -38 12 -50 21 -25 3 7 16 -1 36 -22 31
-34 31 -34 72 -21 33 11 45 11 61 1 22 -14 88 2 88 21 0 6 3 8 7 5 3 -4 11 3
18 16 6 12 16 21 22 20 6 -1 17 18 24 42 7 25 17 45 21 45 4 0 8 9 8 20 0 11
-4 20 -9 20 -5 0 -9 31 -8 69 1 42 5 67 11 64 5 -4 6 -1 1 8 -10 15 -19 179
-17 287 1 40 -2 82 -8 92 -6 11 -6 21 -1 24 6 4 5 21 -1 43 -10 36 -7 91 7
125 4 10 -1 24 -14 37 -12 12 -21 26 -21 31 0 6 -5 10 -11 10 -6 0 -9 6 -6 14
3 8 -1 20 -9 27 -8 7 -13 21 -12 33 2 12 -2 20 -8 19 -6 -1 -11 10 -10 26 0
25 -42 91 -59 91 -16 0 -65 43 -65 56 0 18 -24 44 -40 44 -6 0 -9 4 -6 9 3 5
-9 9 -28 9 -19 0 -38 2 -43 5 -4 2 -19 0 -33 -5z"/>
<path d="M19325 20650 c-3 -5 -4 -10 -1 -10 2 0 11 -3 20 -6 11 -4 16 -1 16
10 0 18 -25 22 -35 6z"/>
<path d="M25327 20620 c-3 -13 0 -20 9 -20 8 0 14 9 14 20 0 11 -4 20 -9 20
-5 0 -11 -9 -14 -20z"/>
<path d="M24140 20300 c0 -20 25 -38 36 -27 7 6 -18 47 -28 47 -5 0 -8 -9 -8
-20z"/>
<path d="M24050 20140 c0 -5 7 -10 16 -10 8 0 12 5 9 10 -3 6 -10 10 -16 10
-5 0 -9 -4 -9 -10z"/>
<path d="M23997 19794 c-8 -8 1 -24 12 -24 4 0 8 7 8 15 0 16 -9 20 -20 9z"/>
<path d="M23970 19706 c0 -9 7 -16 16 -16 9 0 14 5 12 12 -6 18 -28 21 -28 4z"/>
<path d="M23950 19634 c0 -8 5 -12 10 -9 6 3 10 10 10 16 0 5 -4 9 -10 9 -5 0
-10 -7 -10 -16z"/>
<path d="M26140 19440 c0 -20 5 -30 15 -30 10 0 15 10 15 30 0 20 -5 30 -15
30 -10 0 -15 -10 -15 -30z"/>
<path d="M26185 19350 c3 -5 8 -10 11 -10 2 0 4 5 4 10 0 6 -5 10 -11 10 -5 0
-7 -4 -4 -10z"/>
<path d="M25570 19280 c0 -5 5 -10 11 -10 5 0 7 5 4 10 -3 6 -8 10 -11 10 -2
0 -4 -4 -4 -10z"/>
<path d="M25040 19154 c0 -8 5 -12 10 -9 6 3 10 10 10 16 0 5 -4 9 -10 9 -5 0
-10 -7 -10 -16z"/>
<path d="M25735 19000 c3 -5 11 -10 16 -10 6 0 7 5 4 10 -3 6 -11 10 -16 10
-6 0 -7 -4 -4 -10z"/>
<path d="M26297 18953 c-12 -12 -7 -43 7 -43 13 0 26 20 26 41 0 10 -23 12
-33 2z"/>
<path d="M22469 18364 c-7 -9 -22 -14 -37 -11 -19 4 -28 -3 -48 -35 -14 -21
-28 -36 -33 -34 -13 8 -40 -27 -71 -92 -27 -57 -27 -61 -12 -84 9 -12 19 -25
22 -28 7 -5 23 -70 26 -100 0 -8 7 -35 13 -60 17 -59 21 -82 25 -160 5 -84 13
-126 31 -160 9 -16 13 -45 10 -69 -2 -23 -1 -41 3 -41 4 0 8 -12 8 -27 3 -50
15 -118 26 -140 6 -12 8 -31 5 -42 -3 -12 2 -42 10 -68 9 -27 17 -68 18 -93 3
-59 14 -138 25 -175 4 -16 8 -46 9 -65 0 -19 5 -36 10 -38 6 -2 11 -19 11 -38
0 -19 5 -34 10 -34 6 0 10 -15 10 -34 0 -19 5 -36 12 -38 6 -2 12 -27 13 -59
1 -29 6 -65 12 -79 6 -14 8 -29 6 -33 -3 -5 0 -19 6 -30 12 -26 34 -79 35 -89
1 -3 4 -9 8 -13 4 -4 4 -13 1 -21 -3 -7 5 -26 16 -40 14 -18 18 -31 12 -37 -7
-7 -3 -14 12 -21 12 -7 24 -20 26 -31 2 -11 12 -26 22 -33 11 -7 19 -19 19
-26 0 -18 39 -58 51 -51 5 4 9 0 9 -7 1 -14 43 -49 63 -52 23 -4 84 -37 105
-56 22 -21 92 -28 92 -10 0 6 9 10 20 10 13 0 28 12 38 30 9 16 27 32 39 35
14 3 26 16 30 33 15 56 2 251 -17 277 -5 6 -11 37 -15 70 -4 33 -9 74 -12 90
-2 17 -4 40 -4 53 1 15 -3 21 -10 16 -8 -5 -10 3 -7 26 3 19 0 34 -7 36 -7 3
-11 24 -9 56 2 42 -1 54 -22 73 -20 18 -24 32 -24 77 0 30 -4 58 -9 63 -13 15
-32 77 -21 70 6 -4 10 5 10 19 0 14 -5 26 -11 26 -6 0 -9 6 -6 14 3 8 -1 20
-8 26 -8 7 -14 22 -14 34 2 72 -4 145 -11 141 -10 -6 -23 77 -14 98 3 10 2 23
-3 30 -6 6 -10 29 -10 50 -1 21 -6 43 -11 50 -5 7 -12 57 -15 112 -2 55 -8
109 -12 120 -18 51 -16 42 -30 170 -3 28 -8 77 -11 110 -3 33 -9 61 -14 63 -4
2 -5 16 0 32 12 41 2 69 -26 76 -17 4 -24 13 -24 29 0 25 -26 41 -34 22 -2 -7
-5 5 -5 26 -1 20 -5 37 -11 37 -5 0 -10 6 -10 13 0 10 -17 14 -61 14 -40 0
-64 4 -69 13 -5 8 -29 14 -63 14 -30 1 -53 4 -50 9 9 14 -35 7 -48 -9z"/>
<path d="M25930 18335 c0 -8 5 -15 10 -15 6 0 10 7 10 15 0 8 -4 15 -10 15 -5
0 -10 -7 -10 -15z"/>
<path d="M26570 18145 c0 -8 7 -15 15 -15 8 0 15 7 15 15 0 8 -7 15 -15 15 -8
0 -15 -7 -15 -15z"/>
<path d="M9549 18005 c-3 -2 -29 -7 -58 -10 -29 -2 -58 -8 -63 -11 -7 -4 -8
-2 -4 4 5 8 -4 12 -28 12 -20 0 -36 -4 -36 -9 0 -5 -17 -16 -38 -24 -21 -8
-44 -22 -51 -31 -8 -9 -20 -16 -28 -16 -7 0 -16 -7 -19 -15 -4 -8 -10 -12 -15
-9 -5 3 -9 -1 -9 -10 0 -8 -4 -16 -10 -18 -5 -1 -12 -21 -16 -43 -3 -22 -9
-47 -14 -55 -16 -31 -22 -100 -26 -275 -9 -358 -9 -355 13 -425 8 -24 15 -62
15 -82 0 -21 4 -41 9 -44 5 -3 8 -40 8 -82 -1 -42 3 -102 9 -132 6 -30 13 -73
15 -95 2 -22 8 -49 14 -60 6 -11 11 -65 11 -120 1 -55 3 -117 6 -138 3 -22 -1
-58 -10 -83 -12 -35 -13 -49 -4 -59 7 -8 9 -18 7 -22 -3 -5 -1 -29 3 -54 15
-77 14 -527 0 -582 -8 -32 -9 -51 -2 -60 11 -13 9 -185 -3 -229 -4 -16 -3 -28
1 -28 5 0 9 -28 9 -63 0 -64 16 -97 46 -97 14 0 80 -42 115 -73 19 -16 23 -17
37 -3 9 9 24 16 34 16 10 0 26 9 35 19 11 13 24 18 37 14 13 -3 21 -1 21 6 0
7 4 10 9 7 5 -4 20 6 33 22 12 15 31 26 40 24 12 -2 19 5 23 25 4 15 10 36 16
46 12 22 22 99 20 154 -1 24 3 51 8 61 5 10 12 47 14 83 2 35 12 82 21 104 10
22 19 68 21 102 5 83 29 133 64 134 14 1 32 1 39 0 6 -1 12 2 12 6 0 5 15 17
33 27 17 11 45 34 60 53 16 18 32 31 37 28 16 -10 24 19 26 88 0 38 5 72 10
76 6 3 16 26 24 51 8 25 22 50 31 57 9 7 19 25 22 40 3 16 16 40 29 54 13 13
24 37 25 53 1 31 25 62 41 52 5 -3 12 -27 15 -53 7 -60 26 -158 39 -201 5 -19
11 -84 13 -146 2 -83 7 -121 20 -146 12 -23 16 -47 12 -77 -3 -32 -1 -43 9
-43 9 0 14 -11 14 -30 0 -16 3 -30 8 -30 4 0 7 -30 8 -67 0 -38 2 -105 3 -151
2 -45 -1 -88 -7 -95 -10 -12 -10 -60 1 -87 3 -8 11 -31 17 -51 10 -33 28 -48
65 -53 6 -1 16 -5 24 -10 8 -5 16 -4 21 3 5 9 16 8 44 -6 30 -14 40 -15 54 -5
9 7 24 15 32 18 65 25 97 42 116 61 13 13 27 23 31 23 18 0 44 43 59 98 15 53
21 79 39 160 4 17 12 32 17 32 5 0 7 38 5 88 -2 48 -1 112 3 142 7 50 5 57
-16 77 -19 17 -24 33 -25 75 -2 83 -5 112 -12 128 -5 13 -9 31 -19 105 -2 11
-7 23 -13 27 -5 4 -12 57 -13 118 -2 60 -7 110 -11 110 -4 0 -9 46 -10 102 -1
69 -7 108 -17 122 -8 11 -14 31 -14 43 0 27 -49 133 -61 133 -5 0 -9 7 -9 16
0 9 -9 27 -20 41 -11 14 -17 29 -14 34 3 5 0 9 -7 9 -13 0 -53 40 -69 70 -5
10 -10 30 -10 43 0 16 -8 28 -25 35 -14 6 -26 16 -26 22 -1 5 -2 16 -3 23 -1
6 -9 11 -18 9 -9 -1 -19 2 -23 8 -3 5 -21 10 -40 10 -19 0 -37 5 -41 11 -4 7
-21 9 -43 5 -20 -3 -53 -8 -73 -10 -21 -2 -50 -14 -64 -25 -15 -12 -32 -21
-39 -21 -6 0 -20 -9 -30 -20 -10 -11 -24 -20 -32 -20 -7 0 -13 -4 -13 -10 0
-5 -5 -10 -11 -10 -12 0 -49 -38 -49 -50 0 -4 -12 -21 -27 -38 -53 -60 -83
-100 -83 -111 0 -6 -7 -8 -15 -5 -8 4 -15 2 -15 -4 0 -12 -98 -117 -104 -111
-6 6 -28 132 -28 154 0 11 5 61 10 110 7 61 7 94 0 102 -6 7 -12 59 -14 115
-4 105 -2 113 45 223 14 31 15 47 7 74 -6 23 -6 38 1 50 24 38 10 251 -16 251
-14 0 -38 61 -45 113 -4 26 -11 47 -16 47 -5 0 -11 8 -15 18 -8 22 -133 81
-146 67z"/>
<path d="M22972 17671 c4 -13 18 -16 19 -4 0 4 -5 9 -11 12 -7 2 -11 -2 -8 -8z"/>
<path d="M15611 17329 c-14 -5 -37 -7 -53 -4 -17 4 -40 0 -58 -9 -17 -8 -38
-12 -46 -9 -9 3 -32 -12 -58 -38 -52 -52 -79 -69 -106 -69 -11 0 -19 -4 -17
-8 3 -13 -95 -122 -104 -116 -5 3 -9 -2 -9 -11 0 -9 -7 -23 -15 -32 -8 -8 -13
-18 -10 -23 3 -4 -4 -6 -15 -3 -13 3 -20 0 -20 -9 0 -23 -57 -125 -89 -159
-17 -18 -31 -36 -31 -41 0 -5 -12 -21 -26 -36 -14 -15 -32 -42 -39 -60 -8 -19
-24 -36 -35 -39 -11 -3 -23 -17 -27 -32 -3 -14 -17 -42 -30 -61 -12 -19 -23
-42 -23 -51 0 -9 -7 -19 -15 -23 -15 -5 -40 39 -47 82 -2 9 -11 25 -22 34 -10
9 -24 33 -30 52 -7 20 -25 50 -42 68 -16 18 -38 47 -49 64 -38 60 -80 113 -89
114 -6 0 -27 12 -47 26 -33 22 -47 25 -124 25 -48 0 -92 -5 -99 -10 -6 -5 -27
-10 -46 -9 -72 1 -170 -45 -170 -81 0 -5 -9 -12 -19 -16 -11 -3 -23 -14 -26
-24 -3 -10 -19 -30 -35 -45 -17 -15 -41 -50 -54 -79 -13 -29 -34 -74 -46 -102
-21 -46 -36 -88 -45 -125 -16 -68 -47 -166 -54 -173 -9 -9 -28 56 -23 75 1 3
-12 12 -28 20 -17 7 -30 20 -30 28 0 8 -9 21 -20 28 -11 7 -20 22 -20 33 0 22
-12 22 -112 3 -17 -3 -28 -1 -28 5 0 6 -9 11 -20 11 -11 0 -20 -4 -20 -10 0
-5 -20 -2 -44 7 -43 16 -45 16 -99 -12 -41 -20 -59 -36 -67 -59 -20 -51 -33
-79 -53 -108 -13 -19 -16 -35 -11 -50 5 -13 7 -27 6 -31 -2 -5 5 -41 13 -80 9
-40 20 -115 26 -167 5 -52 12 -104 15 -115 7 -23 22 -174 29 -285 4 -76 10
-109 41 -255 9 -44 20 -107 24 -140 7 -65 17 -95 31 -95 5 0 9 -7 9 -15 0 -8
9 -15 19 -15 11 0 21 -9 25 -23 5 -20 57 -52 79 -48 5 1 22 -8 38 -20 16 -11
35 -22 42 -24 38 -10 57 -18 57 -27 0 -6 7 -7 16 -4 9 3 37 9 62 12 25 3 49 7
54 10 4 3 17 0 28 -6 16 -9 22 -8 26 5 3 8 14 15 24 15 21 0 50 31 50 53 0 9
4 17 8 17 18 0 54 40 49 54 -4 9 3 16 18 20 28 7 40 49 33 116 -2 22 0 40 4
40 5 0 8 14 8 30 0 17 4 30 9 30 11 0 41 62 47 98 3 15 11 41 18 57 8 17 17
54 20 84 4 29 13 60 21 68 8 7 12 20 9 27 -3 8 2 29 11 46 9 18 14 41 12 52
-3 11 -2 30 3 43 5 12 5 39 0 60 -8 37 4 85 21 85 13 0 29 72 20 88 -5 9 0 29
15 55 12 23 21 44 18 48 -2 4 0 10 6 14 5 3 10 23 10 45 0 26 5 40 17 44 18 7
30 -6 39 -44 3 -14 19 -61 35 -106 16 -44 29 -85 29 -91 0 -5 9 -20 20 -33 11
-13 20 -31 20 -41 0 -10 5 -21 10 -24 6 -3 10 -17 10 -31 0 -13 4 -24 8 -24 5
0 9 -6 10 -12 1 -22 47 -143 55 -146 10 -5 9 -52 -2 -52 -15 0 -22 -47 -11
-75 5 -14 14 -24 19 -21 13 8 101 -75 101 -96 0 -11 7 -18 20 -18 11 0 20 -4
20 -10 0 -5 6 -10 14 -10 8 0 17 -7 20 -16 3 -8 10 -13 15 -9 6 3 18 -6 27
-20 19 -29 67 -34 100 -10 12 8 24 12 27 8 4 -3 27 -7 52 -8 39 -2 48 1 69 26
16 18 34 29 50 29 14 0 26 5 26 10 0 6 9 10 20 10 15 0 20 7 20 25 0 27 19 75
30 75 4 0 8 34 9 77 2 81 16 155 37 188 7 11 16 42 19 68 4 26 13 53 19 60 6
7 12 35 12 62 3 92 41 250 71 294 13 18 23 47 23 62 0 16 5 29 10 29 6 0 10 9
10 20 0 11 9 29 20 40 11 11 20 28 20 38 0 19 34 62 49 62 5 0 12 16 15 34 4
23 25 54 59 90 54 56 77 93 77 124 0 10 9 26 21 35 22 19 49 16 49 -5 0 -7 10
-24 23 -38 12 -14 24 -38 25 -55 2 -39 8 -78 22 -140 7 -27 14 -75 17 -105 3
-30 9 -60 14 -66 10 -13 11 -29 9 -149 -1 -44 3 -91 8 -105 5 -14 9 -76 9
-138 0 -73 4 -116 11 -121 7 -4 10 -45 8 -121 -2 -89 2 -131 17 -185 29 -110
30 -115 18 -115 -14 0 -15 -47 -1 -55 6 -4 8 -10 5 -15 -3 -5 1 -26 10 -46 8
-20 15 -46 15 -58 1 -11 9 -37 18 -56 13 -25 24 -34 39 -33 13 2 31 -8 45 -25
35 -40 66 -56 83 -42 18 15 98 16 103 1 6 -17 18 -13 48 14 14 13 30 22 35 19
5 -3 23 8 40 25 17 17 34 31 39 31 4 0 15 15 24 34 8 18 22 39 31 46 19 15 20
56 2 63 -14 5 -29 169 -27 287 0 25 -6 69 -14 98 -8 29 -12 69 -9 90 7 51 7
43 -6 182 -7 69 -17 146 -23 172 -9 35 -9 57 0 85 7 24 8 41 2 47 -6 6 -10 34
-10 63 0 81 -19 241 -36 300 -9 29 -16 67 -16 85 -1 34 -26 88 -41 88 -4 0 -5
5 -1 11 7 12 -26 89 -38 89 -5 0 -8 8 -8 18 0 9 -7 26 -15 36 -8 11 -15 30
-15 42 0 13 -5 26 -10 29 -6 4 -21 27 -35 53 -13 26 -41 66 -63 89 -22 23 -37
45 -34 48 3 3 -2 5 -11 5 -9 0 -17 5 -17 10 0 6 -15 10 -34 10 -26 0 -36 5
-41 20 -6 18 -15 20 -108 19 -56 0 -113 -5 -126 -10z"/>
<path d="M26270 17051 c0 -14 5 -19 15 -14 17 6 15 25 -3 31 -7 2 -12 -5 -12
-17z"/>
<path d="M25970 16975 c0 -8 5 -15 10 -15 6 0 10 7 10 15 0 8 -4 15 -10 15 -5
0 -10 -7 -10 -15z"/>
<path d="M25620 16925 c0 -8 9 -15 20 -15 11 0 20 7 20 15 0 8 -9 15 -20 15
-11 0 -20 -7 -20 -15z"/>
<path d="M20240 16880 c-8 -11 -20 -20 -27 -20 -7 0 -27 -9 -45 -19 -17 -11
-35 -18 -39 -15 -4 2 -37 -25 -74 -62 -37 -36 -73 -63 -80 -61 -23 9 -55 -35
-55 -76 0 -29 -18 -47 -47 -47 -18 0 -27 -10 -39 -40 -9 -22 -29 -50 -45 -61
-16 -11 -29 -26 -29 -32 0 -7 -9 -18 -20 -25 -11 -7 -20 -18 -20 -25 0 -7 -9
-19 -20 -27 -11 -8 -20 -20 -20 -27 0 -7 -4 -13 -10 -13 -5 0 -10 -9 -10 -21
0 -12 -8 -23 -20 -26 -14 -4 -20 -14 -20 -34 0 -16 -4 -29 -8 -29 -8 0 -44
-74 -57 -117 -4 -14 -14 -23 -25 -23 -18 0 -26 10 -70 98 -12 23 -26 42 -31
42 -5 0 -9 9 -9 19 0 11 -5 21 -11 23 -5 2 -10 22 -11 45 0 44 -22 76 -58 88
-11 3 -20 11 -20 16 0 13 -54 11 -67 -2 -8 -8 -17 -7 -34 4 -13 8 -32 13 -41
12 -10 -2 -18 0 -18 5 0 16 -44 19 -60 5 -9 -8 -21 -15 -27 -15 -6 0 -13 -6
-16 -12 -3 -10 -9 -10 -28 0 -22 11 -32 11 -68 -4 -35 -14 -47 -25 -62 -61
-10 -25 -19 -51 -19 -59 0 -21 -50 -84 -66 -84 -26 0 -16 -59 17 -99 16 -21
31 -48 32 -60 1 -11 5 -21 9 -21 4 0 8 -10 8 -22 0 -13 21 -46 50 -77 28 -29
50 -58 50 -65 0 -15 40 -89 53 -98 6 -3 10 -27 10 -52 -1 -25 3 -48 8 -52 5
-3 9 -14 9 -25 0 -17 17 -56 30 -69 3 -3 6 -18 8 -33 2 -15 12 -44 22 -63 11
-19 20 -44 20 -55 0 -20 17 -59 29 -69 9 -7 36 -91 34 -107 0 -7 3 -13 8 -13
5 0 9 -7 9 -15 0 -21 70 -87 85 -81 8 3 23 -14 36 -39 16 -30 27 -41 35 -34 7
6 25 -4 52 -32 31 -30 47 -39 62 -34 12 4 33 -3 57 -19 38 -26 70 -35 58 -16
-4 6 6 10 23 10 22 0 31 6 37 23 4 13 8 17 12 10 8 -21 30 -15 50 13 10 14 27
26 36 28 47 7 88 74 88 142 -1 12 6 27 14 34 8 7 12 17 9 22 -3 5 2 30 11 54
9 25 15 50 12 57 -2 7 0 23 6 37 29 70 37 98 37 132 0 20 5 40 10 43 6 3 10
20 10 37 0 29 33 144 51 180 5 10 9 25 9 33 0 8 5 15 10 15 6 0 10 9 10 19 0
11 4 22 9 25 5 4 12 24 16 47 4 22 13 43 21 46 8 3 14 14 14 25 0 10 5 16 10
13 6 -3 10 1 10 9 0 9 5 16 10 16 6 0 10 16 10 36 0 27 7 43 30 64 17 15 30
33 30 39 0 6 5 11 10 11 6 0 10 7 10 15 0 8 4 15 9 15 5 0 13 9 16 20 3 11 12
20 18 20 7 0 18 13 25 28 7 16 23 34 37 40 14 6 25 16 25 22 0 5 18 10 41 10
29 0 50 -7 70 -25 16 -13 29 -27 29 -30 0 -3 0 -8 0 -13 0 -4 11 -19 25 -34
14 -15 36 -51 50 -80 13 -29 36 -64 50 -77 17 -16 25 -34 25 -58 0 -29 3 -33
18 -29 13 5 22 -1 30 -19 7 -14 12 -32 12 -40 0 -8 9 -20 20 -27 11 -7 20 -21
20 -30 0 -10 4 -18 10 -18 15 0 72 -90 66 -106 -3 -8 8 -28 27 -47 18 -17 38
-43 45 -57 17 -33 78 -100 86 -95 3 3 4 2 1 -1 -14 -20 134 -194 165 -194 7 0
18 -7 24 -16 8 -10 34 -18 74 -21 34 -3 62 -9 62 -12 0 -4 12 -8 27 -9 15 -1
29 -6 32 -11 12 -18 48 -21 61 -6 7 9 37 27 67 41 29 14 53 30 53 35 0 6 4 8
9 5 15 -10 23 25 26 117 2 49 8 94 14 101 7 8 -1 26 -29 61 -22 28 -40 57 -40
65 0 9 -13 31 -30 50 -16 19 -29 39 -30 44 0 5 -20 28 -43 50 -47 43 -140 172
-140 194 0 6 -4 12 -9 12 -4 0 -8 14 -8 31 0 16 -4 28 -9 25 -13 -9 -27 13
-47 73 -12 39 -34 71 -81 120 -35 36 -61 72 -58 79 2 6 -2 12 -10 12 -8 0 -15
3 -15 8 0 4 -18 27 -40 52 -25 28 -40 55 -40 71 0 15 -7 30 -15 33 -9 3 -23
23 -32 43 -8 21 -22 45 -29 53 -8 8 -28 30 -44 47 -17 18 -30 30 -30 26 0 -4
-7 3 -16 15 -8 12 -19 20 -23 18 -4 -3 -16 7 -26 20 -20 27 -72 57 -117 68
-16 3 -28 11 -28 16 0 12 -60 13 -79 1 -9 -6 -19 -4 -29 5 -12 12 -35 14 -113
10 -57 -3 -101 -1 -104 5 -9 14 -19 11 -35 -11z"/>
<path d="M12460 16684 c-14 -7 -37 -14 -52 -14 -15 0 -33 -7 -42 -15 -8 -8
-20 -15 -26 -15 -14 0 -40 -25 -40 -39 0 -5 -9 -16 -20 -24 -30 -21 -32 -51
-4 -99 13 -24 27 -51 30 -61 4 -9 17 -20 29 -23 17 -4 25 -15 29 -40 4 -19 13
-34 20 -34 9 0 15 -22 20 -66 6 -56 4 -73 -14 -105 -11 -22 -20 -50 -20 -62 0
-12 -7 -35 -15 -51 -8 -15 -15 -33 -15 -38 0 -6 -12 -22 -27 -37 -16 -14 -29
-32 -31 -40 -4 -19 -38 -61 -62 -78 -11 -8 -20 -24 -20 -35 0 -21 -46 -68
-107 -111 -18 -12 -33 -30 -33 -39 0 -10 -19 -25 -50 -39 -27 -12 -50 -28 -50
-35 0 -8 -6 -11 -15 -7 -10 3 -31 -10 -57 -36 -22 -23 -47 -40 -54 -37 -7 3
-20 -4 -27 -14 -8 -11 -16 -18 -19 -15 -3 3 -11 -1 -18 -10 -7 -8 -20 -15 -29
-15 -18 1 -61 33 -61 47 0 4 -11 17 -25 27 -19 15 -23 24 -18 45 3 14 10 31
15 38 5 7 5 12 -2 15 -14 4 -15 180 -1 206 11 20 18 49 30 127 4 28 20 80 34
116 30 72 39 178 19 216 -7 12 -12 34 -12 48 0 15 -7 33 -15 41 -8 9 -15 13
-15 9 0 -3 -9 -1 -21 5 -11 7 -18 14 -15 17 6 7 -19 33 -32 33 -5 0 -16 10
-24 22 -13 19 -24 22 -77 22 -33 -1 -61 3 -61 7 0 5 -9 9 -20 9 -11 0 -20 -4
-20 -9 0 -5 -22 -14 -50 -21 -27 -7 -50 -15 -50 -19 0 -4 -12 -8 -27 -9 -30
-2 -66 -36 -77 -70 -4 -12 -14 -22 -22 -22 -10 0 -14 -13 -14 -47 0 -27 -7
-75 -16 -108 -9 -33 -18 -75 -21 -93 -3 -18 -9 -35 -14 -38 -15 -9 -10 -44 5
-44 28 0 27 -21 0 -92 -16 -41 -29 -98 -30 -133 -2 -33 -8 -82 -13 -110 -14
-74 -12 -172 5 -240 8 -33 17 -82 20 -109 4 -33 14 -57 30 -73 13 -13 27 -36
30 -51 9 -36 23 -52 45 -52 11 0 19 -3 19 -8 0 -4 14 -13 31 -21 18 -8 34 -22
36 -31 4 -17 35 -28 93 -35 25 -3 93 -35 75 -35 -5 0 3 -7 19 -15 16 -8 54
-16 85 -17 31 -1 61 -5 67 -10 6 -4 46 -6 90 -3 102 6 119 9 138 24 9 7 28 10
50 7 24 -4 40 -1 50 9 8 8 24 15 35 15 11 0 23 5 26 10 4 6 14 10 23 9 31 -3
38 1 56 31 9 17 23 30 29 28 18 -3 87 22 87 33 0 5 11 11 25 15 14 3 25 11 25
16 0 17 54 59 68 53 6 -2 12 2 12 10 0 8 5 15 10 15 6 0 10 7 10 15 0 21 42
59 92 84 23 12 54 35 68 52 14 17 42 49 63 71 20 22 37 42 37 44 0 4 26 37 46
58 6 6 19 30 29 54 12 27 27 45 42 48 17 5 23 13 23 34 0 16 5 32 10 35 6 3
10 17 10 30 0 13 5 27 10 30 6 3 10 16 10 29 0 12 9 32 20 44 11 12 20 26 20
32 0 5 5 10 10 10 6 0 10 4 10 10 0 5 8 19 17 30 10 11 18 36 20 57 1 20 7 39
14 43 7 5 8 19 3 41 -5 19 -7 51 -5 71 3 47 -6 78 -25 78 -17 0 -9 49 12 65 6
6 15 27 18 48 5 28 3 42 -10 55 -10 9 -20 15 -22 12 -3 -3 -14 12 -24 32 -11
20 -35 54 -53 74 -19 20 -32 40 -30 44 3 4 -9 13 -25 20 -17 7 -30 15 -30 19
0 3 -10 12 -21 20 -18 11 -26 11 -47 -1 -20 -10 -26 -10 -29 0 -3 6 -11 12
-19 12 -7 0 -29 8 -47 19 -23 13 -39 16 -50 10 -10 -6 -18 -5 -22 1 -8 12 -13
12 -45 -6z"/>
<path d="M28246 16631 c-9 -14 4 -41 20 -41 8 0 14 10 14 25 0 25 -23 35 -34
16z"/>
<path d="M17350 16573 c0 -8 -14 -13 -34 -13 -26 0 -36 -5 -41 -20 -3 -11 -15
-20 -25 -20 -24 0 -110 -41 -110 -52 0 -4 -24 -8 -52 -8 -48 0 -55 -3 -70 -30
-10 -18 -25 -30 -38 -30 -11 0 -20 -7 -20 -16 0 -23 -57 -102 -80 -109 -12 -4
-20 -15 -20 -29 0 -50 -13 -86 -45 -119 -48 -51 -52 -63 -60 -157 -4 -47 -14
-103 -21 -125 -8 -22 -14 -52 -14 -67 0 -16 -4 -28 -9 -28 -16 0 -36 -260 -22
-270 6 -3 12 -17 13 -30 2 -14 5 -27 8 -30 8 -8 30 -75 30 -93 0 -9 4 -17 8
-17 5 0 15 -19 23 -42 14 -45 51 -90 82 -101 11 -4 21 -16 24 -27 3 -11 14
-20 24 -20 10 0 22 -6 26 -13 4 -7 27 -27 51 -46 23 -18 42 -38 42 -45 0 -14
80 -24 230 -31 78 -4 150 9 150 25 0 6 6 10 13 10 7 0 29 16 50 36 35 35 38
36 56 20 21 -19 24 -16 62 57 13 26 27 47 31 47 4 0 21 20 39 45 18 24 40 47
50 50 10 3 21 16 25 28 4 12 19 35 35 51 33 34 68 31 89 -9 7 -14 20 -25 28
-25 8 0 26 -12 41 -27 14 -16 33 -29 40 -31 8 -2 22 -11 30 -20 9 -10 28 -23
44 -30 15 -6 27 -16 27 -22 0 -5 10 -10 23 -10 13 0 33 -9 46 -21 17 -16 25
-18 36 -9 9 8 14 8 17 0 2 -6 10 -12 18 -14 42 -8 70 -19 70 -27 0 -5 7 -9 15
-9 8 0 15 -4 15 -10 0 -15 113 -12 129 3 9 8 12 8 7 0 -4 -7 6 -14 26 -18 18
-4 38 -11 44 -16 7 -6 28 -2 55 9 24 10 52 16 62 14 9 -2 17 2 17 8 0 6 4 9 9
5 16 -10 95 13 108 31 7 10 13 14 13 10 0 -4 16 6 35 23 20 17 45 31 55 31 11
0 20 7 20 15 0 8 8 15 18 15 21 0 64 45 61 63 -2 13 14 60 31 89 6 10 10 49
10 88 0 39 5 79 12 89 9 15 8 22 -5 36 -10 9 -22 25 -27 35 -13 25 -83 31
-142 12 -26 -8 -45 -18 -43 -23 8 -12 -18 -17 -44 -7 -17 6 -45 2 -100 -17
-73 -24 -131 -30 -131 -13 0 5 -35 7 -77 6 -43 -2 -82 0 -88 5 -5 4 -30 25
-55 47 -25 22 -55 43 -67 46 -13 4 -23 9 -23 14 0 4 -11 20 -25 36 -14 16 -25
34 -25 39 0 6 -9 17 -20 25 -11 8 -20 25 -20 38 0 12 -11 35 -25 50 -14 15
-25 22 -25 17 0 -28 -38 67 -43 109 -5 33 -14 54 -27 63 -16 11 -20 25 -20 69
0 30 -4 54 -8 54 -5 0 -22 11 -38 25 -20 17 -36 24 -51 20 -13 -3 -23 -1 -23
5 0 6 -10 8 -24 4 -16 -4 -27 -1 -33 10 -5 9 -25 24 -44 34 -29 14 -35 23 -40
61 -3 24 -13 49 -22 56 -10 7 -17 17 -17 24 0 25 -31 59 -50 54 -10 -3 -27 4
-39 16 -12 12 -36 24 -54 28 -18 3 -36 9 -42 13 -9 8 -67 5 -91 -4 -14 -5 -28
4 -42 29 -6 11 -12 14 -12 8z m95 -595 c26 -21 27 -23 20 -90 -15 -154 -53
-278 -90 -292 -33 -12 -67 -5 -100 20 -50 38 -68 109 -46 180 5 16 12 50 16
77 8 57 36 93 90 112 56 20 78 18 110 -7z"/>
<path d="M23157 15584 c-3 -3 -22 -6 -41 -6 -20 0 -36 -4 -36 -9 0 -5 -3 -8
-7 -7 -16 3 -67 -24 -79 -41 -7 -10 -27 -24 -44 -31 -16 -7 -30 -16 -30 -21 0
-5 -6 -9 -14 -9 -11 0 -13 -16 -11 -72 4 -115 4 -118 17 -115 6 1 16 -11 22
-28 6 -16 19 -36 28 -43 9 -7 23 -18 30 -26 21 -20 55 -36 77 -36 12 0 21 -4
21 -10 0 -5 9 -10 20 -10 11 0 23 -6 26 -14 4 -10 24 -13 87 -10 45 2 93 7
107 11 14 3 27 7 30 8 3 0 22 4 43 8 35 7 37 10 38 45 0 20 2 72 4 115 1 42
-1 77 -5 77 -4 0 -11 20 -14 45 -4 25 -12 45 -18 45 -5 0 -8 7 -4 15 3 8 -1
21 -9 29 -8 7 -17 25 -21 39 -7 31 -23 37 -91 32 -36 -2 -56 2 -64 11 -12 14
-51 19 -62 8z"/>
<path d="M28530 15536 c0 -10 9 -16 21 -16 24 0 21 23 -4 28 -10 2 -17 -3 -17
-12z"/>
<path d="M21950 14134 c0 -8 5 -12 10 -9 6 4 8 11 5 16 -9 14 -15 11 -15 -7z"/>
<path d="M28410 12516 c0 -9 7 -16 16 -16 17 0 14 22 -4 28 -7 2 -12 -3 -12
-12z"/>
</g>
</svg>
