<?xml version="1.0" standalone="no"?>
<!DOCTYPE svg PUBLIC "-//W3C//DTD SVG 20010904//EN"
 "http://www.w3.org/TR/2001/REC-SVG-20010904/DTD/svg10.dtd">
<svg version="1.0" xmlns="http://www.w3.org/2000/svg"
 width="3024.000000pt" height="4032.000000pt" viewBox="0 0 3024.000000 4032.000000"
 preserveAspectRatio="xMidYMid meet">

<g transform="translate(0.000000,4032.000000) scale(0.100000,-0.100000)"
fill="#000000" stroke="none">
<path d="M14743 23092 c-12 -4 -32 -17 -45 -30 -13 -12 -38 -35 -57 -51 -30
-24 -35 -35 -39 -84 -2 -32 3 -96 11 -145 28 -157 37 -255 37 -417 0 -88 1
-176 2 -195 1 -19 1 -51 0 -70 -1 -19 -2 -141 -3 -270 -1 -211 -3 -239 -20
-278 -17 -38 -20 -65 -20 -205 1 -225 9 -680 12 -692 2 -5 0 -39 -4 -75 -6
-45 -4 -79 6 -110 8 -25 11 -53 8 -62 -5 -15 -11 -15 -66 4 -71 24 -144 20
-194 -10 -26 -16 -39 -18 -69 -10 -20 5 -57 13 -82 18 -58 12 -148 60 -156 83
-3 9 -9 17 -14 17 -5 0 -14 16 -20 35 -6 19 -20 41 -30 48 -11 7 -24 24 -30
38 -6 13 -24 44 -40 69 -73 110 -94 194 -84 330 5 66 3 96 -10 135 -22 64 -80
134 -125 151 -20 8 -51 22 -70 32 -20 10 -55 17 -84 16 -47 0 -52 -4 -101 -56
-28 -30 -56 -63 -61 -72 -9 -17 -14 -16 -70 5 -54 20 -66 21 -136 12 -52 -7
-86 -17 -105 -32 -15 -11 -35 -21 -44 -21 -25 0 -95 -64 -125 -115 -14 -24
-35 -51 -46 -58 -23 -17 -119 -202 -119 -230 0 -11 -9 -30 -20 -44 -15 -19
-20 -41 -20 -86 0 -34 -5 -98 -12 -143 -9 -62 -9 -109 0 -199 13 -132 20 -147
119 -259 29 -33 53 -63 53 -67 0 -4 24 -23 53 -42 127 -84 384 -86 515 -5 67
41 171 142 222 217 40 59 74 74 99 44 20 -25 116 -103 126 -103 7 0 112 -51
175 -85 14 -7 45 -18 70 -24 25 -7 61 -16 80 -21 19 -5 97 -10 172 -10 123 0
139 2 155 19 10 11 31 23 46 26 18 5 38 22 53 46 13 22 31 39 39 39 14 0 16
-6 20 -81 1 -18 11 -36 24 -45 12 -8 21 -26 21 -40 0 -38 66 -98 130 -119 30
-9 69 -26 87 -37 27 -16 45 -18 114 -14 45 3 87 10 93 15 7 6 32 13 56 17 25
4 53 15 63 25 9 10 35 23 57 29 22 6 40 15 40 20 0 11 83 95 128 130 42 32
122 107 122 115 0 3 8 13 18 23 18 19 21 24 74 107 17 28 40 59 50 71 16 18
18 42 19 203 1 155 -1 188 -16 219 -10 21 -21 44 -25 52 -12 26 -55 35 -100
21 -44 -13 -130 -84 -130 -107 0 -7 -18 -30 -40 -50 -22 -20 -42 -46 -46 -57
-13 -40 -122 -160 -211 -232 -51 -41 -98 -76 -105 -77 -8 -2 -16 23 -24 72 -7
41 -17 102 -23 135 -21 122 -30 651 -11 701 5 13 24 27 47 34 21 7 54 27 74
44 20 17 62 46 93 65 31 19 67 46 80 61 12 15 38 33 57 39 19 7 62 38 95 69
51 47 69 74 108 157 l46 101 -18 69 c-15 63 -21 72 -60 98 -58 39 -109 45
-141 18 -13 -12 -32 -21 -41 -21 -10 0 -28 -8 -41 -18 -13 -10 -45 -26 -72
-36 -26 -10 -74 -40 -106 -67 -74 -61 -107 -65 -117 -14 -3 19 -4 70 -2 112 3
43 1 193 -3 333 -5 140 -10 339 -12 441 -4 176 -5 187 -29 230 -14 24 -28 56
-32 71 -7 31 -42 52 -98 61 -20 3 -54 17 -75 31 -21 14 -40 26 -43 25 -3 -1
-15 -4 -27 -7z m-1347 -2349 c2 -110 0 -133 -17 -166 -10 -21 -19 -44 -19 -52
0 -8 -19 -36 -42 -63 -24 -26 -58 -65 -77 -87 -30 -34 -39 -39 -80 -39 l-46
-1 1 78 c1 52 8 93 22 125 11 26 25 72 33 102 8 35 23 65 40 82 15 15 30 36
33 45 4 10 21 28 39 41 65 46 102 69 106 65 2 -1 5 -60 7 -130z"/>
<path d="M10753 22945 c-11 -8 -41 -48 -67 -89 -41 -66 -46 -80 -46 -134 0
-33 5 -73 11 -89 6 -15 15 -66 19 -113 4 -47 15 -107 24 -135 9 -27 23 -111
30 -185 8 -74 19 -148 25 -165 7 -16 14 -74 17 -130 3 -55 12 -118 19 -140 8
-22 17 -76 20 -120 4 -44 15 -114 26 -157 10 -42 19 -100 19 -129 0 -46 13
-116 60 -314 6 -27 16 -86 21 -130 6 -44 14 -93 19 -110 16 -54 40 -120 50
-137 5 -9 14 -122 20 -250 6 -128 13 -238 15 -245 2 -6 18 -14 35 -18 17 -4
34 -13 37 -21 3 -8 28 -30 57 -48 l51 -34 90 7 c69 5 99 12 128 30 71 44 71
46 78 331 6 213 10 270 29 345 12 50 28 100 36 112 8 12 18 51 23 86 8 60 44
135 71 152 5 3 10 16 10 29 0 20 41 85 80 127 8 9 26 30 39 47 14 17 36 34 50
37 13 3 36 15 49 26 48 37 82 21 82 -39 0 -15 7 -40 16 -57 14 -26 17 -94 19
-535 2 -541 -1 -494 52 -727 3 -12 30 -44 60 -69 42 -37 67 -49 107 -56 90
-16 135 -11 187 23 47 30 47 30 54 97 4 40 2 94 -5 131 -6 34 -10 86 -9 114 1
29 -4 88 -11 132 -15 99 -18 172 -23 596 -4 273 -8 343 -20 370 -8 19 -18 52
-22 74 -4 22 -15 60 -26 84 -10 24 -19 54 -19 66 0 13 -16 42 -35 65 -19 23
-35 46 -35 50 0 17 -112 100 -134 100 -12 0 -39 10 -61 21 -87 47 -305 12
-389 -62 -19 -16 -52 -35 -74 -43 -41 -15 -63 -32 -138 -106 -51 -50 -84 -97
-129 -185 -50 -96 -76 -135 -86 -129 -5 3 -9 11 -9 17 0 7 -7 24 -15 40 -7 15
-19 64 -26 110 -6 45 -18 100 -26 122 -8 22 -17 78 -20 125 -3 47 -11 94 -18
105 -13 21 -35 204 -35 288 0 27 -4 56 -10 66 -5 10 -14 97 -19 192 -5 96 -15
188 -21 204 -7 17 -16 67 -20 112 -5 47 -15 92 -24 105 -9 12 -16 32 -16 44 0
35 -48 83 -108 110 -62 27 -108 31 -139 9z"/>
<path d="M9322 22151 c-50 -9 -63 -21 -85 -77 -15 -39 -15 -44 5 -97 13 -36
41 -79 75 -116 29 -33 60 -75 68 -94 7 -18 22 -40 31 -48 24 -19 94 -129 94
-146 0 -7 18 -45 39 -83 22 -38 42 -79 46 -92 8 -26 34 -87 71 -163 13 -28 24
-56 24 -63 0 -6 9 -29 20 -49 11 -21 20 -52 20 -70 0 -18 8 -54 19 -80 10 -26
22 -70 26 -97 3 -27 13 -59 21 -72 9 -13 19 -67 24 -135 11 -138 -1 -230 -36
-272 -13 -16 -24 -34 -24 -40 0 -7 -22 -31 -49 -54 -59 -51 -118 -67 -226 -61
-51 2 -79 8 -92 21 -11 9 -35 17 -54 17 -24 0 -53 13 -99 45 -36 25 -72 45
-80 45 -14 0 -39 23 -151 140 -23 25 -56 70 -72 100 -16 30 -38 61 -48 68 -13
9 -19 25 -19 50 0 20 -9 51 -20 67 -24 37 -25 63 -3 131 25 80 7 110 -137 222
-36 28 -74 59 -85 69 -33 32 -40 33 -141 23 -135 -14 -161 -34 -175 -137 -4
-29 -14 -66 -23 -84 -14 -29 -14 -36 1 -81 20 -62 14 -217 -11 -263 -9 -16
-16 -46 -16 -65 0 -54 -17 -104 -54 -159 -18 -27 -36 -61 -40 -76 -15 -61
-112 -159 -184 -189 -63 -25 -138 -32 -160 -14 -9 8 -29 19 -44 26 -20 8 -30
22 -38 54 -6 24 -15 55 -21 69 -24 62 -44 195 -37 249 4 30 11 106 17 168 8
87 17 124 37 164 23 45 25 60 20 107 -8 64 -14 76 -95 167 -80 89 -109 107
-174 105 -132 -2 -217 -39 -217 -93 0 -20 -9 -39 -30 -58 -34 -32 -37 -53 -14
-111 15 -36 16 -66 9 -242 -14 -316 -11 -370 19 -456 14 -41 26 -89 26 -108 0
-77 68 -171 226 -315 62 -56 191 -118 271 -130 37 -5 97 -19 132 -30 69 -22
159 -20 186 2 8 7 43 14 77 17 54 5 70 11 108 43 25 21 56 41 70 45 14 4 34
16 45 26 11 11 42 38 68 61 26 23 64 69 83 104 19 34 41 68 49 74 8 7 15 18
15 24 0 23 62 96 81 96 11 0 40 -19 64 -42 25 -24 66 -64 92 -89 49 -46 296
-179 334 -179 11 0 19 -4 19 -9 0 -5 15 -14 33 -21 17 -6 44 -18 59 -26 14 -8
48 -17 75 -20 26 -3 75 -12 108 -20 44 -11 93 -14 180 -11 119 5 165 15 261
58 23 11 51 19 63 19 11 0 30 10 42 23 66 71 98 102 137 128 23 17 42 34 42
39 0 5 13 24 29 42 39 45 59 88 67 139 3 24 13 55 21 68 12 19 14 40 9 95 -25
267 -30 296 -52 331 -6 11 -15 40 -19 65 -4 25 -15 65 -25 90 -10 25 -21 73
-25 107 -4 35 -13 67 -22 74 -21 18 -40 59 -48 106 -3 22 -17 56 -31 74 -13
18 -24 42 -24 52 0 11 -8 34 -19 51 -10 17 -22 49 -26 70 -4 23 -18 51 -36 69
-29 28 -48 60 -85 137 -9 19 -31 52 -50 74 -19 22 -34 47 -34 57 0 9 -20 41
-43 71 -24 29 -51 68 -61 85 -22 43 -106 123 -129 123 -10 0 -21 9 -24 20 -6
23 -49 47 -121 66 -57 15 -64 15 -130 5z"/>
<path d="M22378 21119 c-37 -40 -38 -44 -38 -116 0 -57 5 -83 19 -107 45 -72
86 -243 76 -309 -10 -61 -44 -157 -66 -188 -10 -15 -22 -48 -25 -74 -5 -35
-14 -51 -36 -68 -16 -12 -49 -39 -72 -59 -24 -21 -48 -38 -53 -38 -6 0 -16 -7
-23 -15 -7 -8 -30 -20 -51 -25 -21 -6 -45 -18 -54 -26 -18 -18 -65 -11 -65 9
0 8 -10 34 -23 58 -18 37 -23 64 -25 153 -3 97 -1 111 17 130 11 11 22 41 26
66 3 25 14 56 22 69 9 14 18 55 21 91 l4 66 -48 50 c-86 89 -177 125 -307 120
-60 -2 -94 -20 -129 -67 -23 -31 -57 -146 -68 -230 -5 -36 -16 -83 -24 -104
-37 -87 -8 -386 44 -456 10 -15 22 -39 26 -54 4 -15 13 -29 20 -32 7 -2 18
-19 24 -36 14 -43 134 -166 201 -205 19 -12 44 -30 54 -42 11 -13 31 -20 52
-20 24 0 41 -7 53 -22 17 -21 27 -23 168 -26 143 -4 153 -3 204 21 29 13 71
27 92 30 22 4 44 13 48 22 5 8 15 15 22 15 7 0 36 18 64 40 27 22 53 40 57 40
16 0 81 65 92 92 7 16 31 46 53 68 22 21 40 43 40 49 0 6 4 11 9 11 15 0 108
201 121 260 15 68 28 225 29 345 0 65 -4 95 -14 109 -8 11 -15 41 -15 67 0 38
-4 49 -19 54 -21 6 -25 16 -36 78 -3 20 -10 37 -15 37 -6 0 -21 18 -35 40 -18
29 -32 40 -50 40 -18 0 -25 5 -25 18 0 33 -45 65 -95 67 -34 1 -49 6 -61 23
-13 19 -24 22 -82 22 -66 0 -68 -1 -104 -41z"/>
<path d="M18960 21060 c-50 -16 -110 -51 -110 -63 0 -7 -9 -30 -19 -51 -30
-58 -33 -86 -15 -146 27 -96 28 -107 6 -138 -11 -15 -24 -41 -27 -58 -18 -76
-50 -145 -86 -184 -21 -23 -39 -47 -39 -53 -1 -21 -64 -83 -125 -124 -33 -23
-69 -50 -79 -62 -14 -16 -31 -21 -68 -21 l-48 0 0 64 c0 36 4 67 9 70 5 4 16
26 24 50 8 24 22 52 31 63 41 45 66 82 66 95 0 8 6 28 14 44 44 91 48 105 41
132 -4 15 -9 46 -12 70 -4 37 -11 47 -45 68 -57 36 -77 42 -185 54 -134 16
-130 16 -215 -35 -83 -50 -93 -65 -108 -165 -4 -30 -16 -77 -25 -105 -30 -89
-36 -109 -56 -185 -18 -69 -19 -79 -5 -125 8 -27 18 -70 21 -95 3 -25 13 -74
22 -108 17 -64 34 -83 113 -126 9 -5 26 -24 38 -42 12 -19 37 -40 55 -49 17
-8 39 -19 47 -24 74 -47 206 -88 311 -97 73 -5 88 -4 102 11 10 9 33 21 52 26
19 6 35 14 35 19 0 6 15 16 33 25 17 8 52 30 77 49 25 19 53 35 63 35 10 1 30
15 44 31 14 17 38 37 53 45 16 8 31 24 35 34 3 11 21 29 40 40 19 11 35 24 35
29 0 5 7 27 16 47 l16 38 25 -44 c14 -24 36 -55 48 -69 12 -14 25 -32 29 -40
3 -8 20 -35 36 -60 16 -25 34 -56 40 -70 11 -28 10 -25 63 -102 20 -30 37 -59
37 -63 0 -4 15 -27 34 -50 19 -22 39 -60 45 -83 7 -22 22 -54 35 -69 13 -15
31 -43 40 -60 9 -18 23 -33 30 -33 8 0 16 -16 20 -38 3 -22 15 -51 26 -65 11
-14 20 -35 20 -47 0 -13 17 -59 39 -104 21 -44 53 -126 71 -181 18 -55 38
-107 45 -115 17 -21 35 -109 35 -176 0 -47 -4 -59 -27 -80 -36 -33 -65 -39
-136 -26 -33 6 -64 9 -68 6 -5 -3 -21 2 -37 10 -16 8 -57 19 -93 24 -35 6 -82
17 -104 26 -22 8 -51 15 -65 16 -14 0 -34 6 -45 14 -11 7 -40 17 -64 21 -24 4
-64 18 -89 31 -25 13 -51 24 -59 24 -8 0 -21 6 -28 14 -8 7 -34 17 -59 20 -24
4 -49 13 -56 21 -6 7 -30 17 -53 20 -23 4 -53 15 -67 25 -14 9 -38 20 -54 24
-16 4 -41 16 -54 27 -14 10 -29 19 -34 19 -27 0 -123 55 -149 85 -17 19 -37
35 -44 35 -7 0 -31 24 -52 52 -37 51 -38 55 -38 133 1 51 7 98 19 130 17 48
17 51 -1 92 -21 49 -104 140 -140 154 -13 5 -44 9 -68 9 -86 0 -173 -100 -233
-266 -40 -112 -24 -253 47 -403 8 -18 25 -38 36 -43 11 -5 32 -30 45 -56 23
-43 43 -61 170 -149 14 -9 33 -25 43 -35 10 -10 27 -18 38 -18 12 0 48 -20 80
-45 33 -25 63 -45 67 -45 4 0 23 -11 43 -24 20 -14 58 -29 85 -35 84 -17 138
-33 154 -47 8 -6 34 -17 56 -23 23 -6 47 -18 54 -26 7 -8 29 -15 49 -15 20 0
52 -8 71 -18 19 -11 49 -22 67 -25 18 -4 42 -16 53 -27 11 -11 33 -20 51 -20
17 0 51 -9 77 -19 26 -11 60 -22 76 -26 15 -3 35 -12 42 -20 7 -7 33 -16 56
-20 24 -4 55 -16 70 -26 18 -13 43 -19 80 -19 31 0 62 -6 74 -15 28 -19 267
-39 364 -30 82 8 174 37 206 66 11 11 25 19 31 19 23 0 90 95 96 137 4 24 16
58 27 75 26 43 29 202 5 215 -11 6 -18 38 -25 109 -7 75 -16 115 -40 167 -16
37 -35 67 -40 67 -6 0 -10 10 -10 23 0 12 -7 33 -16 45 -8 12 -29 64 -45 116
-16 51 -38 101 -48 110 -11 10 -23 38 -27 62 -3 24 -12 48 -20 54 -7 7 -16 32
-20 57 -5 32 -12 47 -25 50 -9 3 -23 19 -29 36 -22 60 -35 82 -97 175 -34 50
-65 102 -69 115 -4 12 -24 43 -45 68 -23 28 -39 57 -39 72 0 14 -9 32 -19 39
-11 8 -23 26 -26 41 -4 14 -13 31 -21 38 -8 6 -14 18 -14 25 0 8 -11 24 -25
35 -13 12 -27 36 -31 52 -12 56 -43 117 -59 117 -10 0 -15 10 -15 34 0 22 -9
45 -24 63 -14 16 -35 58 -47 94 -12 35 -31 74 -42 87 -14 15 -20 34 -19 56 1
18 -5 50 -14 71 -10 24 -17 75 -19 132 -3 101 -9 116 -60 137 -17 7 -38 20
-46 28 -31 31 -97 57 -173 67 -87 12 -82 12 -116 1z"/>
<path d="M20325 20999 c-22 -4 -66 -8 -97 -8 -131 -2 -276 -100 -302 -206 -4
-16 -18 -41 -30 -56 -23 -27 -60 -122 -87 -224 -8 -32 -14 -114 -14 -224 -1
-150 1 -178 17 -209 10 -20 18 -40 18 -45 0 -8 28 -45 75 -99 8 -10 17 -29 21
-43 3 -14 12 -29 19 -33 7 -4 22 -26 33 -48 14 -28 31 -45 52 -52 16 -6 30
-16 30 -21 0 -17 43 -40 105 -56 32 -9 64 -24 71 -34 8 -11 30 -20 59 -23 25
-3 55 -14 67 -24 18 -17 36 -19 154 -18 114 2 141 5 179 23 25 12 52 21 60 21
8 0 24 9 35 20 11 11 28 20 39 20 10 0 25 7 32 17 8 9 29 22 47 30 17 7 32 17
32 22 0 5 11 12 24 15 13 3 26 15 29 26 3 13 13 20 29 20 15 0 47 22 90 63 37
34 77 69 90 78 20 15 21 19 10 43 -10 23 -10 28 7 34 30 11 73 81 87 142 7 30
19 78 26 105 12 43 17 216 9 332 -1 26 -87 133 -107 133 -7 0 -32 16 -53 35
-54 49 -122 83 -211 107 -116 30 -189 40 -261 34 -66 -5 -136 15 -154 44 -11
19 -134 70 -163 69 -15 -1 -45 -5 -67 -10z m303 -448 c15 -11 53 -22 87 -25
32 -4 66 -13 75 -20 8 -8 25 -17 38 -21 24 -7 42 -41 42 -79 0 -29 -45 -112
-65 -120 -8 -3 -23 -22 -34 -43 -10 -21 -32 -50 -48 -64 -39 -37 -125 -95
-151 -103 -12 -4 -29 -15 -39 -24 -22 -22 -139 -24 -153 -3 -5 8 -23 22 -41
30 -27 14 -36 27 -55 86 -24 76 -23 146 2 197 8 15 14 38 14 52 0 14 5 28 11
32 6 3 17 22 25 40 9 21 23 35 37 38 12 3 67 14 122 24 55 11 101 20 103 21 2
1 15 -8 30 -18z"/>
<path d="M23105 18540 c-38 -10 -92 -19 -118 -19 -33 -1 -57 -8 -74 -21 -14
-11 -34 -20 -45 -20 -10 0 -35 -8 -56 -19 -20 -10 -61 -24 -90 -30 -92 -19
-149 -57 -182 -121 -10 -19 -30 -46 -44 -59 -48 -45 -30 -171 33 -231 87 -81
144 -124 190 -141 40 -16 230 0 251 21 9 9 31 22 49 28 17 6 39 18 47 27 8 8
25 15 38 15 12 0 48 9 81 21 72 25 210 35 288 20 61 -11 164 -65 205 -107 13
-13 27 -24 32 -24 6 0 10 -12 10 -27 0 -16 6 -37 13 -49 77 -133 96 -230 77
-408 -13 -124 -24 -163 -71 -250 -6 -10 -14 -49 -18 -87 -7 -64 -10 -72 -44
-100 -20 -17 -49 -52 -64 -77 -15 -26 -35 -53 -45 -60 -10 -7 -27 -30 -37 -50
-10 -20 -28 -45 -39 -55 -11 -10 -26 -33 -33 -50 -7 -18 -28 -49 -46 -70 -18
-20 -33 -41 -33 -46 0 -6 -12 -16 -27 -23 -15 -7 -38 -31 -50 -53 -12 -22 -62
-80 -112 -129 -53 -51 -95 -101 -101 -121 -6 -18 -21 -37 -35 -43 -14 -7 -25
-19 -25 -28 0 -10 -11 -36 -24 -58 -40 -69 -85 -213 -96 -305 -5 -49 -17 -108
-25 -132 -9 -24 -20 -69 -25 -99 -4 -30 -16 -75 -26 -100 -11 -29 -17 -75 -18
-130 0 -75 3 -91 28 -138 16 -32 37 -57 52 -63 14 -5 72 -9 129 -9 88 0 106 3
117 18 8 11 25 18 47 17 33 0 37 4 66 60 17 33 41 71 53 83 12 12 22 26 22 32
0 5 14 25 31 45 28 31 30 38 20 65 -12 36 -4 87 15 94 7 3 16 22 20 43 3 21
12 45 19 53 20 24 65 125 65 147 0 11 9 28 19 37 11 10 22 29 26 43 3 15 15
38 26 51 10 14 19 33 19 43 0 13 15 27 45 41 32 16 45 28 45 43 0 11 9 26 20
33 12 7 20 23 20 40 0 32 45 72 80 72 17 0 21 5 18 24 -3 26 35 76 59 76 7 0
13 7 13 15 0 9 29 49 65 90 36 41 65 81 65 89 0 8 10 18 22 22 32 10 57 44 64
87 4 21 15 42 24 47 10 5 27 39 39 78 11 37 32 89 46 115 14 27 25 59 25 72 0
13 4 26 9 30 5 3 15 31 21 63 7 31 17 66 24 77 7 11 16 46 20 78 3 32 15 84
26 115 24 69 27 186 5 239 -21 51 -35 270 -20 326 6 21 2 36 -18 65 -14 20
-28 48 -32 62 -4 14 -13 32 -20 40 -7 8 -19 35 -26 60 -7 27 -27 59 -48 80
-20 20 -44 50 -53 68 -9 17 -25 32 -35 32 -10 0 -29 16 -43 35 -14 20 -45 46
-70 59 -25 12 -59 36 -77 52 -49 46 -61 54 -96 66 -17 6 -44 19 -59 30 -20 14
-44 18 -102 18 -52 0 -84 5 -100 15 -14 9 -56 17 -107 20 -46 3 -109 12 -139
20 -69 18 -106 17 -195 -5z"/>
<path d="M10810 18453 c-8 -2 -24 -8 -35 -13 -11 -5 -42 -11 -69 -13 -50 -5
-66 -17 -66 -51 0 -11 -10 -30 -22 -44 -20 -20 -23 -33 -20 -90 4 -87 4 -87
-3 -302 -3 -102 -7 -378 -10 -615 -5 -565 -9 -672 -23 -721 -7 -23 -14 -81
-17 -128 -2 -48 -8 -101 -14 -119 -20 -67 -33 -165 -23 -184 11 -22 1 -167
-24 -330 -6 -38 -31 -45 -38 -10 -3 12 -7 77 -9 143 -2 95 -7 127 -21 148 -9
15 -16 37 -15 49 2 12 -2 31 -8 42 -5 11 -13 39 -16 62 -3 23 -14 54 -26 69
-12 15 -21 39 -21 55 0 30 -39 119 -52 119 -11 0 -38 56 -38 80 0 28 -46 87
-73 96 -22 6 -36 17 -81 62 -15 14 -36 22 -58 22 -19 0 -58 7 -87 16 -48 14
-58 14 -115 0 -34 -9 -70 -16 -79 -16 -10 0 -43 -9 -74 -20 -32 -11 -68 -20
-81 -20 -13 0 -35 -9 -49 -20 -14 -11 -33 -20 -41 -20 -36 0 -142 -63 -204
-122 -65 -61 -109 -119 -137 -183 -7 -16 -26 -48 -42 -70 -17 -22 -44 -61 -60
-87 -31 -48 -49 -60 -49 -34 0 7 -11 33 -24 58 -13 25 -27 59 -30 76 -4 17
-14 36 -22 42 -7 7 -18 29 -24 49 -20 73 -187 234 -273 263 -18 6 -53 29 -79
50 -26 22 -62 43 -79 48 -59 17 -279 41 -311 35 -41 -9 -121 -52 -131 -70 -4
-8 -14 -15 -22 -15 -7 0 -36 -21 -64 -47 -28 -27 -66 -61 -86 -77 -19 -16 -35
-37 -35 -46 0 -10 -17 -39 -39 -66 -45 -58 -78 -128 -96 -204 -8 -30 -20 -73
-29 -95 -8 -22 -15 -56 -16 -75 0 -20 -7 -60 -15 -90 -8 -30 -20 -125 -27
-210 -10 -137 -10 -166 5 -239 17 -86 20 -91 137 -235 14 -17 34 -43 43 -58
10 -16 23 -28 31 -28 7 0 34 -11 60 -25 26 -14 53 -25 59 -25 7 0 30 -10 52
-22 56 -31 196 -31 273 0 29 12 60 22 68 22 18 0 122 47 144 65 8 7 29 15 47
18 41 8 118 61 207 144 39 36 85 71 103 78 22 9 33 21 33 34 0 11 15 36 34 55
31 33 34 35 47 18 15 -17 59 -104 59 -115 0 -14 120 -177 130 -177 4 0 25 -17
46 -39 53 -52 168 -108 259 -126 41 -7 85 -19 97 -26 13 -7 69 -14 126 -16 91
-4 108 -2 138 16 19 12 47 21 62 21 15 0 45 11 67 25 22 13 48 25 57 25 21 0
157 70 198 101 58 45 189 176 200 200 6 13 17 35 25 49 8 14 15 45 16 70 0 25
4 56 8 70 7 25 8 25 15 3 17 -53 -4 -256 -49 -465 -9 -40 -20 -95 -24 -123 -4
-27 -14 -61 -23 -75 -21 -33 -29 -97 -18 -140 24 -97 36 -114 99 -151 33 -20
90 -44 125 -53 l65 -18 75 36 c43 21 93 55 115 77 36 38 39 45 39 97 0 32 9
79 19 107 11 28 25 91 32 140 7 50 17 98 22 107 13 25 11 39 -7 59 -11 12 -13
22 -6 36 12 22 33 169 37 255 6 109 23 246 34 267 17 31 66 9 92 -41 11 -21
30 -43 42 -49 13 -6 32 -24 42 -40 11 -17 44 -46 73 -65 28 -18 52 -38 52 -42
0 -28 340 -322 372 -322 7 0 27 -9 44 -19 52 -32 121 -41 190 -27 68 14 84 22
84 39 0 7 7 26 16 42 18 34 14 138 -7 177 -24 46 -192 243 -218 258 -52 29
-92 65 -107 96 -8 17 -34 47 -57 65 -23 18 -44 37 -46 42 -8 20 -95 107 -112
112 -12 4 -19 16 -19 32 0 14 -10 45 -21 68 -26 52 -38 34 141 214 74 75 158
164 185 198 28 34 60 67 72 73 12 7 40 36 63 64 23 28 63 67 89 86 88 64 163
134 182 172 10 20 39 53 64 73 25 21 45 45 45 54 0 9 17 32 36 51 20 19 42 49
49 65 7 17 22 39 34 49 16 15 19 26 15 65 -3 25 -1 66 4 90 10 42 9 45 -22 75
-18 17 -47 50 -65 74 -26 33 -39 42 -64 42 -18 1 -50 7 -72 15 -55 20 -92 18
-145 -8 -31 -15 -46 -29 -48 -45 -2 -13 -10 -26 -18 -29 -7 -3 -28 -30 -46
-62 -17 -31 -41 -69 -52 -85 -24 -33 -206 -226 -250 -265 -17 -14 -48 -44 -71
-66 -23 -22 -60 -53 -83 -69 -23 -16 -42 -33 -42 -39 0 -11 -18 -33 -69 -80
-18 -18 -52 -50 -75 -73 -22 -22 -49 -43 -58 -47 -10 -3 -18 -12 -18 -19 0 -7
-12 -23 -27 -35 -41 -33 -112 -83 -118 -83 -11 0 -5 206 7 218 9 9 8 21 -1 50
-11 32 -11 46 0 75 10 29 10 43 -1 76 -8 27 -10 58 -5 98 8 64 9 115 4 378 -2
114 1 206 9 250 7 39 17 108 21 155 5 47 16 105 26 130 19 51 13 141 -10 160
-7 6 -16 23 -20 38 -8 35 -71 129 -93 141 -10 5 -29 7 -43 4 -16 -3 -43 4 -67
16 -23 12 -43 21 -44 20 -2 0 -10 -3 -18 -6z m-2423 -2157 c45 -7 92 -20 105
-28 55 -36 86 -160 54 -218 -10 -17 -11 -31 -5 -49 6 -15 6 -27 0 -30 -6 -4
-24 -36 -41 -73 -22 -47 -42 -74 -70 -93 -22 -15 -40 -31 -40 -36 0 -10 -119
-99 -147 -110 -12 -4 -27 -17 -32 -28 -14 -25 -48 -31 -83 -14 -21 10 -29 24
-38 65 -14 67 -3 262 17 303 8 17 22 53 30 80 8 28 18 55 23 60 4 6 11 28 14
49 11 57 79 133 121 135 6 0 47 -5 92 -13z m1440 -82 c50 -6 67 -12 89 -35 25
-27 26 -32 31 -176 l6 -148 -33 -80 c-34 -84 -58 -112 -145 -170 -62 -41 -129
-52 -218 -35 -76 14 -97 35 -116 117 -23 97 0 177 117 408 48 96 104 139 167
131 22 -4 68 -9 102 -12z"/>
<path d="M7025 18305 c-5 -2 -27 -6 -47 -10 -21 -3 -51 -17 -67 -30 l-29 -25
-4 -187 c-3 -112 -9 -200 -17 -217 -16 -39 -39 -213 -34 -257 3 -19 -2 -60
-11 -89 -16 -55 -19 -131 -7 -185 4 -16 3 -46 -2 -65 -4 -19 -11 -188 -13
-375 -7 -453 -10 -546 -22 -635 -6 -41 -13 -169 -16 -285 -3 -115 -11 -259
-17 -320 -18 -161 -3 -305 38 -371 25 -42 42 -55 112 -91 46 -23 88 -46 94
-52 18 -18 128 -14 149 6 10 9 28 21 41 27 42 21 63 189 32 263 -12 27 -15 77
-14 222 0 102 5 213 10 246 5 33 13 161 18 285 9 202 20 304 40 394 4 17 3 61
-1 100 -5 38 -6 77 -2 85 3 9 8 167 10 351 6 410 20 573 61 700 8 25 19 65 25
90 6 25 16 52 23 60 30 33 35 68 22 142 -11 62 -20 83 -60 134 -60 79 -96 94
-215 93 -48 0 -91 -2 -97 -4z"/>
<path d="M20954 17681 c-22 -10 -57 -33 -77 -51 -34 -29 -37 -37 -37 -85 0
-29 7 -72 15 -96 14 -39 15 -136 10 -819 -6 -752 -5 -777 14 -855 11 -44 25
-127 31 -185 9 -96 18 -136 41 -198 5 -13 9 -33 9 -46 0 -13 11 -38 25 -57 13
-19 31 -48 39 -66 9 -19 30 -40 53 -52 22 -11 45 -27 52 -35 8 -9 18 -16 24
-16 6 0 18 -7 27 -15 40 -36 132 -58 259 -61 l124 -4 66 35 c36 19 78 35 93
35 33 0 71 14 95 35 80 69 114 108 138 155 47 93 47 101 14 219 -17 58 -33
116 -36 129 -3 13 -30 43 -60 67 -58 48 -78 52 -176 39 -30 -4 -47 -12 -49
-22 -2 -8 -19 -20 -38 -27 -26 -9 -36 -19 -42 -43 -14 -52 -78 -88 -115 -64
-7 4 -24 33 -38 64 -32 71 -44 177 -44 385 l1 152 33 42 c35 44 89 72 168 84
23 4 52 13 64 21 12 8 29 14 36 14 8 0 36 17 63 39 27 21 67 44 89 51 22 7 56
21 75 31 19 11 42 19 52 19 9 0 20 5 23 10 4 6 28 22 55 35 27 14 65 38 83 55
37 32 110 135 151 214 29 55 35 126 11 146 -7 6 -28 36 -44 66 -41 71 -61 76
-191 45 -25 -6 -65 -15 -90 -19 -25 -5 -59 -16 -75 -24 -60 -33 -141 -65 -176
-71 -20 -3 -57 -20 -82 -37 -28 -21 -65 -36 -97 -41 -29 -4 -61 -16 -72 -26
-25 -22 -57 -19 -80 9 -14 15 -15 24 -7 39 5 11 10 45 9 77 -1 31 3 129 9 217
9 147 8 167 -10 245 -29 120 -37 140 -82 183 -31 30 -46 37 -79 37 -25 0 -49
8 -65 20 -34 27 -131 27 -189 1z"/>
<path d="M13890 16480 c-31 -4 -64 -11 -75 -17 -11 -6 -35 -13 -54 -17 -36 -6
-64 -27 -171 -123 -38 -35 -73 -63 -77 -63 -5 0 -33 -33 -63 -72 -30 -40 -61
-79 -68 -88 -25 -28 -72 -105 -72 -117 0 -7 -12 -24 -27 -38 l-28 -25 -6 25
c-4 13 -10 68 -14 122 -4 54 -13 105 -20 113 -7 8 -15 31 -19 51 -8 48 -66
101 -143 131 -56 23 -65 24 -100 12 -21 -8 -50 -14 -64 -14 -31 0 -85 -55 -95
-96 -7 -27 3 -456 12 -529 3 -22 6 -56 8 -75 2 -19 4 -40 5 -47 0 -6 12 -24
24 -40 13 -15 32 -55 41 -88 10 -33 29 -82 44 -110 30 -59 140 -171 197 -201
44 -23 106 -57 145 -79 27 -16 80 -11 115 10 11 7 35 15 53 19 35 6 102 54
102 73 0 6 11 25 25 41 18 22 25 42 25 74 0 36 5 48 30 70 25 22 29 31 24 57
-4 17 -2 43 4 58 6 16 23 62 37 103 15 41 38 85 51 98 13 13 24 29 24 36 0 7
13 27 30 44 16 17 36 47 44 67 8 19 20 35 25 35 27 0 48 -39 54 -100 4 -39 14
-71 25 -83 14 -16 17 -38 17 -121 0 -85 3 -106 21 -136 12 -19 24 -51 28 -71
4 -22 20 -48 44 -71 33 -33 46 -38 116 -47 43 -6 99 -18 124 -26 40 -14 47
-14 69 1 59 38 114 101 123 140 14 60 12 112 -5 121 -11 7 -15 36 -18 130 -3
103 -7 125 -24 147 -16 20 -21 41 -21 92 0 53 -5 73 -22 97 -19 25 -23 46 -26
140 -3 72 -9 116 -17 122 -16 14 -60 81 -82 129 -55 116 -180 162 -375 136z"/>
<path d="M15075 16483 c-11 -3 -50 -34 -87 -69 -36 -35 -71 -64 -77 -64 -16 0
-86 -100 -104 -150 -9 -25 -20 -67 -23 -95 -4 -27 -15 -66 -27 -85 -12 -22
-21 -60 -24 -105 -3 -38 -13 -88 -23 -110 -16 -35 -18 -65 -15 -245 4 -294 0
-276 80 -410 11 -19 31 -43 43 -54 13 -12 41 -37 61 -56 72 -67 86 -77 111
-85 14 -4 36 -14 50 -23 18 -12 56 -18 132 -20 97 -4 111 -2 145 18 132 79
163 106 242 214 32 45 35 46 53 30 10 -10 26 -43 34 -73 9 -31 20 -60 24 -66
11 -16 32 -77 40 -120 21 -110 67 -225 90 -225 4 0 11 -12 15 -27 3 -15 24
-64 45 -109 21 -45 46 -104 55 -131 9 -26 40 -99 70 -160 30 -62 55 -119 55
-126 0 -6 17 -39 39 -72 21 -33 42 -74 46 -92 3 -17 13 -37 21 -44 8 -6 14
-16 14 -21 0 -15 62 -152 71 -158 10 -7 69 -119 69 -131 0 -14 100 -218 109
-224 5 -2 11 -23 15 -45 3 -22 15 -57 26 -78 11 -20 20 -42 20 -49 0 -15 59
-164 71 -179 5 -6 10 -39 11 -74 2 -47 -1 -64 -12 -69 -8 -4 -30 -15 -48 -24
-19 -9 -55 -17 -80 -17 -52 0 -231 35 -277 55 -73 30 -143 54 -180 60 -21 4
-56 15 -77 26 -20 10 -47 19 -58 19 -11 0 -23 7 -26 15 -8 21 -86 62 -133 70
-23 4 -43 11 -46 16 -3 5 -32 25 -63 45 -31 20 -73 47 -92 60 -31 21 -161 141
-313 290 -29 27 -65 69 -81 92 -16 22 -42 46 -58 51 -16 6 -43 22 -60 36 -24
20 -40 25 -84 25 -30 0 -54 -4 -54 -9 0 -5 -14 -22 -30 -38 l-31 -30 17 -42
c14 -36 15 -46 4 -67 -12 -21 -11 -30 3 -59 9 -20 17 -46 17 -59 0 -13 14 -40
30 -61 17 -21 30 -42 30 -47 0 -5 34 -45 75 -88 41 -43 75 -84 75 -90 0 -5 14
-19 31 -29 17 -10 69 -52 116 -92 46 -40 108 -88 136 -105 29 -18 59 -40 68
-48 8 -9 38 -27 65 -42 27 -14 60 -32 74 -39 91 -49 231 -108 265 -112 41 -5
118 -31 190 -63 61 -28 164 -58 220 -63 28 -3 91 -13 140 -21 157 -28 301 -14
431 40 18 8 50 14 70 14 47 0 148 62 180 110 55 83 71 227 34 320 -11 28 -20
61 -20 73 0 12 -8 38 -19 57 -10 19 -22 51 -26 70 -4 19 -14 44 -21 55 -8 11
-14 29 -14 40 0 11 -9 38 -20 60 -11 22 -20 47 -20 56 0 9 -9 28 -20 42 -11
14 -33 56 -50 94 -16 37 -38 86 -49 108 -12 21 -21 47 -21 56 0 9 -7 22 -16
29 -8 8 -22 27 -30 44 -8 17 -27 53 -44 79 -16 26 -33 60 -36 75 -7 25 -26 68
-59 132 -7 14 -16 46 -19 72 -4 26 -15 57 -25 70 -25 33 -58 97 -71 140 -6 21
-15 40 -20 43 -12 8 -57 107 -65 146 -4 19 -16 50 -26 69 -11 19 -19 41 -19
48 0 16 -48 121 -65 142 -7 8 -16 36 -19 62 -4 26 -14 54 -21 62 -8 8 -19 38
-24 67 -5 30 -15 72 -21 94 -7 22 -18 66 -25 98 -7 32 -18 64 -24 71 -6 7 -15
37 -21 67 -7 30 -18 68 -26 86 -8 17 -14 37 -14 45 0 8 -7 23 -15 34 -9 12
-14 42 -15 81 0 34 -4 73 -9 87 -6 13 -12 52 -15 84 -2 33 -9 69 -15 81 -13
24 -32 246 -29 346 2 55 -2 77 -17 100 -51 80 -115 116 -244 141 -95 18 -141
10 -194 -33 -36 -29 -45 -29 -57 2 -5 14 -14 25 -19 25 -5 0 -12 15 -15 34 -4
19 -14 37 -24 41 -21 9 -280 16 -307 8z m331 -296 c-9 -7 -19 -34 -22 -62 -4
-27 -15 -66 -26 -85 -10 -19 -18 -41 -18 -49 0 -7 -9 -28 -20 -47 -12 -18 -24
-57 -27 -86 -3 -29 -12 -62 -19 -73 -8 -11 -14 -36 -14 -56 0 -21 -8 -47 -20
-62 -11 -14 -20 -38 -20 -54 0 -15 -7 -39 -15 -53 -7 -14 -21 -40 -30 -59 -8
-19 -19 -31 -23 -27 -13 14 -2 250 13 266 17 19 34 92 35 148 0 26 11 64 28
100 16 31 34 82 41 113 11 51 15 57 42 63 30 6 90 43 99 61 2 6 6 2 8 -8 2
-10 -3 -24 -12 -30z"/>
<path d="M12316 16455 c-11 -8 -33 -15 -49 -15 -60 0 -118 -50 -147 -127 -26
-68 -25 -102 1 -153 18 -35 21 -51 15 -107 -6 -61 2 -152 24 -263 19 -96 48
-219 55 -230 4 -7 20 -48 36 -93 33 -93 55 -121 124 -154 28 -13 75 -39 105
-58 30 -19 64 -35 75 -35 35 1 107 39 142 77 29 31 34 41 29 72 -3 20 -8 71
-11 113 -4 44 -15 95 -26 117 -21 45 -24 73 -9 101 10 19 9 30 -27 177 -10 41
-16 126 -17 259 -3 183 -4 199 -22 209 -10 5 -38 27 -61 48 -24 20 -48 38 -55
38 -7 1 -35 3 -62 5 -27 2 -56 10 -66 19 -20 18 -30 19 -54 0z"/>
<path d="M19245 16400 c-11 -5 -50 -6 -86 -3 -60 5 -70 3 -109 -22 -24 -15
-80 -37 -124 -49 -140 -38 -250 -130 -366 -306 -23 -36 -51 -76 -61 -90 -10
-14 -26 -38 -35 -55 -10 -16 -25 -36 -35 -43 -14 -10 -19 -26 -19 -65 0 -29
-7 -79 -15 -112 -17 -72 -19 -161 -4 -171 7 -4 9 -22 6 -44 -2 -20 1 -52 7
-72 17 -49 111 -189 156 -232 7 -6 40 -38 74 -72 61 -61 61 -61 135 -67 40 -4
91 -16 114 -26 83 -37 324 -35 366 3 10 9 29 16 43 16 14 0 31 7 39 16 7 8 26
22 43 31 17 9 49 31 72 49 23 19 46 34 52 34 6 0 22 12 35 26 13 14 35 31 48
38 15 7 25 22 27 38 2 16 11 30 22 33 38 12 138 86 143 105 3 14 14 20 31 20
23 0 26 -4 26 -32 0 -28 6 -36 37 -53 21 -11 44 -32 51 -47 7 -15 26 -37 43
-50 16 -13 43 -35 60 -50 16 -16 36 -28 43 -28 8 0 32 -17 54 -37 117 -109
148 -123 296 -135 67 -5 136 -6 154 -3 50 9 122 49 175 98 39 35 51 55 63 100
17 65 14 75 -48 149 -33 40 -44 47 -86 51 -53 6 -168 34 -194 48 -9 5 -35 12
-57 15 -31 5 -46 14 -63 40 -13 19 -31 37 -40 40 -10 3 -38 49 -64 102 -25 53
-55 106 -65 118 -10 11 -23 41 -27 66 -5 25 -16 56 -25 69 -10 13 -17 36 -17
51 0 15 -9 50 -20 78 -15 39 -20 74 -20 149 0 92 -2 100 -30 142 -16 24 -45
62 -63 83 -32 38 -38 40 -123 52 -125 18 -164 17 -204 -5 -19 -11 -45 -24 -57
-30 -13 -6 -23 -18 -23 -26 0 -9 -12 -27 -26 -41 -25 -22 -27 -30 -26 -99 0
-41 -3 -75 -8 -75 -14 0 -30 35 -31 67 -1 52 -60 145 -119 186 -53 37 -86 44
-125 27z m282 -460 c-4 -53 -12 -78 -48 -140 -65 -114 -111 -170 -183 -224
-36 -28 -66 -55 -66 -62 0 -6 -18 -19 -40 -28 -22 -9 -40 -20 -40 -25 0 -5
-24 -18 -53 -30 -40 -17 -70 -21 -118 -19 l-63 3 -8 35 c-12 51 1 200 17 206
7 3 18 18 25 34 7 16 18 31 26 34 7 3 20 22 29 43 19 45 30 53 73 53 18 0 42
4 52 10 10 5 67 11 126 14 89 3 111 7 119 21 5 10 26 33 47 52 20 19 39 47 43
61 3 15 16 42 28 59 l22 33 9 -33 c4 -17 6 -61 3 -97z"/>
<path d="M12724 15726 c-8 -22 3 -33 18 -18 9 9 9 15 0 24 -9 9 -13 7 -18 -6z"/>
<path d="M23348 15015 c-3 -3 -44 -12 -91 -19 -109 -18 -134 -31 -170 -84
l-30 -44 17 -74 c9 -41 16 -85 16 -99 0 -13 5 -35 11 -47 13 -29 120 -82 205
-101 33 -8 70 -20 82 -26 39 -21 132 17 171 70 23 31 51 137 51 194 0 43 -37
135 -67 167 -28 30 -85 53 -107 45 -8 -3 -22 1 -33 8 -18 15 -45 19 -55 10z"/>
</g>
</svg>
