<?xml version="1.0" standalone="no"?>
<!DOCTYPE svg PUBLIC "-//W3C//DTD SVG 20010904//EN"
 "http://www.w3.org/TR/2001/REC-SVG-20010904/DTD/svg10.dtd">
<svg version="1.0" xmlns="http://www.w3.org/2000/svg"
 width="302.000000pt" height="194.000000pt" viewBox="0 0 302.000000 194.000000"
 preserveAspectRatio="xMidYMid meet">

<g transform="translate(0.000000,194.000000) scale(0.100000,-0.100000)"
fill="#000000" stroke="none">
<path d="M1354 1808 c-5 -7 -9 -102 -9 -211 l0 -198 -40 3 c-32 2 -44 9 -62
37 -13 19 -23 47 -23 62 0 33 -34 59 -53 40 -6 -6 -23 -11 -38 -11 -63 0 -112
-124 -71 -179 28 -38 89 -41 121 -7 l23 25 37 -20 c40 -21 73 -24 102 -9 15 8
19 7 19 -4 0 -18 30 -36 61 -36 12 0 40 19 65 44 33 33 44 51 44 75 0 50 -25
50 -67 1 -33 -38 -38 -40 -44 -24 -4 11 -8 43 -8 71 -1 50 1 54 38 78 39 26
61 60 54 83 -6 16 -35 15 -59 -3 -10 -8 -22 -15 -26 -15 -5 0 -8 40 -8 89 0
68 -4 93 -16 105 -19 19 -29 20 -40 4z m-215 -404 c-30 -36 -41 5 -11 46 l17
25 3 -28 c2 -16 -2 -35 -9 -43z"/>
<path d="M731 1781 c-7 -13 -3 -62 15 -167 14 -82 28 -172 31 -200 4 -41 10
-54 29 -64 34 -19 54 1 54 54 0 57 16 110 41 132 30 27 39 5 39 -102 0 -56 4
-94 12 -102 14 -14 44 -16 52 -3 3 5 2 63 -2 130 -9 135 -22 161 -75 161 -34
0 -83 -32 -92 -61 -12 -37 -23 -6 -39 104 -17 127 -39 167 -65 118z"/>
<path d="M506 1661 c-3 -5 10 -35 29 -67 76 -127 76 -239 -1 -220 -38 10 -94
68 -94 98 0 28 -28 58 -53 58 -22 0 -27 -11 -31 -64 -6 -76 -54 -129 -83 -90
-11 14 -13 35 -9 75 4 47 2 59 -13 74 -15 13 -24 14 -40 5 -18 -9 -21 -20 -21
-78 0 -37 6 -78 13 -91 20 -39 64 -66 109 -66 35 0 45 6 74 39 31 36 35 38 51
24 93 -81 233 -55 233 43 0 41 -33 147 -58 189 -40 64 -90 98 -106 71z"/>
<path d="M2554 1506 c-3 -9 -2 -28 3 -43 17 -47 -16 -112 -56 -113 -11 0 -12
12 -7 55 6 52 5 56 -19 67 -36 16 -54 -5 -61 -69 -6 -48 -4 -53 29 -89 27 -30
42 -38 69 -38 43 0 82 24 109 67 23 37 22 129 -2 151 -24 23 -58 29 -65 12z"/>
<path d="M2007 1493 c-4 -3 -7 -21 -7 -40 0 -22 -9 -43 -29 -65 -36 -40 -51
-30 -27 18 20 43 9 64 -35 64 -34 0 -51 -31 -51 -92 -1 -42 27 -72 76 -84 22
-5 38 1 72 24 l43 31 30 -48 c45 -69 85 -171 72 -184 -18 -18 -185 37 -213 71
-7 8 -13 26 -13 40 0 13 -7 29 -17 35 -44 28 -68 -68 -28 -111 27 -28 76 -53
172 -86 130 -44 184 -32 182 44 -1 30 -22 82 -78 193 -42 84 -76 159 -76 168
0 24 -55 41 -73 22z"/>
<path d="M2193 1482 c-16 -10 -43 -75 -43 -102 0 -34 28 -79 60 -95 75 -39
164 8 180 95 10 54 -9 76 -80 95 -61 16 -99 19 -117 7z m124 -79 c8 -20 -41
-66 -66 -61 -17 3 -27 39 -17 64 8 20 75 19 83 -3z"/>
<path d="M2625 1095 c-60 -23 -72 -53 -31 -80 22 -15 29 -15 70 -1 138 47 158
-100 33 -235 -33 -35 -48 -64 -62 -126 -10 -41 -10 -56 0 -69 21 -30 53 -8 84
59 15 34 45 82 66 107 56 66 79 124 77 193 -1 66 -24 112 -69 139 -42 25 -120
31 -168 13z"/>
<path d="M717 1053 c-2 -21 -5 -92 -7 -158 -2 -119 -16 -252 -19 -190 -2 45
-37 114 -63 124 -37 13 -96 -8 -129 -48 -24 -27 -33 -32 -37 -21 -3 8 -17 27
-32 42 -75 75 -162 28 -176 -95 -8 -68 5 -100 47 -117 34 -15 85 0 128 35 l28
24 21 -29 c43 -58 128 -58 189 0 l23 21 -3 -63 c-2 -61 -1 -63 24 -66 36 -4
48 15 55 89 9 97 9 98 57 52 56 -54 84 -68 103 -52 22 18 18 26 -36 83 -27 29
-50 55 -50 58 0 3 33 40 74 82 79 82 93 108 69 131 -17 17 -53 20 -53 4 0 -12
-125 -139 -138 -139 -8 0 -6 194 3 217 9 25 -14 53 -44 53 -26 0 -29 -4 -34
-37z m-328 -307 c14 -17 2 -53 -27 -79 -39 -35 -53 -3 -28 58 16 37 36 44 55
21z m219 -50 c-3 -34 -7 -42 -31 -50 -22 -8 -30 -7 -37 4 -14 21 -12 31 9 67
15 24 25 30 41 26 18 -5 21 -12 18 -47z"/>
<path d="M136 1062 c-3 -5 -10 -109 -16 -233 l-10 -224 21 -18 c42 -34 53 -20
55 73 3 151 15 322 25 347 13 35 -5 63 -41 63 -16 0 -31 -4 -34 -8z"/>
<path d="M2333 973 c-15 -6 -18 -260 -4 -333 12 -59 42 -84 96 -77 48 7 74 35
67 72 -6 32 -28 42 -54 26 -28 -17 -38 -5 -38 44 0 43 0 44 56 69 60 28 83 49
84 79 0 28 -25 30 -85 8 l-55 -21 0 55 c0 44 -4 57 -22 69 -24 17 -26 17 -45
9z"/>
<path d="M1214 780 c-11 -4 -34 -24 -51 -43 l-31 -35 -6 28 c-5 28 -36 47 -56
35 -15 -9 -12 -100 4 -140 16 -37 46 -58 78 -53 14 2 26 18 39 52 25 66 36 76
44 40 13 -61 24 -75 53 -72 19 2 28 9 30 26 6 37 -19 133 -39 153 -21 21 -33
22 -65 9z"/>
<path d="M1397 772 c-25 -28 -37 -69 -37 -132 0 -51 3 -61 26 -79 34 -26 66
-27 89 -1 21 23 30 19 39 -16 4 -14 36 -89 72 -165 36 -77 62 -144 58 -150
-17 -29 -140 20 -205 81 -49 46 -69 50 -69 16 0 -91 236 -197 328 -147 35 19
28 59 -33 193 -70 151 -94 223 -109 318 l-12 75 -34 3 c-19 2 -39 8 -44 13
-16 15 -52 10 -69 -9z m49 -97 c-13 -36 -15 -37 -15 -13 -1 15 5 39 11 54 19
40 22 7 4 -41z"/>
<path d="M962 768 c-18 -23 2 -139 29 -160 25 -21 48 -23 54 -5 3 6 -1 48 -8
92 -12 74 -15 80 -38 83 -14 2 -31 -3 -37 -10z"/>
<path d="M2015 760 c-42 -17 -85 -83 -85 -130 0 -30 47 -77 82 -83 41 -6 75 7
110 40 l26 25 39 -30 c42 -33 66 -40 101 -28 35 12 25 48 -15 58 -39 10 -62
41 -70 94 -3 22 -10 45 -16 52 -14 17 -64 15 -75 -4 -8 -15 -10 -15 -15 0 -7
17 -48 21 -82 6z m78 -99 c-21 -27 -68 -50 -79 -38 -15 15 16 58 46 64 17 3
33 10 37 16 4 7 8 7 11 -2 2 -7 -5 -25 -15 -40z"/>
<path d="M2681 549 c-15 -6 -21 -14 -17 -25 3 -9 6 -19 6 -24 0 -16 62 -23 71
-9 13 21 11 36 -7 53 -18 18 -20 18 -53 5z"/>
</g>
</svg>
