<?xml version="1.0" standalone="no"?>
<!DOCTYPE svg PUBLIC "-//W3C//DTD SVG 20010904//EN"
 "http://www.w3.org/TR/2001/REC-SVG-20010904/DTD/svg10.dtd">
<svg version="1.0" xmlns="http://www.w3.org/2000/svg"
 width="616.000000pt" height="872.000000pt" viewBox="0 0 616.000000 872.000000"
 preserveAspectRatio="xMidYMid meet">

<g transform="translate(0.000000,872.000000) scale(0.100000,-0.100000)"
fill="#000000" stroke="none">
<path d="M4086 8325 c-3 -8 -18 -15 -34 -15 -15 0 -37 -7 -48 -15 -10 -8 -33
-15 -51 -15 -17 0 -35 -4 -38 -10 -3 -5 -15 -10 -26 -10 -10 0 -29 -10 -41
-22 -23 -24 -32 -30 -89 -62 -52 -29 -112 -91 -135 -138 -11 -24 -37 -77 -57
-119 -20 -41 -37 -83 -37 -92 0 -8 -4 -18 -9 -21 -5 -4 -17 -32 -26 -64 -9
-31 -21 -67 -26 -80 -5 -13 -9 -53 -9 -90 -1 -39 -7 -77 -15 -92 -8 -14 -14
-39 -15 -55 0 -41 63 -133 103 -150 18 -7 58 -39 89 -69 32 -31 66 -56 76 -56
10 0 28 11 41 24 22 23 80 132 81 152 1 38 49 88 50 52 1 -15 55 46 75 85 8
15 22 40 30 56 8 15 19 49 24 75 8 46 34 86 54 86 6 0 41 27 78 60 l67 60 146
0 c86 0 147 -4 151 -10 3 -5 16 -10 27 -10 48 0 158 -99 158 -143 0 -8 6 -20
14 -26 8 -6 17 -26 20 -44 39 -189 49 -330 36 -492 -7 -77 -15 -196 -20 -265
-5 -69 -13 -141 -19 -160 -5 -19 -20 -78 -31 -130 -12 -52 -28 -114 -36 -138
-8 -23 -14 -58 -14 -77 0 -18 -4 -37 -10 -40 -5 -3 -10 -15 -10 -26 0 -40 -74
-154 -118 -181 -52 -31 -207 -155 -293 -235 -50 -45 -86 -90 -131 -162 -25
-42 -56 -92 -68 -111 -21 -33 -22 -42 -17 -180 3 -80 10 -158 16 -175 6 -16
24 -75 41 -130 36 -124 66 -210 86 -253 8 -18 22 -58 31 -90 8 -31 19 -73 25
-92 5 -19 15 -62 23 -96 7 -33 20 -77 29 -98 9 -21 16 -50 16 -65 0 -39 26
-115 57 -171 24 -43 35 -52 86 -70 67 -25 54 -30 150 64 75 73 98 75 127 7 17
-38 25 -48 40 -44 11 3 22 13 25 24 9 26 -12 93 -35 114 -15 14 -20 31 -20 74
0 57 -18 117 -64 207 -22 44 -26 65 -26 141 0 50 -4 103 -10 119 -17 49 -51
292 -51 359 0 44 12 104 22 111 5 3 9 13 9 23 0 10 16 31 35 47 19 16 35 36
35 44 0 9 5 21 11 27 20 20 2 42 -38 45 -49 4 -54 28 -15 68 17 17 33 30 37
30 10 0 107 66 142 97 18 15 44 36 58 46 14 10 25 24 25 32 0 10 10 15 28 15
15 0 39 11 54 25 15 14 31 25 36 25 16 0 52 46 52 66 0 10 10 35 22 54 31 50
48 81 48 90 0 8 23 45 111 175 59 89 75 157 48 207 -8 14 -8 23 0 31 6 6 11
24 11 39 0 16 4 36 9 46 52 99 82 199 74 251 -6 34 13 137 29 157 5 6 -2 31
-17 58 -15 27 -25 64 -25 87 0 37 -4 50 -32 102 -7 12 -16 78 -20 147 -16 253
-19 282 -39 314 -10 17 -23 40 -28 51 -5 11 -18 29 -30 39 -11 11 -21 29 -21
42 0 13 -4 26 -10 29 -5 3 -10 16 -10 27 0 24 -270 298 -294 298 -8 0 -18 5
-21 11 -4 5 -32 22 -63 36 -32 14 -81 36 -110 49 -29 13 -63 24 -77 24 -13 0
-27 5 -30 10 -3 6 -25 10 -48 10 -23 0 -51 7 -61 15 -11 8 -30 15 -43 15 -14
0 -23 6 -23 15 0 13 -22 15 -139 15 -114 0 -140 -3 -145 -15z"/>
<path d="M1696 7601 c-9 -14 -67 -31 -141 -42 -33 -5 -77 -12 -98 -15 -21 -4
-41 -12 -44 -20 -3 -8 -11 -14 -19 -14 -8 0 -22 -4 -32 -9 -9 -5 -33 -16 -53
-25 -19 -8 -43 -24 -54 -36 -10 -11 -25 -20 -33 -20 -41 0 -262 -179 -262
-213 0 -7 -15 -29 -33 -49 -36 -41 -87 -134 -87 -157 0 -8 -9 -34 -20 -57 -12
-23 -25 -64 -29 -91 -7 -42 -17 -70 -62 -168 -5 -11 -19 -51 -30 -90 -53 -177
-57 -208 -60 -475 -6 -366 -4 -456 9 -550 6 -47 16 -170 22 -275 6 -104 13
-229 16 -276 l5 -85 69 -73 c38 -40 72 -80 75 -89 3 -10 28 -25 57 -34 88 -28
128 -44 140 -56 7 -7 18 -12 25 -12 8 0 25 -7 38 -16 16 -10 34 -14 50 -10 51
13 104 142 87 214 -5 20 -10 96 -11 167 0 72 -6 157 -12 190 -5 33 -14 152
-19 265 -5 113 -12 227 -16 253 -4 33 -1 66 10 100 11 38 17 109 20 262 3 116
9 235 14 265 11 71 55 207 88 273 8 16 14 37 14 47 0 22 40 98 79 150 67 90
290 294 362 331 108 55 273 -18 460 -204 89 -87 159 -210 159 -277 0 -11 9
-25 20 -32 11 -7 20 -24 20 -38 1 -14 7 -36 15 -50 8 -14 14 -38 15 -54 0 -31
13 -79 36 -134 8 -18 14 -46 14 -62 0 -17 4 -38 10 -48 12 -21 60 -217 60
-246 0 -12 9 -32 20 -46 11 -14 20 -29 20 -33 0 -5 6 -23 13 -40 27 -63 37
-104 37 -155 0 -28 4 -53 9 -56 5 -4 12 -24 16 -46 4 -22 11 -42 16 -46 5 -3
9 -17 9 -31 0 -15 12 -61 26 -102 l27 -76 -6 -335 c-5 -290 -9 -358 -31 -505
-15 -93 -29 -190 -32 -215 -13 -108 -63 -246 -111 -303 -12 -16 -23 -34 -23
-40 0 -24 -146 -163 -300 -286 -44 -36 -80 -69 -80 -73 0 -4 -6 -8 -13 -8 -8
0 -22 -9 -32 -20 -11 -12 -33 -28 -50 -36 -18 -8 -50 -31 -71 -51 -73 -67
-177 -133 -210 -133 -20 0 -137 -68 -235 -137 -42 -29 -81 -53 -87 -53 -6 0
-15 -6 -19 -12 -4 -7 -26 -21 -48 -31 -50 -24 -130 -91 -150 -125 -67 -122
-67 -135 -1 -269 62 -125 71 -148 91 -238 10 -44 21 -84 25 -90 4 -5 17 -41
30 -80 12 -38 29 -77 36 -86 8 -8 24 -35 37 -60 34 -66 49 -90 83 -134 17 -22
35 -54 38 -70 5 -18 25 -43 52 -65 25 -19 60 -47 78 -62 19 -16 36 -28 39 -28
4 0 23 -11 43 -25 30 -20 49 -25 101 -25 50 0 65 -4 70 -17 4 -9 20 -29 37
-44 38 -35 94 -39 121 -9 12 13 31 20 57 20 25 0 45 7 58 20 24 24 26 68 5 76
-8 4 -15 13 -15 22 0 17 -44 144 -61 174 -5 10 -9 30 -9 44 0 14 -15 47 -33
73 -42 57 -84 187 -107 330 -5 29 -13 65 -19 80 -17 46 -43 240 -37 275 6 29
53 86 73 86 5 0 26 14 47 30 22 17 46 30 53 30 8 0 19 14 24 30 6 17 16 30 23
30 7 0 26 15 44 33 17 18 57 46 88 62 30 16 69 46 85 66 21 26 41 40 76 49
105 26 127 40 224 133 47 46 115 106 152 134 66 49 197 191 197 212 0 6 16 25
34 42 19 17 38 45 42 62 3 17 15 46 25 64 11 19 19 40 19 47 0 16 43 116 73
171 18 32 23 63 28 160 7 116 32 295 45 317 3 5 6 109 5 229 0 158 -4 226 -13
242 -8 13 -16 75 -19 147 -3 69 -11 141 -17 160 -36 114 -44 155 -49 245 -3
63 -12 122 -25 160 -12 32 -24 89 -29 125 -24 188 -22 184 -49 168 -30 -19
-48 3 -31 36 8 15 11 38 7 58 -3 18 -10 62 -15 98 -9 69 -28 150 -42 188 -5
13 -9 29 -9 37 0 8 -11 31 -25 51 -14 20 -25 45 -25 56 0 10 -11 41 -25 68
-14 27 -25 62 -25 77 0 15 -7 37 -15 47 -8 11 -15 27 -15 35 0 19 -91 205
-102 209 -4 2 -8 9 -8 15 0 7 -27 41 -60 77 -33 36 -60 69 -60 73 0 13 -132
147 -144 147 -6 0 -27 15 -46 33 -31 28 -154 97 -174 97 -4 0 -20 9 -36 20
-17 12 -46 20 -76 21 -27 1 -53 5 -59 9 -58 43 -110 60 -178 61 -40 0 -97 5
-127 10 -98 18 -147 21 -154 10z"/>
<path d="M4516 3751 c-3 -5 -21 -12 -40 -15 -41 -8 -98 -61 -115 -108 -7 -18
-17 -41 -22 -50 -13 -24 -11 -48 6 -115 8 -31 15 -75 15 -98 0 -100 47 -168
122 -179 114 -17 175 -28 193 -36 35 -15 80 -19 138 -13 43 4 58 10 62 24 3
10 14 21 23 24 16 5 55 77 83 153 9 26 9 41 -1 71 -8 26 -9 44 -3 56 7 11 6
28 -1 49 -17 47 -25 56 -50 56 -13 0 -34 9 -48 19 -14 11 -45 27 -69 37 -24 9
-60 32 -79 50 -19 18 -58 45 -85 59 -49 25 -119 33 -129 16z"/>
<path d="M2197 1339 c-50 -12 -85 -31 -133 -71 -22 -18 -61 -44 -87 -57 -59
-30 -105 -100 -138 -211 -17 -55 -18 -290 -1 -370 10 -50 18 -61 88 -127 42
-40 85 -73 96 -73 10 0 27 -9 38 -20 24 -24 70 -27 70 -5 0 11 12 15 48 15 27
0 57 6 68 15 10 8 27 15 37 15 9 0 17 4 17 8 0 13 57 42 83 42 27 0 137 92
137 114 0 7 16 31 35 53 19 23 35 45 35 50 0 5 11 20 25 33 14 13 25 31 25 41
0 10 5 21 10 24 21 13 11 112 -15 159 -14 25 -25 54 -25 65 0 11 -14 28 -34
40 -34 22 -37 29 -62 148 -7 38 -70 76 -158 96 -120 27 -118 26 -159 16z"/>
</g>
</svg>
