<?xml version="1.0" standalone="no"?>
<!DOCTYPE svg PUBLIC "-//W3C//DTD SVG 20010904//EN"
 "http://www.w3.org/TR/2001/REC-SVG-20010904/DTD/svg10.dtd">
<svg version="1.0" xmlns="http://www.w3.org/2000/svg"
 width="284.000000pt" height="301.000000pt" viewBox="0 0 284.000000 301.000000"
 preserveAspectRatio="xMidYMid meet">

<g transform="translate(0.000000,301.000000) scale(0.100000,-0.100000)"
fill="#000000" stroke="none">
<path d="M1959 2888 c-16 -13 -51 -178 -65 -301 -5 -47 -11 -61 -31 -74 -32
-21 -152 -63 -180 -63 -31 0 -71 -20 -78 -38 -9 -23 25 -51 81 -66 27 -8 82
-29 122 -47 l74 -34 -6 -35 c-3 -19 -13 -95 -21 -169 -17 -149 -14 -161 39
-161 37 0 43 4 77 50 15 19 44 53 65 76 22 22 60 64 86 93 l48 53 106 -31 c58
-17 134 -45 170 -61 54 -24 69 -27 99 -19 25 7 37 17 41 35 5 21 -1 34 -40 73
-25 26 -46 50 -46 53 0 4 -15 33 -34 65 -19 33 -38 71 -41 86 -5 17 -16 29
-31 33 -13 3 -24 11 -24 18 0 14 89 107 130 136 34 24 39 59 14 84 -19 20 -35
20 -82 0 -20 -8 -67 -23 -103 -33 l-65 -19 -72 74 c-40 40 -96 108 -124 151
-54 80 -79 96 -109 71z m196 -316 c-2 -2 -41 -5 -86 -7 l-82 -2 6 66 c10 113
10 113 93 24 40 -43 71 -79 69 -81z m165 -52 c0 -5 -4 -10 -10 -10 -5 0 -10 5
-10 10 0 6 5 10 10 10 6 0 10 -4 10 -10z m-98 -37 c30 -35 29 -52 -5 -91 -18
-20 -47 -56 -65 -78 l-32 -42 -68 23 -67 23 -2 63 c-3 111 -6 108 105 112 54
1 102 4 108 5 6 1 18 -6 26 -15z m-335 -119 c-2 -3 -24 4 -48 15 l-44 19 45
21 45 20 3 -35 c2 -20 1 -38 -1 -40z m472 -89 c17 -32 28 -61 26 -63 -2 -3
-40 6 -84 18 l-79 23 16 26 c10 14 28 38 41 54 30 33 37 28 80 -58z m-301 -87
c1 -7 -19 -35 -46 -61 l-48 -48 4 63 c2 35 5 68 7 75 5 15 79 -10 83 -29z"/>
<path d="M769 2288 c-1 -2 -3 -34 -4 -73 -9 -234 -77 -682 -107 -711 -7 -7
-29 -15 -48 -17 -19 -3 -60 -10 -90 -17 -59 -12 -277 -39 -349 -44 -43 -3 -71
-23 -71 -53 0 -20 25 -28 190 -68 151 -37 305 -88 316 -106 6 -11 -57 -354
-86 -469 -10 -41 -26 -129 -35 -194 -9 -66 -18 -123 -20 -126 -2 -4 -11 -64
-20 -134 -17 -142 -14 -156 36 -156 23 0 47 17 105 73 87 82 173 171 230 237
21 25 68 77 103 115 35 39 97 113 137 165 107 139 130 163 152 156 17 -6 130
-86 257 -183 28 -21 66 -46 85 -56 19 -11 44 -27 55 -37 45 -39 126 -26 138
22 5 17 -4 38 -33 79 -21 30 -50 85 -63 121 -27 70 -35 85 -83 163 -17 28 -46
81 -65 118 l-34 68 66 62 c37 34 119 111 183 172 64 60 125 113 134 116 51 19
54 83 5 95 -15 4 -99 0 -188 -10 -213 -22 -361 -35 -412 -36 -42 0 -42 1 -79
68 -21 37 -47 80 -58 97 -12 16 -28 43 -37 60 -9 16 -43 82 -77 145 -60 113
-113 237 -136 315 -11 38 -14 40 -54 43 -23 2 -43 2 -43 0z m162 -400 c45 -90
87 -170 94 -178 13 -15 95 -159 95 -166 0 -15 -333 -54 -347 -40 -4 3 3 57 16
119 12 61 26 153 31 202 15 161 23 225 26 225 2 0 40 -73 85 -162z m713 -426
c-39 -37 -107 -100 -152 -139 l-80 -73 -24 37 c-35 56 -46 76 -54 93 -4 8 -20
34 -36 58 -21 30 -25 43 -16 46 7 3 60 8 118 11 83 6 284 27 310 33 3 1 -27
-29 -66 -66z m-453 -15 c49 -68 150 -262 143 -273 -30 -40 -131 -153 -142
-158 -8 -3 -75 27 -150 68 -76 41 -177 93 -225 116 -49 23 -91 48 -94 56 -3 8
1 47 8 87 l14 72 45 3 c65 3 279 31 320 41 54 14 64 12 81 -12z m-556 -89 c-4
-29 -9 -55 -10 -57 -2 -1 -46 11 -97 28 -51 17 -102 31 -113 32 -24 1 169 46
203 48 23 1 24 -1 17 -51z m167 -253 c51 -24 134 -68 183 -98 50 -29 98 -56
108 -60 26 -10 21 -24 -32 -85 -26 -31 -72 -88 -100 -127 -29 -38 -72 -90 -95
-115 -23 -25 -73 -81 -111 -125 -103 -116 -203 -220 -209 -214 -9 9 150 869
161 869 1 0 44 -20 95 -45z m608 -25 c0 -4 16 -37 36 -72 62 -108 111 -202
119 -226 6 -22 5 -23 -16 -11 -13 7 -29 17 -36 23 -7 6 -64 45 -127 86 l-114
75 39 45 c21 25 49 57 61 71 22 25 38 29 38 9z"/>
</g>
</svg>
