<?xml version="1.0" encoding="UTF-8" standalone="no" ?>
<!DOCTYPE svg PUBLIC "-//W3C//DTD SVG 1.1//EN" "http://www.w3.org/Graphics/SVG/1.1/DTD/svg11.dtd">
<svg xmlns="http://www.w3.org/2000/svg" xmlns:xlink="http://www.w3.org/1999/xlink" version="1.1" width="1080" height="1080" viewBox="0 0 1080 1080" xml:space="preserve">
<desc>Created with Fabric.js 5.2.4</desc>
<defs>
</defs>
<rect x="0" y="0" width="100%" height="100%" fill="transparent"></rect>
<g transform="matrix(1 0 0 1 540 540)" id="ab392bdc-118b-433f-aaa5-15367aef2ae4"  >
</g>
<g transform="matrix(1 0 0 1 540 540)" id="dd9e151c-db3e-486d-b655-911ef54ad300"  >
<rect style="stroke: none; stroke-width: 1; stroke-dasharray: none; stroke-linecap: butt; stroke-dashoffset: 0; stroke-linejoin: miter; stroke-miterlimit: 4; fill: rgb(255,255,255); fill-rule: nonzero; opacity: 1; visibility: hidden;" vector-effect="non-scaling-stroke"  x="-540" y="-540" rx="0" ry="0" width="1080" height="1080" />
</g>
<g transform="matrix(0 0 0 0 0 0)"  >
<g style=""   >
</g>
</g>
<g transform="matrix(0 0 0 0 0 0)"  >
<g style=""   >
</g>
</g>
<g transform="matrix(NaN NaN NaN NaN 0 0)"  >
<g style=""   >
</g>
</g>
<g transform="matrix(NaN NaN NaN NaN 0 0)"  >
<g style=""   >
</g>
</g>
<g transform="matrix(14.43 -19.18 19.18 14.43 540 540)"  >
<path   style="stroke: ; stroke-opacity: 0; stroke-width: 1; stroke-dasharray: none; stroke-linecap: butt; stroke-dashoffset: 0; stroke-linejoin: miter; stroke-miterlimit: 4; fill:; fill-rule: nonzero; opacity: 1;"  transform=" translate(-22.5, -5.01)" d="M 25.0528 0.310838 C 25.3195 0.463865 25.5813 0.616893 25.8528 0.774703 L 27.031 0.511686 L 27.6614 0.90382 L 29.339 0.526033 L 30.396 0.99468 C 30.6723 0.932513 31.1717 0.855999 31.6421 0.702971 C 32.1027 0.554725 32.3984 0.922948 32.7572 0.965987 C 33.2373 1.02815 33.7464 0.789049 34.2458 0.774703 C 34.6191 0.765139 34.9925 0.90382 35.6858 1.03294 L 40.292 0 C 40.709 0.329966 41.1841 0.702971 41.5575 0.999462 L 42.3333 0.827306 C 43.3175 1.05207 43.4872 2.1663 44.3212 2.56321 L 44.9952 5.48987 C 44.5394 6.64714 43.6763 7.45532 42.5127 8.30653 L 41.4993 8.53608 C 41.4654 8.88517 41.4266 9.25339 41.3878 9.6264 C 40.8156 10.5159 40.3356 9.60727 39.812 9.5451 C 39.5114 9.61205 39.2108 9.679 38.9101 9.74595 C 38.2653 9.69335 37.8483 9.20079 37.2519 8.90908 L 35.9622 9.19601 C 35.5888 8.83257 35.1525 8.3974 34.8955 8.14872 L 33.3439 8.49782 C 33.0676 8.34001 32.8057 8.19176 32.5342 8.03874 L 31.3657 8.30175 C 31.0845 8.14394 30.8178 7.9957 30.5754 7.8618 L 29.0141 8.21089 C 28.4565 8.25871 28.0153 7.5127 27.3413 7.94788 C 26.8177 8.28741 26.4395 7.65617 25.9789 7.63704 L 24.3837 7.9957 C 24.1655 7.88571 23.8988 7.75659 23.4624 7.53661 L 21.1012 8.06743 L 20.4272 7.65139 L 18.0465 8.18698 C 17.775 8.03395 17.5084 7.88093 17.2514 7.73746 C 17.0914 7.96701 16.9217 8.20611 16.7568 8.44043 C 16.5726 8.32566 16.398 8.21567 16.0974 8.02917 L 11.8694 8.98081 L 11.147 8.53129 L 9.56632 8.88517 C 8.69842 8.64128 7.96143 8.43087 7.02564 8.16785 L 3.6898 8.91865 C 2.46795 8.49782 1.67277 7.62269 0.780627 6.45107 L 0 3.11316 C 0.591531 1.77895 2.1043 1.29117 3.08857 0.258234 C 3.28736 0.0478212 3.99526 0 4.20375 0.176938 C 4.72255 0.616893 5.39166 0.18172 5.90076 0.636021 C 6.33229 1.02337 6.96746 0.349094 7.32626 0.583418 C 7.92264 0.965987 8.43659 0.865563 9.05236 0.798613 C 9.49844 0.750792 9.98815 1.0951 10.4391 1.05207 C 10.9627 0.999462 11.433 0.894256 11.9227 1.3916 L 15.0016 0.698189 L 15.6901 1.1238 L 18.0465 0.592982 C 18.3278 0.74601 18.5896 0.884691 18.8854 1.04728 L 21.2515 0.516469 C 21.523 0.674278 21.7848 0.822524 22.0564 0.980334 L 25.0528 0.306055 L 25.0528 0.310838 Z" stroke-linecap="round" />
</g>
<g transform="matrix(13.9 19.56 -19.56 13.9 579.99 600.98)"  >
<path style="stroke: none; stroke-width: 1; stroke-dasharray: none; stroke-linecap: butt; stroke-dashoffset: 0; stroke-linejoin: miter; stroke-miterlimit: 4; fill: ; fill-rule: nonzero; opacity: 1;"  transform=" translate(-22.5, -5.01)" d="M 25.0528 0.310838 C 25.3195 0.463865 25.5813 0.616893 25.8528 0.774703 L 27.031 0.511686 L 27.6614 0.90382 L 29.339 0.526033 L 30.396 0.99468 C 30.6723 0.932513 31.1717 0.855999 31.6421 0.702971 C 32.1027 0.554725 32.3984 0.922948 32.7572 0.965987 C 33.2373 1.02815 33.7464 0.789049 34.2458 0.774703 C 34.6191 0.765139 34.9925 0.90382 35.6858 1.03294 L 40.292 0 C 40.709 0.329966 41.1841 0.702971 41.5575 0.999462 L 42.3333 0.827306 C 43.3175 1.05207 43.4872 2.1663 44.3212 2.56321 L 44.9952 5.48987 C 44.5394 6.64714 43.6763 7.45532 42.5127 8.30653 L 41.4993 8.53608 C 41.4654 8.88517 41.4266 9.25339 41.3878 9.6264 C 40.8156 10.5159 40.3356 9.60727 39.812 9.5451 C 39.5114 9.61205 39.2108 9.679 38.9101 9.74595 C 38.2653 9.69335 37.8483 9.20079 37.2519 8.90908 L 35.9622 9.19601 C 35.5888 8.83257 35.1525 8.3974 34.8955 8.14872 L 33.3439 8.49782 C 33.0676 8.34001 32.8057 8.19176 32.5342 8.03874 L 31.3657 8.30175 C 31.0845 8.14394 30.8178 7.9957 30.5754 7.8618 L 29.0141 8.21089 C 28.4565 8.25871 28.0153 7.5127 27.3413 7.94788 C 26.8177 8.28741 26.4395 7.65617 25.9789 7.63704 L 24.3837 7.9957 C 24.1655 7.88571 23.8988 7.75659 23.4624 7.53661 L 21.1012 8.06743 L 20.4272 7.65139 L 18.0465 8.18698 C 17.775 8.03395 17.5084 7.88093 17.2514 7.73746 C 17.0914 7.96701 16.9217 8.20611 16.7568 8.44043 C 16.5726 8.32566 16.398 8.21567 16.0974 8.02917 L 11.8694 8.98081 L 11.147 8.53129 L 9.56632 8.88517 C 8.69842 8.64128 7.96143 8.43087 7.02564 8.16785 L 3.6898 8.91865 C 2.46795 8.49782 1.67277 7.62269 0.780627 6.45107 L 0 3.11316 C 0.591531 1.77895 2.1043 1.29117 3.08857 0.258234 C 3.28736 0.0478212 3.99526 0 4.20375 0.176938 C 4.72255 0.616893 5.39166 0.18172 5.90076 0.636021 C 6.33229 1.02337 6.96746 0.349094 7.32626 0.583418 C 7.92264 0.965987 8.43659 0.865563 9.05236 0.798613 C 9.49844 0.750792 9.98815 1.0951 10.4391 1.05207 C 10.9627 0.999462 11.433 0.894256 11.9227 1.3916 L 15.0016 0.698189 L 15.6901 1.1238 L 18.0465 0.592982 C 18.3278 0.74601 18.5896 0.884691 18.8854 1.04728 L 21.2515 0.516469 C 21.523 0.674278 21.7848 0.822524 22.0564 0.980334 L 25.0528 0.306055 L 25.0528 0.310838 Z" stroke-linecap="round" />
</g>
<g transform="matrix(NaN NaN NaN NaN 0 0)"  >
<g style=""   >
</g>
</g>
<g transform="matrix(NaN NaN NaN NaN 0 0)"  >
<g style=""   >
</g>
</g>
<g transform="matrix(NaN NaN NaN NaN 0 0)"  >
<g style=""   >
</g>
</g>
<g transform="matrix(NaN NaN NaN NaN 0 0)"  >
<g style=""   >
</g>
</g>
<g transform="matrix(NaN NaN NaN NaN 0 0)"  >
<g style=""   >
</g>
</g>
<g transform="matrix(NaN NaN NaN NaN 0 0)"  >
<g style=""   >
</g>
</g>
</svg>