<?xml version="1.0" encoding="UTF-8" standalone="no" ?>
<!DOCTYPE svg PUBLIC "-//W3C//DTD SVG 1.1//EN" "http://www.w3.org/Graphics/SVG/1.1/DTD/svg11.dtd">
<svg xmlns="http://www.w3.org/2000/svg" xmlns:xlink="http://www.w3.org/1999/xlink" version="1.1" width="1080" height="1080" viewBox="0 0 1080 1080" xml:space="preserve">
<desc>Created with Fabric.js 5.2.4</desc>
<defs>
</defs>
<g transform="matrix(1 0 0 1 540 540)" id="ab392bdc-118b-433f-aaa5-15367aef2ae4"  >
</g>
<g transform="matrix(1 0 0 1 540 540)" id="dd9e151c-db3e-486d-b655-911ef54ad300"  >
<rect style="stroke: none; stroke-width: 1; stroke-dasharray: none; stroke-linecap: butt; stroke-dashoffset: 0; stroke-linejoin: miter; stroke-miterlimit: 4; fill: rgb(255,255,255); fill-rule: nonzero; opacity: 1; visibility: hidden;" vector-effect="non-scaling-stroke"  x="-540" y="-540" rx="0" ry="0" width="1080" height="1080" />
</g>
<g transform="matrix(23.48 0 0 23.48 540 540)"  >
<g style=""   >
		<g transform="matrix(1 0 0 1 -0.01 13.81)"  >
<path style="stroke: none; stroke-width: 1; stroke-dasharray: none; stroke-linecap: butt; stroke-dashoffset: 0; stroke-linejoin: miter; stroke-miterlimit: 4; fill: rgb(250,205,240); fill-rule: nonzero; opacity: 1;" vector-effect="non-scaling-stroke"  transform=" translate(-22.99, -34.81)" d="M 38.0059 38.1625 C 37.9659 38.0666 37.9434 37.9229 37.8859 37.8902 C 37.4534 37.6405 37.0135 37.4136 36.576 37.1766 C 36.3861 37.0732 36.1811 37.0127 36.0811 36.7253 C 36.0486 36.632 35.8536 36.5261 35.7461 36.5286 C 35.2362 36.5387 34.7837 36.2337 34.3338 35.9639 C 33.8288 35.6613 33.3264 35.6134 32.7839 35.5832 L 32.549 35.2125 C 32.459 35.2176 32.3465 35.2226 32.054 35.2352 C 31.869 35.1192 31.5241 34.9024 31.2141 34.7108 L 30.8292 34.8747 C 30.5692 34.9125 30.3717 34.6099 30.1192 34.5898 C 29.8593 34.5872 29.6243 34.8545 29.3218 34.5671 C 29.0843 34.8066 28.7569 34.3124 28.5194 34.557 C 28.2594 34.2998 27.977 34.5091 27.697 34.3502 C 27.4345 34.199 27.2345 34.5998 26.8896 34.3603 C 26.6771 34.2141 26.3646 34.3225 26.0947 34.2847 C 25.8247 34.2469 25.5522 34.1763 25.2798 34.1057 C 25.0473 34.0452 24.8098 34.1662 24.5823 33.9569 C 24.3424 34.1838 24.0224 33.7199 23.7799 33.9418 C 23.4475 33.5938 23.185 33.9872 22.8575 33.9014 C 22.5626 33.8258 22.2426 33.6922 21.9326 33.7703 C 21.8376 33.793 21.6976 33.677 21.5677 33.6191 L 21.1402 33.8006 C 21.0177 33.7401 20.8977 33.6821 20.7752 33.6216 L 20.1253 33.8989 C 19.9953 33.8384 19.8778 33.7829 19.7654 33.73 C 19.5129 33.9065 19.2404 33.8056 18.9579 33.7754 C 18.7355 33.7502 18.5205 33.9367 18.338 34.0149 L 17.9905 33.8283 L 17.1006 34.2065 L 16.7882 34.0376 L 12.5861 35.8277 C 12.4636 35.7697 12.3437 35.7143 12.2212 35.6588 C 12.1812 35.7748 12.1412 35.8983 12.0987 36.0219 L 9.88393 36.9648 C 9.85893 37.0531 9.83393 37.1413 9.80894 37.227 C 9.79144 37.2649 9.78394 37.3254 9.75644 37.338 C 9.09401 37.6254 8.42909 37.9078 7.77916 38.1826 C 7.74666 38.2936 7.72166 38.3793 7.67917 38.5331 L 6.77177 38.9188 C 6.76677 39.3424 6.4968 39.3676 6.20433 39.5088 C 6.19933 39.7131 6.18933 40.003 6.18433 40.1518 L 4.92447 40.6888 L 4.79698 41.0771 L 4.577 41.1704 C 4.51451 41.3872 4.45202 41.6066 4.37453 41.8789 C 4.28204 41.8436 4.18205 41.8083 4.03706 41.7553 L 3.47462 41.9948 C 3.37713 41.9898 3.32714 42.0049 3.30214 41.9797 C 3.10466 41.8007 2.91468 41.899 2.68221 41.8965 C 2.54222 41.6015 2.39974 41.2964 2.26225 41.0065 C 2.13977 40.9283 2.02978 40.8577 1.93229 40.7947 L 1.50234 39.7685 C 1.41985 39.7105 1.30986 39.6349 1.16237 39.5315 L 0.73992 38.523 C 0.572438 38.3919 0.432453 38.2835 0.317466 38.1952 C 0.154983 37.7817 0.417455 37.5523 0.437453 37.2422 C 0.322465 37.1741 0.207477 37.1035 0.0974894 37.0405 C 0.0624932 36.9371 0.0299967 36.8463 0 36.7556 C 0.112488 36.3975 0.497446 36.5387 0.724921 36.1933 C 0.717422 36.1505 0.689925 35.9765 0.662428 35.8025 C 0.732421 35.5403 0.992392 35.6033 1.04989 35.5554 C 1.26736 35.2226 1.41985 34.9881 1.64732 34.6402 L 3.79459 33.7249 C 3.83708 33.5737 3.86208 33.4854 3.89958 33.3568 C 3.99707 33.3947 4.09706 33.435 4.22704 33.4854 C 4.26454 33.3896 4.30703 33.2787 4.35953 33.1476 L 5.88686 32.4971 C 5.93186 32.366 5.97435 32.2399 6.01935 32.1063 L 8.00413 31.2616 C 8.04663 31.1305 8.08912 31.0045 8.12912 30.8809 C 8.3166 30.6792 8.51658 30.9288 8.77155 30.9666 C 8.83904 30.8683 8.92903 30.7397 9.08901 30.5027 L 10.1539 30.0489 L 10.4339 30.2002 C 10.4764 30.0943 10.5189 29.9884 10.5714 29.8522 L 12.7836 28.9092 C 12.8761 28.9521 12.9936 29.0076 13.1236 29.0681 L 15.1034 28.226 C 15.1884 28.2663 15.2683 28.3041 15.3658 28.352 C 15.6583 28.4277 15.8658 28.1856 16.1307 28.1226 C 16.2107 28.1655 16.2907 28.2083 16.3682 28.2512 C 16.4082 28.2638 16.4557 28.3016 16.4832 28.289 C 16.9282 28.1049 17.3681 27.9158 17.7956 27.7343 C 17.8981 27.7898 17.983 27.8705 18.0555 27.8679 C 18.3605 27.8579 18.6405 27.6511 18.9729 27.8831 C 19.2104 27.6738 19.5054 27.8629 19.7704 27.8528 C 19.9653 27.8453 20.1428 27.7091 20.3303 27.6284 C 20.5603 27.762 20.8077 27.6839 21.0202 27.7772 C 21.2602 27.8831 21.4102 27.7444 21.5977 27.7545 C 22.0576 27.7797 22.5226 27.8831 22.9875 27.9511 C 23.1025 27.9688 23.245 28.0167 23.3275 27.9663 C 23.6449 27.7772 24.0774 28.2108 24.3899 27.8226 C 24.5923 27.9839 24.8123 28.1579 24.9448 28.2663 L 25.5047 28.0268 C 25.6272 28.0873 25.7472 28.1453 25.8697 28.2058 L 26.3021 28.0217 C 26.5121 28.1352 26.7096 28.2411 26.9246 28.3571 C 27.2595 28.1327 27.6745 28.2764 28.052 28.3394 C 28.7469 28.4554 29.4418 28.5437 30.1367 28.6672 C 30.4467 28.7201 30.7792 28.6445 31.0641 28.8815 C 31.3741 29.1362 31.7116 28.8815 32.0065 29.1614 C 32.3515 28.9597 32.644 29.3127 32.9414 29.4639 C 33.2939 29.6429 33.6638 29.4917 34.0063 29.7993 C 34.3613 30.1195 34.7987 29.9531 35.1812 30.2153 C 35.5236 30.4472 35.8911 30.6187 36.2511 30.7952 C 36.476 30.9061 36.7235 30.7322 36.9485 30.9616 C 37.1035 31.1204 37.2485 31.3146 37.4234 31.423 C 37.8509 31.6827 38.2958 31.902 38.7333 32.1365 C 39.0508 32.308 39.3657 32.4996 39.6882 32.6433 C 39.9732 32.7719 40.0831 33.1501 40.3956 33.261 C 40.7031 33.3694 41.038 33.5056 41.2355 33.9014 C 41.268 33.9695 41.393 33.9796 41.468 34.0351 C 41.9729 34.4107 42.6254 34.4183 43.0153 35.0789 C 43.5728 35.3688 44.1302 35.6588 44.6726 35.9387 C 44.7026 36.2942 44.9776 36.2866 45.1101 36.4631 L 45.0226 36.7657 C 45.1151 36.8287 45.2101 36.8942 45.3376 36.985 L 45.6625 37.7616 C 45.785 37.8372 45.8975 37.9103 45.9875 37.9658 C 45.83 38.518 45.67 39.0777 45.5176 39.6122 C 45.2051 39.9854 44.9026 40.351 44.8026 40.9258 L 44.1002 41.2258 C 43.9827 41.2359 43.7827 40.9409 43.5778 41.1603 C 43.5428 41.2611 43.5003 41.3847 43.4703 41.4729 C 42.9578 41.2132 42.4429 40.951 41.9304 40.6888 C 41.598 40.1316 41.003 40.1568 40.6256 39.766 C 40.2156 39.345 39.7607 39.1206 39.3032 38.8684 C 38.8683 38.6264 38.4283 38.3995 37.9934 38.165 L 38.0059 38.1625 Z" stroke-linecap="round" />
</g>
		<g transform="matrix(1 0 0 1 0.64 -8.52)"  >
<path style="stroke: none; stroke-width: 1; stroke-dasharray: none; stroke-linecap: butt; stroke-dashoffset: 0; stroke-linejoin: miter; stroke-miterlimit: 4; fill: rgb(250,205,240); fill-rule: nonzero; opacity: 1;" vector-effect="non-scaling-stroke"  transform=" translate(-23.64, -12.48)" d="M 33.8568 15.3323 C 33.6644 15.7206 33.4769 16.0963 33.2469 16.5552 L 33.2469 17.1905 C 32.9444 17.3191 33.0869 17.7326 32.812 17.8763 C 32.627 18.3503 32.437 18.8168 32.0395 19.1647 C 31.9745 19.2227 31.997 19.3841 31.982 19.4824 C 31.8371 19.5202 31.7271 19.5505 31.6146 19.5782 C 31.2971 19.8984 30.9897 20.2338 30.6572 20.5338 C 30.4572 20.7153 30.3347 20.97 30.0048 21.0406 C 29.7623 21.091 29.5648 21.3507 29.3423 21.5095 C 29.3148 21.5297 29.2473 21.4944 29.2248 21.5146 C 29.0174 21.7087 28.8099 21.9079 28.6124 22.1121 C 28.4174 22.3113 28.115 22.3012 27.92 22.5382 C 27.7575 22.7374 27.4275 22.7979 27.2676 22.9971 C 27.0751 23.2392 26.7926 23.2745 26.5626 23.4005 C 26.2802 23.5543 26.0252 23.7157 25.7927 23.9678 L 25.2553 23.9678 C 25.1378 24.1317 24.9953 24.3284 24.8903 24.4771 L 24.0729 24.4771 L 23.8004 24.7318 L 23.0805 24.7318 L 22.8255 24.9663 L 20.3608 24.9663 C 20.1758 24.5452 19.6834 24.8679 19.4159 24.5351 C 19.2484 24.3284 18.8135 24.3511 18.616 24.1519 C 18.3535 23.8922 18.0136 23.7838 17.7486 23.5543 C 17.5011 23.34 17.2686 23.1106 17.0737 22.9316 L 17.0512 22.5786 L 16.6437 22.455 C 16.5187 22.3113 16.3312 22.0945 16.1038 21.8323 L 16.0888 21.6911 C 16.0238 21.4717 15.7988 21.5701 15.7038 21.4793 C 15.5663 21.3507 15.3339 21.265 15.3539 21.0154 C 15.3688 20.8086 15.1814 20.7557 15.0864 20.6321 C 14.9914 20.5086 14.9039 20.4002 14.8464 20.2363 C 14.6589 19.6967 14.2465 19.2605 14.124 18.6832 C 13.8465 18.4941 13.854 18.2091 13.874 17.9293 L 13.624 17.6519 L 13.624 15.9374 L 13.4141 15.7257 L 13.4141 11.0058 L 13.6365 10.7183 L 13.6365 10.0048 C 13.7365 9.90395 13.7965 9.84344 13.864 9.77536 C 13.7915 9.69216 13.719 9.60643 13.6365 9.51062 L 13.6365 8.78197 C 13.714 8.69876 13.8815 8.58278 13.864 8.52227 C 13.769 8.18694 14.269 8.09113 14.144 7.76336 C 14.4614 7.44315 14.7789 7.12294 15.1014 6.79769 L 15.1014 6.56321 C 15.2889 6.30856 15.6363 6.16989 15.6188 5.78413 C 15.8013 5.64041 15.9013 5.35803 16.2113 5.43366 C 16.4362 5.14876 16.8687 5.16893 17.0712 4.82603 C 17.2136 4.58398 17.4811 4.49322 17.7336 4.36715 C 18.1136 4.18057 18.5585 4.03434 18.776 3.40401 C 18.776 3.43426 18.776 3.2729 18.776 3.09389 C 19.2134 2.84428 19.2434 2.27446 19.6334 1.97947 C 19.7659 1.48277 20.1833 1.20795 20.5008 0.849921 L 20.5008 0.607876 L 21.1957 0.247328 L 22.3106 0.247328 L 22.5906 -0.00732422 L 24.5429 -0.00732422 L 24.8078 0.239764 L 25.2878 0.239764 L 25.4828 0.436426 C 25.8152 0.441469 26.1377 0.567535 26.4351 0.736462 C 26.7676 0.925561 27.1176 1.0718 27.4525 1.24325 C 27.755 1.39705 28.07 1.53824 28.3599 1.7223 C 28.6499 1.90635 28.9299 2.10553 29.2273 2.2795 C 29.6648 2.61484 29.9823 3.08128 30.5222 3.32585 C 30.7697 3.43931 31.0821 3.67883 31.0521 4.07468 C 31.2546 4.2789 31.5171 4.45035 31.6421 4.69492 C 31.7796 4.96218 31.9146 5.24709 32.0545 5.50678 C 32.182 5.73874 32.197 6.05391 32.4395 6.21275 C 32.6945 6.37916 32.732 6.66911 32.8694 6.90107 C 32.9844 7.10025 33.0819 7.30952 33.2619 7.65746 L 33.2619 8.52983 L 33.4894 8.75927 L 33.4894 9.51314 L 32.9244 9.79049 L 33.6994 9.9342 L 33.7694 10.2796 L 33.8618 15.3248 L 33.8568 15.3323 Z M 22.9455 20.0321 C 23.528 19.7371 23.9729 19.5202 24.4079 19.2883 C 24.7453 19.1093 25.1253 19.0008 25.3878 18.6882 C 25.5652 18.4764 25.7477 18.2545 26.0627 18.2495 C 26.3652 17.8057 26.9526 17.7377 27.2676 17.2964 C 27.43 17.0695 27.6775 16.9031 27.7525 16.8325 C 27.865 16.5552 27.9025 16.4493 27.9525 16.3459 C 28.08 16.0711 28.245 15.8063 28.3349 15.5189 C 28.5549 14.8205 28.5774 14.7499 29.0774 14.2204 L 29.0774 11.0108 L 28.8299 10.741 L 28.8299 9.90143 C 28.5849 9.28371 28.2774 8.845 28.09 8.33821 C 27.9975 8.09113 27.8725 7.83143 27.695 7.64233 C 27.0551 6.96158 26.3852 6.30856 25.7777 5.69588 C 25.2928 5.64041 25.0178 5.52191 24.5404 5.19162 L 24.0554 5.19162 L 23.7979 4.94957 L 23.298 4.94957 C 22.828 5.43366 22.6606 6.08668 22.3281 6.69936 L 21.3282 6.69936 L 21.1107 6.91872 L 20.1533 6.91872 L 19.7834 7.20867 L 19.2384 6.89855 C 18.931 7.05739 18.761 7.33978 18.5235 7.56165 L 18.5235 8.1466 C 18.3785 8.24997 18.1785 8.38864 18.0611 8.47184 C 18.0361 8.91307 18.0161 9.2358 17.9986 9.56105 C 17.6036 9.81318 17.9186 10.2544 17.7386 10.5645 L 17.5486 10.7562 C 17.5486 12.1756 17.5486 13.6153 17.5511 15.0525 C 17.5511 15.1256 17.5911 15.1987 17.6111 15.2718 L 17.7886 15.4508 L 17.7886 16.1795 C 17.8736 16.2728 18.0111 16.3509 18.0286 16.4543 C 18.1286 16.9787 18.5335 17.3191 18.756 17.7578 C 19.0035 18.252 19.4409 18.5394 19.7784 18.9328 C 19.9284 19.1067 20.2258 19.0487 20.3708 19.2832 C 20.4983 19.49 20.6733 19.6639 20.8008 19.8203 C 21.1482 19.6942 21.2182 19.9867 21.4057 20.0321 L 22.943 20.0321 L 22.9455 20.0321 Z M 14.204 8.86517 L 14.3615 8.77692 C 14.334 8.74919 14.3015 8.69624 14.2815 8.69876 C 14.224 8.71137 14.1715 8.74919 14.1165 8.77692 L 14.204 8.86517 Z" stroke-linecap="round" />
</g>
</g>
</g>
<g transform="matrix(NaN NaN NaN NaN 0 0)"  >
<g style=""   >
</g>
</g>
<g transform="matrix(NaN NaN NaN NaN 0 0)"  >
<g style=""   >
</g>
</g>
</svg>