<?xml version="1.0" standalone="no"?>
<!DOCTYPE svg PUBLIC "-//W3C//DTD SVG 20010904//EN"
 "http://www.w3.org/TR/2001/REC-SVG-20010904/DTD/svg10.dtd">
<svg version="1.0" xmlns="http://www.w3.org/2000/svg"
 width="3024.000000pt" height="4032.000000pt" viewBox="0 0 3024.000000 4032.000000"
 preserveAspectRatio="xMidYMid meet">

<g transform="translate(0.000000,4032.000000) scale(0.100000,-0.100000)"
fill="#000000" stroke="none">
<path d="M7178 22678 c-5 -13 -56 -20 -298 -37 -102 -8 -130 -7 -154 5 -36 17
-326 20 -358 3 -11 -6 -50 -12 -87 -14 -347 -13 -454 -24 -499 -52 -22 -14
-35 -15 -217 -28 -78 -5 -107 -12 -130 -28 -24 -17 -51 -23 -135 -28 -115 -7
-153 -15 -187 -36 -14 -9 -70 -18 -154 -23 -113 -8 -135 -12 -154 -30 -25 -23
-110 -39 -210 -40 -48 0 -64 -4 -78 -20 -9 -11 -25 -20 -34 -20 -10 0 -55 -4
-101 -10 -68 -7 -87 -13 -102 -32 -16 -20 -30 -24 -112 -28 -76 -4 -99 -10
-121 -27 -19 -14 -49 -24 -92 -28 -43 -5 -71 -14 -85 -27 -26 -24 -76 -37
-141 -38 -35 0 -53 -6 -72 -24 -20 -18 -42 -25 -96 -31 -58 -6 -73 -11 -85
-30 -16 -25 -70 -45 -118 -45 -15 0 -31 -8 -37 -17 -7 -14 -28 -19 -102 -23
-90 -5 -93 -6 -109 -35 -15 -27 -22 -30 -73 -33 -44 -2 -59 -7 -67 -22 -7 -12
-26 -21 -58 -26 -26 -4 -71 -20 -101 -35 -30 -16 -59 -29 -66 -29 -7 0 -25
-10 -40 -22 -16 -13 -51 -25 -83 -29 -33 -5 -63 -16 -76 -28 -12 -11 -37 -26
-56 -32 -19 -7 -50 -23 -68 -36 -19 -13 -42 -23 -51 -23 -9 0 -40 -11 -68 -25
-29 -13 -78 -29 -109 -34 -31 -6 -62 -17 -68 -24 -6 -7 -23 -21 -38 -30 -15
-9 -35 -33 -44 -52 -9 -20 -25 -40 -35 -45 -10 -6 -40 -28 -66 -50 -96 -79
-111 -90 -120 -90 -5 0 -22 -13 -37 -29 -23 -24 -37 -29 -96 -34 -47 -4 -75
-12 -88 -24 -10 -10 -33 -26 -50 -35 -18 -9 -42 -37 -57 -65 -28 -54 -41 -76
-67 -115 -21 -31 -24 -74 -5 -80 15 -6 24 -265 9 -306 -13 -38 0 -67 56 -122
109 -107 164 -125 322 -104 62 8 95 29 140 92 18 25 63 63 108 92 62 40 86 50
120 50 50 0 82 14 82 36 0 20 41 34 102 34 39 0 57 6 80 25 18 16 42 25 62 25
27 0 45 11 90 54 31 30 67 58 79 61 12 4 31 18 43 31 14 17 36 27 71 33 28 4
63 17 78 29 15 12 38 22 51 22 12 0 35 13 50 29 21 22 40 31 78 36 33 5 57 14
66 26 11 14 33 22 73 26 45 5 60 11 69 27 15 28 28 36 61 36 15 0 35 8 46 19
11 11 52 25 102 35 46 10 104 27 127 38 24 11 65 23 90 26 26 2 56 13 67 22
11 10 46 23 78 29 32 6 70 17 85 25 56 31 79 38 147 43 55 4 75 11 96 29 29
28 78 44 131 44 21 0 55 9 75 20 22 12 57 20 85 20 59 0 78 7 78 31 0 13 7 19
23 19 35 0 151 26 177 40 13 7 87 16 168 20 108 6 148 12 161 24 10 9 60 26
112 38 58 13 99 28 107 39 10 15 18 16 50 7 26 -8 63 -7 127 1 50 6 124 13
165 17 43 3 82 12 91 21 13 11 62 15 213 19 108 2 208 9 222 14 14 6 35 10 47
10 12 0 36 8 52 17 38 21 310 30 982 32 254 1 484 6 512 11 28 6 74 14 102 20
52 9 105 4 115 -11 9 -15 100 -10 114 6 16 20 116 19 270 -1 63 -9 221 -19
350 -23 210 -7 241 -10 290 -30 30 -13 65 -27 78 -32 13 -5 58 -9 101 -9 69 0
80 -3 93 -21 13 -20 24 -22 138 -25 96 -2 140 -8 190 -24 67 -23 133 -35 256
-49 38 -4 82 -16 96 -25 15 -10 56 -19 100 -23 40 -3 89 -14 108 -24 19 -9 64
-20 100 -23 106 -9 156 -21 185 -44 15 -12 40 -22 55 -22 15 0 40 -10 55 -22
22 -17 47 -23 114 -28 55 -4 109 -16 151 -32 144 -56 267 -92 345 -102 32 -4
55 -13 65 -26 11 -14 33 -21 85 -26 52 -5 77 -13 98 -30 15 -13 46 -28 69 -35
23 -6 57 -19 77 -30 24 -13 56 -19 96 -19 47 0 73 -7 120 -30 43 -21 75 -30
111 -30 32 0 67 -8 100 -24 28 -14 75 -26 110 -29 34 -3 75 -12 90 -20 68 -37
102 -48 159 -54 33 -3 67 -11 75 -18 8 -7 50 -20 94 -29 43 -9 99 -25 125 -37
25 -11 82 -24 127 -28 55 -5 93 -15 116 -29 19 -12 83 -38 144 -58 60 -20 125
-44 144 -54 50 -25 184 -69 260 -84 36 -7 93 -27 127 -45 34 -17 65 -31 69
-31 4 0 18 -10 31 -22 19 -17 40 -23 114 -28 71 -5 95 -11 105 -24 8 -11 39
-23 83 -31 39 -8 83 -23 98 -35 16 -11 53 -24 83 -30 64 -11 196 -64 226 -91
11 -11 32 -19 46 -19 14 0 42 -14 63 -30 39 -31 47 -34 120 -45 22 -3 58 -14
80 -25 22 -10 51 -23 65 -29 14 -6 32 -15 40 -20 8 -5 51 -17 95 -26 44 -10
95 -26 112 -36 18 -10 57 -21 85 -25 50 -7 99 -21 193 -58 22 -8 54 -15 71
-16 17 0 58 -8 90 -19 33 -10 86 -22 119 -26 33 -4 73 -14 89 -22 41 -21 116
-43 151 -43 17 0 55 -10 85 -21 30 -11 102 -29 160 -39 58 -11 121 -24 140
-30 19 -6 79 -18 132 -26 53 -8 123 -26 155 -40 32 -15 86 -30 120 -35 34 -5
81 -16 105 -25 24 -9 79 -20 124 -24 44 -4 89 -12 100 -18 28 -15 183 -42 240
-42 31 0 65 -8 89 -21 22 -11 67 -25 99 -30 32 -5 77 -21 100 -34 25 -14 66
-26 106 -30 36 -3 94 -15 129 -26 35 -11 93 -23 130 -26 36 -3 79 -13 96 -21
43 -22 238 -52 337 -52 63 0 101 -5 137 -20 30 -11 100 -24 168 -31 65 -6 125
-17 133 -24 15 -12 76 -29 142 -40 20 -3 56 -14 80 -25 24 -10 72 -23 108 -28
36 -6 95 -21 131 -35 38 -14 100 -26 150 -30 47 -4 107 -14 135 -22 27 -9 96
-20 154 -25 126 -12 240 -32 295 -54 22 -8 50 -15 61 -16 12 0 41 -9 65 -19
24 -11 100 -27 169 -37 115 -15 282 -58 332 -85 11 -6 44 -15 72 -19 28 -4 98
-17 156 -28 58 -11 166 -26 240 -32 144 -13 183 -20 270 -45 30 -8 78 -15 106
-15 28 0 68 -7 87 -15 20 -8 52 -15 71 -15 19 0 79 -8 133 -19 54 -10 139 -22
188 -26 50 -3 117 -13 150 -21 146 -35 1286 -43 1735 -12 184 12 253 13 313 3
37 -6 63 -3 119 15 66 21 78 22 152 11 113 -16 137 -14 230 13 44 13 102 29
128 35 26 6 68 24 94 41 26 16 54 30 61 30 8 0 39 9 71 20 31 12 95 28 141 36
48 8 96 23 113 35 18 13 57 25 106 31 42 6 91 19 108 29 24 15 51 19 118 19
87 0 176 15 176 30 0 14 34 22 142 31 60 5 143 18 185 29 46 13 119 23 178 25
58 2 150 14 220 29 184 41 214 46 251 46 19 0 51 8 72 19 20 10 63 22 95 25
37 5 67 15 85 30 19 16 45 25 88 28 36 4 82 16 111 31 27 13 70 27 95 31 26 4
58 16 72 27 18 15 51 23 116 30 73 7 98 14 124 34 18 14 53 29 79 34 25 4 57
17 71 28 17 14 49 23 93 28 38 4 79 13 93 20 82 44 201 94 238 100 24 4 48 15
55 25 8 11 32 22 56 26 24 4 54 17 68 30 22 20 79 44 105 44 5 0 41 15 80 34
48 22 80 44 93 64 11 17 35 38 55 47 36 16 82 79 127 175 11 25 28 60 37 79
20 42 20 61 1 97 -25 48 -19 99 15 137 24 28 30 44 30 81 0 25 -4 46 -8 46 -4
0 -14 15 -20 34 -8 20 -26 42 -46 54 -24 14 -36 31 -43 60 -13 50 -89 147
-126 161 -16 6 -44 24 -63 41 -30 26 -42 30 -92 30 -31 0 -82 -7 -112 -15 -30
-8 -73 -15 -94 -15 -22 0 -47 -7 -57 -16 -10 -9 -38 -20 -63 -25 -24 -4 -86
-31 -136 -59 -50 -28 -114 -55 -141 -60 -27 -5 -61 -16 -76 -23 -16 -8 -46
-18 -68 -21 -22 -4 -65 -20 -96 -36 -31 -16 -85 -34 -120 -41 -35 -7 -80 -20
-99 -31 -19 -10 -45 -18 -57 -18 -12 0 -51 -13 -85 -29 -35 -15 -81 -31 -103
-35 -22 -4 -47 -14 -55 -21 -17 -15 -76 -32 -155 -45 -28 -4 -72 -15 -98 -24
-26 -9 -55 -16 -64 -16 -9 0 -41 -12 -71 -26 -32 -15 -88 -30 -130 -36 -41 -5
-101 -20 -133 -33 -39 -17 -77 -25 -116 -25 -38 0 -71 -7 -93 -19 -19 -10 -78
-24 -130 -30 -181 -24 -255 -36 -275 -47 -11 -7 -63 -15 -115 -19 -52 -4 -133
-16 -180 -27 -47 -11 -136 -26 -198 -34 -62 -7 -126 -21 -142 -29 -16 -8 -64
-20 -107 -26 -43 -6 -103 -22 -135 -35 -32 -13 -74 -24 -95 -24 -42 0 -175
-23 -238 -40 -39 -10 -94 -21 -295 -56 -66 -11 -113 -26 -155 -49 -58 -32 -67
-34 -260 -49 -110 -9 -207 -19 -215 -22 -54 -21 -942 -44 -1415 -38 -323 5
-472 14 -600 39 -38 7 -131 19 -205 25 -74 6 -169 17 -210 25 -103 18 -212 33
-290 39 -36 3 -92 14 -125 26 -33 11 -103 25 -155 30 -52 5 -117 18 -145 28
-27 11 -79 22 -115 26 -36 3 -101 15 -145 26 -119 31 -240 58 -335 76 -47 9
-121 27 -165 40 -82 26 -231 55 -275 55 -14 0 -45 7 -70 16 -25 9 -86 19 -136
22 -61 5 -103 14 -130 27 -27 15 -69 23 -139 28 -54 4 -117 14 -140 23 -22 8
-74 21 -115 28 -41 7 -95 17 -120 23 -67 16 -190 32 -325 42 -67 5 -137 16
-158 25 -21 9 -88 20 -149 26 -81 8 -124 17 -157 34 -32 16 -79 26 -155 34
-60 7 -117 16 -125 20 -9 5 -36 12 -61 16 -25 3 -99 22 -165 40 -66 19 -154
38 -196 43 -42 5 -86 15 -97 21 -12 6 -47 16 -79 22 -31 6 -77 21 -102 34 -34
18 -74 27 -151 34 -58 6 -123 17 -146 24 -22 8 -85 20 -140 26 -55 6 -130 21
-167 35 -38 14 -104 27 -154 31 -58 5 -96 14 -113 25 -18 13 -53 20 -120 24
-77 5 -105 11 -145 33 -39 21 -69 28 -137 33 -60 4 -93 11 -105 22 -10 9 -59
26 -109 37 -50 11 -104 25 -120 31 -16 7 -48 9 -71 5 -45 -6 -102 12 -138 44
-11 10 -45 24 -75 31 -30 7 -81 23 -112 35 -31 13 -72 26 -90 30 -18 4 -44 16
-59 26 -14 10 -53 21 -90 24 -35 4 -86 17 -114 30 -27 13 -77 28 -109 34 -33
6 -66 17 -75 25 -9 8 -32 17 -51 21 -73 14 -236 70 -270 91 -19 12 -60 25 -90
29 -30 4 -59 11 -65 15 -33 26 -88 49 -133 55 -34 4 -56 13 -62 24 -6 13 -27
20 -72 25 -34 3 -82 17 -108 30 -26 13 -79 28 -125 34 -52 7 -83 16 -91 27 -7
10 -36 20 -71 25 -33 4 -82 19 -109 33 -33 18 -74 28 -128 33 -54 4 -84 12
-96 24 -11 11 -41 19 -90 23 -53 4 -81 12 -100 27 -36 29 -64 39 -128 46 -31
4 -64 12 -72 19 -8 7 -48 17 -87 23 -40 6 -98 22 -130 37 -45 21 -75 27 -137
29 -71 2 -80 4 -87 24 -5 12 -12 22 -16 23 -4 0 -47 4 -94 8 -66 6 -94 13
-119 31 -21 15 -53 25 -96 29 -43 5 -71 13 -86 28 -17 15 -41 22 -91 26 -58 4
-73 9 -98 33 -25 24 -36 27 -86 26 -74 -2 -92 4 -103 34 -9 22 -15 24 -70 24
-59 0 -133 17 -195 46 -16 7 -61 18 -98 23 -38 6 -76 16 -84 23 -20 16 -82 38
-109 38 -12 0 -38 11 -58 25 -30 20 -49 25 -101 25 -52 0 -69 4 -92 24 -21 18
-46 25 -103 30 -138 12 -189 22 -207 38 -11 10 -47 19 -96 23 -47 5 -86 14
-100 24 -31 24 -91 39 -169 44 -47 3 -74 11 -92 24 -20 16 -48 22 -125 27 -74
6 -106 12 -123 26 -41 32 -99 40 -289 39 -173 0 -185 1 -201 21 -13 16 -28 20
-81 20 -45 0 -70 5 -81 15 -8 8 -28 15 -45 15 -21 0 -31 -5 -31 -15 0 -12 -17
-15 -90 -15 -71 0 -92 3 -96 15 -4 8 -15 15 -25 15 -10 0 -19 -7 -19 -15 0 -9
-9 -15 -25 -15 -16 0 -25 6 -25 15 0 21 -49 19 -66 -2 -13 -17 -15 -17 -28 0
-18 23 -150 25 -172 2 -21 -20 -90 -20 -102 1 -8 15 -10 15 -15 0 -8 -21 -65
-22 -73 -1 -4 8 -12 15 -20 15 -8 0 -14 -7 -14 -15 0 -10 -10 -15 -30 -15 -18
0 -33 6 -36 15 -7 17 -44 21 -44 5 0 -5 -7 -10 -15 -10 -8 0 -15 5 -15 10 0
16 -497 13 -502 -2z m-1868 -258 c0 -5 -13 -10 -29 -10 -17 0 -33 5 -36 10 -4
6 8 10 29 10 20 0 36 -4 36 -10z m4220 -5 c0 -21 -30 -31 -40 -14 -11 17 -3
29 21 29 10 0 19 -7 19 -15z m-4380 -50 c0 -11 -12 -15 -47 -15 -44 1 -47 2
-29 15 26 20 76 20 76 0z m-2200 -642 c0 -20 -4 -24 -22 -21 -26 3 -35 32 -17
54 16 19 39 0 39 -33z m1560 -183 c0 -5 -2 -10 -4 -10 -3 0 -8 5 -11 10 -3 6
-1 10 4 10 6 0 11 -4 11 -10z"/>
<path d="M8173 20651 c-10 -16 -27 -18 -185 -19 -232 -1 -389 -11 -413 -27
-34 -21 -88 -26 -272 -26 -231 1 -374 -13 -433 -42 -35 -17 -70 -23 -160 -27
-91 -4 -121 -10 -144 -25 -21 -14 -48 -20 -90 -21 -34 -1 -126 -7 -205 -13
-119 -10 -147 -15 -157 -30 -10 -14 -33 -19 -99 -25 -50 -3 -96 -13 -110 -22
-13 -8 -56 -23 -97 -33 -42 -10 -83 -26 -95 -38 -17 -17 -39 -21 -139 -27 -85
-6 -124 -12 -136 -23 -10 -9 -36 -16 -59 -16 -23 0 -54 -6 -68 -13 -15 -8 -58
-14 -103 -14 -58 0 -87 -5 -116 -20 -21 -11 -74 -24 -117 -30 -43 -5 -86 -16
-94 -24 -9 -8 -37 -18 -61 -21 -75 -10 -134 -27 -146 -42 -14 -16 -67 -33
-105 -33 -17 0 -29 -8 -37 -24 -12 -27 -100 -80 -149 -91 -18 -3 -36 -12 -40
-19 -5 -8 -24 -21 -43 -31 -19 -10 -45 -28 -57 -41 -12 -13 -33 -24 -47 -24
-24 0 -56 -23 -56 -40 0 -5 -17 -14 -37 -21 -44 -14 -109 -82 -118 -123 -4
-16 -2 -38 5 -51 11 -20 10 -27 -9 -51 -29 -37 -29 -185 0 -223 10 -13 19 -35
19 -49 0 -64 131 -242 178 -242 10 0 33 -11 52 -25 43 -32 129 -36 157 -6 24
24 50 37 96 45 21 4 37 13 37 21 0 13 29 32 128 79 29 15 55 33 58 41 7 18 65
35 119 35 22 0 51 7 63 16 12 8 45 22 74 31 29 8 64 24 77 35 23 17 39 19 171
16 191 -4 302 8 360 38 25 13 58 24 75 24 51 1 189 26 214 39 15 8 80 15 170
18 102 4 157 10 181 21 19 9 66 17 105 18 111 2 259 28 298 53 24 14 68 26
136 34 65 9 107 19 119 30 11 10 36 17 58 17 64 1 216 26 254 43 26 11 104 18
290 26 140 7 269 16 285 21 87 26 222 33 705 33 529 1 570 -2 842 -53 29 -6
97 -10 151 -9 86 1 101 -1 120 -19 17 -16 53 -25 169 -41 81 -11 155 -25 165
-30 48 -27 95 -40 116 -32 26 10 147 -9 217 -33 25 -9 66 -16 91 -16 31 0 55
-7 73 -21 21 -16 34 -19 69 -14 28 4 62 1 97 -9 30 -9 68 -16 85 -16 17 0 41
-7 53 -16 37 -26 81 -36 197 -43 74 -5 122 -13 145 -25 19 -9 73 -21 120 -27
109 -12 137 -17 180 -33 58 -22 128 -36 180 -36 37 0 55 -5 70 -20 13 -13 49
-26 98 -35 43 -8 96 -23 118 -34 28 -13 72 -20 155 -24 85 -4 128 -11 160 -25
26 -12 80 -23 132 -27 71 -6 90 -10 101 -27 12 -16 38 -24 140 -38 71 -10 135
-25 148 -34 12 -9 37 -16 55 -16 18 0 47 -6 65 -14 39 -16 113 -35 186 -48 29
-4 70 -19 90 -32 25 -16 58 -26 98 -29 40 -3 83 -16 125 -36 52 -25 76 -31
132 -31 53 0 75 -5 97 -20 16 -11 48 -27 71 -35 23 -8 56 -24 74 -35 18 -11
39 -20 46 -20 8 0 37 -12 64 -25 28 -14 56 -25 63 -25 7 0 32 -12 55 -27 75
-49 81 -53 117 -68 19 -9 43 -20 53 -25 9 -6 52 -24 95 -41 42 -17 88 -37 101
-46 13 -8 52 -23 87 -33 35 -10 76 -28 90 -39 15 -12 33 -21 41 -21 42 0 232
-78 261 -106 8 -9 35 -14 69 -14 43 0 72 -8 121 -31 40 -20 88 -34 126 -38 34
-4 72 -14 86 -24 13 -9 34 -17 45 -17 11 0 39 -11 61 -24 23 -13 64 -28 90
-34 161 -36 221 -55 302 -93 23 -12 90 -28 150 -36 70 -10 115 -22 131 -34 13
-11 39 -19 58 -19 18 0 66 -12 106 -26 39 -14 105 -32 146 -40 41 -8 80 -19
87 -24 6 -6 48 -15 93 -20 44 -5 89 -13 98 -19 10 -5 45 -12 78 -16 33 -4 71
-13 85 -20 14 -7 45 -16 70 -20 25 -4 58 -14 74 -22 54 -28 122 -43 195 -43
66 0 76 -3 97 -25 17 -19 33 -25 64 -25 22 0 66 -11 98 -24 31 -13 86 -33 122
-45 36 -11 83 -27 105 -35 22 -8 56 -15 75 -16 22 0 52 -12 79 -30 37 -25 54
-30 106 -30 50 0 70 -5 98 -24 20 -14 53 -28 74 -32 21 -4 52 -13 69 -20 18
-8 68 -13 120 -12 100 1 213 -24 255 -54 18 -14 49 -22 95 -25 49 -4 82 -13
113 -31 32 -18 58 -25 90 -23 57 2 89 -9 228 -75 62 -30 118 -54 126 -54 7 0
45 -11 83 -23 38 -13 100 -27 138 -31 37 -4 86 -16 106 -26 21 -11 75 -26 119
-34 45 -7 92 -21 105 -29 32 -21 134 -47 185 -47 23 0 56 -7 73 -16 17 -9 68
-22 114 -29 79 -13 244 -63 420 -126 113 -41 265 -72 362 -75 46 -2 115 -10
155 -18 46 -10 159 -17 312 -21 192 -5 253 -10 305 -25 56 -16 124 -20 480
-29 516 -14 1676 -13 1910 0 259 15 383 25 400 33 8 3 101 10 207 14 170 7
194 10 213 27 18 17 38 20 117 22 79 2 107 7 170 33 91 36 190 54 259 45 45
-5 55 -3 82 19 29 25 35 26 156 26 118 0 129 2 164 25 35 23 51 26 203 34 96
5 175 14 189 21 13 7 40 10 61 7 21 -3 42 0 49 7 7 7 49 10 119 9 l108 -2 41
40 c39 37 45 39 103 39 35 0 72 6 87 15 15 8 44 21 65 30 22 8 41 23 44 34 4
15 19 23 62 31 31 6 69 20 84 31 21 15 59 23 153 33 99 10 131 18 154 35 16
11 35 21 42 21 8 0 31 9 53 20 29 15 59 20 113 20 77 0 152 18 214 50 20 11
53 20 73 20 35 0 63 10 135 50 24 13 56 19 101 20 53 0 71 4 99 25 19 14 44
25 57 25 15 0 27 9 34 24 7 15 23 26 42 30 34 7 67 32 67 52 0 8 9 28 20 46
11 18 20 42 20 53 0 11 12 31 25 44 15 14 34 52 46 95 12 40 32 81 45 94 29
27 29 28 5 94 -10 29 -22 67 -26 83 -10 46 -47 88 -106 120 -30 16 -58 34 -64
40 -5 6 -30 27 -55 46 -44 35 -48 36 -180 48 -74 7 -164 17 -200 22 -78 12
-130 12 -145 -1 -29 -24 -149 -60 -200 -60 -101 0 -260 -21 -335 -45 -77 -24
-255 -43 -455 -48 -79 -2 -123 -10 -208 -36 -59 -17 -126 -41 -150 -51 -23
-11 -60 -20 -81 -20 -27 0 -47 -7 -63 -22 -18 -17 -51 -27 -129 -40 -58 -10
-126 -25 -151 -33 -24 -8 -99 -19 -166 -24 -67 -5 -156 -18 -197 -30 -41 -11
-126 -25 -187 -30 -71 -7 -131 -18 -160 -31 -27 -11 -77 -24 -113 -29 -36 -6
-119 -22 -185 -36 -66 -14 -150 -30 -186 -35 -36 -5 -79 -16 -95 -25 -16 -8
-54 -15 -84 -15 -75 0 -273 -25 -296 -38 -11 -5 -193 -12 -433 -16 -228 -4
-419 -10 -425 -14 -6 -4 -173 -10 -371 -15 -198 -4 -432 -10 -519 -13 -100 -3
-170 -1 -189 6 -18 6 -184 12 -411 16 -365 5 -663 23 -751 46 -22 6 -89 14
-150 18 -61 4 -127 14 -148 23 -42 18 -142 32 -291 42 -54 4 -135 17 -180 30
-44 12 -115 26 -156 30 -74 6 -262 58 -288 78 -7 6 -61 16 -120 23 -58 8 -128
23 -154 34 -25 11 -58 20 -73 20 -14 0 -53 14 -87 31 -37 18 -89 35 -130 41
-64 8 -186 55 -218 83 -8 7 -61 18 -118 24 -57 6 -117 18 -133 27 -17 8 -76
21 -132 29 -56 7 -136 25 -177 38 -41 13 -104 28 -140 31 -39 5 -73 14 -85 25
-20 18 -141 51 -186 51 -38 0 -179 37 -223 59 -61 29 -279 91 -320 91 -26 0
-42 7 -58 25 -12 14 -31 25 -44 25 -12 0 -70 16 -130 36 -60 19 -138 38 -174
40 -36 3 -85 14 -110 24 -25 10 -81 23 -125 30 -44 7 -96 19 -115 27 -19 8
-74 19 -122 24 -48 4 -109 17 -135 28 -27 11 -82 27 -123 36 -41 10 -88 21
-105 25 -16 5 -75 14 -130 21 -55 7 -116 20 -135 29 -19 10 -66 20 -105 24
-44 4 -93 18 -130 35 -33 15 -81 31 -107 34 -25 4 -68 16 -95 28 -26 12 -61
27 -78 34 -58 24 -161 47 -260 57 -66 7 -107 16 -120 27 -11 10 -42 23 -69 29
-27 7 -62 22 -78 33 -22 16 -53 23 -127 29 -58 4 -108 14 -122 23 -13 8 -42
18 -64 22 -22 3 -60 19 -85 35 -25 15 -58 31 -73 34 -16 4 -46 18 -67 32 -31
20 -51 26 -94 25 -43 0 -62 5 -93 26 -21 14 -51 30 -68 36 -16 6 -41 18 -54
29 -13 10 -30 18 -37 18 -7 0 -37 14 -68 30 -30 17 -78 35 -108 40 -29 6 -57
16 -63 24 -5 7 -26 18 -46 25 -20 6 -51 23 -69 36 -19 14 -50 28 -69 31 -20 3
-47 13 -61 22 -13 8 -53 21 -88 29 -35 7 -75 22 -88 32 -16 12 -49 21 -99 26
-53 5 -82 13 -101 28 -19 14 -47 22 -98 26 -55 5 -79 12 -106 32 -25 19 -51
28 -93 31 -42 3 -64 11 -82 28 -22 21 -36 24 -118 26 -123 2 -234 18 -255 37
-19 16 -66 32 -127 42 -21 4 -51 13 -65 20 -14 7 -61 18 -105 24 -47 7 -86 18
-98 28 -13 12 -53 21 -134 30 -63 6 -125 18 -136 25 -25 16 -97 33 -172 43
-27 4 -70 13 -95 21 -25 8 -110 21 -189 29 -89 9 -150 20 -160 29 -9 7 -52 16
-100 20 -104 8 -171 23 -191 41 -10 9 -60 18 -130 25 -64 6 -148 21 -190 35
-42 13 -114 26 -164 29 -61 4 -99 12 -120 25 -22 13 -64 22 -143 28 -101 9
-115 12 -138 35 -23 24 -36 27 -123 31 -129 7 -177 13 -193 22 -16 11 -188 34
-251 35 -33 0 -58 7 -84 25 -30 20 -49 25 -100 25 -75 0 -160 16 -193 37 -18
12 -68 16 -215 20 -105 2 -204 9 -219 15 -21 8 -34 8 -51 -2 -20 -10 -28 -9
-50 5 -21 14 -29 15 -41 5 -8 -6 -51 -14 -95 -17 -72 -5 -84 -4 -110 16 -38
28 -110 29 -127 2z"/>
</g>
</svg>
