<?xml version="1.0" standalone="no"?>
<!DOCTYPE svg PUBLIC "-//W3C//DTD SVG 20010904//EN"
 "http://www.w3.org/TR/2001/REC-SVG-20010904/DTD/svg10.dtd">
<svg version="1.0" xmlns="http://www.w3.org/2000/svg"
 width="443.000000pt" height="141.000000pt" viewBox="0 0 443.000000 141.000000"
 preserveAspectRatio="xMidYMid meet">

<g transform="translate(0.000000,141.000000) scale(0.100000,-0.100000)"
fill="#000000" stroke="none">
<path d="M860 1169 c-63 -4 -169 -17 -235 -28 -183 -33 -433 -121 -493 -172
-18 -16 -39 -29 -47 -29 -36 0 -50 -101 -16 -120 29 -15 49 -12 74 10 12 12
33 23 47 27 14 3 44 17 66 30 54 31 180 76 269 97 39 9 88 21 110 26 79 19
213 30 385 31 201 1 322 -18 550 -86 25 -7 100 -29 168 -49 68 -19 169 -52
225 -72 56 -20 133 -48 171 -61 81 -29 348 -94 526 -129 69 -13 177 -35 240
-49 286 -63 324 -67 537 -67 186 1 207 2 280 25 43 14 128 33 188 42 161 25
373 102 393 143 23 45 21 78 -6 112 -31 37 -15 39 -212 -28 -63 -22 -160 -48
-215 -57 -55 -10 -138 -26 -185 -37 -150 -33 -222 -40 -375 -35 -126 3 -187
11 -385 51 -619 122 -684 137 -890 205 -102 33 -230 72 -285 86 -55 15 -149
41 -210 59 -60 19 -145 41 -187 51 -93 21 -331 32 -488 24z"/>
<path d="M1099 855 c-3 -2 -36 -5 -74 -6 -98 -3 -173 -15 -372 -59 -81 -19
-152 -48 -185 -78 -25 -21 -22 -66 5 -97 l22 -26 68 31 c37 17 72 28 77 25 4
-3 30 -1 57 5 229 45 304 55 448 54 122 0 176 -5 289 -27 291 -57 483 -108
589 -156 88 -41 191 -74 357 -117 73 -19 163 -43 200 -53 36 -11 94 -27 130
-36 36 -9 119 -32 185 -51 182 -52 220 -56 495 -57 205 -1 271 2 335 16 44 9
111 21 150 26 38 6 106 22 150 35 44 14 106 33 138 41 46 13 62 22 78 48 26
43 21 67 -19 90 -31 18 -40 19 -130 7 -53 -6 -131 -20 -172 -31 -188 -47 -292
-61 -510 -66 -298 -7 -370 4 -805 127 -55 15 -136 36 -180 45 -44 9 -109 26
-145 36 -36 11 -83 24 -105 31 -79 22 -121 37 -185 66 -36 16 -87 34 -115 41
-27 7 -75 19 -105 26 -70 18 -383 80 -475 94 -82 13 -191 22 -196 16z"/>
</g>
</svg>
